<svg width="28" height="36" viewBox="0 0 28 36" fill="none" xmlns="http://www.w3.org/2000/svg">
<path d="M28 36L26 34L24 36L22 34L20 36L18 34L16 36L14 34L12 36L10 34L8 36L6 34L4 36L2 34L0 36V0L2 2L3.958 0L6 2L8.042 0L10 2L12.042 0L14 2L16.083 0L18 2L20.125 0L22 2L23.958 0L26 2L28 0V36Z" fill="#CCD6DD"/>
<path d="M15 17H5C4.45 17 4 16.55 4 16C4 15.45 4.45 15 5 15H15C15.55 15 16 15.45 16 16C16 16.55 15.55 17 15 17ZM23 17H19C18.45 17 18 16.55 18 16C18 15.45 18.45 15 19 15H23C23.55 15 24 15.45 24 16C24 16.55 23.55 17 23 17ZM15 21H5C4.45 21 4 20.55 4 20C4 19.45 4.45 19 5 19H15C15.55 19 16 19.45 16 20C16 20.55 15.55 21 15 21ZM23 21H19C18.45 21 18 20.55 18 20C18 19.45 18.45 19 19 19H23C23.55 19 24 19.45 24 20C24 20.55 23.55 21 23 21ZM23 27H5C4.45 27 4 26.55 4 26C4 25.45 4.45 25 5 25H23C23.55 25 24 25.45 24 26C24 26.55 23.55 27 23 27ZM23 31H19C18.45 31 18 30.55 18 30C18 29.45 18.45 29 19 29H23C23.55 29 24 29.45 24 30C24 30.55 23.55 31 23 31Z" fill="#99AAB5"/>
<path d="M14 12C16.2091 12 18 10.2091 18 8C18 5.79086 16.2091 4 14 4C11.7909 4 10 5.79086 10 8C10 10.2091 11.7909 12 14 12Z" fill="#99AAB5"/>
</svg>
