<svg width="36" height="41" viewBox="0 0 36 41" fill="none" xmlns="http://www.w3.org/2000/svg">
<path d="M34 12.4319C34 13.7863 33.104 14.8854 32 14.8854H26C24.896 14.8854 24 13.7863 24 12.4319V9.97841C24 8.62408 24.896 7.5249 26 7.5249H32C33.104 7.5249 34 8.62408 34 9.97841V12.4319ZM12 12.4319C12 13.7863 11.104 14.8854 10 14.8854H4C2.896 14.8854 2 13.7863 2 12.4319V9.97841C2 8.62408 2.896 7.5249 4 7.5249H10C11.104 7.5249 12 8.62408 12 9.97841V12.4319Z" fill="#DAC8B1"/>
<path d="M36 38.1932C36 39.5475 35.104 40.6467 34 40.6467H2C0.896 40.6467 0 39.5475 0 38.1932V12.4315C0 11.0772 0.896 9.97803 2 9.97803H34C35.104 9.97803 36 11.0772 36 12.4315V38.1932Z" fill="#F1DCC1"/>
<path d="M22 7.52471V5.07116C22 4.1658 21.596 3.38312 21 2.95743V2.61761C21 1.26325 20.104 0.164062 19 0.164062H17C15.896 0.164062 15 1.26325 15 2.61761V2.95743C14.405 3.38312 14 4.1658 14 5.07116V7.52471H13V40.6476H23V7.52471H22Z" fill="#DAC8B1"/>
<path d="M14 5.07129H16V7.52487H14V5.07129ZM20 5.07129H22V7.52487H20V5.07129ZM17 5.07129H19V7.52487H17V5.07129Z" fill="#2C8EEA"/>
<path d="M15 14.8848H17V32.0599H15V14.8848ZM19 14.8848H21V32.0599H19V14.8848Z" fill="#F3F4F8"/>
<path d="M24 17.3384H26V32.0596H24V17.3384ZM28 17.3384H30V32.0596H28V17.3384ZM32 17.3384H34V32.0596H32V17.3384ZM2 17.3384H4V32.0596H2V17.3384ZM6 17.3384H8V32.0596H6V17.3384ZM10 17.3384H12V32.0596H10V17.3384ZM2 33.2864H4V35.7399H2V33.2864ZM6 33.2864H8V35.7399H6V33.2864ZM10 33.2864H12V35.7399H10V33.2864Z" fill="#2C8EEA"/>
<path d="M15 33.2861H17V35.7399H15V33.2861ZM19 33.2861H21V35.7399H19V33.2861Z" fill="#F3F4F8"/>
<path d="M24 33.2861H26V35.7399H24V33.2861ZM28 33.2861H30V35.7399H28V33.2861ZM32 33.2861H34V35.7399H32V33.2861Z" fill="#2C8EEA"/>
<path d="M2 36.9658H4V40.6466H2V36.9658ZM6 36.9658H8V40.6466H6V36.9658ZM10 36.9658H12V40.6466H10V36.9658ZM15 36.9658H17V40.6466H15V36.9658ZM19 36.9658H21V40.6466H19V36.9658ZM24 36.9658H26V40.6466H24V36.9658ZM28 36.9658H30V40.6466H28V36.9658ZM32 36.9658H34V40.6466H32V36.9658Z" fill="#66757F"/>
</svg>
