<svg width="35" height="36" viewBox="0 0 35 36" fill="none" xmlns="http://www.w3.org/2000/svg">
<path d="M28 8.263C28 8.118 27.883 8 27.737 8H27.262C27.117 8 26.999 8.118 26.999 8.263V19.738C26.999 19.883 27.116 20.001 27.262 20.001H27.737C27.882 20.001 28 19.884 28 19.738V8.263Z" fill="#66757F"/>
<path d="M27.5 21C28.3284 21 29 20.3284 29 19.5C29 18.6716 28.3284 18 27.5 18C26.6716 18 26 18.6716 26 19.5C26 20.3284 26.6716 21 27.5 21Z" fill="#F19020"/>
<path d="M27.5 23C28.0523 23 28.5 22.5523 28.5 22C28.5 21.4477 28.0523 21 27.5 21C26.9477 21 26.5 21.4477 26.5 22C26.5 22.5523 26.9477 23 27.5 23Z" fill="#F19020"/>
<path d="M33 8H28.871L9.696 0.04L9.694 0.039H9.693C9.677 0.032 9.661 0.034 9.646 0.029C9.599 0.015 9.552 0 9.5 0H9.498C9.432 0 9.368 0.014 9.308 0.038C9.263 0.058 9.224 0.088 9.186 0.12C9.174 0.129 9.16 0.134 9.149 0.145C9.102 0.191 9.064 0.247 9.039 0.309V0.31C9.035 0.319 9.036 0.33 9.033 0.339L3.492 8.149C3.489 8.153 3.489 8.159 3.486 8.163C3.201 8.339 3 8.64 3 9V11C3 11.552 3.448 12 4 12H5.495L1.781 33.75H0V35.75H18.958V33.75H17.218L13.505 12H33C33.553 12 34 11.552 34 11V9C34 8.448 33.553 8 33 8ZM11.231 12L9.5 13.389L7.77 12H11.231V12ZM9.5 21.05L13.167 23.454L9.5 25.454L5.833 23.454L9.5 21.05ZM5.861 21.76L6.335 18.976L8.201 20.199L5.861 21.76ZM10.799 20.199L12.669 18.974L13.146 21.763L10.799 20.199V20.199ZM9.5 19.333L6.672 17.448L9.5 15.126L12.328 17.448L9.5 19.333ZM6.937 15.446L7.299 13.319L8.43 14.247L6.937 15.446V15.446ZM10.57 14.248L11.702 13.319L12.066 15.449L10.57 14.248ZM4.823 8L9 2.112V6H7C6.448 6 6 6.448 6 7V8H4.823ZM5.353 24.738L8.083 26.227L4.793 28.021L5.353 24.738V24.738ZM15.193 33.75H3.817L4.503 29.726L9.5 27L14.506 29.731L15.193 33.75ZM13.653 24.735L14.215 28.026L10.917 26.227L13.653 24.735ZM13 8V7C13 6.448 12.552 6 12 6H10V1.249L26.263 8H13ZM15 11H13.84V9H15V11ZM18 11H16V9H18V11ZM21 11H19V9H21V11ZM24 11H22V9H24V11ZM27 11H25V9H27V11ZM30 11H28V9H30V11ZM33 10.5C33 10.776 32.776 11 32.5 11H31V9H32.5C32.776 9 33 9.224 33 9.5V10.5Z" fill="#BD2032"/>
<path d="M12 7H10C9.448 7 9 7.448 9 8V10C9 10.552 9.448 11 10 11H13V7H12Z" fill="#4B545D"/>
<path d="M11 7H13V11H11V7Z" fill="#CDD7DF"/>
<path d="M34.5943 23.75V22.75H20.4062V23.75H21.2502V26.219H20.4062V27.219H34.5943V26.219H33.7502V23.75H34.5943Z" fill="#66757F"/>
</svg>
