<svg width="36" height="21" viewBox="0 0 36 21" fill="none" xmlns="http://www.w3.org/2000/svg">
<path d="M35 4C35 4.553 34.553 5 34 5H31C30.447 5 30 4.553 30 4V2C30 1.448 30.447 1 31 1H34C34.553 1 35 1.448 35 2V4Z" fill="#66757F"/>
<path d="M32 3H34V10H32V3Z" fill="#66757F"/>
<path d="M6 4.219C6 4.219 11 0 16 0H16.029L16 5C16 5 16 6 12 6C8 6 6 4.219 6 4.219Z" fill="#E1E8ED"/>
<path d="M7.24805 4.10097C10.798 1.40997 14 1.04297 15 1.04297V4.99997C15 8.16197 7.24805 4.10097 7.24805 4.10097Z" fill="#3B88C3"/>
<path d="M33 9.96394C33 9.96394 33.5 5.95094 32 4.23294L1 3.08594C1 3.08594 3 6.52494 7 8.81794C11 11.1089 33 9.96394 33 9.96394Z" fill="#CCD6DD"/>
<path d="M7.00012 8.81687C11.0001 11.1089 33.0001 9.96287 33.0001 9.96287C33.0001 9.96287 33.2881 7.62787 32.7601 5.75687L2.07812 4.58887C3.05512 5.79387 4.69212 7.49387 7.00012 8.81687Z" fill="#F4900C"/>
<path d="M0 9H36V21H0V9Z" fill="#55ACEE"/>
</svg>
