<svg width="43" height="39" viewBox="0 0 43 39" fill="none" xmlns="http://www.w3.org/2000/svg">
<path d="M23.045 11.8184C23.3714 11.8184 23.6359 11.0247 23.6359 10.0457C23.6359 9.06663 23.3714 8.27295 23.045 8.27295C22.7187 8.27295 22.4541 9.06663 22.4541 10.0457C22.4541 11.0247 22.7187 11.8184 23.045 11.8184Z" fill="#EA596E"/>
<path d="M30.1368 11.8184C30.4632 11.8184 30.7277 11.0247 30.7277 10.0457C30.7277 9.06663 30.4632 8.27295 30.1368 8.27295C29.8105 8.27295 29.5459 9.06663 29.5459 10.0457C29.5459 11.0247 29.8105 11.8184 30.1368 11.8184Z" fill="#EA596E"/>
<path d="M25.4093 11.8184C25.7356 11.8184 26.0002 11.0247 26.0002 10.0457C26.0002 9.06663 25.7356 8.27295 25.4093 8.27295C25.0829 8.27295 24.8184 9.06663 24.8184 10.0457C24.8184 11.0247 25.0829 11.8184 25.4093 11.8184Z" fill="#A6D388"/>
<path d="M21.8634 11.8184C22.1897 11.8184 22.4543 11.0247 22.4543 10.0457C22.4543 9.06663 22.1897 8.27295 21.8634 8.27295C21.537 8.27295 21.2725 9.06663 21.2725 10.0457C21.2725 11.0247 21.537 11.8184 21.8634 11.8184Z" fill="#A6D388"/>
<path d="M26.5909 11.8184C26.9173 11.8184 27.1818 11.0247 27.1818 10.0457C27.1818 9.06663 26.9173 8.27295 26.5909 8.27295C26.2646 8.27295 26 9.06663 26 10.0457C26 11.0247 26.2646 11.8184 26.5909 11.8184Z" fill="#55ACEE"/>
<path d="M31.3184 11.8184C31.6448 11.8184 31.9094 11.0247 31.9094 10.0457C31.9094 9.06663 31.6448 8.27295 31.3184 8.27295C30.9921 8.27295 30.7275 9.06663 30.7275 10.0457C30.7275 11.0247 30.9921 11.8184 31.3184 11.8184Z" fill="#55ACEE"/>
<path d="M36.045 17.7271C36.3714 17.7271 36.6359 16.9334 36.6359 15.9544C36.6359 14.9753 36.3714 14.1816 36.045 14.1816C35.7187 14.1816 35.4541 14.9753 35.4541 15.9544C35.4541 16.9334 35.7187 17.7271 36.045 17.7271Z" fill="#55ACEE"/>
<path d="M4.13681 17.7271C4.46316 17.7271 4.72772 16.9334 4.72772 15.9544C4.72772 14.9753 4.46316 14.1816 4.13681 14.1816C3.81046 14.1816 3.5459 14.9753 3.5459 15.9544C3.5459 16.9334 3.81046 17.7271 4.13681 17.7271Z" fill="#55ACEE"/>
<path d="M38.4093 17.7271C38.7356 17.7271 39.0002 16.9334 39.0002 15.9544C39.0002 14.9753 38.7356 14.1816 38.4093 14.1816C38.0829 14.1816 37.8184 14.9753 37.8184 15.9544C37.8184 16.9334 38.0829 17.7271 38.4093 17.7271Z" fill="#A6D388"/>
<path d="M7.68173 17.7271C8.00808 17.7271 8.27264 16.9334 8.27264 15.9544C8.27264 14.9753 8.00808 14.1816 7.68173 14.1816C7.35538 14.1816 7.09082 14.9753 7.09082 15.9544C7.09082 16.9334 7.35538 17.7271 7.68173 17.7271Z" fill="#A6D388"/>
<path d="M39.5909 17.7271C39.9173 17.7271 40.1818 16.9334 40.1818 15.9544C40.1818 14.9753 39.9173 14.1816 39.5909 14.1816C39.2646 14.1816 39 14.9753 39 15.9544C39 16.9334 39.2646 17.7271 39.5909 17.7271Z" fill="#F4900C"/>
<path d="M6.50009 17.7271C6.82644 17.7271 7.091 16.9334 7.091 15.9544C7.091 14.9753 6.82644 14.1816 6.50009 14.1816C6.17374 14.1816 5.90918 14.9753 5.90918 15.9544C5.90918 16.9334 6.17374 17.7271 6.50009 17.7271Z" fill="#F4900C"/>
<path d="M27.7725 13C28.0989 13 28.3635 12.2064 28.3635 11.2273C28.3635 10.2483 28.0989 9.45459 27.7725 9.45459C27.4462 9.45459 27.1816 10.2483 27.1816 11.2273C27.1816 12.2064 27.4462 13 27.7725 13Z" fill="#F4900C"/>
<path d="M34.2725 15.9544V13.5908C34.2725 13.2646 34.5373 12.9999 34.8634 12.9999H37.1089L36.6362 10.6362H8.27253L7.7998 12.9999H8.86344C9.18962 12.9999 9.45435 13.2646 9.45435 13.5908V15.9544C9.45435 16.2806 9.18962 16.5453 8.86344 16.5453H33.6816C33.3554 16.5453 34.2725 16.2806 34.2725 15.9544Z" fill="#CCD6DD"/>
<path d="M16.5458 15.9545C16.5458 16.2807 16.2811 16.5455 15.9549 16.5455H11.2276C10.9014 16.5455 10.6367 16.2807 10.6367 15.9545V13.5909C10.6367 13.2647 10.9014 13 11.2276 13H15.9549C16.2811 13 16.5458 13.2647 16.5458 13.5909V15.9545ZM24.8185 15.9545C24.8185 16.2807 24.5538 16.5455 24.2276 16.5455H19.5004C19.1742 16.5455 18.9094 16.2807 18.9094 15.9545V13.5909C18.9094 13.2647 19.1742 13 19.5004 13H24.2276C24.5538 13 24.8185 13.2647 24.8185 13.5909V15.9545ZM33.0913 15.9545C33.0913 16.2807 32.8265 16.5455 32.5004 16.5455H27.7731C27.4469 16.5455 27.1822 16.2807 27.1822 15.9545V13.5909C27.1822 13.2647 27.4469 13 27.7731 13H32.5004C32.8265 13 33.0913 13.2647 33.0913 13.5909V15.9545Z" fill="#66757F"/>
<path d="M39.4749 25.655C39.4749 25.655 41.3635 20.091 41.3635 15.3638H1.18164C2.36346 17.7274 4.49073 21.9311 6.19255 23.4923C12.1076 28.9192 39.4749 25.655 39.4749 25.655Z" fill="#CCD6DD"/>
<path d="M4.44531 21.2729C5.04095 22.1841 5.63895 22.9842 6.19204 23.4924C12.1059 28.9193 39.4744 25.6551 39.4744 25.6551C39.4744 25.6551 40.1102 23.7725 40.6444 21.2729H4.44531Z" fill="#DD2E44"/>
<path d="M9.45446 19.4998C9.45446 19.826 9.18973 20.0907 8.86355 20.0907H7.68173C7.35555 20.0907 7.09082 19.826 7.09082 19.4998V18.318C7.09082 17.9918 7.35555 17.7271 7.68173 17.7271H8.86355C9.18973 17.7271 9.45446 17.9918 9.45446 18.318V19.4998ZM14.1817 19.4998C14.1817 19.826 13.917 20.0907 13.5908 20.0907H12.409C12.0828 20.0907 11.8181 19.826 11.8181 19.4998V18.318C11.8181 17.9918 12.0828 17.7271 12.409 17.7271H13.5908C13.917 17.7271 14.1817 17.9918 14.1817 18.318V19.4998ZM18.909 19.4998C18.909 19.826 18.6443 20.0907 18.3181 20.0907H17.1363C16.8101 20.0907 16.5454 19.826 16.5454 19.4998V18.318C16.5454 17.9918 16.8101 17.7271 17.1363 17.7271H18.3181C18.6443 17.7271 18.909 17.9918 18.909 18.318V19.4998ZM23.6363 19.4998C23.6363 19.826 23.3715 20.0907 23.0454 20.0907H21.8635C21.5374 20.0907 21.2726 19.826 21.2726 19.4998V18.318C21.2726 17.9918 21.5374 17.7271 21.8635 17.7271H23.0454C23.3715 17.7271 23.6363 17.9918 23.6363 18.318V19.4998ZM28.3635 19.4998C28.3635 19.826 28.0988 20.0907 27.7726 20.0907H26.5908C26.2646 20.0907 25.9999 19.826 25.9999 19.4998V18.318C25.9999 17.9918 26.2646 17.7271 26.5908 17.7271H27.7726C28.0988 17.7271 28.3635 17.9918 28.3635 18.318V19.4998ZM33.0908 19.4998C33.0908 19.826 32.8261 20.0907 32.4999 20.0907H31.3181C30.9919 20.0907 30.7272 19.826 30.7272 19.4998V18.318C30.7272 17.9918 30.9919 17.7271 31.3181 17.7271H32.4999C32.8261 17.7271 33.0908 17.9918 33.0908 18.318V19.4998ZM37.8181 19.4998C37.8181 19.826 37.5534 20.0907 37.2272 20.0907H36.0454C35.7192 20.0907 35.4545 19.826 35.4545 19.4998V18.318C35.4545 17.9918 35.7192 17.7271 36.0454 17.7271H37.2272C37.5534 17.7271 37.8181 17.9918 37.8181 18.318V19.4998Z" fill="#66757F"/>
<path d="M17.7271 11.818L7.7998 12.9998L8.86344 5.66309H17.7271V11.818Z" fill="#CCD6DD"/>
<path d="M16.5455 5.31818C16.5455 5.64436 16.2807 5.90909 15.9545 5.90909C15.6284 5.90909 15.3636 5.64436 15.3636 5.31818V0.590909C15.3636 0.264727 15.6284 0 15.9545 0C16.2807 0 16.5455 0.264727 16.5455 0.590909V5.31818ZM14.1818 7.68182C14.1818 8.008 13.9171 8.27273 13.5909 8.27273C13.2647 8.27273 13 8.008 13 7.68182V2.95455C13 2.62836 13.2647 2.36364 13.5909 2.36364C13.9171 2.36364 14.1818 2.62836 14.1818 2.95455V7.68182Z" fill="#CCD6DD"/>
<path d="M18.3179 5.61341C18.3179 5.77651 18.0532 5.90887 17.727 5.90887H8.86337C8.53719 5.90887 8.27246 5.77651 8.27246 5.61341V5.02251C8.27246 4.85941 8.53719 4.72705 8.86337 4.72705H17.727C18.0532 4.72705 18.3179 4.85941 18.3179 5.02251V5.61341Z" fill="#226699"/>
<path d="M15.9548 7.09082H8.68658L8.33203 9.45446H15.9548C16.2809 9.45446 16.5457 9.18973 16.5457 8.86355V7.68173C16.5457 7.35555 16.2809 7.09082 15.9548 7.09082Z" fill="#66757F"/>
<path d="M13 5.90918H14.1818V10.6365H13V5.90918Z" fill="#CCD6DD"/>
<path d="M0 24.8184H42.5455V39.0002H0V24.8184Z" fill="#55ACEE"/>
</svg>
