<svg width="36" height="41" viewBox="0 0 36 41" fill="none" xmlns="http://www.w3.org/2000/svg">
<path d="M4 16.936H32V40.2451H4V16.936Z" fill="#CCD6DD"/>
<path d="M6 12.0303H29V18.1636H6V12.0303Z" fill="#226699"/>
<path d="M1 10.8022V37.7908C1 39.1452 1.896 40.2443 3 40.2443H7V10.8022H1ZM29 10.8022V40.2443H33C34.104 40.2443 35 39.1452 35 37.7908V10.8022H29Z" fill="#AAB8C2"/>
<path d="M14 23.0708H22V36.5645H14V23.0708Z" fill="#F2F9FF"/>
<path d="M22 19.3906C21.705 19.3906 21.442 19.8702 21.26 20.6172H14.74C14.557 19.8702 14.295 19.3906 14 19.3906C13.448 19.3906 13 21.0392 13 23.0704C13 25.1029 13.448 26.7502 14 26.7502C14.552 26.7502 15 25.1029 15 23.0704H21C21 25.1029 21.447 26.7502 22 26.7502C22.553 26.7502 23 25.1029 23 23.0704C23 21.0392 22.553 19.3906 22 19.3906Z" fill="#226699"/>
<path d="M3 16.936H5V19.3897H3V16.936ZM9 20.6165H11V23.0702H9V20.6165ZM25 20.6165H27V23.0702H25V20.6165ZM9 25.5238H11V27.9775H9V25.5238ZM25 25.5238H27V27.9775H25V25.5238ZM3 21.8433H5V24.297H3V21.8433ZM31 16.936H33V19.3897H31V16.936ZM31 21.8433H33V24.297H31V21.8433Z" fill="#66757F"/>
<path d="M13 23.0708H23V27.9777H13V23.0708Z" fill="#F2F9FF"/>
<path d="M18 27.9771C16.896 27.9771 16 29.0764 16 30.431V36.566H20V30.431C20 29.0764 19.104 27.9771 18 27.9771Z" fill="#66757F"/>
<path d="M12 36.5649H24V40.2455H12V36.5649Z" fill="#8899A6"/>
<path d="M1 10.8038H7C7 10.8038 5 0.98877 4 0.98877C3 0.98877 1 10.8038 1 10.8038ZM29 10.8038H35C35 10.8038 33 0.98877 32 0.98877C31 0.98877 29 10.8038 29 10.8038Z" fill="#226699"/>
<path d="M8 13.2571C8 13.9343 7.552 14.4839 7 14.4839H1C0.448 14.4839 0 13.9343 0 13.2571C0 12.5799 0.448 12.0303 1 12.0303H7C7.552 12.0303 8 12.5799 8 13.2571ZM36 13.2571C36 13.9343 35.553 14.4839 35 14.4839H29C28.447 14.4839 28 13.9343 28 13.2571C28 12.5799 28.447 12.0303 29 12.0303H35C35.553 12.0303 36 12.5799 36 13.2571Z" fill="#CCD6DD"/>
</svg>
