<svg width="22" height="36" viewBox="0 0 22 36" fill="none" xmlns="http://www.w3.org/2000/svg">
<path d="M22 34C22 35.105 21.105 36 20 36H2C0.895 36 0 35.105 0 34V2C0 0.895 0.895 0 2 0H20C21.105 0 22 0.895 22 2V34Z" fill="#BF6952"/>
<path d="M4 19.5C4.82843 19.5 5.5 18.8284 5.5 18C5.5 17.1716 4.82843 16.5 4 16.5C3.17157 16.5 2.5 17.1716 2.5 18C2.5 18.8284 3.17157 19.5 4 19.5Z" fill="#FFAC33"/>
<path d="M18 3C17.448 3 17 3.448 17 4V13H4C3.448 13 3 13.448 3 14C3 14.552 3.448 15 4 15H18C18.552 15 19 14.552 19 14V4C19 3.448 18.552 3 18 3ZM18 28C18.552 28 19 28.448 19 29V32C19 32.552 18.552 33 18 33H4C3.448 33 3 32.552 3 32C3 31.448 3.448 31 4 31H17V29C17 28.448 17.448 28 18 28Z" fill="#AC5640"/>
<path d="M4 33C3.448 33 3 32.552 3 32V29C3 28.448 3.448 28 4 28H18C18.552 28 19 28.448 19 29C19 29.552 18.552 30 18 30H5V32C5 32.552 4.552 33 4 33Z" fill="#854836"/>
<path d="M18 21C18.552 21 19 21.448 19 22V25C19 25.552 18.552 26 18 26H4C3.448 26 3 25.552 3 25C3 24.448 3.448 24 4 24H17V22C17 21.448 17.448 21 18 21Z" fill="#AC5640"/>
<path d="M4 26C3.448 26 3 25.552 3 25V22C3 21.448 3.448 21 4 21H18C18.552 21 19 21.448 19 22C19 22.552 18.552 23 18 23H5V25C5 25.552 4.552 26 4 26ZM4 15C3.448 15 3 14.552 3 14V4C3 3.448 3.448 3 4 3H18C18.552 3 19 3.448 19 4C19 4.552 18.552 5 18 5H5V14C5 14.552 4.552 15 4 15Z" fill="#854836"/>
</svg>
