<svg width="33" height="44" viewBox="0 0 33 44" fill="none" xmlns="http://www.w3.org/2000/svg">
<path d="M9.03471 11.1543H4.55446L4.40499 13.5356H9.18418L9.03471 11.1543ZM8.73576 6.3916H4.8534L4.70393 8.77294H8.88524L8.73576 6.3916ZM9.33268 15.917H4.25649L4.10702 18.2983H9.48215L9.33268 15.917ZM3.88281 21.8703H9.70636L9.63162 20.6797H3.95755L3.88281 21.8703ZM19.0386 15.917H13.9624L13.8129 18.2983H19.1881L19.0386 15.917ZM13.5887 21.8703H19.4123L19.3375 20.6797H13.6635L13.5887 21.8703ZM18.7406 11.1543H14.2604L14.1109 13.5356H18.8901L18.7406 11.1543ZM18.4417 6.3916H14.5593L14.4098 8.77294H18.5911L18.4417 6.3916ZM28.4465 11.1543H23.9663L23.8168 13.5356H28.596L28.4465 11.1543ZM23.3694 20.6797L23.2946 21.8703H29.1182L29.0434 20.6797H23.3694ZM28.7445 15.917H23.6683L23.5188 18.2983H28.894L28.7445 15.917ZM28.1476 6.3916H24.2652L24.1157 8.77294H28.297L28.1476 6.3916Z" fill="#BE1931"/>
<path d="M9.18365 13.5364H4.40447L4.25597 15.9179H9.33215L9.18365 13.5364ZM8.88471 8.77344H4.70341L4.55394 11.1549H9.03418L8.88471 8.77344ZM4.1065 18.2994L3.95703 20.6809H9.63109L9.48162 18.2994H4.1065ZM18.8895 13.5364H14.1104L13.9619 15.9179H19.038L18.8895 13.5364ZM18.5906 8.77344H14.4093L14.2598 11.1549H18.7401L18.5906 8.77344ZM13.8124 18.2994L13.6629 20.6809H19.337L19.1875 18.2994H13.8124ZM28.5954 13.5364H23.8162L23.6677 15.9179H28.7439L28.5954 13.5364ZM28.8934 18.2994H23.5183L23.3688 20.6809H29.0428L28.8934 18.2994ZM28.2965 8.77344H24.1152L23.9657 11.1549H28.4459L28.2965 8.77344Z" fill="#E6E7E8"/>
<path d="M33 40.9214C33 42.236 32.1304 43.3029 31.0588 43.3029H1.94118C0.869647 43.3029 0 42.236 0 40.9214V24.2515C0 22.937 0.869647 21.8701 1.94118 21.8701H31.0588C32.1304 21.8701 33 22.937 33 24.2515V40.9214Z" fill="#A0041E"/>
<path d="M0 24.2524H33V26.6341H0V24.2524Z" fill="#C1694F"/>
<path d="M4.85254 29.0156H8.73488V33.778H4.85254V29.0156ZM14.5584 29.0156H18.4407V33.778H14.5584V29.0156ZM24.2643 29.0156H28.1466V33.778H24.2643V29.0156ZM4.85254 36.1592H8.73488V40.9217H4.85254V36.1592ZM14.5584 36.1592H18.4407V40.9217H14.5584V36.1592ZM24.2643 36.1592H28.1466V40.9217H24.2643V36.1592Z" fill="#AAB8C2"/>
<path d="M7.76442 0.437988C6.69289 0.437988 5.82324 1.50478 5.82324 2.81921C5.82324 3.36332 5.97757 3.85862 6.22798 4.25866C5.98824 4.47655 5.82324 4.80754 5.82324 5.20044C5.82324 5.85766 6.25807 6.39105 6.79383 6.39105C7.3296 6.39105 7.76442 5.85766 7.76442 5.20044C8.83595 5.20044 9.7056 4.13365 9.7056 2.81921C9.7056 1.50478 8.83595 0.437988 7.76442 0.437988ZM17.4703 0.437988C16.3988 0.437988 15.5291 1.50478 15.5291 2.81921C15.5291 3.36332 15.6835 3.85862 15.9339 4.25866C15.6941 4.47655 15.5291 4.80754 15.5291 5.20044C15.5291 5.85766 15.964 6.39105 16.4997 6.39105C17.0355 6.39105 17.4703 5.85766 17.4703 5.20044C18.5418 5.20044 19.4115 4.13365 19.4115 2.81921C19.4115 1.50478 18.5418 0.437988 17.4703 0.437988ZM27.1762 0.437988C26.1047 0.437988 25.235 1.50478 25.235 2.81921C25.235 3.36332 25.3893 3.85862 25.6398 4.25866C25.4 4.47655 25.235 4.80754 25.235 5.20044C25.235 5.85766 25.6689 6.39105 26.2056 6.39105C26.7423 6.39105 27.1762 5.85766 27.1762 5.20044C28.2477 5.20044 29.1174 4.13365 29.1174 2.81921C29.1174 1.50478 28.2477 0.437988 27.1762 0.437988Z" fill="#D1D3D4"/>
</svg>
