<svg width="36" height="36" viewBox="0 0 36 36" fill="none" xmlns="http://www.w3.org/2000/svg">
<path d="M14 34C14 35.104 14.896 36 16 36H34C35.104 36 36 35.104 36 34V14C36 12.896 35.104 12 34 12H16C14.896 12 14 12.896 14 14V34Z" fill="#FFCC4D"/>
<path d="M34 12H20V14H36C36 12.896 35.104 12 34 12Z" fill="#BCBEC0"/>
<path d="M20 16H34V36H20V16Z" fill="#55ACEE"/>
<path d="M18 0H2C0.896 0 0 0.896 0 2V34C0 35.104 0.896 36 2 36H20V2C20 0.896 19.104 0 18 0Z" fill="#FFE8B6"/>
<path d="M18 0H2C0.896 0 0 0.896 0 2H20C20 0.896 19.104 0 18 0Z" fill="#BCBEC0"/>
<path d="M2 22H18V26H2V22ZM2 16H18V20H2V16ZM2 10H18V14H2V10ZM2 4H18V8H2V4ZM2 28H18V36H2V28Z" fill="#55ACEE"/>
<path d="M6 32H14V36H6V32ZM23 32H31V36H23V32Z" fill="#3B88C3"/>
<path d="M20 26H35V28H20V26ZM20 20H35V22H20V20Z" fill="#FFCC4D"/>
<path d="M36 7C36 8.104 35.104 9 34 9H24C22.896 9 22 8.104 22 7V5C22 3.896 22.896 3 24 3H34C35.104 3 36 3.896 36 5V7Z" fill="#DD2E44"/>
<path d="M26 9H28V12H26V9ZM30 9H32V12H30V9Z" fill="#58595B"/>
<path d="M24 5H26V7H24V5Z" fill="#F4ABBA"/>
<path d="M26 5H28V7H26V5Z" fill="white"/>
<path d="M28 5H30V7H28V5Z" fill="#F4ABBA"/>
<path d="M30 5H32V7H30V5Z" fill="white"/>
<path d="M32 5H34V7H32V5Z" fill="#F4ABBA"/>
</svg>
