<svg width="36" height="29" viewBox="0 0 36 29" fill="none" xmlns="http://www.w3.org/2000/svg">
<path d="M35.254 6.59229L0 12.3263V22.0483H0.00400001C-0.00799999 22.1973 0.133 22.3433 0.447 22.5213C1.174 22.9333 10.282 27.8073 11 28.1603C11.895 28.5993 12.441 28.6533 13.206 28.2723C13.832 27.9603 32.442 18.0993 34.138 17.1983C35.001 16.7393 35.284 16.4873 35.237 16.2793H35.255V6.59229H35.254Z" fill="#C1694F"/>
<path d="M0 12.3267V22.0487H0.00400001C-0.00799999 22.1977 0.133 22.3437 0.447 22.5217C1.174 22.9337 10.282 27.8077 11 28.1607C11.432 28.3727 11.781 28.4897 12.114 28.5167V12.3267H0Z" fill="#A0041E"/>
<path d="M21.851 0.448461C22.927 -0.109539 22.964 -0.179539 24.1 0.424461C25.236 1.02846 33.946 5.67246 34.587 6.01346C35.401 6.44746 35.699 6.60446 34.138 7.43446C32.442 8.33646 13.832 18.1975 13.206 18.5085C12.441 18.8895 11.895 18.8355 11 18.3965C10.282 18.0445 1.17403 13.1705 0.447027 12.7575C-0.372973 12.2925 -0.0349727 12.0515 1.21603 11.3875L21.851 0.448461Z" fill="#D99E82"/>
<path d="M10.8157 14.7977C12.8476 14.7977 14.4947 13.9739 14.4947 12.9577C14.4947 11.9415 12.8476 11.1177 10.8157 11.1177C8.78386 11.1177 7.13672 11.9415 7.13672 12.9577C7.13672 13.9739 8.78386 14.7977 10.8157 14.7977Z" fill="#C1694F"/>
<path d="M11.2687 12.5004C9.69972 11.9844 7.91672 12.1314 7.16072 12.8394C7.15572 12.8794 7.13672 12.9174 7.13672 12.9574C7.13672 13.9734 8.78372 14.7974 10.8157 14.7974C11.8787 14.7974 12.8287 14.5684 13.4997 14.2084C13.1667 13.5164 12.4137 12.8764 11.2687 12.5004V12.5004Z" fill="#A0041E"/>
<path d="M17.6272 11.2454C19.6591 11.2454 21.3062 10.4216 21.3062 9.40543C21.3062 8.38923 19.6591 7.56543 17.6272 7.56543C15.5954 7.56543 13.9482 8.38923 13.9482 9.40543C13.9482 10.4216 15.5954 11.2454 17.6272 11.2454Z" fill="#C1694F"/>
<path d="M18.0802 8.94861C16.5112 8.43261 14.7282 8.57961 13.9722 9.28761C13.9672 9.32761 13.9482 9.36561 13.9482 9.40561C13.9482 10.4216 15.5952 11.2456 17.6272 11.2456C18.6902 11.2456 19.6402 11.0166 20.3112 10.6566C19.9782 9.96461 19.2252 9.32461 18.0802 8.94861V8.94861Z" fill="#A0041E"/>
<path d="M24.4378 7.69367C26.4696 7.69367 28.1168 6.86988 28.1168 5.85367C28.1168 4.83747 26.4696 4.01367 24.4378 4.01367C22.4059 4.01367 20.7588 4.83747 20.7588 5.85367C20.7588 6.86988 22.4059 7.69367 24.4378 7.69367Z" fill="#C1694F"/>
<path d="M24.8908 5.39636C23.3218 4.88036 21.5388 5.02736 20.7828 5.73536C20.7778 5.77536 20.7588 5.81336 20.7588 5.85336C20.7588 6.86936 22.4058 7.69336 24.4378 7.69336C25.5008 7.69336 26.4498 7.46436 27.1218 7.10436C26.7888 6.41236 26.0358 5.77236 24.8908 5.39636V5.39636Z" fill="#A0041E"/>
</svg>
