<svg width="933" height="904" viewBox="0 0 933 904" fill="none" xmlns="http://www.w3.org/2000/svg">
<path d="M559.652 695.46C561.252 709.86 563.752 725.66 567.752 742.76C573.152 765.86 580.052 786.06 586.952 803.06C585.052 804.76 579.352 809.26 570.952 809.86C565.652 810.26 561.452 808.96 559.052 808.06C555.452 795.56 551.952 782.56 548.752 769.06C542.152 741.26 537.352 714.76 533.852 690.06C542.552 691.86 551.152 693.66 559.652 695.46Z" fill="#191919"/>
<path d="M784.152 686.06C782.852 700.36 780.652 716.26 776.952 733.36C771.752 757.56 764.852 778.56 757.852 796.26C758.852 797.16 764.552 802.56 773.352 802.16C780.952 801.86 785.852 797.36 787.052 796.26C789.352 784.16 791.552 771.96 793.752 759.76C798.552 733.06 802.852 706.76 806.952 680.76C799.352 682.46 791.752 684.26 784.152 686.06Z" fill="#191919"/>
<path d="M605.35 646.16C607.65 661.46 610.35 677.26 613.45 693.46C617.95 716.96 623.05 739.36 628.45 760.56C626.15 761.96 621.55 764.26 615.25 764.66C609.95 764.96 605.75 763.76 603.35 762.86C600.35 748.66 597.45 734.26 594.55 719.86C589.25 693.16 584.35 666.86 579.65 640.86C588.25 642.56 596.75 644.36 605.35 646.16Z" fill="#191919"/>
<path d="M746.45 643.16C743.75 658.26 741.35 674.06 739.25 690.46C736.35 713.06 734.35 734.66 733.15 755.26C734.85 756.36 738.85 758.66 744.55 758.96C750.65 759.16 755.15 756.76 756.85 755.76C755.85 743.96 755.45 730.86 756.05 716.86C757.25 685.76 762.95 658.96 769.25 637.86C761.65 639.56 754.05 641.36 746.45 643.16Z" fill="#191919"/>
<path d="M924.151 308.56C941.651 339.76 928.151 374.26 895.351 459.96C879.551 501.16 850.651 576.86 809.851 684.76C769.751 699.36 703.351 717.36 621.251 711.66C573.551 708.36 533.551 698.06 503.251 687.46C498.751 679.36 483.151 649.06 494.851 619.66C501.351 603.36 514.451 591.66 542.251 577.86C569.651 564.26 617.951 545.16 688.151 541.66C660.651 404.76 707.751 292.56 781.051 266.66C829.151 249.76 900.051 265.66 924.151 308.56Z" fill="white" stroke="#191919" stroke-width="2" stroke-miterlimit="10"/>
<path d="M917.751 319.86C888.751 356.56 882.151 405.86 871.051 449.96C859.151 497.16 845.451 544.26 824.951 588.56C813.651 612.86 800.351 636.26 784.451 657.86C783.351 659.46 785.951 660.96 787.051 659.36C814.951 621.36 834.651 578.26 849.851 533.86C865.251 488.66 875.451 442.06 887.451 395.96C894.251 369.76 902.951 343.56 919.951 322.06C921.051 320.46 918.951 318.36 917.751 319.86Z" fill="#191919"/>
<path d="M503.851 665.76C570.551 690.26 643.251 697.46 713.451 686.56C733.551 683.46 753.451 678.86 772.951 672.86C774.751 672.26 774.051 669.36 772.151 669.96C704.151 690.96 631.151 694.16 561.551 679.36C542.251 675.26 523.151 669.66 504.651 662.86C502.851 662.16 502.051 665.06 503.851 665.76Z" fill="#191919"/>
<path d="M738.651 587.16C755.451 592.66 769.751 603.76 779.351 618.76C780.351 620.36 782.951 618.86 781.951 617.26C771.951 601.66 757.051 590.06 739.451 584.26C737.551 583.66 736.751 586.56 738.651 587.16Z" fill="#191919"/>
<path d="M437.85 716.66C445.85 728.66 453.85 740.76 461.75 752.76C410.55 798.76 403.95 811.86 407.75 815.06C415.35 821.36 469.85 793.36 475.45 790.46C495.75 780.06 511.05 769.96 521.25 762.76C517.65 752.96 512.85 741.96 506.25 730.36C497.55 715.06 487.95 702.16 478.85 691.66C465.15 699.86 451.45 708.26 437.85 716.66Z" fill="#191919"/>
<path d="M737.051 480.96C740.651 488.76 744.451 499.86 745.051 513.26C745.951 533.46 739.351 549.56 734.351 558.86C731.651 562.36 726.851 568.16 719.751 574.46C719.751 574.46 703.651 588.66 678.051 599.56C651.951 610.76 576.051 624.26 472.951 626.86C475.951 639.66 481.351 655.36 490.951 672.26C496.251 681.56 502.051 689.76 507.751 696.86C503.951 701.86 493.151 714.56 471.651 722.56C450.951 730.26 431.951 729.36 424.451 728.76C413.651 718.86 402.551 707.06 392.251 692.96C361.951 651.26 354.851 610.96 353.551 585.06C361.051 579.66 372.051 572.26 386.451 564.36C416.451 547.86 443.951 538.86 466.551 532.16C505.451 520.76 542.651 512.86 628.251 498.36C655.051 493.86 692.151 487.66 737.051 480.96Z" fill="white" stroke="#191919" stroke-width="2" stroke-miterlimit="10"/>
<path opacity="0.19" d="M642.05 498.16C639.15 517.26 630.95 542.06 605.55 557.46C580.85 572.46 560.151 566.36 510.651 578.36C475.051 586.96 427.95 598.36 414.85 623.66C401.15 650.26 427.05 687.76 472.35 718.56C476.15 718.06 480.95 717.06 486.05 715.06C499.15 709.86 505.551 701.36 507.951 697.66C502.151 690.66 496.151 682.56 490.651 673.26C480.251 655.86 474.651 639.66 471.451 626.56C524.451 624.36 568.951 619.76 602.751 615.36C643.451 610.06 671.651 604.76 698.551 589.56C721.051 576.86 730.051 564.36 733.251 559.56C742.951 544.86 743.751 531.46 744.151 523.96C745.151 505.66 739.151 490.76 734.151 481.36C703.451 486.96 672.75 492.56 642.05 498.16Z" fill="#6C6D6D"/>
<path opacity="0.19" d="M735.151 483.46C733.151 502.06 726.051 531.46 697.751 554.66C680.351 568.96 661.651 575.36 588.251 595.16C555.851 603.86 516.651 614.16 472.051 625.36C528.751 624.76 574.851 620.06 607.951 615.56C642.251 610.86 659.051 606.76 676.451 599.26C692.951 592.16 726.251 577.76 739.851 547.46C752.951 518.06 739.751 491.66 735.151 483.46Z" fill="#6C6D6D"/>
<path opacity="0.22" d="M472.35 626.86C471.95 640.06 472.55 655.16 475.05 671.76C477.45 688.16 481.35 702.86 485.55 715.66C488.95 713.66 492.85 710.96 496.65 707.66C501.25 703.66 504.65 699.86 507.15 696.56C501.35 688.96 495.45 680.16 489.95 670.26C481.05 654.26 475.75 639.46 472.35 626.86Z" fill="#6C6D6D"/>
<path d="M467.75 774.06C475.45 789.16 483.05 804.26 490.75 819.46C441.55 877.26 435.15 893.66 438.85 897.66C446.15 905.66 498.55 870.36 503.95 866.76C523.45 853.66 538.25 840.96 548.05 831.96C544.55 819.66 539.95 805.86 533.55 791.16C525.25 771.96 515.95 755.76 507.25 742.46C494.05 753.06 480.85 763.56 467.75 774.06Z" fill="#191919"/>
<path d="M755.349 477.86C758.849 487.76 762.449 501.56 763.049 518.46C763.949 543.86 757.549 564.06 752.749 575.76C750.149 580.16 745.549 587.46 738.749 595.46C738.749 595.46 723.349 613.36 698.749 627.06C673.649 641.06 600.649 658.16 501.649 661.36C504.549 677.46 509.649 697.16 518.949 718.36C524.049 730.06 529.649 740.36 535.149 749.26C531.549 755.56 521.149 771.46 500.449 781.56C480.549 791.26 462.349 790.16 455.049 789.26C444.649 776.86 433.949 761.96 424.149 744.26C394.949 691.86 388.149 641.16 386.949 608.66C394.149 601.96 404.749 592.56 418.549 582.66C447.449 561.96 473.749 550.56 495.549 542.16C532.849 527.86 568.749 517.96 651.049 499.66C676.449 493.96 712.249 486.26 755.349 477.86Z" fill="white" stroke="#191919" stroke-width="2" stroke-miterlimit="10"/>
<path opacity="0.19" d="M664.05 499.46C661.25 523.46 653.35 554.56 628.95 573.96C605.25 592.86 585.25 585.16 537.75 600.26C503.55 611.06 458.25 625.46 445.65 657.26C432.45 690.66 457.35 737.86 500.85 776.46C504.55 775.86 509.15 774.56 514.05 772.06C526.65 765.56 532.75 754.86 535.05 750.16C529.45 741.36 523.65 731.16 518.35 719.46C508.35 697.56 502.95 677.26 499.95 660.76C550.95 657.96 593.65 652.26 626.25 646.76C665.45 640.16 692.45 633.46 718.35 614.36C739.95 598.36 748.65 582.66 751.65 576.66C760.95 558.16 761.75 541.36 762.15 531.96C763.05 508.96 757.35 490.26 752.55 478.46C723.05 485.36 693.55 492.36 664.05 499.46Z" fill="#6C6D6D"/>
<path opacity="0.19" d="M753.448 480.96C751.548 504.26 744.748 541.26 717.548 570.46C700.748 588.46 682.848 596.46 612.348 621.36C581.148 632.36 543.548 645.26 500.648 659.36C555.148 658.56 599.548 652.76 631.348 647.06C664.348 641.16 680.548 636.06 697.148 626.66C713.048 617.66 744.948 599.66 758.148 561.46C770.648 524.46 757.948 491.36 753.448 480.96Z" fill="#6C6D6D"/>
<path opacity="0.22" d="M500.95 661.26C500.55 677.86 501.15 696.86 503.55 717.66C505.95 738.36 509.55 756.76 513.65 772.76C516.95 770.16 520.65 766.86 524.35 762.66C528.75 757.66 532.05 752.86 534.45 748.76C528.85 739.16 523.15 728.16 517.95 715.66C509.35 695.66 504.15 676.96 500.95 661.26Z" fill="#6C6D6D"/>
<path d="M462.049 322.46C460.149 321.56 456.349 319.86 456.449 317.96C456.649 314.86 466.949 312.76 474.649 312.86C479.849 312.86 489.449 313.96 500.649 321.76C490.149 325.06 474.649 328.06 462.049 322.46Z" fill="white" stroke="#191919" stroke-width="2" stroke-miterlimit="10"/>
<path d="M702.55 192.76C683.55 190.26 666.45 218.76 664.85 221.36C659.05 231.26 658.35 237.86 654.35 255.96C644.65 300.06 639.45 322.46 625.05 335.96C612.05 348.06 596.85 350.96 592.85 351.56C575.75 354.26 560.25 347.86 530.05 334.96C504.55 324.06 501.45 320.06 487.55 318.46C480.45 317.66 459.75 315.36 446.05 328.66C437.25 337.16 433.35 350.76 436.55 353.56C440.65 357.16 457.45 344.46 457.65 344.76C457.75 344.96 452.65 347.36 448.45 352.56C446.35 355.06 442.75 360.46 444.05 361.86C446.35 364.66 460.45 347.66 475.95 350.66C486.55 352.66 488.55 362.26 500.85 364.06C508.05 365.16 514.35 362.96 518.35 361.06C525.35 368.66 536.75 379.46 553.25 388.26C563.05 393.46 597.65 411.36 639.95 400.96C684.85 389.96 707.45 354.86 714.55 343.86C718.55 337.56 747.95 290.56 733.75 237.86C731.25 229.36 722.15 195.36 702.55 192.76Z" fill="white" stroke="#191919" stroke-width="2" stroke-miterlimit="10"/>
<path opacity="0.25" d="M700.55 193.06C694.05 196.46 706.65 220.06 705.05 253.86C703.55 286.36 689.65 310.36 683.45 321.36C675.05 336.06 663.95 355.26 641.85 367.76C612.15 384.56 575.35 382.06 549.15 370.66C541.35 367.26 533.45 356.26 516.25 349.56C508.75 346.66 502.85 345.46 495.95 344.06C479.05 340.76 464.05 337.76 450.15 344.76C443.55 348.16 438.05 353.36 438.45 354.06C438.85 354.76 446.55 350.86 453.35 347.16C445.15 358.06 443.85 361.16 444.45 361.76C445.15 362.36 447.65 360.06 454.05 356.46C460.95 352.66 465.95 349.96 472.05 350.46C475.15 350.76 477.55 351.76 478.95 352.36C484.45 354.76 485.75 357.56 491.25 360.36C494.65 362.06 497.45 362.76 498.95 363.06C502.15 363.76 508.75 364.66 517.45 361.56C525.05 369.56 559.95 404.96 611.05 404.26C637.35 403.86 656.65 394.06 664.25 390.16C705.95 368.46 722.55 329.96 726.75 319.36C739.75 286.56 744.35 237.96 720.55 207.46C714.85 200.06 705.05 190.76 700.55 193.06Z" fill="#6C6D6D"/>
<path d="M438.349 353.56C442.249 347.76 447.349 343.16 453.449 339.86C454.749 339.16 453.549 337.26 452.349 337.96C445.949 341.46 440.549 346.36 436.449 352.46C435.549 353.66 437.549 354.76 438.349 353.56Z" fill="#191919"/>
<path d="M439.55 340.66C443.45 334.56 449.75 331.36 456.05 328.26C457.35 327.66 456.25 325.66 454.95 326.36C448.25 329.56 441.65 333.06 437.55 339.56C436.85 340.76 438.75 341.86 439.55 340.66Z" fill="#191919"/>
<path opacity="0.29" d="M729.249 229.06C727.749 239.16 725.049 253.76 720.249 270.96C710.849 304.96 702.349 335.56 680.149 359.86C652.649 389.86 615.349 398.06 593.949 400.56C609.849 404.26 622.349 403.56 630.249 402.46C690.249 394.06 722.649 329.56 731.449 301.36C732.949 296.36 736.149 286.06 736.549 271.96C737.249 253.16 732.649 238.06 729.249 229.06Z" fill="#6C6D6D"/>
<path opacity="0.26" d="M477.949 349.46C483.649 352.26 491.449 355.36 501.049 357.16C508.649 358.56 515.449 358.86 520.849 358.66C507.149 365.96 500.049 365.06 496.049 362.66C493.549 361.16 490.749 358.16 483.049 352.86C480.949 351.36 479.149 350.16 477.949 349.46Z" fill="#6C6D6D"/>
<path d="M275.75 513.86C275.75 561.86 275.75 609.96 275.75 657.96C275.75 663.76 284.75 663.76 284.75 657.96C284.75 609.96 284.75 561.86 284.75 513.86C284.75 508.16 275.75 508.06 275.75 513.86Z" fill="#161616"/>
<path d="M439.35 511.96C439.35 519.66 439.35 527.36 439.35 535.06C439.35 540.86 448.35 540.86 448.35 535.06C448.35 527.36 448.35 519.66 448.35 511.96C448.35 506.16 439.35 506.16 439.35 511.96Z" fill="#161616"/>
<path d="M151.551 507.96C200.051 462.26 248.551 416.46 297.151 370.76C375.651 372.16 454.051 373.56 532.551 374.96C519.751 419.36 506.951 463.66 494.151 508.06C379.951 507.96 265.751 507.96 151.551 507.96Z" fill="#2C8EEA" stroke="#191919" stroke-width="2" stroke-miterlimit="10"/>
<path d="M154.45 513.16C242.15 513.16 329.75 513.16 417.45 513.16C442.05 513.16 466.55 513.16 491.15 513.16C496.95 513.16 496.95 504.16 491.15 504.16C403.45 504.16 315.85 504.16 228.15 504.16C203.55 504.16 179.05 504.16 154.45 504.16C148.65 504.16 148.65 513.16 154.45 513.16Z" fill="#161616"/>
<path d="M180.15 511.66C180.15 611.16 180.15 710.66 180.15 810.06C180.15 837.96 180.15 865.76 180.15 893.66C180.15 899.46 189.15 899.46 189.15 893.66C189.15 794.16 189.15 694.66 189.15 595.26C189.15 567.36 189.15 539.56 189.15 511.66C189.15 505.86 180.15 505.86 180.15 511.66Z" fill="#161616"/>
<path d="M454.449 511.66C454.449 611.16 454.449 710.66 454.449 810.06C454.449 837.96 454.449 865.76 454.449 893.66C454.449 899.46 463.449 899.46 463.449 893.66C463.449 794.16 463.449 694.66 463.449 595.26C463.449 567.36 463.449 539.56 463.449 511.66C463.449 505.86 454.449 505.86 454.449 511.66Z" fill="#161616"/>
<path d="M184.651 697.36C255.251 697.36 325.851 697.36 396.451 697.36C416.451 697.36 436.451 697.36 456.451 697.36C462.251 697.36 462.251 688.36 456.451 688.36C385.851 688.36 315.251 688.36 244.651 688.36C224.651 688.36 204.651 688.36 184.651 688.36C178.851 688.36 178.851 697.36 184.651 697.36Z" fill="#161616"/>
<path d="M531.351 374.96C519.951 419.46 506.851 463.56 491.851 506.96C490.551 510.66 496.351 512.16 497.651 508.56C512.651 465.06 525.751 421.06 537.151 376.56C538.051 372.86 532.351 371.26 531.351 374.96Z" fill="#161616"/>
<path d="M441.751 489.06C380.051 487.46 318.251 485.96 256.551 484.36C293.151 449.36 329.651 414.26 366.251 379.26C408.451 381.46 450.751 383.66 492.951 385.86C475.851 420.36 458.851 454.66 441.751 489.06Z" fill="white" stroke="#191919" stroke-width="2" stroke-miterlimit="10"/>
<path d="M364.151 378.56C328.251 413.26 292.351 448.06 256.451 482.76C254.851 427.16 253.151 371.46 251.551 315.86C287.951 292.86 324.351 269.86 360.751 246.86C361.751 290.76 362.951 334.66 364.151 378.56Z" fill="white" stroke="#191919" stroke-width="2" stroke-miterlimit="10"/>
<path d="M254.85 321.16C257.75 370.66 259.651 420.26 260.651 469.86C260.651 470.86 262.151 470.86 262.151 469.86C261.151 420.26 259.25 370.66 256.35 321.16C256.25 320.26 254.75 320.26 254.85 321.16Z" fill="#191919"/>
<path d="M255.65 321.36C289.15 299.56 322.65 277.76 356.15 255.96C356.95 255.46 356.25 254.16 355.35 254.66C321.85 276.46 288.35 298.26 254.85 320.06C254.05 320.66 254.75 321.96 255.65 321.36Z" fill="#191919"/>
<path d="M355.75 255.86C355.65 295.76 356.85 335.76 359.45 375.56C359.55 376.56 361.05 376.56 360.95 375.56C358.45 335.66 357.15 295.76 357.25 255.86C357.25 254.96 355.75 254.96 355.75 255.86Z" fill="#191919"/>
<path d="M261.651 471.96C294.451 440.26 327.351 408.56 360.151 376.96C360.851 376.26 359.751 375.26 359.051 375.86C326.251 407.56 293.351 439.26 260.551 470.86C259.951 471.56 260.951 472.66 261.651 471.96Z" fill="#191919"/>
<path d="M413.55 454.96C419.65 445.26 425.75 435.46 431.65 425.56C432.15 424.76 430.85 423.96 430.35 424.76C424.45 434.66 418.35 444.46 412.25 454.16C411.65 454.96 412.95 455.76 413.55 454.96Z" fill="#191919"/>
<path d="M431.25 425.26C439.15 425.56 447.05 425.56 454.95 425.16C455.95 425.16 455.95 423.66 454.95 423.66C447.05 423.96 439.15 423.96 431.25 423.76C430.25 423.76 430.25 425.26 431.25 425.26Z" fill="#191919"/>
<path d="M453.951 424.76C449.451 434.56 444.851 444.36 440.251 454.16C439.851 455.06 441.151 455.76 441.551 454.96C446.151 445.16 450.751 435.36 455.251 425.56C455.651 424.56 454.351 423.86 453.951 424.76Z" fill="#191919"/>
<path d="M413.05 455.76C421.85 457.06 431.15 456.46 440.05 456.06C441.05 456.06 441.05 454.56 440.05 454.56C431.35 454.96 422.15 455.56 413.45 454.36C412.45 454.16 412.05 455.66 413.05 455.76Z" fill="#191919"/>
<path d="M445.85 424.86C441.85 434.86 437.25 444.56 432.05 453.96C431.55 454.76 432.85 455.56 433.35 454.76C438.55 445.16 443.25 435.36 447.35 425.26C447.65 424.36 446.25 423.96 445.85 424.86Z" fill="#191919"/>
<path d="M300.951 470.16C322.951 442.96 345.751 416.36 369.251 390.36C369.851 389.66 368.851 388.56 368.151 389.26C344.651 415.16 321.851 441.76 299.851 469.06C299.251 469.86 300.351 470.86 300.951 470.16Z" fill="#191919"/>
<path d="M327.55 471.86C347.25 444.36 368.05 417.76 389.85 391.96C390.45 391.26 389.45 390.16 388.75 390.86C366.85 416.76 346.05 443.46 326.25 471.06C325.65 471.86 326.95 472.66 327.55 471.86Z" fill="#191919"/>
<path d="M356.151 475.96C373.251 447.36 391.951 419.76 412.151 393.26C412.751 392.46 411.451 391.76 410.851 392.46C390.651 418.96 371.951 446.56 354.851 475.16C354.351 475.96 355.651 476.76 356.151 475.96Z" fill="#191919"/>
<path d="M380.151 478.46C396.951 447.16 416.851 417.66 439.651 390.46C440.251 389.76 439.251 388.66 438.551 389.36C415.651 416.66 395.651 446.26 378.751 477.66C378.351 478.56 379.651 479.36 380.151 478.46Z" fill="#191919"/>
<path d="M313.751 453.96C339.351 451.26 364.951 454.46 390.451 457.86C391.451 457.96 391.351 456.46 390.451 456.36C365.051 452.96 339.451 449.66 313.751 452.46C312.851 452.56 312.851 454.06 313.751 453.96Z" fill="#191919"/>
<path d="M326.652 439.36C350.852 438.46 375.052 440.26 398.852 444.86C399.752 445.06 400.152 443.56 399.252 443.46C375.352 438.86 350.952 437.06 326.652 437.96C325.752 437.86 325.752 439.36 326.652 439.36Z" fill="#191919"/>
<path d="M338.25 425.26C361.55 423.76 384.85 425.86 407.55 431.46C408.45 431.66 408.85 430.26 407.95 430.06C385.15 424.36 361.75 422.26 338.25 423.76C337.25 423.86 337.25 425.36 338.25 425.26Z" fill="#191919"/>
<path d="M350.251 411.16C372.651 411.26 394.851 413.56 416.751 418.06C417.651 418.26 418.051 416.76 417.151 416.66C395.151 412.16 372.751 409.86 350.251 409.76C349.351 409.66 349.351 411.16 350.251 411.16Z" fill="#191919"/>
<path d="M362.15 398.06C383.45 398.46 404.65 400.96 425.35 405.66C426.25 405.86 426.65 404.46 425.75 404.26C404.85 399.56 383.55 396.96 362.15 396.66C361.15 396.56 361.15 398.06 362.15 398.06Z" fill="#191919"/>
<path d="M430.75 413.26C420.95 427.66 411.25 442.06 401.45 456.46C400.95 457.26 402.25 458.06 402.75 457.26C412.55 442.86 422.25 428.46 432.05 414.06C432.65 413.16 431.35 412.46 430.75 413.26Z" fill="#191919"/>
<path d="M265.15 391.46C277.65 386.16 291.15 389.16 304.35 388.96C315.45 388.86 326.05 385.76 335.55 380.16C336.35 379.66 335.65 378.36 334.75 378.86C323.05 385.76 310.65 387.96 297.25 387.36C286.05 386.86 274.95 385.76 264.35 390.26C263.55 390.56 264.25 391.86 265.15 391.46Z" fill="#191919"/>
<path d="M298.851 385.26C320.251 373.16 330.151 347.66 352.451 336.96C353.351 336.56 352.552 335.26 351.652 335.66C329.252 346.46 319.451 371.86 298.051 383.96C297.251 384.46 297.951 385.76 298.851 385.26Z" fill="#191919"/>
<path d="M326.051 313.96C322.351 311.06 322.951 306.36 325.051 302.66C326.051 300.86 327.551 298.96 329.251 297.86C332.351 295.86 335.251 297.46 337.651 299.56C338.351 300.16 339.451 299.16 338.751 298.46C333.751 294.26 329.051 294.66 324.951 300.06C321.651 304.46 319.951 311.06 324.951 315.06C325.751 315.66 326.851 314.56 326.051 313.96Z" fill="#191919"/>
<path d="M634.051 240.86C606.651 271.26 599.251 304.66 595.251 323.56C587.951 358.56 595.651 372.56 596.151 439.06C596.351 467.36 595.151 490.26 594.251 504.66C600.451 509.46 638.851 538.06 690.151 528.66C728.151 521.76 751.051 497.96 758.251 489.86C759.951 480.36 762.351 466.36 765.151 449.36C779.951 357.66 787.251 311.16 778.051 277.86C772.551 257.66 758.951 225.66 720.351 192.56C704.151 195.96 665.251 206.36 634.051 240.86Z" fill="#2C8EEA"/>
<path opacity="0.19" d="M661.95 222.46C671.45 250.86 676.55 275.16 679.55 292.96C687.45 340.06 699.35 410.66 665.85 479.06C655.15 500.86 642.65 516.86 633.85 526.76C645.45 529.46 668.45 533.16 695.85 526.06C728.45 517.66 748.85 498.76 757.25 490.16C763.75 452.96 768.95 421.06 772.95 396.16C779.85 352.36 781.45 339.06 780.75 320.36C779.95 296.36 778.85 271.16 764.45 243.96C750.65 217.96 731.25 202.36 719.35 194.36C709.65 196.06 695.95 199.66 681.45 208.06C673.45 212.86 666.95 217.96 661.95 222.46Z" fill="#2C8EEA"/>
<path opacity="0.18" d="M775.55 270.16C773.75 270.26 777.55 297.96 771.65 336.16C760.75 406.86 725.75 455.86 712.25 473.26C700.95 487.76 683.25 507.76 657.35 527.46C666.65 528.86 679.05 529.46 693.25 526.76C726.95 520.46 748.35 499.76 756.55 490.86C758.65 478.66 762.05 459.56 766.35 435.96C776.45 380.76 778.45 374.16 780.05 356.96C784.45 310.06 777.65 270.16 775.55 270.16Z" fill="#2C8EEA"/>
<path d="M457.849 344.46C455.949 343.16 452.149 340.76 452.549 338.76C453.349 335.56 464.849 335.06 473.149 336.46C478.749 337.36 488.949 340.26 499.649 350.36C487.649 352.06 470.349 352.56 457.849 344.46Z" fill="white" stroke="#191919" stroke-width="2" stroke-miterlimit="10"/>
<path d="M740.149 248.66C720.049 242.76 696.549 269.86 694.449 272.46C686.449 281.96 684.549 288.76 677.049 307.16C658.849 352.16 649.349 374.86 631.349 386.66C615.249 397.26 598.349 397.66 593.849 397.66C574.949 397.56 559.349 388.16 528.949 369.36C503.349 353.46 500.749 348.66 485.949 344.66C478.449 342.66 456.449 336.66 439.349 348.36C428.449 355.76 421.749 369.56 424.749 373.06C428.549 377.56 448.949 366.96 449.049 367.36C449.149 367.56 443.149 369.26 437.749 374.06C435.049 376.36 430.249 381.36 431.349 383.16C433.349 386.56 451.549 370.96 467.749 376.76C478.749 380.66 479.349 391.16 492.249 395.26C499.849 397.66 507.049 396.36 511.649 395.06C517.849 404.36 528.349 417.66 544.549 429.76C554.249 436.96 588.449 461.76 635.949 458.06C686.349 454.16 716.949 420.86 726.449 410.56C731.949 404.66 771.849 359.96 765.749 301.76C764.849 292.26 760.949 254.86 740.149 248.66Z" fill="white" stroke="#191919" stroke-width="2" stroke-miterlimit="10"/>
<path opacity="0.25" d="M737.949 248.66C730.349 251.16 739.849 278.26 732.149 313.76C724.849 347.86 705.649 370.86 696.949 381.36C685.249 395.46 669.949 413.86 643.849 423.26C608.849 435.86 569.549 426.96 543.249 410.46C535.449 405.46 528.849 392.56 511.349 382.46C503.749 378.06 497.649 375.86 490.349 373.16C472.749 366.76 456.949 360.96 440.849 366.06C433.149 368.46 426.249 373.06 426.649 373.86C427.049 374.76 435.949 371.86 443.949 369.16C433.249 379.26 431.249 382.36 431.749 383.16C432.349 383.96 435.549 381.86 443.049 379.26C451.249 376.36 456.949 374.46 463.549 376.06C466.849 376.86 469.249 378.36 470.749 379.26C476.249 382.66 477.149 385.96 482.549 389.86C485.849 392.26 488.849 393.46 490.449 394.06C493.749 395.36 500.749 397.46 510.649 395.66C517.449 405.46 548.949 448.86 604.249 456.86C632.749 460.96 655.249 453.96 664.149 451.06C712.949 435.26 737.649 397.46 744.049 386.96C763.849 354.56 777.349 303.96 756.949 267.56C752.149 258.46 743.149 246.96 737.949 248.66Z" fill="#6C6D6D"/>
<path d="M426.549 373.36C431.849 367.86 438.049 363.86 445.249 361.46C446.649 360.96 446.049 358.86 444.649 359.26C437.149 361.86 430.449 366.06 424.949 371.76C423.949 372.86 425.549 374.46 426.549 373.36Z" fill="#191919"/>
<path d="M430.148 359.96C435.448 354.06 442.848 351.76 450.248 349.66C451.648 349.26 451.048 347.06 449.648 347.46C441.948 349.76 434.148 352.26 428.648 358.36C427.548 359.46 429.148 360.96 430.148 359.96Z" fill="#191919"/>
<path opacity="0.29" d="M762.649 291.66C759.249 302.06 753.749 317.06 745.649 334.46C729.549 368.76 715.049 399.66 686.749 421.56C651.849 448.56 610.049 450.86 586.549 449.76C603.049 456.46 616.749 457.86 625.449 458.06C691.649 459.46 738.049 396.76 752.449 368.56C754.949 363.56 760.149 353.16 763.149 338.36C767.049 318.46 764.749 301.76 762.649 291.66Z" fill="#6C6D6D"/>
<path opacity="0.26" d="M470.148 375.76C475.748 379.66 483.648 384.26 493.748 387.86C501.748 390.66 509.048 392.06 514.848 392.76C498.748 398.06 491.248 395.96 487.348 392.76C484.948 390.76 482.448 387.06 474.948 380.16C473.048 378.26 471.348 376.76 470.148 375.76Z" fill="#6C6D6D"/>
<path d="M585.149 46.9603C584.049 53.3603 582.949 59.7603 582.049 66.4603C578.149 93.6603 576.549 119.36 576.449 143.26C581.949 142.66 587.349 142.06 592.849 141.56C592.249 146.86 590.549 166.26 602.949 185.46C614.649 203.56 631.449 210.16 636.649 211.96C636.049 221.76 635.549 231.46 634.949 241.26C645.749 231.66 660.449 220.36 679.149 210.26C693.449 202.56 706.949 197.26 718.449 193.66C705.549 177.66 700.649 162.56 698.549 153.86C694.949 138.86 695.649 125.96 696.349 114.56C697.049 102.86 698.749 93.1603 700.249 86.3603C704.949 64.9603 692.649 31.0603 668.149 18.8603C643.949 6.76033 607.849 16.9603 585.149 46.9603Z" fill="white" stroke="#161616" stroke-width="2" stroke-miterlimit="10"/>
<path d="M590.55 142.26C593.35 141.86 596.25 141.56 599.05 141.26C600.05 141.16 600.05 139.66 599.05 139.76C596.05 140.06 593.15 140.46 590.15 140.86C589.25 140.86 589.65 142.36 590.55 142.26Z" fill="#161616"/>
<path d="M680.75 62.4603C668.65 65.5603 666.45 76.0603 651.15 97.9603C635.65 120.16 625.849 134.06 608.349 142.16C597.049 147.36 591.45 145.96 586.45 152.66C577.85 164.26 583.65 183.36 588.75 193.16C594.65 204.46 603.65 211.26 611.05 216.86C618.15 222.16 624.65 225.66 629.25 227.76C624.35 220.26 624.05 217.96 624.65 217.26C626.25 215.66 633.05 224.26 641.05 223.16C643.35 222.86 647.45 221.56 656.55 207.26C662.75 197.56 666.95 190.86 669.75 181.26C675.85 160.66 667.25 155.06 669.75 127.96C670.15 123.86 672.949 91.7603 684.349 89.6603C688.449 88.8603 692.65 92.2603 694.65 94.8603C698.85 100.36 698.35 109.16 693.15 116.76C694.85 115.56 711.15 104.56 710.95 86.6603C710.95 83.8603 710.85 73.5603 703.05 66.8603C694.15 59.2603 681.75 62.2603 680.75 62.4603Z" fill="#161616" stroke="#161616" stroke-width="2" stroke-miterlimit="10"/>
<path d="M600.149 107.96C602.469 107.96 604.349 104.602 604.349 100.46C604.349 96.3182 602.469 92.9603 600.149 92.9603C597.83 92.9603 595.949 96.3182 595.949 100.46C595.949 104.602 597.83 107.96 600.149 107.96Z" fill="#161616"/>
<path d="M568.149 111.46C570.469 111.46 572.349 108.102 572.349 103.96C572.349 99.8182 570.469 96.4603 568.149 96.4603C565.83 96.4603 563.949 99.8182 563.949 103.96C563.949 108.102 565.83 111.46 568.149 111.46Z" fill="#161616"/>
<path d="M561.851 91.6603C564.551 88.5603 568.751 88.2603 571.751 91.2603C573.151 92.6603 575.251 90.4603 573.851 89.1603C569.751 85.1603 563.451 85.2603 559.651 89.5603C558.551 91.0603 560.651 93.1603 561.851 91.6603Z" fill="#161616"/>
<path d="M594.651 86.4603C598.151 83.5603 602.751 83.9603 605.751 87.2603C607.051 88.6603 609.151 86.5603 607.851 85.1603C603.651 80.6603 597.151 80.4603 592.451 84.3603C591.051 85.5603 593.151 87.6603 594.651 86.4603Z" fill="#161616"/>
<path d="M581.75 58.8603C582.85 51.6603 585.65 39.8603 593.35 27.6603C596.05 23.3603 601.85 14.2603 611.05 8.06031C628.65 -3.63969 655.75 -2.73969 675.45 11.6603C694.75 25.7603 704.35 50.9603 700.15 75.9603C660.65 70.3603 621.25 64.6603 581.75 58.8603Z" fill="#494949"/>
<path d="M517.15 59.7602C577.85 67.5602 638.65 75.3603 699.35 83.0603C705.05 83.7603 705.05 74.7603 699.35 74.0603C638.65 66.2603 577.85 58.4602 517.15 50.7602C511.45 49.9602 511.45 58.9602 517.15 59.7602Z" fill="#161616"/>
<path d="M633.15 0.760284C648.75 4.16028 660.55 16.7603 662.55 31.8603C664.35 45.0603 658.55 58.4603 647.55 66.6603C664.85 68.9603 682.25 71.3603 699.55 73.6603C700.45 69.0603 701.25 62.0603 700.15 53.8603C697.55 34.6603 686.45 22.3603 682.85 18.6603C678.95 14.6603 665.15 1.26029 644.65 0.0602868C639.95 -0.139713 635.95 0.260284 633.15 0.760284Z" fill="#333333"/>
</svg>
