<svg width="20" height="20" viewBox="0 0 20 20" fill="none" xmlns="http://www.w3.org/2000/svg">
<path d="M9.99984 1.66663C6.77484 1.66663 4.1665 4.27496 4.1665 7.49996C4.1665 11.875 9.99984 18.3333 9.99984 18.3333C9.99984 18.3333 15.8332 11.875 15.8332 7.49996C15.8332 4.27496 13.2248 1.66663 9.99984 1.66663ZM9.99984 9.58329C9.4473 9.58329 8.9174 9.3638 8.5267 8.9731C8.136 8.5824 7.9165 8.05249 7.9165 7.49996C7.9165 6.94743 8.136 6.41752 8.5267 6.02682C8.9174 5.63612 9.4473 5.41663 9.99984 5.41663C10.5524 5.41663 11.0823 5.63612 11.473 6.02682C11.8637 6.41752 12.0832 6.94743 12.0832 7.49996C12.0832 8.05249 11.8637 8.5824 11.473 8.9731C11.0823 9.3638 10.5524 9.58329 9.99984 9.58329V9.58329Z" fill="#C8C9C9"/>
</svg>
