<svg width="13" height="13" viewBox="0 0 13 13" fill="none" xmlns="http://www.w3.org/2000/svg">
<path d="M8.02344 3.04688H9.54688V2.23438H8.02344C6.15096 2.23438 4.55015 3.41903 3.9306 5.07812H2.64062V5.89062H3.71445C3.63685 6.36141 3.63685 6.84172 3.71445 7.3125H2.64062V8.125H3.9306C4.55013 9.7841 6.15096 10.9688 8.02356 10.9688H9.547V10.1562H8.02344C7.35095 10.1556 6.6924 9.96451 6.12407 9.60502C5.55573 9.24552 5.10087 8.73237 4.81218 8.125H8.73438V7.3125H4.54022C4.44492 6.84333 4.44492 6.35979 4.54022 5.89062H8.73438V5.07812H4.81218C5.10087 4.47076 5.55573 3.9576 6.12407 3.59811C6.6924 3.23862 7.35095 3.04749 8.02344 3.04688Z" fill="#C8C9C9"/>
</svg>
