<svg width="10" height="10" viewBox="0 0 10 10" fill="none" xmlns="http://www.w3.org/2000/svg">
<path d="M5.00011 3.05554C5.38469 3.05554 5.76062 3.16958 6.08039 3.38324C6.40015 3.5969 6.64937 3.90058 6.79654 4.25588C6.94371 4.61118 6.98222 5.00215 6.90719 5.37933C6.83217 5.75652 6.64698 6.10298 6.37504 6.37492C6.10311 6.64685 5.75664 6.83204 5.37945 6.90707C5.00227 6.9821 4.6113 6.94359 4.256 6.79642C3.9007 6.64925 3.59702 6.40003 3.38336 6.08026C3.16971 5.7605 3.05567 5.38456 3.05567 4.99999C3.05567 4.48429 3.26053 3.98971 3.62518 3.62506C3.98984 3.2604 4.48441 3.05554 5.00011 3.05554Z" fill="#2F80ED"/>
<path d="M5.00011 9.44443C4.12108 9.44443 3.2618 9.18377 2.53091 8.69541C1.80002 8.20705 1.23037 7.51292 0.893979 6.7008C0.55759 5.88869 0.469575 4.99506 0.641065 4.13292C0.812555 3.27078 1.23585 2.47886 1.85741 1.85729C2.47898 1.23572 3.27091 0.812433 4.13304 0.640943C4.99518 0.469453 5.88881 0.557468 6.70093 0.893857C7.51304 1.23025 8.20717 1.7999 8.69553 2.53079C9.18389 3.26167 9.44456 4.12096 9.44456 4.99999C9.44456 6.17873 8.9763 7.30919 8.14281 8.14269C7.30931 8.97618 6.17885 9.44443 5.00011 9.44443ZM5.00011 1.1111C4.23096 1.1111 3.47908 1.33918 2.83956 1.7665C2.20004 2.19381 1.70159 2.80117 1.40725 3.51178C1.1129 4.22238 1.03589 5.0043 1.18595 5.75867C1.336 6.51304 1.70638 7.20598 2.25025 7.74985C2.79412 8.29372 3.48706 8.6641 4.24143 8.81415C4.9958 8.96421 5.77772 8.88719 6.48833 8.59285C7.19893 8.29851 7.80629 7.80006 8.2336 7.16054C8.66092 6.52102 8.889 5.76914 8.889 4.99999C8.889 3.96859 8.47928 2.97944 7.74997 2.25013C7.02066 1.52082 6.03151 1.1111 5.00011 1.1111Z" fill="#2F80ED"/>
</svg>
