<svg width="21" height="20" viewBox="0 0 21 20" fill="none" xmlns="http://www.w3.org/2000/svg">
<rect width="21" height="20" rx="4" fill="#6CB8FF"/>
<path d="M15.8715 10.1655L11.3715 5.1655C11.182 4.9545 10.818 4.9545 10.6285 5.1655L6.12849 10.1655C6.06372 10.2373 6.0212 10.3264 6.00611 10.4219C5.99102 10.5174 6.00401 10.6152 6.04349 10.7035C6.12349 10.884 6.30249 11 6.49999 11H7.49999V14.5C7.49999 14.6326 7.55267 14.7598 7.64644 14.8536C7.74021 14.9473 7.86738 15 7.99999 15H9.49999C9.6326 15 9.75978 14.9473 9.85355 14.8536C9.94731 14.7598 9.99999 14.6326 9.99999 14.5V12.5H12V14.5C12 14.6326 12.0527 14.7598 12.1464 14.8536C12.2402 14.9473 12.3674 15 12.5 15H14C14.1326 15 14.2598 14.9473 14.3535 14.8536C14.4473 14.7598 14.5 14.6326 14.5 14.5V11H15.5C15.5968 11.0004 15.6917 10.9726 15.773 10.9201C15.8543 10.8675 15.9186 10.7924 15.958 10.7039C15.9974 10.6155 16.0102 10.5175 15.9948 10.4219C15.9794 10.3263 15.9366 10.2372 15.8715 10.1655Z" fill="white"/>
</svg>
