<svg width="15" height="15" viewBox="0 0 15 15" fill="none" xmlns="http://www.w3.org/2000/svg">
<path d="M1.87487 8.125H2.49987V12.5C2.49987 13.1894 3.06049 13.75 3.74987 13.75H11.2499C11.9392 13.75 12.4999 13.1894 12.4999 12.5V8.125H13.1249C13.2485 8.12498 13.3693 8.08831 13.472 8.01963C13.5748 7.95095 13.6549 7.85335 13.7022 7.73916C13.7495 7.62498 13.7618 7.49933 13.7377 7.37811C13.7136 7.25689 13.6541 7.14554 13.5667 7.05813L7.94174 1.43313C7.88375 1.37504 7.81487 1.32895 7.73905 1.29751C7.66323 1.26606 7.58195 1.24988 7.49987 1.24988C7.41778 1.24988 7.33651 1.26606 7.26068 1.29751C7.18486 1.32895 7.11598 1.37504 7.05799 1.43313L1.43299 7.05813C1.34561 7.14554 1.28611 7.25689 1.262 7.37811C1.2379 7.49933 1.25027 7.62498 1.29757 7.73916C1.34486 7.85335 1.42495 7.95095 1.52771 8.01963C1.63046 8.08831 1.75127 8.12498 1.87487 8.125ZM7.49987 2.75875L11.2499 6.50875V9.375L11.2505 12.5H3.74987V6.50875L7.49987 2.75875Z" fill="#C8C9C9"/>
<path d="M7.5 11.25C9.81437 11.25 10.5631 9.03811 10.5938 8.94437L9.40625 8.55624C9.40125 8.57061 8.91812 9.99999 7.5 9.99999C6.10125 9.99999 5.6125 8.61187 5.59312 8.55249L4.40625 8.94437C4.43687 9.03811 5.18562 11.25 7.5 11.25Z" fill="#C8C9C9"/>
</svg>
