<svg width="109" height="60" viewBox="0 0 109 60" fill="none" xmlns="http://www.w3.org/2000/svg">
<ellipse cx="54" cy="56.5" rx="11" ry="3.5" fill="#9FD1FF"/>
<path d="M54 56L34.0814 21.5L73.9186 21.5L54 56Z" fill="#2C8EEA"/>
<rect y="7" width="108" height="37" rx="18.5" fill="#2C8EEA"/>
<rect x="88" width="21" height="20" rx="4" fill="#6CB8FF"/>
<path d="M103.871 10.1655L99.3715 5.1655C99.182 4.9545 98.818 4.9545 98.6285 5.1655L94.1285 10.1655C94.0637 10.2373 94.0212 10.3264 94.0061 10.4219C93.991 10.5174 94.004 10.6152 94.0435 10.7035C94.1235 10.884 94.3025 11 94.5 11H95.5V14.5C95.5 14.6326 95.5527 14.7598 95.6464 14.8536C95.7402 14.9473 95.8674 15 96 15H97.5C97.6326 15 97.7598 14.9473 97.8535 14.8536C97.9473 14.7598 98 14.6326 98 14.5V12.5H100V14.5C100 14.6326 100.053 14.7598 100.146 14.8536C100.24 14.9473 100.367 15 100.5 15H102C102.133 15 102.26 14.9473 102.354 14.8536C102.447 14.7598 102.5 14.6326 102.5 14.5V11H103.5C103.597 11.0004 103.692 10.9726 103.773 10.9201C103.854 10.8675 103.919 10.7924 103.958 10.7039C103.997 10.6155 104.01 10.5175 103.995 10.4219C103.979 10.3263 103.937 10.2372 103.871 10.1655Z" fill="white"/>
</svg>
