<svg width="15" height="13" viewBox="0 0 15 13" fill="none" xmlns="http://www.w3.org/2000/svg">
<path fill-rule="evenodd" clip-rule="evenodd" d="M8.20866 6.50001C6.88844 6.50001 5.77912 5.59705 5.46459 4.37501H0.416992V2.95834H5.46459C5.77912 1.73631 6.88844 0.833344 8.20866 0.833344C9.77347 0.833344 11.042 2.10187 11.042 3.66668C11.042 5.23148 9.77347 6.50001 8.20866 6.50001ZM9.62533 3.66668C9.62533 4.44908 8.99106 5.08334 8.20866 5.08334C7.42626 5.08334 6.79199 4.44908 6.79199 3.66668C6.79199 2.88427 7.42626 2.25001 8.20866 2.25001C8.99106 2.25001 9.62533 2.88427 9.62533 3.66668Z" fill="#2F80ED"/>
<path d="M11.7503 2.95834H14.5837V4.37501H11.7503V2.95834Z" fill="#2F80ED"/>
<path fill-rule="evenodd" clip-rule="evenodd" d="M4.66699 12.1667C3.34677 12.1667 2.23745 11.2637 1.92292 10.0417H0.416992V8.62501H1.92292C2.23745 7.40297 3.34677 6.50001 4.66699 6.50001C6.2318 6.50001 7.50033 7.76854 7.50033 9.33334C7.50033 10.8981 6.2318 12.1667 4.66699 12.1667ZM6.08366 9.33334C6.08366 10.1157 5.4494 10.75 4.66699 10.75C3.88459 10.75 3.25033 10.1157 3.25033 9.33334C3.25033 8.55094 3.88459 7.91668 4.66699 7.91668C5.4494 7.91668 6.08366 8.55094 6.08366 9.33334Z" fill="#2F80ED"/>
<path d="M8.20866 10.0417H14.5837V8.62501H8.20866V10.0417Z" fill="#2F80ED"/>
</svg>
