<svg width="34" height="34" viewBox="0 0 34 34" fill="none" xmlns="http://www.w3.org/2000/svg">
<circle cx="17" cy="17" r="17" fill="#2C8EEA"/>
<g clip-path="url(#clip0)">
<path d="M23.0689 20.7329C23.0219 20.7024 22.6679 20.4544 22.3134 19.7043C21.6625 18.3267 21.5259 16.3861 21.5259 15.0008C21.5259 14.9948 21.5258 14.9888 21.5256 14.9828C21.5185 13.1519 20.4221 11.5736 18.8533 10.8654V9.78237C18.8533 8.79956 18.055 8 17.0738 8H16.9264C15.9452 8 15.1469 8.79956 15.1469 9.78237V10.8653C13.5728 11.5758 12.4743 13.1622 12.4743 15.0008C12.4743 16.3861 12.3376 18.3267 11.6867 19.7043C11.3323 20.4544 10.9784 20.7023 10.9313 20.7329C10.7331 20.8246 10.6354 21.0365 10.681 21.2512C10.727 21.4681 10.9297 21.6176 11.151 21.6176H14.5869C14.6061 22.9345 15.6809 24 17.0001 24C18.3193 24 19.3941 22.9345 19.4133 21.6176H22.8492C23.0705 21.6176 23.2732 21.4681 23.3192 21.2512C23.3648 21.0365 23.2671 20.8246 23.0689 20.7329ZM16.0844 9.78237C16.0844 9.31734 16.4621 8.93903 16.9264 8.93903H17.0739C17.5381 8.93903 17.9158 9.31734 17.9158 9.78237V10.561C17.6199 10.4999 17.3136 10.4677 17 10.4677C16.6864 10.4677 16.3802 10.4998 16.0845 10.5609V9.78237H16.0844ZM17.0001 23.061C16.1978 23.061 15.5434 22.4167 15.5244 21.6176H18.4758C18.4568 22.4167 17.8024 23.061 17.0001 23.061ZM18.8876 20.6785C18.8875 20.6785 12.2193 20.6785 12.2193 20.6785C12.3004 20.5521 12.3829 20.409 12.465 20.2473C13.0932 19.0085 13.4118 17.2433 13.4118 15.0008C13.4118 13.019 15.0214 11.4067 16.9999 11.4067C18.9784 11.4067 20.5881 13.019 20.5881 15.0023C20.5881 15.0081 20.5882 15.0139 20.5884 15.0196C20.5902 17.2531 20.9087 19.012 21.5352 20.2473C21.6173 20.4091 21.6998 20.5521 21.7809 20.6785H18.8876Z" fill="white"/>
</g>
<defs>
<clipPath id="clip0">
<rect width="16" height="16" fill="white" transform="translate(9 8)"/>
</clipPath>
</defs>
</svg>
