<svg width="12" height="12" viewBox="0 0 12 12" fill="none" xmlns="http://www.w3.org/2000/svg">
<g clip-path="url(#clip0)">
<path d="M0.257812 3.36681C0.164062 3.31994 0.0976562 3.26916 0.0585938 3.21447C0.0195312 3.15978 0 3.08556 0 2.99181C0 2.89806 0.0195312 2.82385 0.0585938 2.76916C0.0976562 2.71447 0.164062 2.66369 0.257812 2.61681L5.23438 0.132439C5.4375 0.0334807 5.69271 -0.0107901 6 -0.000373477C6.30729 -0.0107901 6.5625 0.0334807 6.76562 0.132439L11.7422 2.61681C11.8359 2.66369 11.9023 2.71447 11.9414 2.76916C11.9805 2.82385 12 2.89806 12 2.99181C12 3.08556 11.9805 3.15978 11.9414 3.21447C11.9023 3.26916 11.8359 3.31994 11.7422 3.36681L6.76562 5.85119C6.5625 5.95015 6.30729 5.99442 6 5.984C5.69271 5.99442 5.4375 5.95015 5.23438 5.85119L0.257812 3.36681ZM0.257812 9.38244C0.164062 9.33556 0.0976562 9.28478 0.0585938 9.2301C0.0195312 9.17541 0 9.10119 0 9.00744C0 8.91369 0.0195312 8.83947 0.0585938 8.78478C0.0976562 8.7301 0.164062 8.67931 0.257812 8.63244L1.50781 8.00744L5.23438 9.86681C5.44271 9.96577 5.69792 10.0074 6 9.99181C6.30208 10.0074 6.55729 9.96577 6.76562 9.86681L10.4922 8.00744L11.7422 8.63244C11.8359 8.67931 11.9023 8.7301 11.9414 8.78478C11.9805 8.83947 12 8.91369 12 9.00744C12 9.10119 11.9805 9.17541 11.9414 9.2301C11.9023 9.28478 11.8359 9.33556 11.7422 9.38244L6.76562 11.8668C6.55729 11.9658 6.30208 12.0074 6 11.9918C5.69792 12.0074 5.44271 11.9658 5.23438 11.8668L0.257812 9.38244ZM0.257812 6.38244C0.164062 6.33557 0.0976562 6.28478 0.0585938 6.2301C0.0195312 6.17541 0 6.10119 0 6.00744C0 5.91369 0.0195312 5.83947 0.0585938 5.78478C0.0976562 5.7301 0.164062 5.67931 0.257812 5.63244L1.50781 5.00744L5.23438 6.86682C5.44271 6.96577 5.69792 7.00744 6 6.99182C6.30208 7.00744 6.55729 6.96577 6.76562 6.86682L10.4922 5.00744L11.7422 5.63244C11.8359 5.67931 11.9023 5.7301 11.9414 5.78478C11.9805 5.83947 12 5.91369 12 6.00744C12 6.10119 11.9805 6.17541 11.9414 6.2301C11.9023 6.28478 11.8359 6.33557 11.7422 6.38244L6.76562 8.86681C6.55729 8.96577 6.30208 9.00744 6 8.99181C5.69792 9.00744 5.44271 8.96577 5.23438 8.86681L0.257812 6.38244Z" fill="#C8C9C9"/>
</g>
<defs>
<clipPath id="clip0">
<rect width="12" height="12" fill="white"/>
</clipPath>
</defs>
</svg>
