<svg width="32" height="32" viewBox="0 0 32 32" fill="none" xmlns="http://www.w3.org/2000/svg">
<path d="M24 10.8604V13.8604C24 14.1354 24.225 14.3604 24.5 14.3604H27.5C27.775 14.3604 28 14.1354 28 13.8604V10.8604C28 10.5854 27.775 10.3604 27.5 10.3604H24.5C24.3674 10.3604 24.2402 10.413 24.1464 10.5068C24.0527 10.6006 24 10.7277 24 10.8604ZM27 13.3604H25V11.3604H27V13.3604Z" fill="#BDBDBD"/>
<path d="M27.125 5.375V5.25H24.875V5.375C24.875 5.8525 25.18 6.9 25.625 7.0575L25.61 7.295C25.61 7.4275 25.6025 7.5175 25.6425 7.6125C25.7075 7.77 25.885 7.88 26 7.9275C26.19 8.0075 26.375 8.1525 26.375 8.36C26.375 8.5675 26.2075 8.735 26 8.735C25.7925 8.735 25.625 8.5675 25.625 8.36C25.625 8.2575 25.595 8.19 25.5525 8.125C25.525 8.0825 25.4775 8.0525 25.4175 8.035C25.2525 7.9925 25.1 8.035 25.0025 8.1525C24.8825 8.295 24.865 8.52 24.955 8.725C25.025 8.88 25.1375 9.03 25.3025 9.185C25.5075 9.38 25.76 9.485 26.0125 9.485H26.0175C26.615 9.4825 27.1125 8.99 27.1275 8.3925C27.145 7.685 26.5875 7.5575 26.3775 7.305C26.3 7.2125 26.3775 7.06 26.3775 7.06C26.82 6.9 27.125 5.8525 27.125 5.375Z" fill="#BDBDBD"/>
<path d="M11.5 10H12.5C12.775 10 13 10.225 13 10.5V12H19V10.5C19 10.225 19.225 10 19.5 10H20.5C20.775 10 21 10.225 21 10.5V17H27V16.75C27 16.335 27.335 16 27.75 16H28.25C28.665 16 29 16.335 29 16.75V29H11V10.5C11 10.225 11.225 10 11.5 10Z" fill="url(#paint0_radial)"/>
<path d="M21.5 27H26.5C26.775 27 27 26.775 27 26.5V24.5C27 24.225 26.775 24 26.5 24H21.5C21.225 24 21 24.225 21 24.5V26.5C21 26.775 21.225 27 21.5 27Z" fill="#455A64"/>
<path d="M21.5 22H26.5C26.775 22 27 21.775 27 21.5V19.5C27 19.225 26.775 19 26.5 19H21.5C21.225 19 21 19.225 21 19.5V21.5C21 21.775 21.225 22 21.5 22Z" fill="#455A64"/>
<path d="M13.5 22H18.5C18.775 22 19 21.775 19 21.5V19.5C19 19.225 18.775 19 18.5 19H13.5C13.225 19 13 19.225 13 19.5V21.5C13 21.775 13.225 22 13.5 22Z" fill="#455A64"/>
<path d="M13.5 27H18.5C18.775 27 19 26.775 19 26.5V24.5C19 24.225 18.775 24 18.5 24H13.5C13.225 24 13 24.225 13 24.5V26.5C13 26.775 13.225 27 13.5 27Z" fill="#455A64"/>
<path d="M13.5 17H18.5C18.775 17 19 16.775 19 16.5V14.5C19 14.225 18.775 14 18.5 14H13.5C13.225 14 13 14.225 13 14.5V16.5C13 16.775 13.225 17 13.5 17Z" fill="#455A64"/>
<path d="M3 7V28H8V7H3ZM4 26.5V24.6025C4 24.38 4.27 24.2675 4.4275 24.425L6.575 26.5725C6.7325 26.73 6.62 27 6.3975 27H4.5C4.225 27 4 26.775 4 26.5ZM6.5725 25.16L4.84 23.4275C4.6825 23.27 4.795 23 5.0175 23H6.5C6.775 23 7 23.225 7 23.5V24.9825C7 25.205 6.73 25.3175 6.5725 25.16ZM4 21.5V19.6025C4 19.38 4.27 19.2675 4.4275 19.425L6.575 21.5725C6.7325 21.73 6.62 22 6.3975 22H4.5C4.225 22 4 21.775 4 21.5ZM6.5725 20.16L4.84 18.4275C4.6825 18.27 4.795 18 5.0175 18H6.5C6.775 18 7 18.225 7 18.5V19.9825C7 20.205 6.73 20.3175 6.5725 20.16ZM4 16.5V14.6025C4 14.38 4.27 14.2675 4.4275 14.425L6.575 16.5725C6.7325 16.73 6.62 17 6.3975 17H4.5C4.225 17 4 16.775 4 16.5ZM6.5725 15.16L4.84 13.4275C4.6825 13.27 4.795 13 5.0175 13H6.5C6.775 13 7 13.225 7 13.5V14.9825C7 15.205 6.73 15.3175 6.5725 15.16ZM4 11.5V9.6025C4 9.38 4.27 9.2675 4.4275 9.425L6.575 11.5725C6.7325 11.73 6.62 12 6.3975 12H4.5C4.225 12 4 11.775 4 11.5ZM6.5725 10.16L4.84 8.4275C4.6825 8.27 4.795 8 5.0175 8H6.5C6.775 8 7 8.225 7 8.5V9.9825C7 10.205 6.73 10.3175 6.5725 10.16ZM6.3975 7H4.5H6.3975Z" fill="#8C92A4"/>
<path d="M7 2H2C2 1.4475 2.4475 1 3 1H8C8.5525 1 9 1.4475 9 2H7Z" fill="#8C92A4"/>
<path d="M26 11.6297C25.7925 11.6297 25.625 11.5672 25.625 11.3597V8.49973C25.625 8.36973 25.7925 8.21973 26 8.21973C26.2075 8.21973 26.375 8.38973 26.375 8.49973V11.3597C26.375 11.5672 26.2075 11.6297 26 11.6297Z" fill="#8C92A4"/>
<path opacity="0.2" d="M7.625 6.375V28.625H3.375V6.375H7.625ZM6.7475 10.6075C6.91349 10.6075 7.07272 10.5417 7.19033 10.4246C7.30794 10.3075 7.37434 10.1485 7.375 9.9825V8.5C7.375 8.0175 6.9825 7.625 6.5 7.625H5.0175C4.765 7.625 4.5375 7.7775 4.44 8.01C4.3425 8.245 4.395 8.5125 4.575 8.69L6.3075 10.4225C6.4275 10.5425 6.5825 10.6075 6.7475 10.6075ZM4.5 12.375H6.3975C6.65 12.375 6.8775 12.2225 6.975 11.99C7.0725 11.755 7.02 11.4875 6.84 11.31L4.6925 9.1625C4.575 9.045 4.4175 8.98 4.2525 8.98C4.08651 8.98 3.92728 9.04577 3.80967 9.16291C3.69206 9.28004 3.62566 9.43901 3.625 9.605V11.5C3.625 11.9825 4.0175 12.375 4.5 12.375ZM6.7475 15.6075C6.91349 15.6075 7.07272 15.5417 7.19033 15.4246C7.30794 15.3075 7.37434 15.1485 7.375 14.9825V13.5C7.375 13.0175 6.9825 12.625 6.5 12.625H5.0175C4.765 12.625 4.5375 12.7775 4.44 13.01C4.3425 13.245 4.395 13.5125 4.575 13.69L6.3075 15.4225C6.4275 15.5425 6.5825 15.6075 6.7475 15.6075ZM4.5 17.375H6.3975C6.65 17.375 6.8775 17.2225 6.975 16.99C7.0725 16.755 7.02 16.4875 6.84 16.31L4.6925 14.1625C4.575 14.045 4.4175 13.98 4.2525 13.98C4.08651 13.98 3.92728 14.0458 3.80967 14.1629C3.69206 14.28 3.62566 14.439 3.625 14.605V16.5C3.625 16.9825 4.0175 17.375 4.5 17.375ZM6.7475 20.6075C6.91349 20.6075 7.07272 20.5417 7.19033 20.4246C7.30794 20.3075 7.37434 20.1485 7.375 19.9825V18.5C7.375 18.0175 6.9825 17.625 6.5 17.625H5.0175C4.765 17.625 4.5375 17.7775 4.44 18.01C4.3425 18.245 4.395 18.5125 4.575 18.69L6.3075 20.4225C6.4275 20.5425 6.5825 20.6075 6.7475 20.6075ZM4.5 22.375H6.3975C6.65 22.375 6.8775 22.2225 6.975 21.99C7.0725 21.755 7.02 21.4875 6.84 21.31L4.6925 19.1625C4.575 19.045 4.4175 18.98 4.2525 18.98C4.08651 18.98 3.92728 19.0458 3.80967 19.1629C3.69206 19.28 3.62566 19.439 3.625 19.605V21.5C3.625 21.9825 4.0175 22.375 4.5 22.375ZM6.7475 25.6075C6.91349 25.6075 7.07272 25.5417 7.19033 25.4246C7.30794 25.3075 7.37434 25.1485 7.375 24.9825V23.5C7.375 23.0175 6.9825 22.625 6.5 22.625H5.0175C4.765 22.625 4.5375 22.7775 4.44 23.01C4.3425 23.245 4.395 23.5125 4.575 23.69L6.3075 25.4225C6.4275 25.5425 6.5825 25.6075 6.7475 25.6075ZM4.5 27.375H6.3975C6.65 27.375 6.8775 27.2225 6.975 26.99C7.0725 26.755 7.02 26.4875 6.84 26.31L4.6925 24.1625C4.575 24.045 4.4175 23.98 4.2525 23.98C4.08651 23.98 3.92728 24.0458 3.80967 24.1629C3.69206 24.28 3.62566 24.439 3.625 24.605V26.5C3.625 26.9825 4.0175 27.375 4.5 27.375ZM8 6H3V29H8V6ZM6.7475 10.2325C6.685 10.2325 6.6225 10.21 6.5725 10.16L4.84 8.4275C4.6825 8.27 4.795 8 5.0175 8H6.5C6.775 8 7 8.225 7 8.5V9.9825C7 10.1325 6.8775 10.2325 6.7475 10.2325ZM4.5 12C4.225 12 4 11.775 4 11.5V9.6025C4 9.4525 4.1225 9.3525 4.2525 9.3525C4.315 9.3525 4.3775 9.375 4.4275 9.425L6.575 11.5725C6.7325 11.73 6.62 12 6.3975 12H4.5ZM6.7475 15.2325C6.685 15.2325 6.6225 15.21 6.5725 15.16L4.84 13.4275C4.6825 13.27 4.795 13 5.0175 13H6.5C6.775 13 7 13.225 7 13.5V14.9825C7 15.1325 6.8775 15.2325 6.7475 15.2325ZM4.5 17C4.225 17 4 16.775 4 16.5V14.6025C4 14.4525 4.1225 14.3525 4.2525 14.3525C4.315 14.3525 4.3775 14.375 4.4275 14.425L6.575 16.5725C6.7325 16.73 6.62 17 6.3975 17H4.5ZM6.7475 20.2325C6.685 20.2325 6.6225 20.21 6.5725 20.16L4.84 18.4275C4.6825 18.27 4.795 18 5.0175 18H6.5C6.775 18 7 18.225 7 18.5V19.9825C7 20.1325 6.8775 20.2325 6.7475 20.2325ZM4.5 22C4.225 22 4 21.775 4 21.5V19.6025C4 19.4525 4.1225 19.3525 4.2525 19.3525C4.315 19.3525 4.3775 19.375 4.4275 19.425L6.575 21.5725C6.7325 21.73 6.62 22 6.3975 22H4.5ZM6.7475 25.2325C6.685 25.2325 6.6225 25.21 6.5725 25.16L4.84 23.4275C4.6825 23.27 4.795 23 5.0175 23H6.5C6.775 23 7 23.225 7 23.5V24.9825C7 25.1325 6.8775 25.2325 6.7475 25.2325ZM4.5 27C4.225 27 4 26.775 4 26.5V24.6025C4 24.4525 4.1225 24.3525 4.2525 24.3525C4.315 24.3525 4.3775 24.375 4.4275 24.425L6.575 26.5725C6.7325 26.73 6.62 27 6.3975 27H4.5Z" fill="#424242"/>
<path d="M4 6H9C9 6.5525 8.5525 7 8 7H3C2.4475 7 2 6.5525 2 6H4Z" fill="#8C92A4"/>
<path d="M8 28H3C2.4475 28 2 28.4475 2 29V31H9V29C9 28.4475 8.5525 28 8 28Z" fill="#8C92A4"/>
<path opacity="0.2" d="M27.5 10.7354C27.57 10.7354 27.625 10.7904 27.625 10.8604V13.8604C27.625 13.9304 27.57 13.9854 27.5 13.9854H24.5C24.43 13.9854 24.375 13.9304 24.375 13.8604V10.8604C24.375 10.7904 24.43 10.7354 24.5 10.7354H27.5ZM24.625 13.7354H27.375V10.9854H24.625V13.7354ZM27.5 10.3604H24.5C24.225 10.3604 24 10.5854 24 10.8604V13.8604C24 14.1354 24.225 14.3604 24.5 14.3604H27.5C27.775 14.3604 28 14.1354 28 13.8604V10.8604C28 10.7277 27.9473 10.6006 27.8536 10.5068C27.7598 10.413 27.6326 10.3604 27.5 10.3604ZM25 13.3604V11.3604H27V13.3604H25Z" fill="#424242"/>
<path opacity="0.2" d="M26.7275 5.625C26.6525 6.09 26.4025 6.65 26.25 6.7025L26.1075 6.7525L26.04 6.89C26.0275 6.915 26.0175 6.94 26.0075 6.9675L26.0175 6.795L25.75 6.7025C25.5975 6.65 25.3475 6.09 25.2725 5.625H26.7275ZM25.985 7.345C26.0025 7.415 26.035 7.48 26.0875 7.5425C26.0926 7.54977 26.0985 7.55647 26.105 7.5625C26.0475 7.53 26 7.49 25.99 7.47C25.985 7.4575 25.985 7.3975 25.985 7.3475V7.345ZM26.7175 8.1475C26.7425 8.2125 26.7525 8.2875 26.75 8.3825C26.7445 8.57199 26.6674 8.75237 26.5343 8.88734C26.4012 9.02231 26.2219 9.10187 26.0325 9.11C26.2255 9.10101 26.4077 9.01812 26.5412 8.8785C26.6748 8.73888 26.7496 8.55322 26.75 8.36C26.75 8.285 26.74 8.215 26.7175 8.1475ZM27.125 5.25H24.875V5.375C24.875 5.8525 25.18 6.9 25.625 7.0575L25.61 7.295C25.61 7.4275 25.6025 7.5175 25.6425 7.6125C25.7075 7.77 25.885 7.88 26 7.9275C26.19 8.0075 26.375 8.1525 26.375 8.36C26.375 8.5675 26.2075 8.735 26 8.735C25.7925 8.735 25.625 8.5675 25.625 8.36C25.625 8.2575 25.595 8.19 25.5525 8.125C25.525 8.0825 25.4775 8.0525 25.4175 8.035C25.375 8.025 25.335 8.0175 25.295 8.0175C25.18 8.0175 25.0775 8.0625 25.0025 8.15C24.8825 8.2925 24.865 8.5175 24.955 8.7225C25.025 8.8775 25.1375 9.0275 25.3025 9.1825C25.5075 9.3775 25.76 9.4825 26.0125 9.4825H26.0175C26.615 9.48 27.1125 8.9875 27.1275 8.39C27.145 7.6825 26.5875 7.555 26.3775 7.3025C26.3 7.21 26.3775 7.0575 26.3775 7.0575C26.8225 6.9 27.1275 5.8525 27.1275 5.375V5.25H27.125Z" fill="#424242"/>
<path opacity="0.2" d="M20.25 10.75V17C20.25 17.415 20.585 17.75 21 17.75H27C27.415 17.75 27.75 17.415 27.75 17V16.75H28.25V29.25H11.75V10.75H12.25V12C12.25 12.415 12.585 12.75 13 12.75H19C19.415 12.75 19.75 12.415 19.75 12V10.75H20.25ZM20.5 10H19.5C19.225 10 19 10.225 19 10.5V12H13V10.5C13 10.225 12.775 10 12.5 10H11.5C11.225 10 11 10.225 11 10.5V30H29V16.75C29 16.335 28.665 16 28.25 16H27.75C27.335 16 27 16.335 27 16.75V17H21V10.5C21 10.225 20.775 10 20.5 10Z" fill="#424242"/>
<path opacity="0.2" d="M26.5 24.5V26.5H21.5V24.5H26.5ZM26.5 24H21.5C21.225 24 21 24.225 21 24.5V26.5C21 26.775 21.225 27 21.5 27H26.5C26.775 27 27 26.775 27 26.5V24.5C27 24.225 26.775 24 26.5 24Z" fill="#424242"/>
<path opacity="0.2" d="M26.5 19.5V21.5H21.5V19.5H26.5ZM26.5 19H21.5C21.225 19 21 19.225 21 19.5V21.5C21 21.775 21.225 22 21.5 22H26.5C26.775 22 27 21.775 27 21.5V19.5C27 19.225 26.775 19 26.5 19Z" fill="#424242"/>
<path opacity="0.2" d="M18.5 19.5V21.5H13.5V19.5H18.5ZM18.5 19H13.5C13.225 19 13 19.225 13 19.5V21.5C13 21.775 13.225 22 13.5 22H18.5C18.775 22 19 21.775 19 21.5V19.5C19 19.225 18.775 19 18.5 19Z" fill="#424242"/>
<path opacity="0.2" d="M18.5 24.5V26.5H13.5V24.5H18.5ZM18.5 24H13.5C13.225 24 13 24.225 13 24.5V26.5C13 26.775 13.225 27 13.5 27H18.5C18.775 27 19 26.775 19 26.5V24.5C19 24.225 18.775 24 18.5 24Z" fill="#424242"/>
<path opacity="0.2" d="M18.5 14.5V16.5H13.5V14.5H18.5ZM18.5 14H13.5C13.225 14 13 14.225 13 14.5V16.5C13 16.775 13.225 17 13.5 17H18.5C18.775 17 19 16.775 19 16.5V14.5C19 14.225 18.775 14 18.5 14Z" fill="#424242"/>
<path opacity="0.2" d="M8 1.375C8.16576 1.375 8.32473 1.44085 8.44194 1.55806C8.55915 1.67527 8.625 1.83424 8.625 2V2.24H2.375V2C2.375 1.83424 2.44085 1.67527 2.55806 1.55806C2.67527 1.44085 2.83424 1.375 3 1.375H8ZM8 1H3C2.4475 1 2 1.4475 2 2V2.615H9V2C9 1.4475 8.5525 1 8 1Z" fill="#424242"/>
<path opacity="0.2" d="M8.625 5.75977V5.99977C8.625 6.16553 8.55915 6.3245 8.44194 6.44171C8.32473 6.55892 8.16576 6.62477 8 6.62477H3C2.83424 6.62477 2.67527 6.55892 2.55806 6.44171C2.44085 6.3245 2.375 6.16553 2.375 5.99977V5.75977H8.625ZM9 5.38477H2V5.99977C2 6.55227 2.4475 6.99977 3 6.99977H8C8.5525 6.99977 9 6.55227 9 5.99977V5.38477Z" fill="#424242"/>
<path d="M26 11.6297C25.7925 11.6297 25.625 11.5672 25.625 11.3597V8.49973C25.625 8.36973 25.7925 8.21973 26 8.21973C26.2075 8.21973 26.375 8.38973 26.375 8.49973V11.3597C26.375 11.5672 26.2075 11.6297 26 11.6297Z" fill="#8C92A4"/>
<path d="M31 31H1V30C1 29.4475 1.4475 29 2 29H30C30.5525 29 31 29.4475 31 30V31Z" fill="#8C92A4"/>
<path d="M28.62 2.2575C28.5388 2.17573 28.4422 2.11087 28.3358 2.06667C28.2294 2.02248 28.1152 1.99981 28 2H2C1.4475 2 1 2.4475 1 3V5C1 5.5525 1.4475 6 2 6H30.1225C30.6075 6 31 5.6075 31 5.1225V5C31 4.7675 30.9075 4.545 30.7425 4.38L28.62 2.2575ZM2 4.5V3.5C2 3.225 2.225 3 2.5 3H4.5C4.775 3 5 3.225 5 3.5V4.5C5 4.775 4.775 5 4.5 5H2.5C2.225 5 2 4.775 2 4.5ZM6 4.5V3.5C6 3.225 6.225 3 6.5 3H8.5C8.775 3 9 3.225 9 3.5V4.5C9 4.775 8.775 5 8.5 5H6.5C6.225 5 6 4.775 6 4.5ZM10 4.5V3.5C10 3.225 10.225 3 10.5 3H12.5C12.775 3 13 3.225 13 3.5V4.5C13 4.775 12.775 5 12.5 5H10.5C10.225 5 10 4.775 10 4.5ZM14 4.5V3.5C14 3.225 14.225 3 14.5 3H16.5C16.775 3 17 3.225 17 3.5V4.5C17 4.775 16.775 5 16.5 5H14.5C14.225 5 14 4.775 14 4.5ZM18 4.5V3.5C18 3.225 18.225 3 18.5 3H20.5C20.775 3 21 3.225 21 3.5V4.5C21 4.775 20.775 5 20.5 5H18.5C18.225 5 18 4.775 18 4.5ZM22 4.5V3.5C22 3.225 22.225 3 22.5 3H24.5C24.775 3 25 3.225 25 3.5V4.5C25 4.775 24.775 5 24.5 5H22.5C22.225 5 22 4.775 22 4.5ZM26 4.5V3.5C26 3.225 26.225 3 26.5 3H27.7425C27.875 3 28.0025 3.0525 28.095 3.1475L29.095 4.1475C29.41 4.4625 29.1875 5 28.7425 5H26.5C26.225 5 26 4.775 26 4.5Z" fill="url(#paint1_linear)"/>
<path opacity="0.2" d="M8 28.75C8.1375 28.75 8.25 28.8625 8.25 29C8.25 29.415 8.585 29.75 9 29.75H30C30.1375 29.75 30.25 29.8625 30.25 30V30.25H1.75V30C1.75 29.8625 1.8625 29.75 2 29.75C2.415 29.75 2.75 29.415 2.75 29C2.75 28.8625 2.8625 28.75 3 28.75H8ZM8 28H3C2.4475 28 2 28.4475 2 29C1.4475 29 1 29.4475 1 30V31H31V30C31 29.4475 30.5525 29 30 29H9C9 28.4475 8.5525 28 8 28Z" fill="#424242"/>
<path opacity="0.2" d="M28 2.375C28.135 2.375 28.26 2.4275 28.355 2.5225L30.4775 4.645C30.5725 4.74 30.625 4.865 30.625 5V5.1225C30.625 5.4 30.4 5.625 30.1225 5.625H2C1.83424 5.625 1.67527 5.55915 1.55806 5.44194C1.44085 5.32473 1.375 5.16576 1.375 5V3C1.375 2.83424 1.44085 2.67527 1.55806 2.55806C1.67527 2.44085 1.83424 2.375 2 2.375H28ZM26.5 5.375H28.7425C29.0975 5.375 29.415 5.1625 29.55 4.835C29.685 4.5075 29.6125 4.1325 29.36 3.8825L28.36 2.8825C28.2791 2.80098 28.183 2.73625 28.077 2.69206C27.971 2.64787 27.8573 2.62508 27.7425 2.625H26.5C26.0175 2.625 25.625 3.0175 25.625 3.5V4.5C25.625 4.9825 26.0175 5.375 26.5 5.375ZM22.5 5.375H24.5C24.9825 5.375 25.375 4.9825 25.375 4.5V3.5C25.375 3.0175 24.9825 2.625 24.5 2.625H22.5C22.0175 2.625 21.625 3.0175 21.625 3.5V4.5C21.625 4.9825 22.0175 5.375 22.5 5.375ZM18.5 5.375H20.5C20.9825 5.375 21.375 4.9825 21.375 4.5V3.5C21.375 3.0175 20.9825 2.625 20.5 2.625H18.5C18.0175 2.625 17.625 3.0175 17.625 3.5V4.5C17.625 4.9825 18.0175 5.375 18.5 5.375ZM14.5 5.375H16.5C16.9825 5.375 17.375 4.9825 17.375 4.5V3.5C17.375 3.0175 16.9825 2.625 16.5 2.625H14.5C14.0175 2.625 13.625 3.0175 13.625 3.5V4.5C13.625 4.9825 14.0175 5.375 14.5 5.375ZM10.5 5.375H12.5C12.9825 5.375 13.375 4.9825 13.375 4.5V3.5C13.375 3.0175 12.9825 2.625 12.5 2.625H10.5C10.0175 2.625 9.625 3.0175 9.625 3.5V4.5C9.625 4.9825 10.0175 5.375 10.5 5.375ZM6.5 5.375H8.5C8.9825 5.375 9.375 4.9825 9.375 4.5V3.5C9.375 3.0175 8.9825 2.625 8.5 2.625H6.5C6.0175 2.625 5.625 3.0175 5.625 3.5V4.5C5.625 4.9825 6.0175 5.375 6.5 5.375ZM2.5 5.375H4.5C4.9825 5.375 5.375 4.9825 5.375 4.5V3.5C5.375 3.0175 4.9825 2.625 4.5 2.625H2.5C2.0175 2.625 1.625 3.0175 1.625 3.5V4.5C1.625 4.9825 2.0175 5.375 2.5 5.375ZM28 2H2C1.4475 2 1 2.4475 1 3V5C1 5.5525 1.4475 6 2 6H30.1225C30.6075 6 31 5.6075 31 5.1225V5C31 4.7675 30.9075 4.545 30.7425 4.38L28.62 2.2575C28.5388 2.17573 28.4422 2.11087 28.3358 2.06667C28.2294 2.02248 28.1152 1.99981 28 2ZM26.5 5C26.225 5 26 4.775 26 4.5V3.5C26 3.225 26.225 3 26.5 3H27.7425C27.875 3 28.0025 3.0525 28.095 3.1475L29.095 4.1475C29.41 4.4625 29.1875 5 28.7425 5H26.5ZM22.5 5C22.225 5 22 4.775 22 4.5V3.5C22 3.225 22.225 3 22.5 3H24.5C24.775 3 25 3.225 25 3.5V4.5C25 4.775 24.775 5 24.5 5H22.5ZM18.5 5C18.225 5 18 4.775 18 4.5V3.5C18 3.225 18.225 3 18.5 3H20.5C20.775 3 21 3.225 21 3.5V4.5C21 4.775 20.775 5 20.5 5H18.5ZM14.5 5C14.225 5 14 4.775 14 4.5V3.5C14 3.225 14.225 3 14.5 3H16.5C16.775 3 17 3.225 17 3.5V4.5C17 4.775 16.775 5 16.5 5H14.5ZM10.5 5C10.225 5 10 4.775 10 4.5V3.5C10 3.225 10.225 3 10.5 3H12.5C12.775 3 13 3.225 13 3.5V4.5C13 4.775 12.775 5 12.5 5H10.5ZM6.5 5C6.225 5 6 4.775 6 4.5V3.5C6 3.225 6.225 3 6.5 3H8.5C8.775 3 9 3.225 9 3.5V4.5C9 4.775 8.775 5 8.5 5H6.5ZM2.5 5C2.225 5 2 4.775 2 4.5V3.5C2 3.225 2.225 3 2.5 3H4.5C4.775 3 5 3.225 5 3.5V4.5C5 4.775 4.775 5 4.5 5H2.5Z" fill="#424242"/>
<path opacity="0.2" d="M26 8.46973C26.0575 8.46973 26.105 8.50723 26.125 8.52973V11.3647C26.11 11.3697 26.0725 11.3797 26 11.3797C25.9275 11.3797 25.89 11.3697 25.875 11.3647V8.51973C25.8925 8.50223 25.9375 8.46973 26 8.46973ZM26 8.21973C25.7925 8.21973 25.625 8.36973 25.625 8.49973V11.3597C25.625 11.5672 25.7925 11.6297 26 11.6297C26.2075 11.6297 26.375 11.5672 26.375 11.3597V8.49973C26.375 8.38973 26.2075 8.21973 26 8.21973Z" fill="#424242"/>
<defs>
<radialGradient id="paint0_radial" cx="0" cy="0" r="1" gradientUnits="userSpaceOnUse" gradientTransform="translate(20.6667 12.4582) scale(16.961)">
<stop stop-color="#E0E0E0"/>
<stop offset="0.229" stop-color="#D7D7D7"/>
<stop offset="0.603" stop-color="#BFBFBF"/>
<stop offset="1" stop-color="#9E9E9E"/>
</radialGradient>
<linearGradient id="paint1_linear" x1="16" y1="1.91675" x2="16" y2="7.56025" gradientUnits="userSpaceOnUse">
<stop offset="0.017" stop-color="#8C92A4"/>
<stop offset="0.4" stop-color="#8C92A4"/>
<stop offset="1" stop-color="#8C92A4"/>
</linearGradient>
</defs>
</svg>
