<svg width="30" height="30" viewBox="0 0 30 30" fill="none" xmlns="http://www.w3.org/2000/svg">
<path d="M27.1875 0.251953H2.8125C1.25918 0.251953 0 1.51113 0 3.06445V12.4394C0 13.9928 1.25918 15.2519 2.8125 15.2519H27.1875C28.7408 15.2519 30 13.9928 30 12.4394V3.06445C30 1.51113 28.7408 0.251953 27.1875 0.251953ZM28.125 12.4394C28.125 12.9572 27.7053 13.3769 27.1875 13.3769H2.8125C2.29471 13.3769 1.875 12.9572 1.875 12.4394V3.06445C1.875 2.54666 2.29471 2.12695 2.8125 2.12695H27.1875C27.7053 2.12695 28.125 2.54666 28.125 3.06445V12.4394Z" fill="#2C8EEA"/>
<path d="M26.25 9.62695H22.5V11.502H26.25V9.62695Z" fill="#2C8EEA"/>
<path d="M20.625 9.62695H18.75V11.502H20.625V9.62695Z" fill="#2C8EEA"/>
<path d="M16.875 9.62695H15V11.502H16.875V9.62695Z" fill="#2C8EEA"/>
<path d="M13.125 9.62695H3.75V11.502H13.125V9.62695Z" fill="#2C8EEA"/>
<path d="M20.625 5.87695H9.375V7.75195H20.625V5.87695Z" fill="#2C8EEA"/>
<path d="M15.6731 22.0955C15.2174 21.6343 14.9999 21.3868 14.9999 20.8355C14.9999 20.2871 15.2052 20.0555 15.6693 19.583C16.0068 19.2678 16.2947 18.9033 16.5234 18.5021L14.8649 17.6265C14.7183 17.8641 14.5391 18.0799 14.3324 18.2677C12.9127 19.4457 12.7168 21.5516 13.8948 22.9713C14.0268 23.1305 14.1733 23.277 14.3324 23.409C14.7956 23.8777 14.9999 24.1121 14.9999 24.6577C14.9999 25.2033 14.7956 25.4377 14.3324 25.9112C13.9925 26.2299 13.7035 26.5989 13.4756 27.0052L15.1368 27.8733C15.2842 27.6325 15.4648 27.4134 15.6731 27.2227C17.0889 26.0457 17.2825 23.9438 16.1055 22.528C15.9749 22.3709 15.8301 22.2261 15.6731 22.0955Z" fill="#2C8EEA"/>
<path d="M8.17305 23.9705C7.71743 23.5093 7.49993 23.2618 7.49993 22.7105C7.49993 22.1621 7.70524 21.9305 8.1693 21.458C8.5068 21.1428 8.79473 20.7783 9.02337 20.3771L7.36493 19.5015C7.21833 19.7391 7.03909 19.9549 6.83243 20.1427C5.4127 21.3207 5.21676 23.4266 6.39479 24.8463C6.5268 25.0055 6.67335 25.152 6.83243 25.284C7.29555 25.7527 7.49993 25.9871 7.49993 26.5327C7.49993 27.0783 7.29555 27.3127 6.83243 27.7862C6.49253 28.1049 6.20354 28.4739 5.97555 28.8802L7.6368 29.7483C7.78423 29.5075 7.96475 29.2884 8.17305 29.0977C9.58891 27.9207 9.78251 25.8188 8.60548 24.403C8.47487 24.2459 8.33014 24.1011 8.17305 23.9705Z" fill="#2C8EEA"/>
<path d="M23.1731 23.9705C22.7174 23.5093 22.4999 23.2618 22.4999 22.7105C22.4999 22.1621 22.7052 21.9305 23.1693 21.458C23.5068 21.1428 23.7947 20.7783 24.0234 20.3771L22.3649 19.5015C22.2183 19.7391 22.0391 19.9549 21.8324 20.1427C20.4127 21.3207 20.2168 23.4266 21.3948 24.8463C21.5268 25.0055 21.6733 25.152 21.8324 25.284C22.2956 25.7527 22.4999 25.9871 22.4999 26.5327C22.4999 27.0783 22.2956 27.3127 21.8324 27.7862C21.4925 28.1049 21.2035 28.4739 20.9756 28.8802L22.6368 29.7483C22.7842 29.5075 22.9648 29.2884 23.1731 29.0977C24.5889 27.9207 24.7825 25.8188 23.6055 24.403C23.4749 24.2459 23.3301 24.1011 23.1731 23.9705Z" fill="#2C8EEA"/>
</svg>
