<svg width="23" height="23" viewBox="0 0 23 23" fill="none" xmlns="http://www.w3.org/2000/svg">
<path d="M11.5 0C5.14933 0 0 5.14933 0 11.5C0 17.8507 5.14933 23 11.5 23C17.8507 23 23 17.8507 23 11.5C23 5.14933 17.8507 0 11.5 0ZM13.13 9.64665C13.243 9.64665 13.3354 9.73906 13.3354 9.85201V10.5502C13.3354 10.6632 13.243 10.7556 13.13 10.7556H9.63895C9.63125 10.8685 9.63125 10.9892 9.63125 11.1098V12.0339H13.1275C13.2404 12.0339 13.3328 12.1263 13.3328 12.2393V12.9375C13.3328 13.0504 13.2404 13.1429 13.1275 13.1429H9.77757C10.1703 14.7344 11.3511 15.6739 13.1095 15.6739C13.6203 15.6739 14.0618 15.6431 14.4392 15.5686C14.565 15.543 14.683 15.6405 14.683 15.7689V16.8675C14.683 16.9651 14.6137 17.0472 14.5187 17.0677C14.1106 17.155 13.6383 17.1987 13.0992 17.1987C10.2807 17.1987 8.40167 15.6893 7.96016 13.1429H7.1875C7.07455 13.1429 6.98214 13.0504 6.98214 12.9375V12.2393C6.98214 12.1263 7.07455 12.0339 7.1875 12.0339H7.85748V11.0867C7.85748 10.9738 7.85748 10.8608 7.86518 10.7581H7.1875C7.07455 10.7581 6.98214 10.6657 6.98214 10.5528V9.85458C6.98214 9.74163 7.07455 9.64922 7.1875 9.64922H8.00123C8.50692 7.23114 10.3628 5.80134 13.0992 5.80134C13.6357 5.80134 14.1106 5.85011 14.5187 5.93996C14.6137 5.96049 14.6805 6.04263 14.6805 6.14018V7.23884H14.683C14.683 7.36975 14.565 7.46473 14.4366 7.43906C14.0593 7.36462 13.6203 7.32612 13.1095 7.32612C11.4307 7.32612 10.2756 8.18605 9.83404 9.64665H13.13Z" fill="#8C92A4"/>
</svg>
