<svg width="36" height="36" viewBox="0 0 36 36" fill="none" xmlns="http://www.w3.org/2000/svg">
<path d="M18 36C27.9411 36 36 27.9411 36 18C36 8.05887 27.9411 0 18 0C8.05887 0 0 8.05887 0 18C0 27.9411 8.05887 36 18 36Z" fill="#2C8EEA"/>
<path d="M27.3351 22.629C27.1571 22.468 26.8911 22.458 26.7001 22.6C26.6611 22.629 22.7781 25.5 18.0001 25.5C13.2341 25.5 9.33808 22.629 9.30008 22.6C9.10908 22.458 8.84308 22.47 8.66508 22.629C8.48808 22.789 8.44808 23.053 8.57108 23.257C8.70008 23.472 11.7881 28.5 18.0001 28.5C24.2121 28.5 27.3011 23.472 27.4291 23.257C27.5521 23.052 27.5131 22.789 27.3351 22.629ZM26.0001 19C25.5811 19 25.1911 18.735 25.0521 18.316C24.8491 17.717 24.0331 16 23.0001 16C21.9381 16 21.1111 17.827 20.9481 18.316C20.7731 18.839 20.2121 19.124 19.6831 18.948C19.1601 18.774 18.8761 18.208 19.0511 17.683C19.1771 17.307 20.3551 14 23.0001 14C25.6451 14 26.8231 17.307 26.9481 17.684C27.1231 18.208 26.8401 18.775 26.3161 18.949C26.2111 18.983 26.1041 19 26.0001 19ZM16.0001 19C15.5811 19 15.1911 18.735 15.0511 18.316C14.8481 17.717 14.0341 16 13.0001 16C11.9381 16 11.1121 17.827 10.9491 18.316C10.7741 18.839 10.2111 19.124 9.68408 18.948C9.16008 18.774 8.87708 18.208 9.05208 17.683C9.17708 17.307 10.3551 14 13.0001 14C15.6451 14 16.8231 17.307 16.9491 17.684C17.1241 18.208 16.8411 18.775 16.3171 18.949C16.2111 18.983 16.1041 19 16.0001 19Z" fill="white"/>
<path d="M33.1754 8.31592C33.1754 8.31592 24.1334 8.47692 18.0004 8.47692C14.0954 8.47692 2.79444 8.35892 2.79444 8.35892L2.27344 9.23492C5.31644 11.0909 11.3374 12.1519 18.0004 12.1519C24.5964 12.1519 30.5764 11.1119 33.6524 9.29192L33.7304 9.24492C33.7304 9.24492 33.3564 8.58092 33.1754 8.31592Z" fill="#CCE6FF"/>
<path d="M23.7779 0.344906C22.5659 0.250906 21.3049 0.185906 20.0049 0.154906C19.3439 0.138906 18.6769 0.128906 18.0009 0.128906C17.3289 0.128906 16.6649 0.138906 16.0079 0.153906C14.7059 0.184906 13.4439 0.249906 12.2309 0.343906C5.34092 0.879906 0.169922 2.45091 0.169922 5.28691C0.169922 8.87491 8.43392 11.0579 18.0009 11.0579C27.5679 11.0579 35.8319 8.87491 35.8319 5.28691C35.8319 2.45191 30.6639 0.881906 23.7779 0.344906ZM18.0009 7.38291C11.1399 7.38291 5.09092 6.54991 5.09092 4.64691C5.09092 4.11091 5.58492 3.62391 6.42992 3.19791C7.58292 2.61691 9.40792 2.15391 11.6189 1.84891C13.5299 1.58691 15.7169 1.43891 18.0009 1.43891C20.2919 1.43891 22.4859 1.58691 24.4009 1.85191C26.6429 2.16191 28.4869 2.63491 29.6329 3.22891C30.4399 3.64691 30.9109 4.12291 30.9109 4.64691C30.9109 6.54991 24.8619 7.38291 18.0009 7.38291Z" fill="#5DADEC"/>
<path d="M24.3995 1.85281C26.6415 2.16281 28.4855 2.63581 29.6315 3.22981L29.6935 3.24681C27.4085 1.57281 25.1235 0.686809 23.7765 0.344809C22.5645 0.250809 21.3035 0.185809 20.0035 0.154809L20.0215 0.161809L24.3995 1.85281ZM6.42855 3.19881C7.58155 2.61781 9.40655 2.15481 11.6175 1.84981L15.9835 0.161809L16.0065 0.153809C14.7045 0.184809 13.4425 0.249809 12.2295 0.343809C10.8825 0.685809 8.59655 1.57081 6.31055 3.24581L6.42855 3.19881Z" fill="#3B94D9"/>
<path d="M28.4715 3.375C27.8115 2.932 27.1255 2.465 26.4705 2.115C23.9465 0.765 21.0625 0 17.9995 0C15.0705 0 12.3045 0.7 9.85945 1.941C8.77045 2.494 7.97845 2.94 7.68945 3.375H28.4715Z" fill="#2C8EEA"/>
</svg>
