<svg width="30" height="30" viewBox="0 0 30 30" fill="none" xmlns="http://www.w3.org/2000/svg">
<g clip-path="url(#clip0)">
<path d="M10.5122 18.7C10.2747 18.7 10.0497 18.6625 9.86224 18.6C9.67554 18.538 9.50482 18.4355 9.36224 18.3C9.22474 18.175 9.11224 18.025 9.03724 17.8375C8.96224 17.6625 8.92474 17.4625 8.92474 17.25H7.29974C7.29974 17.7 7.38724 18.1 7.56224 18.4375C7.73724 18.775 7.97474 19.0625 8.26224 19.3C8.56224 19.525 8.89974 19.7 9.28724 19.8125C9.66224 19.9375 10.0622 20 10.4872 20C10.9497 20 11.3872 19.9375 11.7747 19.8125C12.1747 19.6875 12.5247 19.5 12.8122 19.2625C13.0997 19.025 13.3372 18.725 13.4997 18.3625C13.6622 18 13.7497 17.6 13.7497 17.15C13.7497 16.9125 13.7247 16.675 13.6622 16.45C13.6029 16.2228 13.5057 16.0073 13.3747 15.8125C13.2497 15.6125 13.0747 15.4375 12.8747 15.275C12.6622 15.1125 12.4122 14.9875 12.1122 14.8875C12.5641 14.6861 12.9497 14.3611 13.2247 13.95C13.3497 13.7625 13.4372 13.575 13.4997 13.375C13.5622 13.175 13.5872 12.975 13.5872 12.775C13.5872 12.325 13.5122 11.925 13.3622 11.575C13.2122 11.225 12.9997 10.9375 12.7247 10.7125C12.4747 10.475 12.1372 10.3 11.7622 10.175C11.3747 10.0625 10.9497 9.99997 10.4872 9.99997C10.0372 9.99997 9.62474 10.0625 9.23724 10.2C8.86224 10.3375 8.52474 10.525 8.24974 10.7625C7.98724 11 7.77474 11.275 7.61224 11.6C7.46224 11.925 7.38724 12.275 7.38724 12.6625H9.01224C9.01224 12.45 9.04974 12.2625 9.12474 12.1C9.19974 11.9375 9.29974 11.7875 9.43724 11.675C9.57474 11.5625 9.72474 11.4625 9.91224 11.4C10.0997 11.3375 10.2872 11.3 10.5122 11.3C11.0122 11.3 11.3872 11.425 11.6247 11.6875C11.8622 11.9375 11.9872 12.3 11.9872 12.7625C11.9872 12.9875 11.9497 13.1875 11.8872 13.375C11.8247 13.5625 11.7122 13.7125 11.5747 13.8375C11.4372 13.9625 11.2622 14.0625 11.0622 14.1375C10.8622 14.2125 10.6122 14.25 10.3372 14.25H9.37474V15.5375H10.3372C10.6122 15.5375 10.8622 15.5625 11.0872 15.625C11.3122 15.6875 11.4997 15.7875 11.6497 15.9125C11.7997 16.05 11.9247 16.2125 12.0122 16.4125C12.0997 16.6125 12.1372 16.85 12.1372 17.125C12.1372 17.6375 11.9872 18.025 11.6997 18.2875C11.4122 18.575 11.0122 18.7 10.5122 18.7ZM22.1372 12.8C21.9122 12.2125 21.5997 11.7125 21.1997 11.3C20.7997 10.8875 20.3247 10.5625 19.7747 10.3375C19.2372 10.1125 18.6247 9.99997 17.9497 9.99997H14.9997V20H17.8747C18.5622 20 19.1997 19.8875 19.7622 19.6625C20.3247 19.4375 20.8122 19.125 21.2122 18.7125C21.6122 18.3 21.9247 17.8 22.1372 17.225C22.3497 16.6375 22.4622 15.9875 22.4622 15.2625V14.7625C22.4622 14.0375 22.3497 13.3875 22.1372 12.8ZM20.7247 15.25C20.7247 15.775 20.6622 16.2375 20.5497 16.6625C20.4247 17.075 20.2497 17.4375 20.0122 17.725C19.7747 18.0125 19.4747 18.2375 19.1247 18.3875C18.7622 18.5375 18.3497 18.6125 17.8872 18.6125H16.7497V11.3875H17.9622C18.8622 11.3875 19.5497 11.675 20.0122 12.25C20.4872 12.825 20.7247 13.65 20.7247 14.7375V15.25ZM18.9372 4.79997L20.5997 3.13747C24.4622 4.96247 27.2747 8.59997 27.9622 12.9625C28.0372 13.475 28.5122 13.825 29.0372 13.7375C29.5497 13.6625 29.8997 13.175 29.8122 12.6625C29.0622 7.89997 26.1122 3.89997 22.0122 1.72497C19.6067 0.445942 16.8941 -0.142438 14.1747 0.0249702L18.9372 4.79997ZM11.0622 25.1875L9.39974 26.85C7.46484 25.9362 5.78257 24.5634 4.49938 22.851C3.21619 21.1387 2.37095 19.1386 2.03724 17.025C2.01957 16.9026 1.97743 16.785 1.91334 16.6792C1.84925 16.5735 1.76452 16.4817 1.6642 16.4094C1.56388 16.337 1.45003 16.2856 1.32943 16.2583C1.20883 16.2309 1.08395 16.2281 0.962242 16.25C0.449742 16.325 0.099742 16.8125 0.187242 17.325C0.937242 22.0875 3.88724 26.0875 7.98724 28.2625C10.0747 29.375 12.7747 30.15 15.8247 29.9625L11.0622 25.1875Z" fill="#8C92A4"/>
</g>
<defs>
<clipPath id="clip0">
<rect width="30" height="30" fill="white"/>
</clipPath>
</defs>
</svg>
