<svg width="34" height="34" viewBox="0 0 34 34" fill="none" xmlns="http://www.w3.org/2000/svg">
<path d="M26.2321 16.8932L21.8635 4.87025C21.7204 4.47646 21.3462 4.21436 20.9272 4.21436H17.86C17.3099 4.21436 16.8639 4.66034 16.8639 5.21045C16.8639 5.76056 17.3099 6.20654 17.86 6.20654H20.2294L21.1345 8.69764L16.719 15.3094H14.1293C13.4902 14.0313 12.5583 12.1675 12.1371 11.325H13.8312C14.3813 11.325 14.8273 10.879 14.8273 10.3289C14.8273 9.7788 14.3813 9.33282 13.8312 9.33282H9.05004C8.49993 9.33282 8.05395 9.7788 8.05395 10.3289C8.05395 10.879 8.49993 11.325 9.05004 11.325H9.9098L11.2658 14.037C8.57099 12.6242 5.43482 12.4935 2.70526 13.5444C2.19194 13.742 1.93594 14.3184 2.13363 14.8319C2.33132 15.3453 2.90793 15.6012 3.42105 15.4035C5.56743 14.5773 8.07261 14.6414 10.2679 15.7647L9.15078 17.4351C4.90297 15.4575 0 18.5766 0 23.2781C0 26.8299 2.8896 29.7195 6.44141 29.7195C9.65454 29.7195 12.3255 27.3547 12.8057 24.2742C12.8171 24.2742 16.9894 24.2744 17.0008 24.2744C17.45 24.2744 17.6234 24.0372 17.8284 23.8314L23.5309 15.2926L24.3602 17.5752C22.3496 18.6838 20.9844 20.8244 20.9844 23.2781C20.9844 26.8665 23.9038 29.7859 27.4922 29.7859C31.0806 29.7859 34 26.8665 34 23.2781C34 19.1891 30.2546 16.1007 26.2321 16.8932ZM12.3585 16.2224L15.3883 22.282H12.8057C12.5769 20.8143 11.8506 19.5092 10.8053 18.5448L12.3585 16.2224ZM9.67818 20.2302C10.2108 20.7955 10.5971 21.4996 10.7768 22.282H8.30589L9.67818 20.2302ZM6.44141 27.7274C3.98809 27.7274 1.99219 25.7314 1.99219 23.2781C1.99219 20.1643 5.12324 18.0132 8.02353 19.1206C8.01909 19.1273 5.46384 22.9481 5.61345 22.7244C5.17305 23.3819 5.64373 24.2743 6.44273 24.2743H10.7769C10.3231 26.2493 8.55226 27.7274 6.44141 27.7274ZM17.124 21.2989L15.1254 17.3016H17.2515C17.5843 17.3016 17.8951 17.1354 18.0799 16.8587L21.9787 11.0208L22.6868 12.9695L17.124 21.2989ZM27.4922 27.7938C25.0023 27.7938 22.9766 25.768 22.9766 23.2781C22.9766 21.6864 23.8051 20.2856 25.0527 19.4812L26.5559 23.6183C26.7439 24.1354 27.3153 24.4021 27.8324 24.2144C28.3494 24.0265 28.6163 23.455 28.4284 22.9379L26.9247 18.7994C29.6478 18.4561 32.0078 20.5893 32.0078 23.2781C32.0078 25.768 29.9821 27.7938 27.4922 27.7938Z" fill="#2C8EEA"/>
</svg>
