<svg width="255" height="209" viewBox="0 0 255 209" fill="none" xmlns="http://www.w3.org/2000/svg">
<path d="M194.81 3.31124C226.24 10.9442 256.772 34.9657 270.916 67.2937C285.284 99.3972 283.263 139.583 269.344 174.156C255.425 208.504 229.608 237.016 199.3 245.098C168.768 253.18 133.522 241.057 100.52 238.138C67.7431 235.22 36.7621 241.506 20.5981 228.709C4.43409 215.913 3.08709 184.034 1.96459 157.318C0.617592 130.603 -0.504908 109.275 4.20959 88.3967C8.92409 67.5182 19.4756 46.8642 36.3131 34.5167C52.9261 21.9447 75.6006 17.4547 103.214 10.9442C130.828 4.43374 163.38 -4.54626 194.81 3.31124Z" fill="#FF9376"/>
</svg>
