<svg width="30" height="30" viewBox="0 0 30 30" fill="none" xmlns="http://www.w3.org/2000/svg">
<path d="M13.4766 7.61719C13.4766 5.67867 11.8995 4.10156 9.96094 4.10156C8.02242 4.10156 6.44531 5.67867 6.44531 7.61719C6.44531 9.5557 8.02242 11.1328 9.96094 11.1328C11.8995 11.1328 13.4766 9.5557 13.4766 7.61719ZM9.96094 8.78906C9.31477 8.78906 8.78906 8.26336 8.78906 7.61719C8.78906 6.97102 9.31477 6.44531 9.96094 6.44531C10.6071 6.44531 11.1328 6.97102 11.1328 7.61719C11.1328 8.26336 10.6071 8.78906 9.96094 8.78906Z" fill="#2C8EEA"/>
<path d="M11.7188 11.1328H9.96094H8.20312C6.26461 11.1328 4.6875 12.7099 4.6875 14.6484V20.918H6.44531V25.8984H8.78906V18.5742H7.03125V14.6484C7.03125 14.0023 7.55695 13.4766 8.20312 13.4766H11.7188C12.3649 13.4766 12.8906 14.0023 12.8906 14.6484V18.5742H11.1328V25.8984H13.4766V20.918H15.2344V14.6484C15.2344 12.7099 13.6573 11.1328 11.7188 11.1328Z" fill="#2C8EEA"/>
<path d="M26.4844 0H3.51562C1.57711 0 0 1.57711 0 3.51562V26.4844C0 28.4229 1.57711 30 3.51562 30H26.4844C28.4229 30 30 28.4229 30 26.4844V3.51562C30 1.57711 28.4229 0 26.4844 0ZM27.6562 26.4844C27.6562 27.1305 27.1305 27.6562 26.4844 27.6562H3.51562C2.86945 27.6562 2.34375 27.1305 2.34375 26.4844V3.51562C2.34375 2.86945 2.86945 2.34375 3.51562 2.34375H26.4844C27.1305 2.34375 27.6562 2.86945 27.6562 3.51562V26.4844Z" fill="#2C8EEA"/>
<path d="M17.3643 8.53518L19.0216 10.1924L20.5008 8.71318V13.2424H22.8446V8.64152L24.3955 10.1924L26.0528 8.53518L21.7085 4.19092L17.3643 8.53518Z" fill="#2C8EEA"/>
<path d="M22.8456 21.4172V16.2305H20.5018V21.3456L19.0226 19.8664L17.3652 21.5237L21.7095 25.8679L26.0538 21.5236L24.3965 19.8663L22.8456 21.4172Z" fill="#2C8EEA"/>
</svg>
