<svg width="30" height="30" viewBox="0 0 30 30" fill="none" xmlns="http://www.w3.org/2000/svg">
<path d="M13.7392 5.91268C15.3703 5.91268 16.6954 4.58907 16.6954 2.95637C16.6954 1.32318 15.3703 0 13.7392 0C12.1063 0 10.7822 1.32318 10.7822 2.95637C10.7822 4.58907 12.1063 5.91268 13.7392 5.91268Z" fill="#2C8EEA"/>
<path d="M18.3073 22.6653C17.5217 25.393 15.0071 27.3962 12.0298 27.3962C8.42438 27.3962 5.49234 24.464 5.49234 20.8597C5.49234 18.1916 7.10193 15.8952 9.399 14.8805V12.1094C5.63723 13.2424 2.88867 16.7344 2.88867 20.8597C2.88867 25.8995 6.98931 30.0002 12.0297 30.0002C15.703 30.0002 18.8691 27.8171 20.3208 24.6848L19.2886 22.6569C18.9989 22.6593 18.6633 22.6623 18.3073 22.6653Z" fill="#2C8EEA"/>
<path d="M26.9201 26.1746L22.9602 18.3893C22.6647 17.8068 22.0672 17.4401 21.4136 17.4401H16.3419V16.2836H20.7068C21.1427 16.2836 21.5091 16.0558 21.7457 15.7276C21.8995 15.5138 22.0089 15.2654 22.0089 14.9815C22.0089 14.2626 21.4266 13.6795 20.7068 13.6795H18.0771H16.3419V9.75687C16.3419 8.67803 15.5419 7.15283 13.7387 7.15283C12.3006 7.15283 11.1348 8.31887 11.1348 9.75687V18.2556C11.1348 19.7226 12.324 20.9119 13.7911 20.9119H18.5636H20.3493L23.8266 27.7486C24.1321 28.3508 24.7419 28.6983 25.3748 28.6983C25.64 28.6983 25.909 28.6376 26.1603 28.509C27.0161 28.0749 27.356 27.0292 26.9201 26.1746Z" fill="#2C8EEA"/>
</svg>
