<svg width="25" height="25" viewBox="0 0 25 25" fill="none" xmlns="http://www.w3.org/2000/svg">
<g clip-path="url(#clip0)">
<path d="M14.8152 17.061C13.5386 15.7844 11.4615 15.7844 10.185 17.061C8.9084 18.3375 8.9084 20.4146 10.185 21.6912C10.8232 22.3295 11.6616 22.6486 12.5 22.6486C13.3385 22.6486 14.1769 22.3295 14.8151 21.6912C16.0917 20.4146 16.0917 18.3375 14.8152 17.061Z" fill="#2C8EEA"/>
<path d="M20.0659 12.1503C15.8941 7.97854 9.106 7.97854 4.93423 12.1503C4.79253 12.292 4.71289 12.4842 4.71289 12.6846C4.71289 12.885 4.79253 13.0772 4.93423 13.2189L7.23989 15.5245C7.38159 15.6662 7.57377 15.7459 7.77416 15.7459C7.9746 15.7459 8.16674 15.6662 8.30849 15.5245C9.42607 14.4069 10.9146 13.7915 12.5 13.7915C14.0853 13.7915 15.574 14.4069 16.6915 15.5245C16.8332 15.6662 17.0254 15.7459 17.2259 15.7459C17.4262 15.7459 17.6184 15.6662 17.7601 15.5245L20.0658 13.2189C20.2075 13.0772 20.2871 12.885 20.2871 12.6846C20.2872 12.4841 20.2076 12.292 20.0659 12.1503Z" fill="#2C8EEA"/>
<path d="M24.7787 7.43759C21.499 4.15781 17.1383 2.35156 12.5 2.35156C7.8617 2.35156 3.50107 4.15781 0.221337 7.43759C-0.0737792 7.73271 -0.0737792 8.21112 0.221337 8.50624L2.527 10.8119C2.82206 11.107 3.30053 11.107 3.59565 10.8119C8.50555 5.90204 16.4945 5.90204 21.4044 10.8119C21.5519 10.9595 21.7453 11.0332 21.9386 11.0332C22.132 11.0332 22.3254 10.9595 22.4729 10.8119L24.7786 8.50624C25.0738 8.21112 25.0738 7.73271 24.7787 7.43759Z" fill="#2C8EEA"/>
</g>
<defs>
<clipPath id="clip0">
<rect width="25" height="25" fill="white"/>
</clipPath>
</defs>
</svg>
