<svg width="18" height="10" viewBox="0 0 18 10" fill="none" xmlns="http://www.w3.org/2000/svg">
<path fill-rule="evenodd" clip-rule="evenodd" d="M11.951 0.388502C12.0149 0.324477 12.0907 0.273681 12.1743 0.239022C12.2578 0.204363 12.3473 0.186523 12.4378 0.186523C12.5282 0.186523 12.6177 0.204363 12.7012 0.239022C12.7848 0.273681 12.8606 0.324477 12.9245 0.388502L17.0495 4.5135C17.1135 4.57736 17.1643 4.65323 17.199 4.73675C17.2336 4.82028 17.2515 4.90982 17.2515 5.00025C17.2515 5.09068 17.2336 5.18022 17.199 5.26375C17.1643 5.34727 17.1135 5.42314 17.0495 5.487L12.9245 9.612C12.7954 9.74109 12.6203 9.81362 12.4378 9.81362C12.2552 9.81362 12.0801 9.74109 11.951 9.612C11.8219 9.4829 11.7494 9.30781 11.7494 9.12525C11.7494 8.94268 11.8219 8.76759 11.951 8.6385L15.5906 5.00025L11.951 1.362C11.887 1.29814 11.8362 1.22227 11.8015 1.13875C11.7669 1.05522 11.749 0.965682 11.749 0.875252C11.749 0.784822 11.7669 0.69528 11.8015 0.611756C11.8362 0.528231 11.887 0.452365 11.951 0.388502Z" fill="#2C8EEA"/>
<path fill-rule="evenodd" clip-rule="evenodd" d="M0.75 5C0.75 4.81766 0.822433 4.6428 0.951364 4.51386C1.0803 4.38493 1.25516 4.3125 1.4375 4.3125H15.875C16.0573 4.3125 16.2322 4.38493 16.3611 4.51386C16.4901 4.6428 16.5625 4.81766 16.5625 5C16.5625 5.18234 16.4901 5.35721 16.3611 5.48614C16.2322 5.61507 16.0573 5.6875 15.875 5.6875H1.4375C1.25516 5.6875 1.0803 5.61507 0.951364 5.48614C0.822433 5.35721 0.75 5.18234 0.75 5Z" fill="#2C8EEA"/>
</svg>
