<svg width="22" height="30" viewBox="0 0 22 30" fill="none" xmlns="http://www.w3.org/2000/svg">
<path d="M11 0C5.195 0 0.5 4.695 0.5 10.5C0.5 16.755 7.13 25.38 9.86 28.665C10.46 29.385 11.555 29.385 12.155 28.665C14.87 25.38 21.5 16.755 21.5 10.5C21.5 4.695 16.805 0 11 0ZM11 14.25C10.0054 14.25 9.05161 13.8549 8.34835 13.1517C7.64509 12.4484 7.25 11.4946 7.25 10.5C7.25 9.50544 7.64509 8.55161 8.34835 7.84835C9.05161 7.14509 10.0054 6.75 11 6.75C11.9946 6.75 12.9484 7.14509 13.6517 7.84835C14.3549 8.55161 14.75 9.50544 14.75 10.5C14.75 11.4946 14.3549 12.4484 13.6517 13.1517C12.9484 13.8549 11.9946 14.25 11 14.25Z" fill="#8C92A4"/>
</svg>
