<svg width="36" height="36" viewBox="0 0 36 36" fill="none" xmlns="http://www.w3.org/2000/svg">
<path d="M18 36C27.9411 36 36 27.9411 36 18C36 8.05887 27.9411 0 18 0C8.05887 0 0 8.05887 0 18C0 27.9411 8.05887 36 18 36Z" fill="#2C8EEA"/>
<path d="M16.0001 16.958C15.5811 16.958 15.1911 16.693 15.0511 16.274C14.8481 15.675 14.0331 13.958 13.0001 13.958C11.9381 13.958 11.1121 15.785 10.9491 16.274C10.7741 16.797 10.2111 17.082 9.68408 16.906C9.16008 16.732 8.87708 16.165 9.05208 15.641C9.17708 15.264 10.3561 11.957 13.0011 11.957C15.6461 11.957 16.8241 15.264 16.9501 15.641C17.1251 16.165 16.8421 16.732 16.3181 16.906C16.2121 16.942 16.1051 16.958 16.0001 16.958ZM26.0001 16.958C25.5811 16.958 25.1911 16.693 25.0521 16.274C24.8491 15.675 24.0331 13.958 23.0001 13.958C21.9381 13.958 21.1111 15.785 20.9481 16.274C20.7731 16.797 20.2121 17.082 19.6831 16.906C19.1601 16.732 18.8761 16.165 19.0511 15.641C19.1761 15.264 20.3551 11.957 22.9991 11.957C25.6431 11.957 26.8221 15.264 26.9471 15.641C27.1221 16.165 26.8391 16.732 26.3151 16.906C26.2111 16.942 26.1051 16.958 26.0001 16.958ZM27.3351 20.691C27.1571 20.53 26.8911 20.52 26.7001 20.662C26.6611 20.691 22.7781 23.562 18.0001 23.562C13.2341 23.562 9.33808 20.691 9.30008 20.662C9.10908 20.52 8.84308 20.532 8.66508 20.691C8.48808 20.851 8.44808 21.115 8.57108 21.319C8.70008 21.534 11.7881 26.562 18.0001 26.562C24.2121 26.562 27.3011 21.534 27.4291 21.319C27.5521 21.114 27.5131 20.852 27.3351 20.691Z" fill="white"/>
<path d="M21.2292 3.94696C21.2292 4.18696 21.2592 4.41896 21.3112 4.64296C21.7362 7.28596 24.6752 10.074 26.7812 10.84C28.4462 10.235 30.6272 8.36397 31.6792 6.30096C29.5902 3.86096 26.8602 1.98696 23.7502 0.938965C22.3182 1.19596 21.2292 2.44096 21.2292 3.94696ZM13.7432 29.078C13.8002 28.836 13.8332 28.584 13.8332 28.324C13.8332 26.491 12.3472 25.005 10.5142 25.005C9.40123 25.005 8.42023 25.554 7.81723 26.394C7.21523 25.555 6.23323 25.005 5.12023 25.005C3.87923 25.005 2.80923 25.694 2.24023 26.703C4.06423 29.998 6.89023 32.66 10.3082 34.277C11.9452 32.926 13.4392 30.97 13.7432 29.078ZM34.3012 25.642C34.0192 24.692 33.1492 23.995 32.1072 23.995C31.3362 23.995 30.6562 24.375 30.2392 24.957C29.8222 24.375 29.1422 23.995 28.3712 23.995C27.1012 23.995 26.0722 25.024 26.0722 26.294C26.0722 26.474 26.0952 26.648 26.1342 26.816C26.4412 28.721 28.4822 30.712 30.0432 31.377C31.8192 29.777 33.2742 27.83 34.3012 25.642Z" fill="#60B2FF"/>
</svg>
