<svg width="30" height="30" viewBox="0 0 30 30" fill="none" xmlns="http://www.w3.org/2000/svg">
<path d="M23.6506 18.3257H20.6436V28.8403H23.6506V18.3257Z" fill="#2C8EEA"/>
<path d="M18.8859 18.3257H15.8789V28.8403H18.8859V18.3257Z" fill="#2C8EEA"/>
<path d="M1.76172 18.3257V25.1655C1.76172 26.8398 2.70842 28.255 3.99842 28.6968V18.3257H1.76172Z" fill="#2C8EEA"/>
<path d="M14.1213 18.3257H11.1143V28.8403H14.1213V18.3257Z" fill="#2C8EEA"/>
<path d="M9.35586 18.3257H5.75586V28.8403H9.35586V18.3257Z" fill="#2C8EEA"/>
<path d="M25.4082 18.3257V28.8266C26.9907 28.6685 28.238 27.0875 28.238 25.1655V18.3257H25.4082Z" fill="#2C8EEA"/>
<path d="M12.0388 8.23035L11.6086 7.88459C11.5165 7.81059 11.4477 7.71608 11.4045 7.61055C11.37 7.52635 11.3513 7.43541 11.3526 7.34114C11.3534 7.2833 11.3619 7.22688 11.3764 7.17256C11.4151 7.02742 11.5001 6.89828 11.6231 6.80483C12.2176 6.35307 12.5691 5.66582 12.5872 4.91934C12.6055 4.17291 12.288 3.46938 11.7162 2.98914C11.3444 2.67696 10.7901 2.72512 10.478 3.09684C10.1657 3.46856 10.2139 4.02291 10.5857 4.3351C10.8052 4.5195 10.833 4.75352 10.8299 4.87651C10.8269 4.99955 10.7878 5.23182 10.5595 5.40532C9.95677 5.8634 9.60521 6.56037 9.59495 7.31741C9.58476 8.07438 9.91734 8.78055 10.5074 9.25475L10.9377 9.60051C11.1001 9.731 11.2946 9.7944 11.4878 9.7944C11.7449 9.7944 11.9998 9.68201 12.1734 9.46604C12.4775 9.08764 12.4172 8.53446 12.0388 8.23035Z" fill="#2C8EEA"/>
<path d="M15.6829 7.51464L15.1783 7.10906C15.1326 7.07238 15.0921 7.03124 15.0546 6.988C14.9025 6.81263 14.8182 6.5888 14.8214 6.35132C14.824 6.16406 14.8802 5.9864 14.9806 5.83558C15.039 5.74798 15.1121 5.66935 15.1987 5.60349C15.859 5.10175 16.2492 4.33845 16.2695 3.50947C16.2897 2.68042 15.9371 1.89908 15.3021 1.36564C14.9305 1.05339 14.376 1.10161 14.0638 1.47327C13.7516 1.84499 13.7998 2.39941 14.1714 2.71159C14.395 2.89945 14.5193 3.1746 14.5121 3.46658C14.505 3.75837 14.3675 4.0272 14.135 4.20392C13.4656 4.71269 13.0751 5.48671 13.0637 6.32747C13.0524 7.16824 13.4217 7.95245 14.0771 8.47921L14.5818 8.8848C14.7441 9.01529 14.9386 9.07868 15.1318 9.07868C15.389 9.07868 15.6439 8.9663 15.8175 8.75033C16.1215 8.37193 16.0613 7.81874 15.6829 7.51464Z" fill="#2C8EEA"/>
<path d="M19.1883 8.2303L18.758 7.88453C18.6659 7.81053 18.5972 7.71602 18.5539 7.61049C18.5194 7.52629 18.5008 7.43535 18.5021 7.34114C18.5028 7.2833 18.5113 7.22694 18.5258 7.17262C18.5645 7.02748 18.6495 6.89834 18.7726 6.80483C19.3671 6.35301 19.7185 5.66582 19.7366 4.91934C19.7548 4.17285 19.4374 3.46932 18.8656 2.98914C18.4939 2.67696 17.9395 2.72512 17.6274 3.09684C17.3151 3.46856 17.3634 4.02291 17.7351 4.3351C17.9546 4.5195 17.9824 4.75352 17.9793 4.87651C17.9764 4.9995 17.9373 5.23176 17.709 5.40526C17.1062 5.86334 16.7546 6.56026 16.7444 7.31729C16.7341 8.07432 17.0668 8.78049 17.6568 9.25469L18.0872 9.60045C18.2495 9.73094 18.444 9.79434 18.6372 9.79434C18.8943 9.79434 19.1492 9.68196 19.3228 9.46598C19.6269 9.08758 19.5666 8.5344 19.1883 8.2303Z" fill="#2C8EEA"/>
<path d="M29.9963 15.7191C29.9588 15.2682 29.5816 14.9139 29.1211 14.9139H28.2385V14.3085C28.2385 13.7351 27.772 13.2686 27.1986 13.2686H2.80148C2.22809 13.2686 1.76156 13.7351 1.76156 14.3085V14.9139H0.878906C0.418359 14.9139 0.0411914 15.2683 0.00369141 15.7191C0.00169922 15.7434 0 15.7679 0 15.7928C0 15.8177 0.00169922 15.8421 0.00369141 15.8664C0.0411914 16.3172 0.418359 16.6717 0.878906 16.6717H29.1211C29.5816 16.6717 29.9588 16.3172 29.9963 15.8664C29.9984 15.8421 30 15.8176 30 15.7928C30 15.7679 29.9983 15.7434 29.9963 15.7191Z" fill="#2C8EEA"/>
</svg>
