<svg width="55" height="55" viewBox="0 0 55 55" fill="none" xmlns="http://www.w3.org/2000/svg">
<g clip-path="url(#clip0)">
<path d="M45.8249 20.2173C43.283 10.0909 33.0134 3.94251 22.887 6.48448C14.9734 8.47103 9.22729 15.3106 8.63525 23.4481C3.0163 24.3747 -0.787624 29.6809 0.139003 35.2998C0.962731 40.2952 5.29114 43.9534 10.3538 43.9333H18.9466V40.4962H10.3538C6.55729 40.4962 3.47956 37.4185 3.47956 33.622C3.47956 29.8255 6.55729 26.7477 10.3538 26.7477C11.303 26.7477 12.0724 25.9783 12.0724 25.0292C12.0638 16.4869 18.9817 9.55512 27.524 9.54664C34.9185 9.53923 41.284 14.7669 42.7143 22.0217C42.8556 22.746 43.4434 23.2994 44.1751 23.3965C48.8734 24.0656 52.1397 28.4167 51.4707 33.1149C50.87 37.3337 47.2679 40.475 43.0065 40.4962H36.1322V43.9333H43.0065C49.6504 43.9133 55.0201 38.511 54.9999 31.867C54.9831 26.3364 51.1976 21.5297 45.8249 20.2173Z" fill="#2C8EEA"/>
<path d="M26.3196 27.2464L19.4453 34.1206L21.8685 36.5438L25.8212 32.6083V49.0893H29.2583V32.6083L33.1938 36.5438L35.617 34.1206L28.7427 27.2464C28.0724 26.58 26.9899 26.58 26.3196 27.2464Z" fill="#2C8EEA"/>
</g>
<defs>
<clipPath id="clip0">
<rect width="55" height="55" fill="white"/>
</clipPath>
</defs>
</svg>
