<svg width="27" height="27" viewBox="0 0 27 27" fill="none" xmlns="http://www.w3.org/2000/svg">
<path d="M13.3945 7.38281H11.7255C11.6385 7.38281 11.5673 7.454 11.5673 7.54102V16.5111H11.417L5.20488 7.45137C5.17588 7.40918 5.12578 7.38281 5.07568 7.38281H3.32227C3.23525 7.38281 3.16406 7.454 3.16406 7.54102V19.7754C3.16406 19.8624 3.23525 19.9336 3.32227 19.9336H4.97549C5.0625 19.9336 5.13369 19.8624 5.13369 19.7754V10.6813H5.28398L11.5646 19.865C11.5937 19.9072 11.6438 19.9336 11.6965 19.9336H13.3945C13.4815 19.9336 13.5527 19.8624 13.5527 19.7754V7.54102C13.5527 7.454 13.4815 7.38281 13.3945 7.38281ZM23.3613 18.2725H15.3457C15.2297 18.2725 15.1348 18.3674 15.1348 18.4834V19.749C15.1348 19.865 15.2297 19.96 15.3457 19.96H23.3613C23.4773 19.96 23.5723 19.865 23.5723 19.749V18.4834C23.5723 18.3674 23.4773 18.2725 23.3613 18.2725ZM19.3482 16.6113C20.7431 16.6113 21.8584 16.1578 22.6758 15.2481C23.451 14.3807 23.8359 13.2495 23.8359 11.8521C23.8359 10.452 23.451 9.30762 22.6758 8.44277C21.861 7.5252 20.7457 7.06641 19.3482 7.06641C17.9323 7.06641 16.8196 7.52783 16.0181 8.45859C15.2481 9.33135 14.8737 10.4599 14.8737 11.8521C14.8737 13.2337 15.2508 14.3622 16.0207 15.235C16.8275 16.1499 17.9455 16.6113 19.3482 16.6113ZM17.463 9.6583C17.9086 9.11514 18.5256 8.84355 19.3456 8.84355C20.1762 8.84355 20.7905 9.09668 21.2177 9.61084C21.6501 10.1461 21.8742 10.8923 21.8742 11.8494C21.8742 12.8065 21.6527 13.5396 21.2203 14.0616C20.7853 14.5731 20.1656 14.8315 19.3456 14.8315C18.5229 14.8315 17.8954 14.56 17.463 14.03C17.0332 13.5 16.817 12.7828 16.817 11.8521C16.8196 10.9081 17.0332 10.1909 17.463 9.6583Z" fill="#8C92A4"/>
</svg>
