<svg width="30" height="30" viewBox="0 0 30 30" fill="none" xmlns="http://www.w3.org/2000/svg">
<g clip-path="url(#clip0)">
<path d="M29.4962 25.1682C28.9646 24.7993 28.2344 24.9311 27.8653 25.4627C26.3803 27.602 22.0579 27.6032 20.572 25.4627C20.353 25.1472 19.9934 24.9591 19.6094 24.9591C19.2253 24.9591 18.8656 25.1472 18.6467 25.4627C17.1616 27.602 12.8392 27.6032 11.3533 25.4627C11.1343 25.1472 10.7747 24.9591 10.3906 24.9591C10.0065 24.9591 9.6469 25.1473 9.42793 25.4627C7.94288 27.6021 3.62051 27.6032 2.13464 25.4627C1.76556 24.931 1.03531 24.7993 0.503747 25.1682C-0.0279296 25.5373 -0.159765 26.2674 0.209315 26.7991C2.36075 29.8984 7.56191 30.2339 10.3906 27.8509C12.8782 29.9465 17.1509 29.9219 19.6093 27.8509C22.4373 30.2334 27.6411 29.8956 29.7905 26.7991C30.1596 26.2674 30.0278 25.5373 29.4962 25.1682Z" fill="#2C8EEA"/>
<path d="M5.74218 18.5143C6.3894 18.5143 6.91405 17.9897 6.91405 17.3425V15.5849H17.4608V17.3425C17.4608 17.9897 17.9854 18.5143 18.6327 18.5143C19.2799 18.5143 19.8045 17.9897 19.8045 17.3425V4.57006C19.8045 3.66549 20.5405 2.92956 21.4452 2.92956C22.3498 2.92956 23.0858 3.66549 23.0858 4.57006C23.0858 5.21722 23.6104 5.74187 24.2576 5.74187C24.9049 5.74187 25.4295 5.21722 25.4295 4.57006C25.4295 2.37321 23.6421 0.585938 21.4452 0.585938C19.2483 0.585938 17.4609 2.37321 17.4609 4.57006V7.96824H6.91405V4.57006C6.91405 3.66549 7.64998 2.92956 8.55466 2.92956C9.45935 2.92956 10.1953 3.66549 10.1953 4.57006C10.1953 5.21722 10.7199 5.74187 11.3671 5.74187C12.0144 5.74187 12.539 5.21722 12.539 4.57006C12.539 2.37321 10.7516 0.585938 8.55466 0.585938C6.3577 0.585938 4.57031 2.37321 4.57031 4.57006V17.3426C4.57031 17.9897 5.09496 18.5143 5.74218 18.5143ZM6.91405 10.3118H17.4608V13.2413H6.91405V10.3118Z" fill="#2C8EEA"/>
<path d="M10.3908 22.5779C11.5706 23.5719 13.2069 24.139 15.0001 24.139C16.7934 24.139 18.4296 23.5719 19.6094 22.5779C22.4374 24.9604 27.6412 24.6227 29.7907 21.5261C30.1597 20.9944 30.0279 20.2643 29.4962 19.8953C28.9646 19.5263 28.2344 19.6581 27.8653 20.1898C26.3803 22.329 22.0579 22.3303 20.572 20.1898C20.353 19.8743 19.9934 19.6861 19.6094 19.6861C19.2253 19.6861 18.8656 19.8743 18.6467 20.1897C17.1616 22.329 12.8392 22.3303 11.3533 20.1897C11.1343 19.8743 10.7747 19.6861 10.3906 19.6861C10.0065 19.6861 9.6469 19.8743 9.42793 20.1898C7.94288 22.3291 3.62051 22.3303 2.13464 20.1898C1.76556 19.6581 1.03531 19.5263 0.503747 19.8953C-0.0279296 20.2644 -0.159765 20.9944 0.209315 21.5261C2.36075 24.6255 7.56191 24.961 10.3908 22.5779Z" fill="#2C8EEA"/>
</g>
<defs>
<clipPath id="clip0">
<rect width="30" height="30" fill="white"/>
</clipPath>
</defs>
</svg>
