<svg width="30" height="36" viewBox="0 0 30 36" fill="none" xmlns="http://www.w3.org/2000/svg">
<path d="M17.4997 14.3873C17.4997 16.6452 16.0072 18.4758 14.1664 18.4758H3.33328C1.49248 18.4758 0 16.6452 0 14.3873V11.3209C0 9.06305 1.49248 7.23242 3.33328 7.23242H14.1664C16.0072 7.23242 17.4997 9.06305 17.4997 11.3209V14.3873Z" fill="#C1694F"/>
<path d="M30.0004 5.18468C30.0004 7.4427 28.5079 9.27344 26.6671 9.27344H16.6673C14.8265 9.27344 13.334 7.4427 13.334 5.18468V4.16249C13.334 1.90447 14.8265 0.0737305 16.6673 0.0737305H26.6671C28.5079 0.0737305 30.0004 1.90447 30.0004 4.16249V5.18468Z" fill="#C1694F"/>
<path d="M0 11.3203V33.8076C0 34.9361 0.746655 35.8519 1.66664 35.8519H27.4996V11.3203H0Z" fill="#FFCC4D"/>
<path d="M1.66602 31.7635H11.6658V35.8526H1.66602V31.7635ZM1.66602 25.6299H14.9991V29.719H1.66602V25.6299Z" fill="#55ACEE"/>
<path d="M13.334 4.16455V35.8512H28.3337C29.2537 35.8512 30.0004 34.9353 30.0004 33.8069V4.16455H13.334Z" fill="#FFE8B6"/>
<path d="M15 19.4988H28.3331V23.5876H15V19.4988ZM15 13.3656H28.3331V17.4544H15V13.3656ZM15 7.23242H28.3331V11.3212H15V7.23242ZM15 25.632H28.3331V29.7208H15V25.632Z" fill="#55ACEE"/>
<path d="M18.332 6.20703H19.9987V30.7463H18.332V6.20703ZM23.3319 6.20703H24.9985V30.7463H23.3319V6.20703Z" fill="#FFE8B6"/>
<path d="M18.3318 31.7622H24.9984V35.851H18.3318V31.7622ZM8.33195 13.3628V17.4516H4.99867V13.3628H3.33203V23.5847H4.99867V19.4959H8.33195V23.5847H9.99859V13.3628H8.33195Z" fill="#3B88C3"/>
<path d="M5.83398 24.6099H7.50062V30.7463H5.83398V24.6099ZM11.6672 24.6099H13.3339V30.7463H11.6672V24.6099Z" fill="#FFCC4D"/>
</svg>
