<svg width="12" height="12" viewBox="0 0 12 12" fill="none" xmlns="http://www.w3.org/2000/svg">
<path d="M5.65927 1.90869H6.34109C6.40169 1.90869 6.432 1.93899 6.432 1.9996V9.9996C6.432 10.0602 6.40169 10.0905 6.34109 10.0905H5.65927C5.59866 10.0905 5.56836 10.0602 5.56836 9.9996V1.9996C5.56836 1.93899 5.59866 1.90869 5.65927 1.90869Z" fill="#F3F4F8"/>
<path d="M2.18173 5.56787H9.81809C9.8787 5.56787 9.909 5.59817 9.909 5.65878V6.3406C9.909 6.4012 9.8787 6.43151 9.81809 6.43151H2.18173C2.12112 6.43151 2.09082 6.4012 2.09082 6.3406V5.65878C2.09082 5.59817 2.12112 5.56787 2.18173 5.56787Z" fill="#F3F4F8"/>
</svg>
