<svg width="13" height="13" viewBox="0 0 13 13" fill="none" xmlns="http://www.w3.org/2000/svg">
<path d="M7.15772 6.5L10.4902 2.52764C10.5461 2.46162 10.4991 2.36133 10.4128 2.36133H9.39971C9.34004 2.36133 9.28291 2.38799 9.24356 2.43369L6.49502 5.71035L3.74649 2.43369C3.7084 2.38799 3.65127 2.36133 3.59034 2.36133H2.57725C2.49092 2.36133 2.44395 2.46162 2.49981 2.52764L5.83233 6.5L2.49981 10.4724C2.4873 10.4871 2.47927 10.5051 2.47668 10.5242C2.47409 10.5434 2.47705 10.5628 2.4852 10.5803C2.49335 10.5979 2.50636 10.6127 2.52268 10.623C2.53899 10.6333 2.55793 10.6388 2.57725 10.6387H3.59034C3.65 10.6387 3.70713 10.612 3.74649 10.5663L6.49502 7.28965L9.24356 10.5663C9.28164 10.612 9.33877 10.6387 9.39971 10.6387H10.4128C10.4991 10.6387 10.5461 10.5384 10.4902 10.4724L7.15772 6.5Z" fill="#849BB2"/>
</svg>
