<svg width="12" height="12" viewBox="0 0 12 12" fill="none" xmlns="http://www.w3.org/2000/svg">
<path d="M10.3125 1.3125H1.6875C1.48008 1.3125 1.3125 1.48008 1.3125 1.6875V10.3125C1.3125 10.5199 1.48008 10.6875 1.6875 10.6875H10.3125C10.5199 10.6875 10.6875 10.5199 10.6875 10.3125V1.6875C10.6875 1.48008 10.5199 1.3125 10.3125 1.3125ZM9.22969 4.04883H8.48086C7.89375 4.04883 7.78008 4.32773 7.78008 4.73789V5.64141H9.18164L8.99883 7.05586H7.78008V10.6875H6.31875V7.05703H5.09648V5.64141H6.31875V4.59844C6.31875 3.38789 7.0582 2.72813 8.13867 2.72813C8.65664 2.72813 9.10078 2.7668 9.23086 2.78438V4.04883H9.22969Z" fill="black"/>
</svg>
