<svg width="12" height="12" viewBox="0 0 12 12" fill="none" xmlns="http://www.w3.org/2000/svg">
<path d="M10.3125 1.3125H1.6875C1.48008 1.3125 1.3125 1.48008 1.3125 1.6875V10.3125C1.3125 10.5199 1.48008 10.6875 1.6875 10.6875H10.3125C10.5199 10.6875 10.6875 10.5199 10.6875 10.3125V1.6875C10.6875 1.48008 10.5199 1.3125 10.3125 1.3125ZM4.09336 9.30117H2.70234V4.82695H4.09336V9.30117ZM3.39844 4.21523C3.23898 4.21523 3.0831 4.16795 2.95051 4.07936C2.81792 3.99076 2.71458 3.86485 2.65356 3.71752C2.59254 3.5702 2.57657 3.40809 2.60768 3.25169C2.63879 3.0953 2.71558 2.95164 2.82833 2.83888C2.94109 2.72612 3.08475 2.64934 3.24115 2.61823C3.39754 2.58712 3.55965 2.60308 3.70698 2.66411C3.8543 2.72513 3.98022 2.82847 4.06881 2.96106C4.1574 3.09364 4.20469 3.24952 4.20469 3.40898C4.20352 3.8543 3.84258 4.21523 3.39844 4.21523ZM9.30117 9.30117H7.91133V7.125C7.91133 6.60586 7.90195 5.93906 7.18828 5.93906C6.46523 5.93906 6.35391 6.50391 6.35391 7.0875V9.30117H4.96523V4.82695H6.29883V5.43867H6.31758C6.50273 5.08711 6.95625 4.71562 7.63359 4.71562C9.04219 4.71562 9.30117 5.64258 9.30117 6.84727V9.30117Z" fill="black"/>
</svg>
