<svg width="12" height="12" viewBox="0 0 12 12" fill="none" xmlns="http://www.w3.org/2000/svg">
<path fill-rule="evenodd" clip-rule="evenodd" d="M0.666504 6C0.666504 3.05448 3.05432 0.666664 5.99984 0.666664C7.41432 0.666664 8.77088 1.22857 9.77107 2.22876C10.7713 3.22896 11.3332 4.58551 11.3332 6C11.3332 8.94552 8.94536 11.3333 5.99984 11.3333C3.05432 11.3333 0.666504 8.94552 0.666504 6ZM6.33318 9.84333V10.65C8.64419 10.4823 10.4821 8.64433 10.6498 6.33333H9.84318V5.66666H10.6498C10.4821 3.35566 8.64419 1.5177 6.33318 1.34999V2.15666H5.66651V1.34999C3.35551 1.5177 1.51755 3.35566 1.34985 5.66666H2.15652V6.33333H1.34985C1.51755 8.64433 3.35551 10.4823 5.66651 10.65V9.84333H6.33318ZM6.93983 5.10333L3.4865 3C3.33317 2.91333 3.1165 3.12333 3.19983 3.28L5.24983 6.8L8.76983 8.85C8.851 8.87943 8.94189 8.85866 9.00222 8.7969C9.06255 8.73513 9.08117 8.64378 9.04983 8.56333L6.93983 5.10333ZM6.6065 5.43667L5.6065 6.43667L8.12316 7.91667L6.6065 5.43667Z" fill="white"/>
</svg>
