<svg width="20" height="20" viewBox="0 0 20 20" fill="none" xmlns="http://www.w3.org/2000/svg">
<path fill-rule="evenodd" clip-rule="evenodd" d="M13.3333 4.99996C13.7754 4.99996 14.1993 4.82436 14.5118 4.5118C14.8244 4.19924 15 3.77532 15 3.33329C15 2.89127 14.8244 2.46734 14.5118 2.15478C14.1993 1.84222 13.7754 1.66663 13.3333 1.66663C12.8913 1.66663 12.4674 1.84222 12.1548 2.15478C11.8423 2.46734 11.6667 2.89127 11.6667 3.33329C11.6667 3.77532 11.8423 4.19924 12.1548 4.5118C12.4674 4.82436 12.8913 4.99996 13.3333 4.99996ZM11.0358 4.60829C11.1715 4.64229 11.2964 4.70987 11.3991 4.80483C11.5017 4.89978 11.5789 5.01904 11.6233 5.15163C11.775 5.60413 11.9867 5.99996 12.2475 6.33329C12.9658 7.24996 14.125 7.77329 15.6967 7.51163C15.8061 7.49002 15.9188 7.4906 16.028 7.51334C16.1372 7.53607 16.2407 7.5805 16.3324 7.644C16.4241 7.70749 16.5022 7.78875 16.5619 7.88296C16.6216 7.97716 16.6618 8.08241 16.6801 8.19244C16.6984 8.30248 16.6945 8.41507 16.6685 8.52354C16.6424 8.63202 16.5949 8.73416 16.5287 8.82392C16.4625 8.91368 16.3789 8.98924 16.2829 9.0461C16.1869 9.10296 16.0805 9.13998 15.97 9.15496C14.19 9.45163 12.6492 8.99913 11.5367 8.00413L9.27417 9.98913L10.6267 11.5341C10.7599 11.6861 10.8333 11.8812 10.8333 12.0833V15.8333C10.8333 16.0543 10.7455 16.2663 10.5893 16.4225C10.433 16.5788 10.221 16.6666 10 16.6666C9.77899 16.6666 9.56702 16.5788 9.41074 16.4225C9.25446 16.2663 9.16667 16.0543 9.16667 15.8333V12.3966L7.47417 10.4633L7.4375 10.4216C7.2375 10.1991 6.90417 9.82579 6.75917 9.38579C6.67083 9.11496 6.6425 8.80246 6.73833 8.47246C6.83 8.15246 7.02 7.88079 7.255 7.64996L7.26667 7.63913L10.2608 4.81079C10.3626 4.71466 10.487 4.64571 10.6224 4.61032C10.7579 4.57493 10.9 4.57423 11.0358 4.60829ZM1.66667 14.1666C1.66667 13.5036 1.93006 12.8677 2.3989 12.3989C2.86774 11.93 3.50363 11.6666 4.16667 11.6666C4.82971 11.6666 5.46559 11.93 5.93443 12.3989C6.40327 12.8677 6.66667 13.5036 6.66667 14.1666C6.66667 14.8297 6.40327 15.4656 5.93443 15.9344C5.46559 16.4032 4.82971 16.6666 4.16667 16.6666C3.50363 16.6666 2.86774 16.4032 2.3989 15.9344C1.93006 15.4656 1.66667 14.8297 1.66667 14.1666ZM4.16667 9.99996C3.0616 9.99996 2.00179 10.4389 1.22039 11.2203C0.438987 12.0017 0 13.0616 0 14.1666C0 15.2717 0.438987 16.3315 1.22039 17.1129C2.00179 17.8943 3.0616 18.3333 4.16667 18.3333C5.27174 18.3333 6.33154 17.8943 7.11294 17.1129C7.89435 16.3315 8.33333 15.2717 8.33333 14.1666C8.33333 13.0616 7.89435 12.0017 7.11294 11.2203C6.33154 10.4389 5.27174 9.99996 4.16667 9.99996ZM13.3333 14.1666C13.3333 13.5036 13.5967 12.8677 14.0656 12.3989C14.5344 11.93 15.1703 11.6666 15.8333 11.6666C16.4964 11.6666 17.1323 11.93 17.6011 12.3989C18.0699 12.8677 18.3333 13.5036 18.3333 14.1666C18.3333 14.8297 18.0699 15.4656 17.6011 15.9344C17.1323 16.4032 16.4964 16.6666 15.8333 16.6666C15.1703 16.6666 14.5344 16.4032 14.0656 15.9344C13.5967 15.4656 13.3333 14.8297 13.3333 14.1666ZM15.8333 9.99996C14.7283 9.99996 13.6685 10.4389 12.8871 11.2203C12.1057 12.0017 11.6667 13.0616 11.6667 14.1666C11.6667 15.2717 12.1057 16.3315 12.8871 17.1129C13.6685 17.8943 14.7283 18.3333 15.8333 18.3333C16.9384 18.3333 17.9982 17.8943 18.7796 17.1129C19.561 16.3315 20 15.2717 20 14.1666C20 13.0616 19.561 12.0017 18.7796 11.2203C17.9982 10.4389 16.9384 9.99996 15.8333 9.99996Z" fill="#747DCE"/>
</svg>
