<svg width="15" height="15" viewBox="0 0 15 15" fill="none" xmlns="http://www.w3.org/2000/svg">
<g clip-path="url(#clip0)">
<path d="M9.97902 7.2832V7.66235C9.97902 8.55865 9.2498 9.28798 8.35339 9.28798H6.6465C5.7502 9.28798 5.02087 8.55876 5.02087 7.66235V7.2832H0V12.1975C0 13.022 0.670738 13.6927 1.49517 13.6927H13.5048C14.3293 13.6927 15 13.022 15 12.1975V7.2832H9.97902Z" fill="#2C8EEA"/>
<path d="M5.91211 7.66235C5.91211 8.0677 6.24181 8.3974 6.64716 8.3974H8.35405C8.7594 8.3974 9.08922 8.0677 9.08922 7.66235V7.2832H5.91211V7.66235Z" fill="#2C8EEA"/>
<path d="M15 6.39278V5.07042C15 4.24599 14.3293 3.57525 13.5048 3.57525H10.2348V2.46471C10.2348 1.83254 9.72061 1.31836 9.08844 1.31836H5.91156C5.27939 1.31836 4.76521 1.83254 4.76521 2.46471V3.57525H1.49517C0.670738 3.57525 0 4.24599 0 5.07042V6.39267H15V6.39278ZM5.65567 2.46471C5.65567 2.32361 5.77045 2.20882 5.91156 2.20882H9.08844C9.22955 2.20882 9.34433 2.32361 9.34433 2.46471V3.57525H5.65567V2.46471Z" fill="#2C8EEA"/>
</g>
<defs>
<clipPath id="clip0">
<rect width="15" height="15" fill="white"/>
</clipPath>
</defs>
</svg>
