<svg width="12" height="12" viewBox="0 0 12 12" fill="none" xmlns="http://www.w3.org/2000/svg">
<path d="M4.48068 7.125C4.11367 7.12504 3.75489 7.01623 3.44972 6.81235C3.14456 6.60847 2.90671 6.31867 2.76625 5.9796C2.6258 5.64053 2.58905 5.26742 2.66066 4.90746C2.73227 4.54751 2.90902 4.21687 3.16855 3.95738L5.0833 2.04338C5.4313 1.69538 5.90329 1.49988 6.39543 1.49988C6.88757 1.49988 7.35956 1.69538 7.70755 2.04338C8.05555 2.39137 8.25105 2.86336 8.25105 3.3555C8.25105 3.84764 8.05555 4.31963 7.70755 4.66763L7.50018 4.87463L6.96955 4.34475L7.17843 4.13588C7.38501 3.92831 7.50086 3.64729 7.50058 3.35444C7.5003 3.06159 7.38391 2.7808 7.17693 2.57363C6.96626 2.37258 6.68625 2.26041 6.39505 2.26041C6.10385 2.26041 5.82384 2.37258 5.61318 2.57363L3.69918 4.48763C3.59643 4.59026 3.51491 4.71215 3.4593 4.84631C3.40369 4.98047 3.37506 5.12427 3.37506 5.2695C3.37506 5.41473 3.40369 5.55854 3.4593 5.6927C3.51491 5.82686 3.59643 5.94874 3.69918 6.05138C3.90984 6.25242 4.18985 6.36459 4.48105 6.36459C4.77225 6.36459 5.05226 6.25242 5.26293 6.05138L5.79318 6.58163C5.62119 6.75447 5.41663 6.89148 5.19134 6.98475C4.96606 7.07802 4.72451 7.12569 4.48068 7.125Z" fill="black"/>
<path d="M7.48068 6.375C7.11367 6.37504 6.75489 6.26623 6.44972 6.06235C6.14456 5.85847 5.90671 5.56867 5.76625 5.2296C5.6258 4.89053 5.58905 4.51742 5.66066 4.15746C5.73227 3.79751 5.90902 3.46688 6.16855 3.20738L6.37593 3.00038L6.90618 3.531L6.69918 3.738C6.49187 3.94532 6.3754 4.2265 6.3754 4.51969C6.3754 4.81288 6.49187 5.09406 6.69918 5.30138C6.90984 5.50242 7.18985 5.61459 7.48105 5.61459C7.77225 5.61459 8.05226 5.50242 8.26293 5.30138L10.1773 3.387C10.3842 3.17955 10.5004 2.89851 10.5004 2.6055C10.5004 2.3125 10.3842 2.03145 10.1773 1.824C9.96664 1.62296 9.68663 1.51079 9.39543 1.51079C9.10423 1.51079 8.82422 1.62296 8.61355 1.824L8.0833 1.29338C8.4313 0.945381 8.90329 0.749878 9.39543 0.749878C9.88757 0.749878 10.3596 0.945381 10.7076 1.29338C11.0556 1.64138 11.2511 2.11336 11.2511 2.6055C11.2511 3.09765 11.0556 3.56963 10.7076 3.91763L8.79355 5.83125C8.62157 6.00413 8.41702 6.14119 8.19174 6.23452C7.96645 6.32785 7.7249 6.3756 7.48105 6.375H7.48068Z" fill="black"/>
<path d="M9 11.25H1.5C1.30115 11.2498 1.1105 11.1707 0.969889 11.0301C0.82928 10.8895 0.750199 10.6989 0.75 10.5V3C0.750199 2.80115 0.82928 2.6105 0.969889 2.46989C1.1105 2.32928 1.30115 2.2502 1.5 2.25H3V3H1.5V10.5H9V6.75H9.75V10.5C9.7498 10.6989 9.67072 10.8895 9.53011 11.0301C9.3895 11.1707 9.19885 11.2498 9 11.25Z" fill="black"/>
</svg>
