<svg width="7" height="11" viewBox="0 0 7 11" fill="none" xmlns="http://www.w3.org/2000/svg">
<path d="M0.96875 11H2.16934L2.78982 9.27558H1.58923L0.96875 11Z" fill="#C8C9C9"/>
<path d="M4.20898 9.27558L4.82951 11H6.03005L5.40957 9.27558H4.20898Z" fill="#C8C9C9"/>
<path d="M6.4961 0.369801H5.77601V0H1.22279V0.369801H0.502675L0.0683594 0.804117V8.40453L0.502675 8.83884H6.4961L6.93041 8.40453V0.804117L6.4961 0.369801ZM1.71837 0.57048H5.2804V0.933814H1.71837V0.57048ZM0.948348 2.30003H6.05047V5.39154H0.948348V2.30003ZM2.57903 7.58072H0.942837V6.52354H2.57903V7.58072ZM6.05596 7.58072H4.41974V6.52354H6.05596V7.58072Z" fill="#C8C9C9"/>
</svg>
