<svg width="20" height="16" viewBox="0 0 20 16" fill="none" xmlns="http://www.w3.org/2000/svg">
<path fill-rule="evenodd" clip-rule="evenodd" d="M5.64967 2.96251C5.69238 2.77529 5.79584 2.60835 5.94321 2.48885C6.09058 2.36935 6.2732 2.30432 6.46134 2.30434H13.538C13.7262 2.30432 13.9088 2.36935 14.0561 2.48885C14.2035 2.60835 14.307 2.77529 14.3497 2.96251L14.783 4.85869H5.21634L5.64967 2.96251ZM1.66634 6.56158H2.49967C1.97634 7.2734 1.66634 8.1572 1.66634 9.11593V9.96738C1.66634 11.0794 2.36217 12.0262 3.33301 12.377V14.2246C3.33301 14.4504 3.4208 14.667 3.57709 14.8267C3.73337 14.9864 3.94533 15.0761 4.16634 15.0761H4.99967C5.22069 15.0761 5.43265 14.9864 5.58893 14.8267C5.74521 14.667 5.83301 14.4504 5.83301 14.2246V12.5217H14.1663V14.2246C14.1663 14.4504 14.2541 14.667 14.4104 14.8267C14.5667 14.9864 14.7787 15.0761 14.9997 15.0761H15.833C16.054 15.0761 16.266 14.9864 16.4223 14.8267C16.5785 14.667 16.6663 14.4504 16.6663 14.2246V12.377C17.1539 12.2007 17.576 11.8744 17.8745 11.4428C18.173 11.0113 18.3332 10.4958 18.333 9.96738V9.11593C18.3343 8.19457 18.0418 7.29786 17.4997 6.56158H18.333C18.554 6.56158 18.766 6.47188 18.9223 6.3122C19.0785 6.15252 19.1663 5.93595 19.1663 5.71014C19.1663 5.48432 19.0785 5.26775 18.9223 5.10807C18.766 4.94839 18.554 4.85869 18.333 4.85869H17.4997C17.2926 4.85877 17.0929 4.93764 16.9396 5.07994C16.7863 5.22224 16.6904 5.41776 16.6705 5.6284L16.6447 5.51686L15.973 2.5751C15.8447 2.01361 15.5343 1.51299 15.0922 1.15465C14.6501 0.796307 14.1023 0.601335 13.538 0.60144H6.46134C5.89702 0.601335 5.34927 0.796307 4.90717 1.15465C4.46507 1.51299 4.15463 2.01361 4.02634 2.5751L3.35467 5.51686L3.32967 5.6284C3.30978 5.41762 3.21372 5.22197 3.06026 5.07966C2.90679 4.93734 2.70693 4.85856 2.49967 4.85869H1.66634C1.44533 4.85869 1.23337 4.94839 1.07709 5.10807C0.920805 5.26775 0.833008 5.48432 0.833008 5.71014C0.833008 5.93595 0.920805 6.15252 1.07709 6.3122C1.23337 6.47188 1.44533 6.56158 1.66634 6.56158ZM5.83301 6.56158C5.16997 6.56158 4.53408 6.8307 4.06524 7.30974C3.5964 7.78877 3.33301 8.43848 3.33301 9.11593V9.96738C3.33301 10.1932 3.4208 10.4098 3.57709 10.5694C3.73337 10.7291 3.94533 10.8188 4.16634 10.8188H15.833C16.054 10.8188 16.266 10.7291 16.4223 10.5694C16.5785 10.4098 16.6663 10.1932 16.6663 9.96738V9.11593C16.6663 8.43848 16.4029 7.78877 15.9341 7.30974C15.4653 6.8307 14.8294 6.56158 14.1663 6.56158H5.83301ZM4.99967 8.69021C4.99967 8.35148 5.13137 8.02663 5.36579 7.78711C5.60021 7.54759 5.91815 7.41303 6.24967 7.41303C6.58119 7.41303 6.89914 7.54759 7.13356 7.78711C7.36798 8.02663 7.49967 8.35148 7.49967 8.69021C7.49967 9.02894 7.36798 9.35379 7.13356 9.59331C6.89914 9.83282 6.58119 9.96738 6.24967 9.96738C5.91815 9.96738 5.60021 9.83282 5.36579 9.59331C5.13137 9.35379 4.99967 9.02894 4.99967 8.69021ZM13.7497 7.41303C13.4182 7.41303 13.1002 7.54759 12.8658 7.78711C12.6314 8.02663 12.4997 8.35148 12.4997 8.69021C12.4997 9.02894 12.6314 9.35379 12.8658 9.59331C13.1002 9.83282 13.4182 9.96738 13.7497 9.96738C14.0812 9.96738 14.3991 9.83282 14.6336 9.59331C14.868 9.35379 14.9997 9.02894 14.9997 8.69021C14.9997 8.35148 14.868 8.02663 14.6336 7.78711C14.3991 7.54759 14.0812 7.41303 13.7497 7.41303Z" fill="#FF724C"/>
</svg>
