<svg width="18" height="18" viewBox="0 0 18 18" fill="none" xmlns="http://www.w3.org/2000/svg">
<path d="M3.35155 13.5564C2.08505 13.5564 1.05469 12.526 1.05469 11.2595C1.05469 10.0324 2.02198 9.02694 3.23409 8.96559L4.07338 7.98645C3.84079 7.93519 3.5993 7.90791 3.35155 7.90791C1.50349 7.90791 0 9.41144 0 11.2595C0 13.1076 1.50349 14.6111 3.35155 14.6111C4.62779 14.6111 5.73961 13.8939 6.30552 12.8415H5.01437C4.59566 13.2814 4.00532 13.5564 3.35155 13.5564Z" fill="#C8C9C9"/>
<path d="M14.1616 11.4624C14.2738 11.7313 14.5825 11.8582 14.8514 11.7465C15.12 11.6343 15.2473 11.3256 15.1351 11.0567L12.5293 4.80239L13.6856 4.41672C13.962 4.32461 14.111 4.02614 14.0189 3.74981C13.9268 3.47348 13.6283 3.32407 13.352 3.41618L11.6574 3.98103C11.3668 4.07792 11.2196 4.40129 11.3374 4.68412L11.6687 5.47939L7.04672 6.68114L6.57197 5.57358H7.30547C7.59671 5.57358 7.83282 5.33747 7.83282 5.04623C7.83282 4.755 7.59671 4.51889 7.30547 4.51889H5.04609C4.75485 4.51889 4.51874 4.755 4.51874 5.04623C4.51874 5.33747 4.75485 5.57358 5.04609 5.57358H5.42447L6.12661 7.21165L2.95119 10.9163C2.81714 11.0727 2.78642 11.2928 2.87248 11.4799C2.95854 11.667 3.14564 11.7868 3.35159 11.7868H8.43518C8.60365 11.7868 8.762 11.7063 8.86128 11.5702L12.2629 6.90515L14.1616 11.4624ZM4.49814 10.7322L6.58966 8.29203L7.63541 10.7322H4.49814ZM8.55489 10.2002L7.46694 7.66161L11.0935 6.71868L8.55489 10.2002Z" fill="#C8C9C9"/>
<path d="M14.9723 7.92363L15.4685 9.11451C16.3311 9.44544 16.9453 10.2818 16.9453 11.2595C16.9453 12.526 15.9149 13.5564 14.6484 13.5564C13.382 13.5564 12.3516 12.526 12.3516 11.2595C12.3516 10.9295 12.4221 10.6157 12.548 10.3318L12.0523 9.14225C11.5804 9.71987 11.2969 10.4572 11.2969 11.2595C11.2969 13.1076 12.8004 14.6111 14.6484 14.6111C16.4965 14.6111 18 13.1076 18 11.2595C18 9.52071 16.669 8.08711 14.9723 7.92363Z" fill="#C8C9C9"/>
</svg>
