<svg width="17" height="16" viewBox="0 0 17 16" fill="none" xmlns="http://www.w3.org/2000/svg">
<path d="M15.6514 1.48013C14.7714 0.525673 13.5639 0 12.251 0C11.2697 0 10.371 0.310242 9.57988 0.922035C9.18066 1.23085 8.81893 1.60867 8.5 2.04964C8.1812 1.6088 7.81934 1.23085 7.41999 0.922035C6.62895 0.310242 5.73026 0 4.74895 0C3.43613 0 2.2285 0.525673 1.34849 1.48013C0.478981 2.42344 0 3.71214 0 5.109C0 6.54672 0.535789 7.86279 1.6861 9.25083C2.71513 10.4924 4.1941 11.7529 5.90678 13.2124C6.4916 13.7108 7.1545 14.2758 7.84281 14.8776C8.02465 15.0369 8.25798 15.1245 8.5 15.1245C8.74189 15.1245 8.97535 15.0369 9.15693 14.8779C9.84525 14.2759 10.5085 13.7107 11.0936 13.212C12.806 11.7527 14.285 10.4924 15.314 9.2507C16.4643 7.86279 17 6.54672 17 5.10887C17 3.71214 16.521 2.42344 15.6514 1.48013Z" fill="#2C8EEA"/>
</svg>
