<svg width="14" height="9" viewBox="0 0 14 9" fill="none" xmlns="http://www.w3.org/2000/svg">
<path d="M13.261 3.84899L10.7043 2.73126L9.17437 0.848347C9.08234 0.734426 8.96593 0.642592 8.83372 0.579603C8.7015 0.516614 8.55684 0.484073 8.41039 0.484374H2.29086C2.06727 0.483626 1.84795 0.545538 1.65776 0.663091C1.46756 0.780643 1.31411 0.949133 1.2148 1.14946L0.236305 3.1062C0.153114 3.27327 0.109674 3.45731 0.109375 3.64394V6.28125C0.109664 6.54223 0.213468 6.79244 0.398012 6.97699C0.582555 7.16153 0.832766 7.26533 1.09375 7.26562H1.45488C1.53053 7.63616 1.73186 7.96918 2.02481 8.20836C2.31775 8.44753 2.68432 8.57817 3.0625 8.57817C3.44068 8.57817 3.80725 8.44753 4.10019 8.20836C4.39314 7.96918 4.59447 7.63616 4.67012 7.26562H9.76741C9.84301 7.63651 10.0445 7.96985 10.3378 8.20913C10.6311 8.44841 10.9981 8.57892 11.3766 8.57853C11.7552 8.57815 12.1219 8.44689 12.4147 8.20701C12.7075 7.96713 12.9083 7.63338 12.9832 7.26234C13.23 7.24273 13.4605 7.1309 13.6286 6.9491C13.7968 6.76731 13.8903 6.52888 13.8906 6.28125V4.76723C13.89 4.56865 13.8296 4.37486 13.7173 4.21109C13.605 4.04732 13.446 3.92114 13.261 3.84899ZM8.66488 1.26198L9.81055 2.67187H7.32812V1.14062H8.41039C8.45919 1.14052 8.50738 1.15138 8.55143 1.17238C8.59547 1.19338 8.63424 1.224 8.66488 1.26198ZM5.35938 1.14062V2.67187H2.5725L3.30829 1.14062H5.35938ZM1.80176 1.44296C1.8469 1.35191 1.91664 1.27532 2.00309 1.22188C2.08954 1.16844 2.18923 1.14029 2.29086 1.14062H2.58021L1.84442 2.67187H1.18721L1.80176 1.44296ZM3.0625 7.92187C2.86781 7.92187 2.67749 7.86414 2.51561 7.75598C2.35373 7.64781 2.22756 7.49407 2.15306 7.3142C2.07855 7.13433 2.05906 6.93641 2.09704 6.74546C2.13502 6.55451 2.22877 6.37911 2.36644 6.24144C2.50411 6.10377 2.67951 6.01002 2.87046 5.97204C3.06141 5.93406 3.25933 5.95355 3.4392 6.02805C3.61908 6.10256 3.77281 6.22873 3.88098 6.39061C3.98914 6.55249 4.04688 6.74281 4.04688 6.9375C4.04659 7.19848 3.94278 7.44869 3.75824 7.63324C3.5737 7.81778 3.32348 7.92158 3.0625 7.92187ZM11.375 7.92187C11.1803 7.92187 10.99 7.86414 10.8281 7.75598C10.6662 7.64781 10.5401 7.49407 10.4656 7.3142C10.3911 7.13433 10.3716 6.93641 10.4095 6.74546C10.4475 6.55451 10.5413 6.37911 10.6789 6.24144C10.8166 6.10377 10.992 6.01002 11.183 5.97204C11.3739 5.93406 11.5718 5.95355 11.7517 6.02805C11.9316 6.10256 12.0853 6.22873 12.1935 6.39061C12.3016 6.55249 12.3594 6.74281 12.3594 6.9375C12.3591 7.19848 12.2553 7.44869 12.0707 7.63324C11.8862 7.81778 11.636 7.92158 11.375 7.92187ZM13.2344 6.28125C13.2342 6.35527 13.2091 6.42708 13.1631 6.48503C13.117 6.54299 13.0528 6.58369 12.9807 6.60054C12.9032 6.23113 12.7008 5.89971 12.4075 5.66217C12.1141 5.42463 11.7479 5.29549 11.3704 5.29653C10.993 5.29756 10.6275 5.42871 10.3354 5.66786C10.0434 5.90701 9.84281 6.23954 9.76741 6.60937H4.67012C4.59447 6.23884 4.39314 5.90581 4.10019 5.66664C3.80725 5.42746 3.44068 5.29683 3.0625 5.29683C2.68432 5.29683 2.31775 5.42746 2.02481 5.66664C1.73186 5.90581 1.53053 6.23884 1.45488 6.60937H1.09375C1.00675 6.60928 0.923349 6.57468 0.861834 6.51316C0.800319 6.45165 0.765719 6.36824 0.765625 6.28125V3.64394C0.76579 3.55907 0.785563 3.47538 0.823402 3.39941L0.858949 3.32812H5.6875C5.77452 3.32812 5.85798 3.29355 5.91952 3.23202C5.98105 3.17048 6.01562 3.08702 6.01562 3V1.14062H6.67188V3C6.67188 3.08702 6.70645 3.17048 6.76798 3.23202C6.82952 3.29355 6.91298 3.32812 7 3.32812H10.4314L13.0053 4.45346C13.0107 4.45581 13.0161 4.458 13.0216 4.46005C13.084 4.48368 13.1377 4.52571 13.1757 4.58056C13.2137 4.63541 13.2342 4.7005 13.2344 4.76723V6.28125Z" fill="#C8C9C9"/>
<path d="M3.0625 7.26562C3.24372 7.26562 3.39062 7.11872 3.39062 6.9375C3.39062 6.75628 3.24372 6.60938 3.0625 6.60938C2.88128 6.60938 2.73438 6.75628 2.73438 6.9375C2.73438 7.11872 2.88128 7.26562 3.0625 7.26562Z" fill="#C8C9C9"/>
<path d="M11.375 7.26562C11.5562 7.26562 11.7031 7.11872 11.7031 6.9375C11.7031 6.75628 11.5562 6.60938 11.375 6.60938C11.1938 6.60938 11.0469 6.75628 11.0469 6.9375C11.0469 7.11872 11.1938 7.26562 11.375 7.26562Z" fill="#C8C9C9"/>
<path d="M7.4375 3.98438H7.02734C6.94032 3.98438 6.85686 4.01894 6.79532 4.08048C6.73379 4.14202 6.69922 4.22548 6.69922 4.3125C6.69922 4.39952 6.73379 4.48298 6.79532 4.54452C6.85686 4.60606 6.94032 4.64062 7.02734 4.64062H7.4375C7.52452 4.64062 7.60798 4.60606 7.66952 4.54452C7.73106 4.48298 7.76562 4.39952 7.76562 4.3125C7.76562 4.22548 7.73106 4.14202 7.66952 4.08048C7.60798 4.01894 7.52452 3.98438 7.4375 3.98438Z" fill="#C8C9C9"/>
<path d="M3.5 3.98438H2.84375C2.75673 3.98438 2.67327 4.01894 2.61173 4.08048C2.5502 4.14202 2.51563 4.22548 2.51562 4.3125C2.51563 4.39952 2.5502 4.48298 2.61173 4.54452C2.67327 4.60606 2.75673 4.64062 2.84375 4.64062H3.5C3.58702 4.64062 3.67048 4.60606 3.73202 4.54452C3.79355 4.48298 3.82812 4.39952 3.82812 4.3125C3.82812 4.22548 3.79355 4.14202 3.73202 4.08048C3.67048 4.01894 3.58702 3.98438 3.5 3.98438Z" fill="#C8C9C9"/>
</svg>
