<svg width="17" height="17" viewBox="0 0 17 17" fill="none" xmlns="http://www.w3.org/2000/svg">
<path d="M1.39023 2.08649C2.26954 1.14136 3.50168 0.603594 4.79259 0.6016C6.08453 0.603096 7.31795 1.14058 8.19861 2.08589L8.49875 2.40304L8.79889 2.08589C10.5464 0.205128 13.4877 0.0971189 15.3684 1.84459C15.4517 1.92206 15.5322 2.00251 15.6097 2.08589C17.4634 4.08537 17.4634 7.17549 15.6097 9.17497L8.93983 16.2088C8.70908 16.4524 8.32453 16.4628 8.08092 16.232C8.07295 16.2245 8.06519 16.2167 8.05764 16.2088L1.3902 9.17497C-0.4634 7.1757 -0.4634 4.08576 1.39023 2.08649ZM2.26937 8.33835H2.26997L8.49875 14.908L14.7281 8.33835C16.1443 6.81055 16.1443 4.4497 14.7281 2.92191C13.4421 1.52804 11.2695 1.44065 9.87567 2.72668C9.808 2.78912 9.74289 2.85423 9.68045 2.92191L8.93983 3.70325C8.69576 3.94575 8.30171 3.94575 8.05764 3.70325L7.31703 2.92251C6.03099 1.52865 3.85846 1.44125 2.46459 2.72729C2.39692 2.78973 2.33181 2.85484 2.26937 2.92251C0.840899 4.45273 0.830431 6.81789 2.26937 8.33835Z" fill="#C8C9C9"/>
</svg>
