<svg width="254" height="199" viewBox="0 0 254 199" fill="none" xmlns="http://www.w3.org/2000/svg">
<path fill-rule="evenodd" clip-rule="evenodd" d="M63.3135 110.101C64.7425 120.925 66.1816 131.748 67.6308 142.572L68.7861 151.298C68.9382 152.392 68.7861 154.581 69.3638 155.554C69.5766 155.889 70.0935 156.071 70.4584 156.284C71.7657 156.983 73.1035 157.713 74.4108 158.412C85.5386 164.402 96.6765 170.381 107.825 176.351C118.527 182.097 129.219 187.833 139.9 193.559C140.995 194.167 142.789 195.687 143.975 195.292C145.099 194.897 146.255 193.954 147.289 193.346L153.217 189.88C165.196 182.857 177.165 175.844 189.124 168.841C194.049 165.952 199.005 163.064 203.931 160.145C205.268 159.355 206.637 158.564 207.974 157.774C208.674 157.348 208.765 157.379 209.039 156.679C210.072 154.065 210.559 151.055 211.288 148.318C212.109 145.308 212.9 142.298 213.721 139.319C214.086 137.981 213.903 137.799 213.325 136.522C212.17 133.968 210.984 131.383 209.829 128.829C207.245 123.144 204.65 117.459 202.046 111.773C201.012 109.462 198.488 107.851 196.664 106.179L168.45 79.9099C167.72 79.241 167.021 78.5721 166.291 77.9033C166.169 81.9166 165.379 86.2339 166.534 90.0952C168.45 96.4495 170.335 102.804 172.25 109.158C173.162 112.229 174.105 115.3 175.017 118.371C175.199 118.948 176.233 121.198 175.959 121.715C175.807 121.989 174.5 122.262 174.196 122.384C172.98 122.84 171.733 123.326 170.517 123.782C167.112 125.09 163.676 126.367 160.271 127.674C157.2 128.829 154.129 130.015 151.059 131.171C150.025 131.566 148.809 132.296 147.684 132.235C146.711 132.174 145.586 131.687 144.643 131.444C142.971 131.019 141.299 130.593 139.627 130.137L129.776 127.583C126.067 126.64 122.966 123.843 119.804 121.776C114.361 118.218 108.929 114.661 103.507 111.104C102.261 110.283 102.261 109.827 101.774 108.337C100.649 104.993 99.5547 101.649 98.4298 98.3042C97.8217 96.5103 97.092 94.7165 96.6664 92.8923C95.9367 89.8823 95.4806 86.7507 94.9029 83.7104C94.7205 82.7983 94.5381 81.8557 94.3861 80.9436C92.1058 81.8557 89.8255 82.7983 87.5452 83.7104C87.2108 83.832 85.5994 84.2576 85.4778 84.5617C85.3866 84.7745 85.873 85.717 85.9338 85.8994L91.5889 102.682C92.197 104.446 92.7747 106.209 93.3828 107.973C91.9538 105.753 90.5552 103.503 89.1262 101.284C88.0013 105.023 86.9068 108.793 85.7818 112.533C83.1367 109.493 80.522 106.452 77.8769 103.412L75.1405 112.533C72.313 108.793 69.455 105.023 66.6275 101.284C66.293 103.23 65.9586 105.206 65.6242 107.152C65.533 107.729 65.5329 109.432 65.1377 109.918C64.8337 110.283 63.9216 110.101 63.3135 110.101" fill="#4186D5"/>
<path fill-rule="evenodd" clip-rule="evenodd" d="M242.969 133.481C242.817 138.589 242.909 145.187 240.142 149.656C239.686 150.386 238.166 152.636 237.983 150.659C237.831 148.713 238.287 146.798 237.831 144.822C237.588 143.758 236.737 141.477 235.277 142.42C234.547 142.906 234.335 144.092 234.061 144.852C233.635 145.977 233.149 147.072 232.693 148.166C231.112 152.028 229.47 156.649 225.974 159.203C226.43 155.858 227.676 152.301 226.855 148.926C226.582 147.771 225.7 145.673 224.21 146.342C222.751 147.011 221.808 149.93 221.109 151.237C219.011 155.189 216.883 159.081 214.542 162.882C213.397 164.783 212.051 166.557 210.529 168.172C209.556 169.206 208.339 170.939 206.819 171.091C206.819 168.172 207.792 165.344 208.643 162.608C209.586 159.659 210.437 156.679 211.38 153.7C212.17 151.115 212.839 148.592 213.386 145.947C213.599 144.852 213.782 143.727 214.724 143.028C215.545 142.39 216.883 142.085 217.795 141.629C220.281 140.419 222.697 139.069 225.031 137.586C225.974 136.978 226.764 136.157 227.737 135.609C228.84 135.026 229.906 134.376 230.929 133.664C235.368 130.319 239.382 126.184 242.057 121.289C242.483 123.266 243.061 125.181 243.152 127.218C243.152 129.316 243.03 131.414 242.969 133.481V133.481ZM206.424 156.892C205.725 155.706 204.63 156.193 203.688 156.77C202.198 157.683 200.739 158.564 199.249 159.446C196.208 161.24 193.259 163.155 190.31 165.071C184.29 168.962 178.057 172.155 171.733 175.438C165.592 178.631 159.724 182.431 153.978 186.262C152.609 187.174 151.211 188.117 149.903 189.12C148.718 190.002 147.775 191.248 146.559 192.039C145.282 192.86 144.37 192.191 143.154 191.583C141.603 190.823 139.992 190.184 138.411 189.515C132.057 186.749 125.672 183.891 119.469 180.759C113.328 177.658 107.49 174.07 101.592 170.483C98.7948 168.78 96.0281 166.986 93.2614 165.223C90.3122 163.338 87.2718 161.939 84.1706 160.358C82.8025 159.659 81.5863 158.686 80.1878 158.047C78.698 157.379 77.1474 156.892 75.84 155.919C75.232 155.494 74.7455 154.977 74.0766 154.642C73.5293 154.399 72.8909 154.338 72.3436 154.065C71.2187 153.517 70.9146 152.423 70.7018 151.267C69.3032 143.879 68.5735 136.278 67.7526 128.769C67.2966 124.573 66.7797 120.377 66.1716 116.182C65.898 114.296 66.4453 112.837 66.7493 110.982C67.0838 108.824 67.2358 106.665 67.479 104.506C68.5735 106.544 69.5465 108.702 70.945 110.557C71.9788 111.925 73.7422 113.871 75.6576 113.84C78.6068 113.78 78.4852 108.702 78.6068 106.696C79.9445 107.912 80.3702 109.858 81.4951 111.256C82.5288 112.533 83.897 114.114 85.478 114.692C88.792 115.908 88.4576 109.766 88.2751 108.033C88.1839 107.152 87.6975 105.783 88.8528 106.179C89.917 106.544 90.9811 108.064 91.8932 108.763C93.4438 109.979 95.1768 110.952 96.7578 112.107C98.734 113.536 100.893 114.57 102.93 115.877C104.207 116.698 105.575 116.881 106.973 117.519C109.01 118.401 110.774 119.739 112.72 120.833C116.607 123.009 120.701 124.791 124.942 126.154C126.28 126.58 128.104 127.735 129.107 126.549C129.746 125.819 130.141 124.695 130.688 123.843C131.357 122.81 132.087 121.776 132.847 120.772C135.487 117.196 138.459 113.877 141.725 110.861C145.528 107.345 149.697 104.246 154.16 101.618C156.075 100.493 164.072 95.4766 165.835 99.0034C164.406 98.9122 163.129 99.4291 161.913 100.098C161.609 100.25 160.058 101.375 160.423 100.402C159.967 100.493 159.572 101.071 159.237 101.344C158.552 101.843 157.83 102.29 157.079 102.682C156.41 103.047 155.559 103.138 154.951 103.594C154.738 103.746 154.586 104.02 154.373 104.202H153.765C153.674 104.537 153.582 104.871 153.491 105.236C153.157 104.111 152.64 105.571 152.062 106.057C151.655 106.357 151.217 106.612 150.755 106.817C150.451 106.939 150.39 106.635 150.116 106.878C149.843 107.091 149.691 107.577 149.387 107.82C149.011 108.131 148.615 108.416 148.201 108.672C147.441 109.219 146.65 109.645 145.921 110.131C144.887 110.83 144.37 111.986 143.367 112.715C142.911 113.05 142.181 113.08 141.907 113.324C141.269 113.871 141.482 114.692 140.296 114.722C140.41 114.882 140.474 115.073 140.478 115.269C140.195 115.224 139.931 115.097 139.718 114.905C139.779 116.09 138.593 116.516 137.894 117.246C137.44 117.704 137.042 118.214 136.708 118.766C136.637 119.015 136.586 119.269 136.556 119.526C136.435 119.587 135.796 119.009 135.857 119.039C135.675 120.134 134.61 121.168 134.154 122.171C133.911 122.718 133.668 123.57 133.181 123.934C133.06 124.026 132.634 123.934 132.33 124.269C132.054 124.593 131.838 124.963 131.692 125.363C131.631 125.607 131.692 126.184 131.6 126.336C131.418 126.58 131.144 126.336 130.871 126.519C130.354 126.853 130.354 127.4 129.624 127.461C130.141 128.708 133.212 129.073 134.306 129.438C137.468 130.441 140.752 131.414 143.701 132.934C144.461 133.329 145.191 133.664 145.313 134.545C145.495 135.792 144.856 137.464 144.735 138.741C144.426 142.208 144.314 145.69 144.4 149.17C144.461 152.423 144.583 155.737 144.735 158.99C144.887 162.03 145.495 164.979 145.829 167.989C145.921 168.81 145.86 172.52 147.289 172.337C148.475 172.185 147.714 169.631 147.714 168.902C147.654 167.29 148.018 165.648 147.988 164.007C147.988 163.216 148.323 162.547 148.353 161.817C148.383 161.088 148.018 160.48 148.14 159.72C148.231 158.99 150.42 154.764 148.323 155.25C148.444 154.642 148.566 154.034 148.718 153.426C148.933 153.632 149.117 153.867 149.265 154.125C149.447 152.818 149.387 151.541 149.508 150.234C149.569 149.656 149.812 148.987 149.721 148.409C149.736 148.163 149.705 147.915 149.63 147.68C149.568 147.613 149.493 147.559 149.409 147.522C149.325 147.486 149.235 147.467 149.143 147.467C149.085 147.352 149.06 147.222 149.071 147.094C149.082 146.965 149.128 146.841 149.204 146.737C149.23 146.632 149.287 146.538 149.369 146.467C149.451 146.396 149.553 146.352 149.66 146.342C150.086 146.281 150.147 146.038 149.812 145.612C149.984 144.864 150.005 144.089 149.873 143.332C149.782 142.602 150.147 141.204 149.751 140.535C149.295 139.775 149.052 140.504 148.991 139.471C148.951 139.166 148.972 138.856 149.052 138.559C149.143 138.315 149.447 138.407 149.478 138.315C149.721 137.738 149.751 136.582 148.839 136.674C148.87 136.248 148.9 135.822 148.961 135.427C149.63 136.187 149.387 135.549 149.751 135.123C150.238 134.545 150.755 134.454 151.454 134.241C153.37 133.633 155.194 132.752 157.048 132.022C161.001 130.471 165.014 129.103 168.845 127.309C176.902 123.478 184.807 119.343 192.894 115.604C192.317 114.54 192.682 114.479 193.107 113.476C193.685 113.871 193.563 113.597 193.959 113.567C193.928 113.232 194.019 113.141 194.263 113.263C194.458 113.329 194.666 113.35 194.871 113.324C195.387 113.415 195.783 113.688 196.239 113.78C196.384 113.89 196.549 113.973 196.725 114.023C196.888 113.984 197.035 113.9 197.151 113.78C197.881 113.932 198.124 114.479 198.185 115.269C198.185 115.421 197.759 115.543 197.881 115.756C198.093 116.09 198.671 115.999 199.006 116.06C198.945 116.394 198.854 116.729 198.793 117.094C200.252 116.425 199.857 118.523 200.313 119.191C200.435 119.374 200.708 119.222 200.86 119.465C201.043 119.769 200.982 120.164 201.134 120.468C201.499 121.107 201.833 121.046 202.198 121.776C204.053 125.667 206.515 129.316 208.309 133.299C209.16 135.184 209.92 137.13 210.802 139.015C211.623 140.748 212.079 142.207 211.501 144.123C210.164 148.501 208.704 152.97 206.941 157.227C206.833 157.22 206.729 157.186 206.638 157.127C206.548 157.069 206.474 156.988 206.424 156.892V156.892ZM112.385 189.667L112.02 190.306C111.747 188.694 112.477 189.454 112.385 189.667ZM106.457 186.627C106.061 186.505 106.213 185.836 106.244 185.563C106.504 185.885 106.748 186.219 106.973 186.566C106.803 186.6 106.63 186.62 106.457 186.627ZM90.1602 180.425C90.5858 180.181 90.8899 180.029 91.3763 179.756C90.8595 180.698 90.8595 180.698 90.1602 180.425ZM64.4994 96.2367C63.861 97.8177 65.8372 107.699 63.9826 108.003C63.7089 107.152 63.6785 104.75 62.584 104.476C61.2158 104.111 61.3679 106.574 61.1854 107.334C58.3883 105.388 57.1417 101.649 55.8344 98.669C54.1318 94.8685 52.794 90.9464 51.517 86.9939C50.4225 83.6191 49.5104 80.1835 48.4159 76.8087C47.7166 74.6804 46.9869 72.5826 46.5004 70.3935C46.4092 69.907 46.014 68.7213 46.3484 68.2652C46.8349 67.5964 48.5983 68.3564 49.176 68.5389C52.8852 69.6638 56.7161 70.1199 60.5165 70.7887C64.7427 71.5184 68.9688 72.2481 73.2253 72.7954C74.2894 72.9474 75.3536 73.069 76.4177 73.1906C77.117 73.2819 78.1507 73.1906 78.8196 73.4947C80.1574 74.1332 80.431 76.5046 80.9175 77.7512C82.7417 82.403 84.9307 86.8723 86.8462 91.4633C88.5792 95.5982 89.9169 100.007 92.4101 103.777C90.5554 102.956 88.1839 98.5778 86.0861 101.101C85.174 102.196 85.4172 103.625 85.478 104.932C85.5692 106.817 85.5996 108.702 85.5996 110.587C83.5626 110.07 82.1944 107.729 81.0999 106.087C79.6885 103.973 78.6594 101.626 78.0595 99.1554C77.7859 98.0305 77.0258 98.0001 76.3569 97.3312C75.9312 96.9055 75.7184 96.3279 75.1103 96.936C74.3502 97.7265 74.8671 99.8851 74.9887 100.828C75.2928 103.017 76.3265 106.422 75.3232 108.489C73.955 111.287 70.337 104.263 69.9113 103.23C69.7593 102.713 65.898 92.8314 64.4994 96.2367V96.2367ZM61.9759 48.3508C62.2192 48.3812 62.432 48.4116 62.6752 48.442C62.4928 48.594 62.0975 49.1717 61.7935 49.0197C61.8543 48.8373 61.9151 48.594 61.9759 48.3508V48.3508ZM74.0766 45.7665C74.0158 45.8577 73.9246 45.9185 73.8638 46.0097C73.5293 45.6145 73.651 45.0064 73.651 44.5199C73.851 44.6503 74.0016 44.8439 74.0787 45.0698C74.1559 45.2957 74.1551 45.541 74.0766 45.7665V45.7665ZM75.0495 50.327V51.6648C74.1678 51.2696 74.1374 51.0567 75.0495 50.327ZM76.1745 52.0296C75.536 51.8472 75.4752 51.7256 75.5664 50.7223C75.8096 51.2696 75.992 51.6344 76.1745 52.0296ZM79.8229 61.9413C79.5493 62.6405 77.9987 60.9987 78.0595 60.5123C78.1203 60.0562 78.3635 59.9042 78.698 60.2083C78.8196 60.2995 78.6372 60.6643 78.7284 60.7859C78.9412 61.242 79.4581 61.6068 79.8229 61.9413V61.9413ZM79.8533 66.0762C79.4581 67.0491 78.7588 65.5289 79.7925 65.4681C79.8443 65.6664 79.8648 65.8715 79.8533 66.0762V66.0762ZM79.0932 64.5256C78.9412 64.3302 78.7992 64.1272 78.6676 63.9175C79.1844 64.0087 79.6101 64.7992 80.1574 64.2823C80.0661 65.0728 79.5189 65.0728 79.0932 64.5256ZM45.1019 51.8776C44.2506 50.9655 49.7536 50.2966 50.4225 50.1446C55.1977 48.9669 59.8501 47.338 64.317 45.28C66.4757 44.3071 68.6039 43.3342 70.7018 42.2396C71.6139 41.7836 72.8605 41.3883 73.6206 40.6891C74.1678 40.2026 74.1374 39.8074 74.8367 39.5033C75.4448 39.2601 75.4752 39.5033 75.7488 39.0473C75.9008 38.7736 76.1137 37.7703 75.992 37.4663C75.7184 36.6454 75.3536 37.3142 74.8063 36.767C74.4111 36.3717 74.5023 35.2164 74.6239 34.7603C74.7674 34.9781 74.8513 35.2297 74.8671 35.49C75.4448 35.186 75.232 34.2131 75.8704 34.0306C76.5393 33.8482 76.4785 34.3955 76.6609 34.9428C77.1778 34.1827 76.7521 33.5442 76.4785 32.8145C77.8771 32.5409 79.3973 32.2976 80.7958 32.7537C81.7992 33.0881 82.6809 33.9394 83.745 34.0914C84.7787 34.2435 84.9915 33.757 85.7516 33.2401C86.3901 32.8449 86.907 33.301 87.2414 32.9969C87.0286 34.0306 85.326 33.909 85.5388 35.186C85.63 35.7637 86.3597 36.3109 86.6942 36.767C87.099 37.3444 87.4357 37.9668 87.6975 38.6216C88.792 41.1451 89.2481 44.0335 89.7041 46.7394C90.8291 53.3674 90.9811 60.117 92.0452 66.7755C92.5621 69.9374 93.0485 73.0994 93.3222 76.3222C93.383 77.1127 93.8694 78.9369 93.4742 79.697C93.1397 80.3355 92.3797 80.3355 91.7108 80.5179C90.442 80.8394 89.1933 81.2353 87.9711 81.7037C86.8462 82.1293 86.5421 82.3726 85.8125 81.3388C85.1132 80.3355 84.7787 79.1194 84.2923 78.0248C83.6538 76.6263 82.8937 75.2581 82.164 73.8899C83.593 73.8899 84.4139 73.1298 84.3835 71.6705C84.3531 70.0591 83.0153 69.6638 82.468 68.3564C81.9512 69.0557 81.8904 69.0557 81.5255 68.4173C81.0999 67.6572 80.7958 66.289 80.5222 65.4377C80.7046 65.6505 80.887 65.8329 81.0999 66.0458C81.5863 65.3769 80.8262 64.3432 80.583 63.7351C80.1878 62.7926 80.1269 61.7588 79.7621 60.7859C79.5493 60.2691 79.0932 59.8434 78.9716 59.3265C78.9108 58.9617 79.1844 58.6273 79.1236 58.2624C79.002 57.6239 78.2723 56.9246 78.0595 56.2862C77.7251 55.2828 77.3298 54.4011 76.9042 53.4282C76.3265 52.0905 76.4481 50.7223 76.3569 49.2933C76.2353 47.8339 75.7792 46.4354 75.6272 44.976C75.5056 43.9727 75.8704 42.6957 75.1103 41.9052C75.0191 43.243 75.4144 43.2126 74.1374 43.4558C72.7084 43.7294 71.6747 44.7936 70.3065 45.128C70.0329 45.1888 69.8201 43.9727 69.9417 45.6449C69.3032 45.1584 67.9047 45.7665 68.4215 46.0401C68.0263 46.4658 67.2662 46.1617 67.1142 46.8002C65.7764 45.4928 63.6481 49.9014 62.0671 47.6211C61.7935 49.1717 60.6686 50.1142 59.1484 50.2966C58.3883 50.3878 57.9322 50.6615 57.2329 50.8743C57.0809 50.9351 57.0505 51.1175 56.8681 51.1783C56.6249 51.2696 56.26 51.0263 56.0776 51.0567C55.7128 51.1479 55.3175 51.6344 54.8006 51.7256C54.2062 51.8168 53.6013 51.8168 53.0068 51.7256C52.2771 51.6344 51.9427 51.5432 51.2434 51.7864C50.6049 51.9992 49.9056 52.6073 49.328 51.9384C48.4463 53.4586 46.2268 53.0634 45.1019 51.8776V51.8776ZM88.3968 32.328C87.6975 32.2368 88.1839 31.6287 88.5184 31.4463C89.4001 30.9599 89.1569 32.4192 88.3968 32.328ZM49.176 38.1351C53.3413 32.1456 60.4557 28.0107 66.7189 24.5447C70.1241 22.6596 73.6206 20.805 77.2082 19.2544C79.002 18.4943 80.7958 17.7342 82.6201 17.0654C83.593 16.7005 84.5659 16.3661 85.5692 16.062C85.8429 15.9708 86.3293 15.6972 86.6333 15.7276C86.5725 15.7276 87.3326 15.9404 87.1806 16.0012C87.6671 15.7884 87.9103 15.2411 88.488 14.9979C89.1814 14.754 89.9115 14.6306 90.6466 14.6331C91.2547 14.6027 91.802 14.8763 92.3796 14.8763C92.7749 14.8763 93.0789 14.6939 93.4742 14.6939C93.6566 14.6939 93.6566 14.9675 93.7782 14.9979C93.839 14.9979 94.3255 14.8155 94.3559 14.8155C94.5383 14.9371 94.7207 15.3932 94.8728 15.5756C95.3981 16.078 96.0182 16.4708 96.697 16.7309C97.4875 17.0654 99.4029 17.3998 98.4908 18.6464C99.1293 18.5551 99.4029 19.1328 98.6124 19.2544C98.1868 19.3456 98.0043 18.9504 97.7003 18.6768C96.9706 18.0687 95.2072 17.187 94.1431 17.2174C93.5654 17.2478 93.0789 17.7038 92.5317 17.8559C91.9844 18.0079 91.7412 17.7647 91.2547 17.7951C90.7074 17.8559 90.3426 18.3119 89.8257 18.4031C89.3393 18.4943 89.0656 18.1599 88.6096 18.1599C88.0927 18.1903 87.5759 18.6464 87.0894 18.7984C86.3417 18.9914 85.6178 19.2668 84.9307 19.6193C83.441 20.4098 81.7384 20.6834 80.1878 21.3523C78.9412 21.8996 77.5426 22.1732 76.3873 22.7509C75.1103 23.4197 73.8334 24.0582 72.5868 24.7879C71.6747 25.3048 69.8505 25.4872 68.8472 25.3656C68.8472 27.1898 67.9351 25.9128 67.0229 26.7033C67.2363 26.8912 67.4841 27.0357 67.7526 27.129C66.7797 27.5242 65.8676 28.0107 64.8947 28.4668C63.9218 28.9228 62.8576 29.0444 62.2192 29.9261C61.6111 30.747 61.8239 30.3214 60.9422 30.6254C60.547 30.7774 60.1821 31.2335 59.8781 31.5375C59.3612 32.0544 59.27 32.8449 58.966 31.7808C58.8747 31.9024 58.5403 32.7233 58.4795 32.7537C58.1147 32.3584 58.0538 32.8145 57.8714 32.9969C57.9626 33.3618 57.8106 33.5746 57.4154 33.6962L56.7769 34.1523C56.0168 34.6995 55.0135 35.1556 54.4966 35.9461C54.4023 35.9009 54.3186 35.8362 54.2512 35.7562C54.1837 35.6763 54.1339 35.583 54.1052 35.4824C54.0765 35.3818 54.0694 35.2763 54.0845 35.1728C54.0995 35.0693 54.1364 34.9702 54.1926 34.8819C53.4325 35.5812 52.5204 36.3109 52.3075 37.4055C52.208 37.3172 52.0951 37.2454 51.9731 37.1926C51.6691 37.4055 52.0643 38.0135 52.2771 38.1655C53.1284 37.8311 52.0643 37.9527 52.642 38.0135C52.8085 38.0822 52.9817 38.1331 53.1588 38.1655C53.6771 38.1664 54.1949 38.1359 54.7094 38.0743C55.872 37.866 57.0197 37.5817 58.1451 37.223C59.3612 36.8582 60.6078 36.4933 61.7935 36.0373C62.7664 35.6724 63.7393 35.2468 64.7123 34.8515C65.1075 34.6995 65.5028 34.5171 65.8676 34.3651C66.5973 34.061 66.9925 33.5442 66.9013 34.4259C67.479 34.3347 67.9959 33.4834 68.4519 33.1489C69.0844 32.6756 69.7942 32.3156 70.5498 32.0848C70.82 31.9678 71.1076 31.8959 71.4011 31.872C71.5531 31.872 71.6443 32.2976 71.7355 32.2976C72.4044 32.1456 72.1004 31.7504 72.4044 31.2335C73.0733 30.0478 74.8671 29.4093 75.9616 28.7404C76.6609 28.3147 77.1474 27.7371 77.7859 27.281C78.0335 27.1009 78.3116 26.967 78.6068 26.8858C78.85 26.825 79.154 27.3722 79.306 26.825C78.8039 26.5693 78.286 26.3459 77.7555 26.1561C77.3602 26.0345 77.8467 25.6392 77.2386 25.8824C76.9954 25.9737 76.9042 26.4601 76.8129 26.6425C76.1441 26.0345 74.2286 26.6729 73.4381 26.9162C73.3773 26.9466 73.1341 26.7946 73.0125 26.825C72.5564 26.8554 72.222 27.4938 71.9179 27.7371C71.097 28.4364 70.2153 28.7404 69.2424 29.166C69.5161 27.7067 71.4619 27.129 72.5868 26.5513C74.259 25.7304 75.8096 24.6967 77.6338 24.271C78.85 23.967 80.4614 23.7542 80.9783 25.1528C81.2823 26.0041 81.3431 28.1019 80.279 28.4972C80.1574 28.1019 80.5222 27.7675 80.6438 27.433C79.5797 27.8283 79.3973 29.1052 78.6068 29.7741C78.2728 29.9928 77.9923 30.2838 77.7859 30.6254C77.6028 31.0416 77.321 31.4068 76.965 31.6896C76.1441 29.9261 76.2657 32.328 75.84 32.6321C76.0224 32.5105 75.1407 32.8753 75.2624 32.8145C75.232 32.8145 74.8367 32.2368 74.5935 32.2368C74.1678 32.2672 74.2286 32.7537 74.0158 32.9969C73.2861 33.8178 72.374 34.3651 71.2187 34.2435C71.1883 34.8211 71.3707 35.5204 70.5802 35.5812L70.489 34.2739C70.0633 34.7299 69.4856 35.1252 69.1208 35.642C68.7256 36.2197 68.756 36.5846 68.0871 36.9798C67.3878 37.3751 65.898 38.196 65.0771 38.2568C65.1299 38.2006 65.1693 38.1332 65.1922 38.0595C65.215 37.9859 65.2208 37.908 65.2091 37.8319C65.1974 37.7557 65.1684 37.6831 65.1245 37.6198C65.0806 37.5564 65.0228 37.5039 64.9555 37.4663C64.5298 37.8919 63.9218 37.9527 63.4657 38.3176C65.0163 38.956 62.28 38.9256 61.9151 39.0169C61.6719 39.0777 61.4895 39.2905 61.2462 39.3209C60.9422 39.3817 60.8814 39.0473 60.6382 39.1689C60.2429 39.3209 60.3949 39.7465 59.9997 39.9594C59.6957 40.1114 59.2092 40.1114 58.8748 40.2634C58.0843 40.6283 56.3816 41.3883 55.8344 40.4458C55.5607 42.0572 52.7636 41.0843 51.7603 40.9627C50.3009 40.6891 47.8686 40.0202 49.176 38.1351V38.1351ZM55.1047 21.5043C55.145 21.4633 55.1936 21.4313 55.2471 21.4104C55.3007 21.3895 55.3581 21.3802 55.4155 21.383C55.473 21.3859 55.5292 21.4009 55.5804 21.427C55.6316 21.4532 55.6767 21.4899 55.7128 21.5347C55.4391 20.0753 57.5978 19.3456 58.5403 18.7376C59.7869 17.9167 61.2462 16.3053 62.888 16.4269C62.6144 16.6397 62.3408 16.8525 62.0671 17.035C62.4624 17.0958 62.8576 17.1262 63.2529 17.187C63.0401 17.5214 62.7968 17.8559 62.584 18.1599C62.2192 16.1533 60.3037 18.6768 59.7565 19.072C59.1895 19.3909 58.6504 19.757 58.1451 20.1665C57.6586 20.6226 57.2025 21.4435 56.412 21.0178C56.3512 22.1732 55.4087 21.8692 54.7702 22.5076C54.679 22.1124 54.9223 21.8387 55.1047 21.5043V21.5043ZM63.5569 15.758C65.5332 15.0283 67.2358 13.6601 69.0904 12.6872C70.8538 11.7447 72.678 10.9238 74.4719 10.0421C75.384 9.58605 77.0562 8.46111 78.1203 9.03878C79.5189 9.82928 77.6034 10.0725 77.0866 10.3461C76.9042 9.12999 76.2353 10.2245 76.6305 10.8934C75.5664 10.4374 73.1949 12.2616 72.1612 12.748C71.9179 12.8697 72.0396 12.9305 71.7659 13.0521C71.7051 13.0825 71.0362 13.2345 70.8234 13.2953C69.8505 13.6297 69.212 13.3561 68.8168 14.5419L68.5431 13.721C67.9351 15.0891 66.1108 15.6668 64.9251 16.4877C64.6211 16.7005 63.7697 17.491 63.3745 17.339C62.8576 17.1262 63.0705 15.9404 63.5569 15.758V15.758ZM99.1293 19.8625C99.9502 19.9233 99.1597 20.3186 99.3725 20.5618C99.3421 20.5314 99.859 20.9874 99.7982 20.8658C99.8894 21.0178 100.102 21.0178 100.224 21.3523C100.619 22.5076 98.886 23.7238 98.3084 24.3623C97.1834 25.6392 96.5146 27.2506 95.3592 28.4972C94.8802 29.0414 94.2591 29.4415 93.5654 29.6525C93.0485 29.8045 92.5013 29.6525 92.0452 30.139C91.65 30.5342 91.7412 30.7774 91.3155 30.9903C90.5858 31.3551 90.2514 31.0511 89.5217 31.8416C88.9136 30.139 90.677 30.1694 91.6196 29.2269C92.8965 27.9195 94.3255 26.6121 95.5112 25.2136C96.5754 23.967 97.001 22.9029 97.5179 21.3827C97.6699 20.8962 97.8523 19.8929 98.3084 19.5889C99.0381 19.1328 98.6124 19.8321 99.1293 19.8625V19.8625ZM103.234 63.7351C105.45 61.2451 108.097 59.175 111.048 57.6239C112.112 57.1071 113.601 56.4078 114.666 57.2287C115.73 58.0192 115.517 59.6002 115.061 60.6947C114.635 60.5427 115.03 59.0225 114.818 58.6577C114.362 57.8368 113.358 58.2624 112.659 58.536C111.873 58.8244 111.143 59.246 110.5 59.7826C110.257 60.0258 109.74 60.2387 109.588 60.3907C109.345 60.2995 109.193 60.3603 109.163 60.6035C109.188 60.6778 109.198 60.7563 109.193 60.8346C109.188 60.9128 109.167 60.9893 109.132 61.0596C109.102 61.1204 108.767 60.9075 108.737 60.9379C108.524 61.1204 108.342 61.3332 108.129 61.4852C107.702 61.756 107.313 62.0833 106.973 62.4581C106.244 63.3702 105.271 63.8871 104.541 64.7384C104.394 64.9729 104.262 65.2166 104.146 65.4681C103.781 65.8937 103.234 66.2586 102.808 66.7146C102.085 67.4475 101.302 68.1187 100.467 68.7213C100.064 69.0024 99.7144 69.3523 99.4333 69.755C99.3117 69.9374 99.2509 70.9712 99.2509 70.9712C98.43 71.8833 98.582 70.0591 98.6428 69.8462C99.3421 67.3835 101.592 65.5289 103.234 63.7351V63.7351ZM98.734 80.2747C98.8252 80.67 98.9165 80.974 99.0381 81.3692C98.3692 80.822 98.3692 80.822 98.734 80.2747ZM98.0347 81.5213L97.3051 82.251C96.7578 81.6733 98.126 81.4301 98.0347 81.5213ZM97.6699 71.8225C97.4267 72.8562 96.4842 74.1028 95.8457 74.9237C95.9065 74.8324 95.2984 75.0149 95.2376 75.0453C94.9944 75.1669 95.572 76.0486 94.7511 75.6533C94.4775 75.8054 95.0248 76.4742 94.6295 76.7479C93.535 74.2244 96.545 72.0353 97.7003 70.1807C98.3084 70.6975 97.8219 71.2448 97.6699 71.8225ZM90.4946 85.4433C91.3155 85.6562 91.7108 85.5346 92.258 84.7137C92.5925 84.2272 92.7141 83.4063 93.4438 84.1056L93.5654 83.1935C94.6295 83.6191 94.5383 85.2001 95.0248 86.0818C95.2376 85.0785 95.7849 82.3118 97.4267 82.7678C99.2813 83.2543 96.2105 86.4467 95.9065 87.2372C95.268 86.2642 95.5112 87.1764 95.0552 87.298C94.6295 87.4196 93.9911 87.1155 93.5046 87.146C91.9844 87.2372 90.6466 87.906 89.2481 88.4837C88.8832 87.5412 88.5488 86.5987 88.1839 85.6258C89.0048 85.6866 90.7074 83.4975 90.9203 85.1089C90.3122 85.0177 90.1298 85.0177 89.8561 85.5954C90.0576 85.5053 90.2742 85.4537 90.4946 85.4433V85.4433ZM93.8998 97.8177C94.4664 97.8594 95.0348 97.8695 95.6024 97.8481C96.6666 97.4528 96.2713 96.2367 96.5146 95.355C96.9706 95.7502 96.7274 96.5103 96.849 97.0272C97.001 97.6352 97.4875 98.1825 97.5179 98.8514C97.6091 100.341 96.3929 100.007 95.4504 100.493C94.6599 100.919 94.5687 101.436 93.8998 100.311C93.7174 100.007 93.3222 99.2162 93.3526 98.821C93.4134 98.4865 94.0215 98.1521 93.8998 97.8177ZM95.1768 104.294L94.7511 103.807C96.0585 104.202 95.2984 103.594 95.572 102.804C96.5754 103.473 97.3963 104.142 98.1564 102.834L99.5245 108.337C98.6124 108.55 97.4267 107.152 96.7882 106.665C96.4233 106.392 94.4167 105.297 95.6329 104.993C95.4808 104.75 95.3288 104.537 95.1768 104.294ZM104.085 87.0547C103.325 87.7844 102.565 88.1797 101.744 88.727C101.014 89.2134 101.258 89.7911 100.649 90.3383C100.224 90.7032 99.2509 91.068 98.734 91.3721C97.8219 91.8585 97.001 91.9801 96.0585 91.4025C96.3017 93.4699 94.9032 93.6219 93.1397 94.0476C92.2884 94.23 91.802 94.5341 91.1939 93.774C90.7683 93.2571 90.6162 92.2842 91.1331 91.8281C91.954 91.068 94.1431 91.3417 95.1768 90.8552C95.9673 90.4904 96.7882 88.4533 97.7611 89.183C97.2442 88.3621 97.8523 88.1493 98.278 87.5716C98.7644 86.9331 99.0685 86.2034 99.5549 85.565C100.598 84.308 101.866 83.2563 103.295 82.4638C104.48 81.8253 105.088 82.2814 105.271 83.6191C105.362 84.288 105.362 85.2913 104.997 85.869C104.876 86.0514 104.48 86.0514 104.359 86.2338C104.207 86.5379 104.389 86.7507 104.085 87.0547ZM117.98 71.0624C118.922 71.7921 118.831 73.3427 118.983 74.3764C119.196 75.8662 119.044 77.2951 119.013 78.7849C118.983 80.3659 118.223 81.3996 117.858 82.859C117.463 84.5008 116.946 85.3825 116.034 86.7507C117.007 86.9027 115.547 89.8519 115.304 90.2167C115.03 90.6424 112.933 92.5274 113.845 92.5274C113.358 93.1963 112.811 93.8652 112.294 94.5037C112.112 94.7469 111.747 94.8685 111.595 95.0205C111.291 95.3854 111.26 95.7198 111.048 96.1151C110.713 96.7535 110.591 96.5711 110.135 97.0576C109.831 97.392 109.619 97.8177 109.315 98.1217C108.342 99.125 108.22 98.3041 107.642 97.544C107.603 97.6414 107.541 97.7281 107.462 97.7968C107.383 97.8655 107.288 97.9144 107.186 97.9393C107.004 97.088 108.19 96.2063 108.706 95.6894C109.527 94.8381 110.257 93.8652 110.987 92.9531C112.547 90.951 113.892 88.7906 115 86.5075C116.195 84.0467 117.064 81.4403 117.584 78.7545C117.949 76.7175 118.314 73.2514 115.578 72.7346C113.601 72.3697 111.412 73.5555 109.801 74.5284C108.798 75.1061 107.825 75.7141 106.852 76.383C105.818 77.1127 104.936 78.116 103.811 78.6937C104.42 78.3897 102.413 79.3322 102.717 79.0586C102.565 79.1802 102.687 79.5754 102.595 79.7274C102.383 79.9689 102.125 80.1654 101.835 80.3051C101.318 80.7004 100.497 81.0956 100.285 81.7037C97.0314 79.393 103.477 75.2885 105.149 74.2548C108.494 72.1873 114.179 68.1436 117.98 71.0624V71.0624ZM126.736 48.594C126.705 46.9218 128.074 44.6719 128.986 43.3038C129.442 42.6349 130.141 42.6653 130.415 41.8748C130.567 41.4187 130.354 40.9627 130.415 40.5066C130.509 39.9204 130.727 39.3609 131.053 38.8648C133.82 34.0915 137.195 29.8957 140.782 25.7304C142.546 23.6934 144.218 21.5651 146.133 19.6193C146.924 18.8288 149.083 15.9404 150.299 16.2141C150.937 16.3661 151.332 17.3694 151.606 17.8559C152.087 18.6832 152.625 19.4757 153.218 20.2274C154.739 22.2617 156.589 24.0289 158.69 25.4568C159.998 26.3689 161.335 27.2202 162.643 28.1627C163.707 28.9228 165.318 29.8349 166.078 30.8991C166.838 31.9936 165.713 32.9057 165.105 33.8178C164.163 35.2164 163.281 36.6758 162.339 38.0743C161.974 37.8007 162.065 37.2534 161.791 36.8886C161.537 36.6258 161.239 36.4097 160.91 36.2501C160.302 35.8853 159.694 35.4292 159.146 36.0373C158.173 37.1014 159.511 39.6249 160.94 39.3513C161.122 40.4154 158.265 42.1484 157.535 42.7261C155.346 44.5199 153.096 46.0705 150.208 46.2225C149.025 46.3104 147.838 46.1658 146.711 45.7969C146.147 45.6301 145.628 45.3392 145.191 44.9456C144.704 44.4591 144.583 43.7294 144.096 43.243C143.671 42.8173 143.123 42.7565 142.698 42.3309C142.272 41.9052 142.09 41.2363 141.907 40.6891C141.573 39.6249 141.512 38.5 141.208 37.4359C141.026 36.7974 140.874 35.9157 140.235 36.5542C139.353 37.4663 139.779 40.2938 140.022 41.3579C140.357 42.9085 141.117 44.1247 141.907 45.4624C142.789 46.8914 143.093 48.2292 143.245 49.9014C143.554 52.9943 144.43 56.0038 145.829 58.7793C146.407 59.965 147.106 61.0596 147.745 62.2149C148.049 62.7622 148.687 64.5864 149.508 64.5864C150.785 64.556 148.961 60.8467 148.718 60.2083C147.319 56.7422 145.981 53.0938 145.677 49.3237C147.684 49.8406 149.873 50.327 151.971 49.9926C150.633 53.0026 152.032 55.9821 151.849 59.0833C151.758 60.6339 151.697 62.0629 151.728 63.6135C151.758 64.9816 151.15 66.3194 150.603 67.566C149.539 69.9982 148.231 73.0082 146.285 74.8628C144.644 76.4134 142.455 76.5351 140.326 76.1702C135.462 75.3493 132.3 71.6096 130.263 67.3835C128.943 64.6556 127.963 61.7762 127.344 58.8097C126.614 55.4957 126.797 52.06 126.736 48.594V48.594ZM133.029 25.548C128.499 22.2644 135.066 18.5551 138.441 19.072C139.232 19.1936 140.661 19.5281 140.6 20.5314C140.539 21.3827 139.141 22.2948 138.593 22.8117C137.073 24.271 135.492 27.3418 133.029 25.548ZM165.957 98.3345C165.805 98.1825 164.528 98.5473 165.045 97.7873C165.47 97.1792 166.626 97.9393 167.051 98.0913C166.686 98.3345 166.382 98.6994 165.957 98.3345ZM147.106 137.951C146.711 138.011 146.316 136.947 147.714 137.738C147.502 137.799 147.319 137.89 147.106 137.951ZM147.076 155.068C147.137 155.524 147.258 155.858 146.924 156.193C146.65 155.828 146.62 155.342 147.076 155.068V155.068ZM147.654 162.122C147.623 162.365 147.562 162.638 147.532 162.882C147.198 162.73 146.894 162.547 146.559 162.395L147.654 162.122V162.122ZM148.049 156.162C148.535 156.345 148.292 155.767 148.657 155.676C148.713 155.955 148.71 156.243 148.647 156.521C148.584 156.798 148.463 157.06 148.292 157.287C148.191 156.917 148.11 156.541 148.049 156.162V156.162ZM160.362 113.506C159.694 113.415 159.572 114.144 159.085 114.418C158.751 114.601 157.778 114.448 157.596 114.813C157.839 114.874 158.082 114.965 158.325 115.026C157.778 115.33 157.2 115.634 156.653 115.938C157.991 115.938 159.389 115.3 160.727 115.482C160.988 115.506 161.242 115.583 161.472 115.708C161.702 115.834 161.904 116.005 162.065 116.212C162.294 116.525 162.44 116.891 162.491 117.276C162.521 117.641 162.247 117.915 162.278 118.067C162.886 118.097 162.795 119.07 162.673 119.465C162.369 120.347 161.214 121.715 160.18 121.137C160.606 121.745 160.514 122.11 159.846 122.475C159.906 122.262 159.937 121.897 159.602 121.958C159.511 122.293 159.541 122.84 159.268 123.114C158.964 123.418 158.66 123.053 158.386 123.266C158.021 123.478 158.143 123.843 157.869 124.086C157.504 124.421 157.444 124.178 157.018 124.238C156.349 124.33 156.775 123.904 156.227 124.451C156.045 124.634 156.075 125.12 155.771 125.394C155.194 125.911 153.643 126.458 153.096 125.789C151.758 127.887 147.775 128.404 145.921 126.732C142.971 124.086 148.475 118.675 150.299 116.942C152.123 115.209 154.16 113.749 156.227 112.29C157.383 111.469 158.599 110.739 159.815 110.01C160.575 109.554 161.518 108.733 162.46 108.824C163.281 108.885 164.011 109.553 164.893 109.675C165.531 109.766 166.747 109.918 165.957 110.77C165.592 111.165 164.102 111.834 163.616 111.925C163.312 111.986 163.008 111.864 162.734 111.925C162.247 112.016 161.913 112.442 161.366 112.381C161.518 113.232 161.214 113.628 160.362 113.506V113.506ZM169.149 83.9536C169.149 84.5616 168.024 84.4096 167.781 84.1968C167.386 83.8623 167.386 82.7982 167.234 82.3422C167.872 82.5246 169.149 83.1327 169.149 83.9536ZM159.998 63.4006C162.373 61.4306 164.894 59.6419 167.538 58.0496C168.48 57.4719 169.818 56.347 171.004 56.4686C171.49 56.5294 172.524 57.1071 172.159 57.7151C172.098 57.8368 171.551 57.8672 171.369 57.9584C171.186 58.0496 171.034 58.3232 170.852 58.4448C169.605 59.3569 168.115 59.9042 166.869 60.8467C165.835 61.6068 164.893 62.4581 163.798 63.127C162.734 63.7655 161.639 64.1607 160.636 64.86C160.666 64.86 159.329 65.3161 159.602 65.4073C158.417 65.0424 159.663 63.6743 159.998 63.4006V63.4006ZM175.899 62.671C177.328 62.0933 178.696 61.4244 180.186 61.0292C180.925 60.8102 181.697 60.7278 182.466 60.7859C182.483 60.7357 182.511 60.6902 182.549 60.6534C182.587 60.6166 182.634 60.5895 182.685 60.5746C182.735 60.5596 182.789 60.5572 182.841 60.5676C182.893 60.5779 182.942 60.6007 182.983 60.6339C183.151 60.8894 183.381 61.0985 183.652 61.242C184.077 61.5764 185.628 62.0021 185.324 62.7014C185.111 63.1878 183.56 63.2182 183.135 63.3094C181.827 63.6439 180.642 64.3432 179.304 64.5256C179.116 64.5133 178.932 64.4723 178.757 64.404C178.24 64.5256 177.814 65.0424 177.358 65.3161C176.385 65.8633 175.017 65.9546 174.318 66.9275C176.537 68.4477 178.483 66.9275 180.459 65.8025C181.643 65.1295 182.897 64.5891 184.199 64.1911C184.868 63.9479 185.537 63.7351 186.236 63.5223C186.521 63.4193 186.817 63.348 187.118 63.3094C187.239 63.2712 187.37 63.2815 187.483 63.3382C187.597 63.395 187.684 63.4937 187.726 63.6135C188.547 63.5831 188.607 63.0662 189.124 64.0391C189.824 65.4073 188.759 65.3161 187.756 65.4985C186.358 65.7417 184.959 66.2586 183.56 66.593C183.256 66.6842 180.459 67.3227 180.459 67.3531C180.338 68.2348 188.303 67.4139 188.972 67.2923C190.188 67.0491 191.465 66.4106 192.712 66.5626C193.685 66.6842 195.844 68.0828 194.323 69.0253C194.019 67.5964 192.986 68.7821 192.438 69.2686C191.709 69.907 190.675 69.8462 189.702 70.1199C188.364 70.4543 184.898 71.7617 183.925 70.1199C184.229 71.5792 178.726 70.8496 177.966 70.7887C177.236 70.7279 176.264 70.9104 175.564 70.6975C175.108 70.5455 174.835 70.2719 174.409 70.1807C174.296 70.2896 174.162 70.3726 174.014 70.4239C173.793 70.3102 173.588 70.167 173.406 69.9982C171.946 69.3294 169.636 68.9341 170.456 66.7755C171.277 64.6776 174.044 63.431 175.899 62.671V62.671ZM189.732 63.9175C189.763 63.783 189.804 63.6509 189.854 63.5223C189.854 63.9175 190.797 64.0695 190.675 64.5864C190.432 65.7113 189.368 64.0391 189.276 63.8567C189.426 63.8919 189.579 63.9122 189.732 63.9175V63.9175ZM195.387 65.7721C195.509 66.2282 196.725 67.2011 196.421 67.4139C195.935 66.7755 194.597 67.0795 195.387 65.7721ZM174.591 107.486C175.047 106.604 176.416 108.125 176.264 106.574C176.993 106.635 176.537 107.212 177.419 106.969C177.753 106.878 177.966 106.513 178.392 106.422C178.635 106.407 178.878 106.407 179.121 106.422C179.669 106.392 181.767 106.361 180.307 105.631C181.128 105.084 181.219 105.358 181.949 105.844C181.767 104.841 182.831 105.419 183.348 105.54C182.983 104.963 183.864 104.354 184.169 103.959C184.077 104.567 184.108 105.236 184.989 104.841C185.202 104.75 185.172 104.324 185.324 104.263C185.628 104.142 185.81 104.354 185.932 104.354C186.124 104.388 186.322 104.377 186.51 104.324C186.814 104.202 186.662 103.807 187.057 103.746C187.3 103.716 187.483 104.081 187.787 104.081C187.939 104.081 188.212 103.929 188.334 103.929C188.364 103.929 188.516 103.564 188.699 103.564C188.972 103.564 189.063 104.263 189.185 104.415C189.655 105.053 190.284 105.556 191.009 105.875C189.702 107.06 187.087 106.939 185.445 107.334C184.593 107.558 183.767 107.874 182.983 108.277C182.79 108.403 182.616 108.557 182.466 108.733C182.349 108.659 182.238 108.578 182.131 108.489C181.675 108.52 181.28 108.307 180.763 108.368C179.213 108.641 177.997 109.797 176.446 110.04C175.747 110.162 175.169 110.314 174.713 109.706C174.226 109.219 174.318 108.064 174.591 107.486V107.486ZM172.463 100.341C172.828 100.645 172.402 101.588 173.071 101.497C173.558 101.436 173.466 100.676 173.831 100.524C174.318 100.311 174.622 100.797 175.108 100.767C175.99 100.676 175.929 99.9155 175.199 99.5811C175.959 99.3682 176.203 100.28 176.872 100.28C177.753 100.28 177.54 99.2162 178.301 99.0338C178.635 98.973 178.513 99.4291 178.726 99.4899C179.152 99.6115 179.456 99.3987 179.821 99.2162C180.155 99.0642 180.398 98.7298 180.763 98.6386C180.946 98.5777 181.371 98.669 181.493 98.5778C181.736 98.3953 181.949 97.696 182.192 97.6048C182.458 97.7884 182.744 97.9413 183.044 98.0609C182.983 98.3649 182.8 98.3953 182.557 98.1521C182.557 98.821 184.412 99.0338 184.047 98.2129C185.05 98.6386 184.29 98.8514 184.199 99.4291C184.169 99.6723 184.016 99.6419 184.077 99.9155C184.108 100.037 184.625 99.9459 184.625 100.098C184.594 101.101 181.402 101.405 180.794 101.497C179.555 101.686 178.334 101.981 177.145 102.378C176.233 102.652 174.713 103.473 173.74 103.412C172.372 103.351 172.189 101.557 172.463 100.341V100.341ZM169.392 90.1255C169.058 89.0006 170.122 86.7203 171.521 86.9939C171.855 87.0547 171.946 87.3588 172.22 87.4804C172.585 87.6628 173.193 87.5716 173.527 87.754C174.257 88.1493 173.892 89.2134 174.622 89.5783C173.466 89.8519 169.94 91.8889 169.392 90.1255V90.1255ZM170.73 94.4428C171.217 94.1692 172.037 94.1388 172.372 93.6219C172.554 93.7436 172.858 94.4428 173.162 94.3212C173.314 94.2604 173.436 93.8956 173.436 93.8956C173.71 93.8956 173.77 93.5307 174.166 93.5611C174.531 93.5915 174.956 94.0476 175.291 94.23C175.23 93.1051 175.534 93.0139 176.416 92.4058C176.628 92.2842 176.78 91.7673 176.963 91.5849C176.78 92.7706 177.236 92.7706 178.179 92.9531C178.719 93.0301 179.226 93.2557 179.645 93.6047C180.064 93.9537 180.377 94.4124 180.55 94.9293C179.547 94.7469 178.24 94.9597 177.845 96.0542C177.054 94.5949 174.135 96.6015 173.193 97.0272C172.493 97.3312 171.673 97.7569 171.095 97.0272C170.669 96.5103 170.912 95.9326 170.943 95.4766C170.943 95.3246 171.095 95.3246 171.065 95.1117C171.065 94.8685 170.73 94.7469 170.73 94.4428ZM181.432 117.458C181.159 117.55 179.79 117.61 179.79 117.154C179.79 116.759 182.192 117.154 181.432 117.458ZM179.213 115.999C178.179 116.638 177.024 114.388 176.659 113.749C177.753 113.901 178.27 112.989 178.909 112.29C179.517 113.628 180.429 112.928 181.402 112.472C182.557 111.955 183.804 111.955 184.959 111.53C185.324 111.408 185.658 111.195 186.023 111.043C186.297 110.922 186.601 110.83 186.874 110.709C186.973 110.632 187.046 110.526 187.084 110.407C187.122 110.288 187.123 110.16 187.087 110.04C186.996 109.827 187.057 109.675 187.27 109.614C187.537 109.694 187.812 109.745 188.091 109.766C188.547 109.675 189.185 109.249 188.638 108.793C189.216 108.277 189.793 108.793 190.371 109.037C190.249 108.641 190.097 108.277 189.976 107.881C190.249 108.003 191.07 109.158 191.161 109.158C191.709 109.128 191.648 108.398 191.952 108.125C192.134 108.337 192.195 109.979 192.864 109.432C193.168 109.189 192.53 108.398 192.347 108.216C193.138 108.398 193.837 109.341 194.05 110.101C193.677 110.156 193.297 110.069 192.986 109.858C192.773 110.891 194.688 110.466 194.992 111.013C195.6 112.077 191.678 112.807 191.161 112.898C190.128 113.08 188.942 113.172 187.999 113.628C187.087 114.053 186.874 114.175 185.841 114.266C184.655 114.357 183.469 114.753 182.314 115.057C181.371 115.269 180.125 115.452 179.213 115.999V115.999ZM201.134 78.3289C202.076 77.9944 205.269 76.231 206.09 76.9911C206.245 77.4133 206.438 77.8204 206.667 78.2073C206.728 78.9369 206.698 79.2106 205.816 79.5754C205.177 79.8187 204.63 79.3018 204.053 79.5146C203.414 79.7578 203.87 80.1531 203.536 80.4267C203.171 80.7308 202.502 80.8828 202.046 81.0044C200.951 81.3388 199.887 81.6125 198.793 81.9773C196.604 82.707 194.293 83.3759 192.043 83.8928C190.371 84.288 187.513 85.2305 185.962 84.1056C185.81 84.7441 185.445 84.6528 184.929 84.7441C184.437 84.8619 183.94 84.9533 183.439 85.0177C182.831 85.0481 181.189 84.8657 181.432 84.0448C181.371 84.288 182.709 83.4975 182.496 83.4367C183.074 83.5583 182.892 83.2543 183.348 83.1023C183.956 82.8894 184.594 82.8894 185.233 82.6766C186.814 82.1293 188.121 81.3996 189.793 81.0348C193.624 80.2747 197.485 79.6362 201.134 78.3289V78.3289ZM48.5983 164.554C48.2943 164.554 48.051 163.672 48.9935 164.311C48.8719 164.371 48.7503 164.463 48.5983 164.554ZM41.2102 163.398C40.7845 163.52 40.6325 163.277 40.7237 162.699C41.271 162.486 41.4534 162.699 41.2102 163.398ZM35.4639 162.243C35.3423 161.726 35.7375 161.605 36.072 161.392C36.072 162.061 36.072 162.061 35.4639 162.243ZM21.0829 158.017C20.5053 157.895 19.7452 157.318 19.5931 158.26C19.5019 158.047 19.0155 157.014 19.2283 156.77C19.3499 156.649 19.7452 157.227 19.7148 157.166C20.2316 156.132 21.0829 157.379 21.5998 157.743C21.4174 157.835 21.2349 157.926 21.0829 158.017V158.017ZM171.825 44.5807C172.037 44.1551 172.25 44.0335 172.524 44.1855C172.098 45.1584 170.669 45.7057 171.825 44.5807ZM181.858 35.2772C182.223 35.9461 181.675 36.2197 181.28 36.7974C181.523 36.1893 181.675 35.7941 181.858 35.2772ZM225.457 100.736C226.734 100.736 229.5 100.068 230.261 101.527C230.777 100.524 231.355 102.409 231.811 102.713C231.872 102.743 232.176 102.5 232.328 102.591C232.56 102.793 232.746 103.042 232.875 103.321C233.271 103.99 233.423 104.78 233.635 105.51C231.385 105.51 229.075 104.993 226.825 104.78C225.358 104.669 223.886 104.648 222.416 104.719C222.112 104.75 221.535 104.628 221.291 104.689C221.048 104.75 220.562 105.267 220.288 105.175C220.714 105.996 226.338 107.973 226.764 107.06C226.247 106.756 225.122 106.513 225.122 105.783C225.122 104.963 226.186 104.963 226.734 104.993C227.95 105.054 230.017 105.449 230.504 106.726C230.717 107.273 230.777 108.641 230.534 109.158C230.382 109.493 230.139 109.918 229.713 109.979C229.531 110.01 229.318 109.797 229.288 109.797C228.436 109.979 226.886 110.648 225.974 109.706C225.305 110.557 222.143 109.614 221.17 109.31C219.467 108.733 217.126 107.973 216.092 106.392C214.846 104.446 217.4 102.834 218.859 102.044C220.927 100.98 223.207 100.736 225.457 100.736V100.736ZM234.031 105.206C234.426 105.327 234.821 105.419 235.216 105.54C235.125 106.239 233.544 105.692 234.031 105.206ZM245.979 130.41C246.101 127.644 245.31 125.181 244.824 122.505C244.702 121.837 244.824 120.681 244.307 120.134C243.821 119.617 242.756 120.043 242.696 119.1C242.209 119.648 242.27 119.769 241.692 119.131C241.804 119.4 241.825 119.699 241.753 119.982C241.388 119.769 240.081 119.07 240.172 120.043C239.078 119.8 239.412 119.131 238.774 118.614C238.682 118.553 238.318 118.796 238.196 118.705C237.988 118.507 237.795 118.293 237.618 118.067C237.326 118.365 237.011 118.639 236.676 118.887C236.589 118.679 236.452 118.495 236.277 118.352C236.102 118.208 235.894 118.111 235.672 118.067C236.098 118.948 237.101 120.043 235.703 120.56C234.852 120.864 233.483 120.499 232.602 120.56C229.318 120.803 225.7 120.104 222.508 119.313C219.224 118.492 215.94 117.367 212.991 115.695C212.431 115.349 211.911 114.941 211.441 114.479C210.924 114.053 210.529 113.992 209.89 113.719C208.747 113.202 207.715 112.469 206.85 111.56C204.995 109.675 203.262 107.182 203.779 104.415C204.296 101.649 206.181 99.4899 208.218 97.696C210.62 95.554 213.3 93.744 216.184 92.3146C217.461 91.6761 220.744 89.2438 222.021 90.6728C222.842 91.5849 222.386 92.7402 221.261 92.9531C220.987 93.0139 220.714 92.8315 220.44 92.9531C220.045 93.1355 220.197 93.3483 220.014 93.5003C219.724 93.8492 219.386 94.1561 219.011 94.4124C217.521 95.2029 216.092 95.8414 214.663 96.8143C213.995 97.2704 213.386 97.4528 212.809 97.8481C212.231 98.2433 212.11 98.8818 211.319 98.4865C211.593 99.6115 209.951 100.828 209.282 101.497C208.279 102.561 207.063 103.929 207.549 105.51C208.461 108.611 212.596 110.952 215.272 112.32C218.606 114.079 222.197 115.3 225.913 115.938C227.737 116.212 229.652 116.394 231.477 116.577C232.906 116.729 235.125 116.212 236.159 117.519C236.189 115.999 240.902 116.151 241.905 115.938C239.899 109.067 235.946 102.956 231.72 97.24C229.652 94.4429 227.615 91.5545 225.244 88.9702C222.66 86.1426 219.71 83.6495 216.883 81.0652C211.38 75.9878 205.147 71.4576 198.823 67.4747C192.499 63.4919 185.962 59.5698 179.03 56.7422C171.125 53.489 162.795 51.3608 154.464 49.5365C155.589 48.1076 157.444 47.3779 158.873 46.3442C159.389 45.9793 160.058 45.0976 160.727 44.976C161.427 44.8544 162.004 45.6145 162.521 46.0097C163.98 47.1042 164.984 46.6482 166.656 46.5874C167.659 46.557 170.031 47.1042 170.426 45.7665C170.973 46.5266 170.183 47.1042 169.757 47.6515C170.061 48.0772 170.304 47.6211 170.608 47.5603C170.7 47.4691 170.791 47.4083 170.882 47.3171C171.034 47.1042 171.156 47.1042 171.277 47.3171C171.46 47.5907 171.642 47.5299 171.825 47.1346C171.885 47.1042 171.916 47.0738 171.977 47.0434C172.189 46.9218 172.402 46.7394 172.615 46.6178C174.033 45.5435 175.55 44.6069 177.145 43.8206C178.544 43.1518 177.784 41.8748 178.726 40.9627C178.939 40.7499 179.304 40.8715 179.517 40.6891C179.73 40.5066 179.76 40.3242 179.942 40.1418C180.338 39.7161 179.882 39.1993 180.855 39.7161L180.49 37.7095C182.405 39.5641 182.405 34.2131 182.679 33.3922C182.648 33.4834 182.861 32.6929 182.861 32.6929C182.922 31.0815 183.135 29.8957 181.25 29.8045C181.979 29.3485 182.192 30.2302 182.527 29.3181C182.679 28.862 182.162 28.0715 183.013 28.3756C183.196 27.4026 183.013 26.6121 182.8 25.6696C182.588 24.6967 182.709 24.0582 182.709 23.0853C182.709 21.9908 182.223 20.8962 182.04 19.8017C181.919 18.9504 182.04 17.643 180.946 17.9471C180.794 17.7038 181.341 16.9742 181.311 16.6093C181.28 16.0316 180.672 15.454 180.49 14.9371C180.371 15.0708 180.214 15.1656 180.041 15.209C179.867 15.2524 179.685 15.2424 179.517 15.1803C179.851 14.4506 179.547 14.2074 179.213 13.5689C179.03 13.2041 179.152 12.8088 178.757 12.5352C178.544 12.3832 178.149 12.6264 177.997 12.4744C177.632 12.1096 177.753 11.5927 177.51 11.1062C177.176 10.4982 176.446 10.0117 175.959 9.52524C173.132 6.91052 170.061 4.87347 166.291 3.87015C162.491 2.83642 158.082 2.47158 154.282 3.65732C152.761 4.14378 151.424 4.08298 150.056 4.96468C149.599 5.26872 149.569 5.17751 149.356 5.66397C149.295 5.78558 149.782 6.08962 149.478 6.27204C149.174 6.48487 148.809 6.05922 148.657 5.72478C146.681 7.15375 144.856 9.03878 143.732 11.2279C142.607 13.3865 142.515 15.9404 142.09 18.2815C140.144 15.8188 137.499 14.7547 134.61 15.8188C132.087 16.7613 130.141 18.8288 129.655 21.5043C129.383 23.1259 129.65 24.7918 130.415 26.2473C130.749 26.8858 131.114 27.5851 131.722 28.0107C132.178 28.3451 132.999 28.3147 133.212 28.9228C133.546 29.8653 131.6 31.872 131.114 32.6929C130.182 34.1616 129.379 35.7077 128.712 37.3142C126.401 34.061 124.182 30.4734 121.567 27.4634C119.074 24.6359 116.125 22.082 113.237 19.6801C107.217 14.6939 100.954 10.0117 94.2343 6.02881C87.9103 2.34996 80.3398 0.312913 73.0429 1.0122C65.898 1.71148 60.4253 6.24164 55.8344 11.4407C46.9869 21.4435 41.575 35.7332 41.0582 49.0501C40.8666 53.0259 41.2455 57.0087 42.1831 60.8771C42.6392 62.7318 42.5784 64.556 42.852 66.4106C43.156 68.5085 43.7033 70.6367 44.2202 72.7042C46.2282 80.6238 48.6641 88.4287 51.517 96.0846C52.9764 100.037 54.7398 103.929 57.1417 107.425C58.2363 109.037 59.6652 110.314 60.8814 111.834C62.0367 113.324 62.3408 115.148 62.584 116.972C63.1921 121.35 63.5873 125.728 63.9522 130.137C64.1042 131.991 64.2866 133.846 64.5298 135.701C64.7427 137.312 64.1954 137.221 62.8576 137.799C63.1313 136.339 56.6553 137.342 56.0168 137.434C55.3479 137.555 54.6486 137.555 54.1318 137.616C53.5331 137.752 52.9215 137.824 52.3075 137.829C51.3042 137.799 49.4496 137.555 49.0847 138.802C48.8111 137.342 47.1085 138.954 48.3855 138.68C47.0781 138.832 45.7403 138.589 44.4026 138.711C42.8824 138.863 41.3622 138.984 39.842 139.228C38.7779 139.38 37.7746 139.805 36.7408 139.896C35.4031 140.048 33.9741 140.018 32.6363 140.14C27.6197 140.596 22.4207 141.69 17.5561 142.937C16.4616 143.21 15.1846 143.423 14.1205 143.879C13.8468 144.001 13.5732 144.275 13.2996 144.366C12.8435 144.548 12.9043 144.427 12.5091 144.487C10.1072 144.974 7.61407 145.764 5.18177 146.372C3.84401 146.707 1.65494 147.011 0.560407 147.953C0.0739477 148.379 -0.351704 149.109 0.438792 149.595C1.07727 149.96 1.95898 149.382 2.47584 149.048C2.01979 150.234 1.16848 150.811 1.62454 152.149C1.98938 153.213 2.81028 154.521 4.05684 153.821C4.23926 154.217 4.30007 155.007 4.78653 155.129C5.24258 155.25 5.54662 154.703 6.00267 154.825C6.15469 154.885 6.09388 155.159 6.2459 155.25C6.49235 155.36 6.74637 155.451 7.006 155.524C7.28908 155.647 7.58473 155.739 7.88771 155.798C8.07562 155.74 8.25095 155.647 8.40457 155.524C8.76941 155.585 8.95184 156.284 9.22547 156.466C9.5249 156.7 9.88231 156.847 10.2592 156.892C11.1409 157.075 12.2658 157.409 12.8739 156.527C12.7523 157.166 13.6036 157.105 13.9989 157.196C13.9745 157.027 13.9161 156.864 13.8273 156.718C13.7385 156.571 13.621 156.445 13.482 156.345C14.3333 156.406 13.9989 157.257 14.6373 157.5C15.0934 157.652 15.0326 157.257 15.3974 157.196C15.8535 157.135 16.2183 157.47 16.9176 157.166C17.0696 157.865 17.1304 158.564 17.9817 158.655C18.4682 158.716 19.6539 157.804 19.5627 158.564C20.6877 158.23 21.0829 158.473 21.691 159.446C21.7822 158.838 22.2687 159.02 22.6943 158.99C23.3936 158.929 23.3936 158.99 23.9409 158.595C24.0017 158.564 24.3969 157.591 24.6098 158.199C24.701 158.473 24.1233 159.112 23.9409 159.264C24.1841 159.385 25.0354 159.841 25.3698 159.75C25.6435 159.689 25.6435 159.203 25.9779 159.172C25.8867 159.446 25.8259 159.72 25.7347 159.993C26.3732 160.084 26.9204 159.659 27.4373 159.324C27.9238 160.571 29.3223 159.872 30.0824 160.814C30.4777 161.301 30.5081 161.696 31.2682 161.817C32.0587 161.939 32.758 161.605 33.4268 162.243C33.214 161.848 32.6971 161.513 33.214 161.057C33.5789 161.574 33.7613 162.182 34.1565 162.638L34.3389 161.909C35.4031 163.064 36.7712 163.064 38.1394 163.703V162.973C39.1123 164.463 39.1731 163.52 40.3589 162.912C40.2677 163.368 40.2069 163.794 40.1156 164.25C40.967 164.189 41.7575 165.192 42.4567 164.341C42.8824 165.04 43.3993 164.706 44.0681 164.919C44.4634 165.04 44.737 165.436 45.1323 165.557C45.7099 165.77 45.862 165.77 46.4092 165.952C46.8957 166.104 47.1693 166.439 47.747 166.53C48.1193 166.586 48.4971 166.596 48.8719 166.56C49.0239 166.56 48.9631 166.226 49.2976 166.317C49.784 166.439 50.1489 167.047 50.5137 167.381C51.061 166.044 52.5508 167.837 53.2805 168.081C53.3413 167.746 53.3413 167.321 53.5845 167.047C53.8885 167.685 53.9797 168.233 54.5878 168.628C54.9833 168.86 55.4149 169.025 55.8648 169.114C56.108 169.175 56.5945 169.114 56.7465 169.175C57.0201 169.297 57.1113 169.662 57.385 169.692C57.537 169.722 57.7802 169.297 57.9018 169.327C58.4491 169.479 58.7835 170.148 59.3308 170.513C61.003 171.607 63.1313 171.699 64.9859 171.942C65.442 172.003 65.5332 171.881 65.898 172.155C66.1108 172.307 66.0196 172.763 66.2629 172.884C67.2054 173.371 67.2054 172.337 67.4182 171.729C67.7222 172.155 67.783 172.672 68.2087 173.006C68.4422 173.001 68.6758 173.011 68.908 173.036C69.031 173.186 69.1146 173.363 69.1512 173.553C69.7289 173.949 70.3674 173.797 70.945 174.101C71.1275 174.192 71.4619 174.769 71.7051 174.921C72.1845 175.203 72.7092 175.398 73.2557 175.499C74.259 175.773 75.7184 175.408 76.3265 176.472C77.117 175.621 76.8129 176.624 77.3602 176.867C77.6947 176.989 78.1507 176.502 78.5156 176.533C79.154 176.624 79.3973 177.323 79.5797 177.81C79.9749 177.719 79.7013 176.624 79.7013 176.381C80.1878 176.32 80.279 177.597 80.3702 177.871C81.1303 177.506 79.8837 176.35 80.7046 175.986C80.6438 176.959 81.4039 177.779 80.0053 177.901C80.1878 178.479 84.6875 179.148 84.9915 178.631C85.0524 179.604 85.6908 178.692 85.9341 178.357C85.9645 178.904 85.782 179.725 86.3901 179.969C86.8158 180.151 87.7887 179.695 87.9407 179.269C88.1231 179.908 88.4576 179.877 88.8528 180.303C89.1265 180.577 89.3089 181.063 89.5825 181.306C90.0994 181.732 91.1027 181.671 91.7108 181.58C92.9269 181.397 92.7749 181.154 93.2006 182.401C93.2918 181.914 93.5958 180.941 94.1431 181.671C94.4775 182.127 93.7478 183.161 93.5654 183.587C94.0186 183.297 94.5097 183.072 95.0248 182.918C95.0755 183.139 95.065 183.37 94.9944 183.587C95.2681 183.72 95.5322 183.873 95.7849 184.043C95.8009 183.724 95.8519 183.408 95.9369 183.1C96.6666 183.556 96.1497 184.438 96.8186 184.894C97.001 185.016 97.3963 184.864 97.5787 184.955C97.9435 185.076 98.2476 185.411 98.5516 185.624C98.3084 185.289 98.3388 184.711 98.3388 184.316C98.4908 184.407 98.6124 184.742 98.7644 184.772C98.8252 184.772 99.4637 184.864 99.4637 184.864C100.133 185.32 99.9806 185.38 99.4333 185.958C99.6461 186.292 100.497 185.715 100.71 185.624C100.771 185.745 100.771 186.201 100.862 186.292C100.926 186.419 100.977 186.551 101.014 186.688C101.09 186.626 101.178 186.583 101.273 186.562C101.368 186.54 101.467 186.542 101.562 186.566C101.683 186.597 102.656 186.992 102.717 186.87C102.51 186.8 102.315 186.697 102.139 186.566C102.687 186.08 103.051 185.806 103.568 186.536C103.629 186.627 103.416 186.961 103.477 187.083C103.72 187.539 104.237 187.873 104.572 188.238C104.724 187.752 104.389 186.505 105.18 186.536C105.818 186.566 106.274 188.086 106.061 188.573C106.305 188.299 107.794 188.026 108.068 188.117C108.858 188.36 108.646 189.09 109.619 188.026C110.287 188.482 109.71 188.664 109.831 189.211C109.916 189.229 110.004 189.228 110.089 189.207C110.173 189.186 110.251 189.146 110.318 189.09C110.196 191.461 111.96 189.637 113.115 190.002C113.571 190.154 113.693 190.64 114.149 190.792C114.392 190.883 114.696 190.671 114.939 190.731C115.152 190.701 115.334 190.671 115.517 190.64C115.76 190.519 115.882 190.64 115.851 191.066C116.247 191.279 116.095 191.34 116.581 191.4C116.885 191.431 117.159 191.127 117.493 191.157C118.071 191.248 118.01 191.704 118.375 191.948C118.718 192.135 119.119 192.189 119.5 192.1C119.713 192.069 120.321 191.796 120.381 191.796C120.838 191.796 120.594 191.704 121.111 192.069C121.427 192.356 121.8 192.574 122.206 192.708C122.783 192.86 123.848 193.194 124.212 192.799C124.76 193.589 125.155 193.012 125.854 193.073C126.219 193.103 126.28 193.255 126.584 193.285C127.101 193.377 127.739 193.285 128.317 193.468C129.199 193.741 129.29 193.893 130.171 193.924C130.324 193.863 130.506 193.802 130.658 193.741C130.711 193.996 130.838 194.228 131.023 194.41C131.509 194.501 131.844 194.258 132.269 193.985C132.573 194.927 133.577 195.018 134.428 195.14C135.796 195.353 137.104 195.444 138.441 195.9C139.568 196.278 140.674 196.714 141.755 197.207C142.698 197.633 143.58 198.272 144.674 197.968C147.106 197.299 149.447 194.806 151.454 193.377C153.856 191.674 156.44 190.306 158.933 188.786C168.906 182.735 179.456 177.627 189.307 171.334C194.688 167.898 199.674 163.855 205.421 161.057C204.6 164.463 203.201 167.898 203.444 171.455C203.536 172.884 203.961 174.587 205.086 175.59C206.454 176.837 207.975 176.046 209.312 175.165C212.14 173.28 213.995 170.513 216.092 167.929C218.586 164.858 220.501 161.574 222.356 158.078C222.781 158.686 222.447 159.72 222.477 160.419C222.491 161.289 222.709 162.143 223.116 162.912C224.149 164.919 226.126 165.405 227.919 164.037C231.355 161.392 233.362 156.679 235.216 152.909C236.28 154.855 237.77 157.348 240.294 155.95C242.392 154.794 243.608 152.21 244.246 150.021C246.283 143.454 245.706 136.947 245.979 130.41" fill="#2A4663"/>
<path fill-rule="evenodd" clip-rule="evenodd" d="M242.818 92.0714C242.574 91.4938 242.483 91.585 242.909 91.0377C243.274 91.3722 243 91.6458 242.818 92.0714ZM253.368 127.066C252.699 125.151 253.124 123.083 252.699 121.137C252.516 120.256 252.212 119.374 252.121 118.462C252.06 118.067 251.726 116.242 251.969 115.938C251.209 115.482 251.209 115.148 251.027 114.236C251.3 113.962 251.27 113.719 250.935 113.506C250.729 113.229 250.506 112.965 250.266 112.716C251.239 113.172 250.662 111.986 250.57 111.287C250.516 110.732 250.414 110.182 250.266 109.645C250.054 109.006 249.537 108.672 250.57 108.672C250.236 108.277 249.719 107.881 249.537 107.395C249.294 106.696 249.689 105.814 249.202 105.206C248.929 104.871 247.469 104.75 247.743 103.99C247.865 103.625 248.442 103.898 248.625 103.625C249.324 102.591 247.226 102.165 247.135 101.74C247.013 101.162 247.773 101.041 247.804 100.524C247.834 100.007 247.044 99.1555 246.831 98.6995C246.527 98.7603 246.223 99.2163 245.888 99.0035C245.827 98.9731 245.919 97.1793 245.858 96.936C245.797 96.6928 245.645 96.0847 245.584 95.9631C245.371 95.5071 244.763 95.2942 244.642 94.747C244.581 94.4125 245.858 93.9261 244.399 93.9261C244.915 93.014 243.973 92.4667 243.608 91.6762C243.152 90.6729 242.909 89.5783 242.453 88.575C242.016 87.5946 241.486 86.658 240.872 85.7779C240.294 84.9874 240.051 84.2273 239.564 83.4064C239.473 83.3456 239.382 83.2544 239.291 83.1936C238.895 83.2544 238.774 83.0719 238.926 82.6767C238.622 82.251 238.409 81.7646 238.135 81.3085C237.831 80.7917 237.436 80.3356 237.102 79.8187C236.676 79.1195 236.554 78.3594 236.098 77.6601C235.521 76.8088 234.882 76.0791 234.335 75.1974C233.666 74.1028 232.936 73.4036 232.085 72.5523C231.69 72.157 231.629 71.1233 231.142 70.5456C230.595 69.9071 230.078 69.7551 229.714 68.9342C229.227 67.8701 228.528 67.3532 227.829 66.4411C227.251 65.681 226.977 64.7993 226.339 64.0696C225.791 63.4311 225.183 62.8535 224.606 62.2454C223.876 61.4853 223.329 60.5732 222.599 59.8435C222.721 59.9347 221.93 59.3266 221.991 59.357C221.787 59.279 221.571 59.2379 221.353 59.2354C220.197 58.5665 218.768 56.1038 217.066 57.4112C216.153 58.1105 216.61 59.357 217.218 60.0259C217.491 60.33 218.89 61.7589 219.194 61.1509C219.528 61.6069 220.532 63.8568 221.383 63.2183C221.292 63.9784 221.748 63.7352 222.052 64.252C222.234 64.5865 222.143 64.7689 222.295 65.2858C222.69 66.7451 224.15 68.2045 224.94 69.4815C226.916 72.6739 229.075 75.7142 231.021 78.9066C232.906 81.947 235.004 84.8354 236.798 87.9365C238.835 91.4634 241.389 94.7774 242.939 98.5474C243 98.6691 243.426 98.8819 243.517 99.0643C243.699 99.3987 243.669 99.9764 243.79 100.341C244.229 101.65 244.854 102.889 245.645 104.02C246.314 104.963 246.375 106.27 246.831 107.365C247.469 108.946 248.169 110.496 248.807 112.047C249.724 114.454 250.506 116.91 251.148 119.404C251.597 121.049 251.912 122.726 252.091 124.421C252.212 126.002 252.243 127.644 252.82 129.134C253.185 128.617 253.641 127.826 253.368 127.066" fill="#2A4663"/>
<path fill-rule="evenodd" clip-rule="evenodd" d="M28.6533 160.845C27.954 160.693 27.2852 160.51 27.1331 159.689C27.0419 160.085 26.9203 160.449 26.8291 160.845C27.6804 161.027 28.5621 161.24 29.4134 161.422C29.351 161.266 29.2473 161.13 29.1134 161.028C28.9795 160.926 28.8205 160.863 28.6533 160.845" fill="#2A4663"/>
<path fill-rule="evenodd" clip-rule="evenodd" d="M30.5394 27.7979C30.592 27.5695 30.6632 27.3458 30.7522 27.129C30.813 27.3418 31.0867 27.7979 30.9346 28.0107C30.7218 28.254 30.509 28.1323 30.5394 27.7979ZM34.0054 21.2307C34.2486 21.3219 34.7351 21.3523 35.0391 21.4435C34.279 22.082 34.1574 21.8996 33.1845 21.8084C33.1541 21.1699 33.3973 20.9571 34.0054 21.2307V21.2307ZM27.5294 37.3143H27.8335C27.8385 37.0302 27.8284 36.746 27.8031 36.463C28.8064 36.6758 28.2591 34.9124 27.9247 34.5475C28.928 34.5779 29.4144 31.4463 29.7185 30.8383C29.9921 30.291 30.3266 30.0782 30.509 29.4397C30.6767 28.8759 30.8902 28.3268 31.1475 27.7979C31.7251 26.5513 32.5156 25.4264 32.3636 23.967C32.8501 25.0616 33.3061 23.967 33.6102 23.4502C34.127 22.5989 35.3736 21.5347 35.4952 20.5314C35.6168 19.6497 34.9479 19.6193 35.3432 18.7984C35.7384 17.9775 36.0425 18.0687 36.7417 17.7951C37.1978 17.6126 37.289 17.8255 37.593 17.2478C37.8059 16.883 37.7147 16.6093 37.9883 16.3053C38.0927 16.3858 38.2213 16.4287 38.3531 16.4269C38.5676 16.1508 38.7135 15.8278 38.7788 15.4844C38.9192 15.0169 39.0919 14.5598 39.2957 14.1162C39.5389 13.6906 39.9949 12.5352 40.2382 12.3528C40.4814 12.14 41.9104 12.2312 41.9104 12.2616C42.4881 11.5319 41.4239 10.7718 42.9137 10.9542C42.6097 10.407 43.6434 9.70768 43.9474 9.40364C44.7075 8.64355 44.7683 8.2787 44.9203 7.33619C45.0116 6.84973 44.4643 6.91054 45.194 6.78892C45.498 6.72811 45.7717 7.12336 45.9845 7.06255C46.927 6.81933 45.9541 6.88013 46.1973 6.48488C46.2885 6.36327 46.6838 5.87681 46.6838 5.87681C46.7102 5.68468 46.7721 5.49913 46.8662 5.32954C47.0411 5.31658 47.2143 5.28602 47.3831 5.23833C47.4743 5.05591 47.5351 4.87349 47.6263 4.69106C48.2952 4.1438 49.2985 3.87016 49.7545 3.26209C50.0586 2.86684 49.9674 2.47159 50.3626 2.07634C50.7275 1.7115 51.2139 1.98513 51.3051 1.10342C51.3963 0.00889009 50.241 -0.47757 49.7545 0.616965C48.4472 -0.964029 43.0353 4.87349 42.4272 5.63358C39.7213 8.94759 37.0458 12.3528 34.8263 16.0317C32.6663 19.6012 30.8735 23.3805 29.4753 27.3114C28.8436 29.1996 28.3458 31.13 27.9855 33.0881C27.8335 33.757 26.8301 36.6758 27.2558 37.3447C27.3774 37.3447 27.4382 37.3143 27.5294 37.3143" fill="#2A4663"/>
<path fill-rule="evenodd" clip-rule="evenodd" d="M241.357 118.705C241.813 118.401 241.813 118.401 241.904 117.823C241.296 117.945 241.296 117.945 241.357 118.705Z" fill="#2A4663"/>
<path fill-rule="evenodd" clip-rule="evenodd" d="M15.5185 157.804C15.6705 158.108 15.8834 158.2 16.1874 158.017C16.309 158.23 15.1233 156.953 15.5185 157.804Z" fill="#2A4663"/>
<path fill-rule="evenodd" clip-rule="evenodd" d="M36.1633 18.3423C35.4336 19.7409 36.3457 18.7376 36.2849 19.1937C36.3457 18.8896 36.4673 18.464 36.1633 18.3423Z" fill="#2A4663"/>
<path fill-rule="evenodd" clip-rule="evenodd" d="M152.67 40.1115C152.974 42.635 156.441 41.4492 157.201 39.929C157.778 38.8345 159.177 34.426 157.657 33.5138C156.532 32.8146 156.289 35.7941 155.984 36.4326C155.528 37.5271 155.133 36.767 154.099 37.0407C152.974 37.3447 152.549 39.0473 152.67 40.1115" fill="#2A4663"/>
<path fill-rule="evenodd" clip-rule="evenodd" d="M148.9 35.49C150.147 35.7637 151.332 35.6117 152.214 34.6387C152.701 34.0915 153.339 33.0273 152.457 32.5105C151.667 32.024 150.755 33.149 149.934 32.9057C148.809 32.6017 149.387 31.3855 148.991 30.5646C147.593 31.4159 146.802 35.034 148.9 35.49" fill="#2A4663"/>
<path fill-rule="evenodd" clip-rule="evenodd" d="M150.178 41.8444C148.992 41.8444 148.992 43.3038 149.6 43.9423C150.208 44.5504 151.698 45.1584 152.488 44.672C154.1 43.7599 151.15 41.9356 150.178 41.8444Z" fill="#2A4663"/>
<path fill-rule="evenodd" clip-rule="evenodd" d="M81.0694 99.9459C81.3127 100.068 82.0728 100.706 82.3768 100.402L81.039 99.0642C80.8262 99.3378 80.6438 99.7331 81.0694 99.9459" fill="#2A4663"/>
<path fill-rule="evenodd" clip-rule="evenodd" d="M75.4752 35.8549L75.1104 36.1286C75.536 36.4934 75.536 36.5846 75.9617 36.2502C75.8215 36.0935 75.6573 35.9601 75.4752 35.8549" fill="#2A4663"/>
<path fill-rule="evenodd" clip-rule="evenodd" d="M155.955 119.435C155.712 119.009 155.256 119.8 154.952 119.921C154.465 120.134 154.039 119.009 154.191 120.347C153.066 119.83 152.398 121.016 151.668 121.624C150.634 122.505 149.388 122.962 148.719 124.178C151.942 124.938 155.438 122.171 157.84 120.347C158.235 120.043 160.181 118.553 158.874 118.401C158.326 118.371 156.35 120.164 155.955 119.435" fill="#2A4663"/>
<path fill-rule="evenodd" clip-rule="evenodd" d="M155.011 116.85C155.649 116.364 154.281 116.303 154.068 116.273C154.099 116.668 154.099 117.063 154.129 117.459C154.433 117.246 154.707 117.063 155.011 116.85" fill="#2A4663"/>
<path fill-rule="evenodd" clip-rule="evenodd" d="M152.64 118.492C152.822 118.371 153.339 118.006 153.005 117.732C152.845 117.833 152.708 117.966 152.603 118.123C152.498 118.28 152.428 118.458 152.396 118.644C152.488 118.612 152.571 118.56 152.64 118.492" fill="#2A4663"/>
<path fill-rule="evenodd" clip-rule="evenodd" d="M100.68 86.5683C100.512 86.6067 100.363 86.7051 100.262 86.8451C100.162 86.985 100.115 87.1568 100.132 87.3284C100.301 87.2915 100.451 87.1935 100.552 87.0532C100.653 86.9129 100.698 86.7402 100.68 86.5683" fill="#2A4663"/>
</svg>
