<svg width="10" height="10" viewBox="0 0 10 10" fill="none" xmlns="http://www.w3.org/2000/svg">
<path fill-rule="evenodd" clip-rule="evenodd" d="M5 0C2.23858 0 0 2.23858 0 5C0 7.76142 2.23858 10 5 10C7.76142 10 10 7.76142 10 5C10 3.67392 9.47322 2.40215 8.53553 1.46447C7.59785 0.526784 6.32608 0 5 0ZM5.00003 1.625C3.13607 1.625 1.62503 3.13604 1.62503 5C1.62503 6.86396 3.13607 8.375 5.00003 8.375C6.86399 8.375 8.37503 6.86396 8.37503 5C8.37331 3.13675 6.86327 1.62672 5.00003 1.625ZM3.22188 5C3.22188 4.01797 4.01797 3.22187 5 3.22187C5.98203 3.22187 6.77813 4.01797 6.77813 5C6.77813 5.98203 5.98203 6.77812 5 6.77812C4.01797 6.77812 3.22188 5.98203 3.22188 5ZM3.81885 5.48526C4.0165 5.96325 4.48274 6.27499 4.99998 6.27499V6.27812C5.70587 6.27812 6.27811 5.70588 6.27811 4.99999C6.27937 4.48276 5.96877 4.01575 5.49127 3.81693C5.01377 3.61812 4.46351 3.7267 4.09732 4.09199C3.73113 4.45729 3.62121 5.00728 3.81885 5.48526ZM2.12497 5C2.12497 6.58782 3.41215 7.875 4.99997 7.875C6.58708 7.87328 7.87325 6.58711 7.87497 5C7.87497 3.41218 6.58779 2.125 4.99997 2.125C3.41215 2.125 2.12497 3.41218 2.12497 5ZM0.625 5.06944C0.625 7.52404 2.58375 9.51389 5 9.51389C6.16032 9.51389 7.27312 9.04564 8.09359 8.21214C8.91406 7.37865 9.375 6.24818 9.375 5.06944C9.375 2.61485 7.41625 0.625 5 0.625C2.58375 0.625 0.625 2.61485 0.625 5.06944Z" fill="white"/>
</svg>
