<svg width="26" height="27" viewBox="0 0 26 27" fill="none" xmlns="http://www.w3.org/2000/svg">
<path d="M14.9104 13.0053L25.6874 2.22832C25.9004 1.97963 26.0117 1.65973 25.999 1.33255C25.9864 1.00537 25.8508 0.69501 25.6192 0.463487C25.3877 0.231964 25.0774 0.0963317 24.7502 0.0836942C24.423 0.0710567 24.1031 0.182345 23.8544 0.395319L13.0774 11.1723L2.30041 0.382319C2.05561 0.137524 1.7236 0 1.37741 0C1.03121 0 0.699201 0.137524 0.454406 0.382319C0.209612 0.627114 0.0720873 0.959127 0.0720873 1.30532C0.0720873 1.65151 0.209612 1.98352 0.454406 2.22832L11.2444 13.0053L0.454406 23.7823C0.31832 23.8989 0.207794 24.0423 0.129764 24.2036C0.0517333 24.3648 0.00788409 24.5405 0.000968748 24.7195C-0.00594659 24.8986 0.0242205 25.0771 0.0895774 25.2439C0.154934 25.4108 0.25407 25.5623 0.380761 25.689C0.507452 25.8157 0.658964 25.9148 0.825786 25.9801C0.992609 26.0455 1.17114 26.0757 1.35018 26.0688C1.52921 26.0618 1.70488 26.018 1.86617 25.94C2.02745 25.8619 2.17087 25.7514 2.28741 25.6153L13.0774 14.8383L23.8544 25.6153C24.1031 25.8283 24.423 25.9396 24.7502 25.9269C25.0774 25.9143 25.3877 25.7787 25.6192 25.5472C25.8508 25.3156 25.9864 25.0053 25.999 24.6781C26.0117 24.3509 25.9004 24.031 25.6874 23.7823L14.9104 13.0053Z" fill="#2C8EEA"/>
</svg>
