<svg width="40" height="40" viewBox="0 0 40 40" fill="none" xmlns="http://www.w3.org/2000/svg">
<path d="M22.9391 19.9547L39.5191 3.41901C39.8467 3.03743 40.018 2.5466 39.9985 2.04459C39.9791 1.54259 39.7704 1.06639 39.4142 0.71115C39.058 0.355914 38.5805 0.147806 38.0772 0.128416C37.5738 0.109026 37.0817 0.279781 36.6991 0.606557L20.1191 17.1422L3.53909 0.58661C3.16248 0.21101 2.65169 0 2.11909 0C1.58648 0 1.07569 0.21101 0.699087 0.58661C0.322479 0.96221 0.110904 1.47163 0.110904 2.00281C0.110904 2.53399 0.322479 3.04341 0.699087 3.41901L17.2991 19.9547L0.699087 36.4903C0.489724 36.6691 0.319683 36.8892 0.199636 37.1367C0.0795897 37.3841 0.0121294 37.6537 0.00149038 37.9284C-0.0091486 38.2031 0.0372623 38.477 0.137811 38.733C0.238361 38.9889 0.390877 39.2214 0.585787 39.4158C0.780696 39.6102 1.01379 39.7623 1.27044 39.8626C1.52709 39.9628 1.80176 40.0091 2.07719 39.9985C2.35263 39.9879 2.6229 39.9206 2.87103 39.8009C3.11916 39.6812 3.33979 39.5116 3.51909 39.3028L20.1191 22.7671L36.6991 39.3028C37.0817 39.6296 37.5738 39.8003 38.0772 39.7809C38.5805 39.7615 39.058 39.5534 39.4142 39.1982C39.7704 38.843 39.9791 38.3668 39.9985 37.8647C40.018 37.3627 39.8467 36.8719 39.5191 36.4903L22.9391 19.9547Z" fill="#2C8EEA"/>
</svg>
