<svg width="20" height="21" viewBox="0 0 20 21" fill="none" xmlns="http://www.w3.org/2000/svg">
<path d="M6.70002 10.5007L0.512756 4.00403C-0.17087 3.28622 -0.17087 2.12247 0.512756 1.40578L1.3376 0.539703C2.02144 -0.178331 3.12977 -0.178331 3.81233 0.539703L9.99938 7.0361L16.1866 0.538357C16.8703 -0.179452 17.9786 -0.179452 18.6612 0.538357L19.4873 1.40444C20.1709 2.12247 20.1709 3.28622 19.4873 4.00291L13.299 10.5007L19.486 16.9971C20.1698 17.7151 20.1698 18.8788 19.486 19.5955L18.6612 20.4616C17.9775 21.1794 16.8692 21.1794 16.1866 20.4616L9.99938 13.965L3.81233 20.4616C3.12849 21.1794 2.02016 21.1794 1.3376 20.4616L0.512756 19.5955C-0.17087 18.8775 -0.17087 17.7137 0.512756 16.9971L6.70002 10.5007Z" fill="white"/>
</svg>
