<svg width="29" height="29" viewBox="0 0 29 29" fill="none" xmlns="http://www.w3.org/2000/svg">
<rect width="29" height="29" rx="6" fill="#D4D6DC"/>
<path d="M18.4997 6.66671H15.583L14.7497 5.83337H10.583L9.74967 6.66671H6.83301V8.33337H18.4997V6.66671ZM19.333 12.5C18.7497 12.5 18.1913 12.5834 17.6663 12.7417V9.16671H7.66634V19.1667C7.66634 20.0834 8.41634 20.8334 9.33301 20.8334H14.0663C14.6346 22.0286 15.5924 22.9951 16.7825 23.574C17.9727 24.1529 19.3243 24.3098 20.6154 24.0191C21.9065 23.7283 23.0603 23.007 23.8873 21.9738C24.7143 20.9406 25.1654 19.6568 25.1663 18.3334C25.1663 15.1084 22.558 12.5 19.333 12.5ZM19.333 22.5C17.033 22.5 15.1663 20.6334 15.1663 18.3334C15.1663 16.0334 17.033 14.1667 19.333 14.1667C21.633 14.1667 23.4997 16.0334 23.4997 18.3334C23.4997 20.6334 21.633 22.5 19.333 22.5Z" fill="white"/>
<path d="M19.75 15H18.5V19.1667L21.5 20.9167L22.1667 19.9167L19.75 18.5V15Z" fill="white"/>
</svg>
