<svg width="22" height="26" viewBox="0 0 22 26" fill="none" xmlns="http://www.w3.org/2000/svg">
<path d="M10.8753 3.21839e-09C12.0681 -4.45483e-05 13.2145 0.462451 14.0734 1.29023C14.9322 2.11801 15.4366 3.24657 15.4805 4.43859L15.4835 4.60891L20.4603 4.60817C20.7932 4.60832 21.1132 4.73714 21.3533 4.96769C21.5935 5.19825 21.7352 5.51271 21.7489 5.84533C21.7626 6.17795 21.6472 6.503 21.4269 6.75254C21.2065 7.00208 20.8982 7.15678 20.5665 7.18433L20.4603 7.18875H19.5999L18.4003 23.0925C18.3408 23.8805 17.9857 24.6169 17.4063 25.1542C16.8268 25.6915 16.0658 25.9901 15.2755 25.9901H6.47504C5.6848 25.9901 4.92374 25.6915 4.3443 25.1542C3.76486 24.6169 3.40983 23.8805 3.35033 23.0925L2.14999 7.18875H1.29029C0.966353 7.18872 0.654279 7.06685 0.416057 6.84734C0.177834 6.62783 0.0308937 6.32675 0.00442353 6.0039L0 5.89846C2.73297e-05 5.57453 0.1219 5.26245 0.341409 5.02423C0.560918 4.78601 0.862002 4.63907 1.18485 4.6126L1.29029 4.60817H6.26712C6.26712 2.17653 8.15094 0.184327 10.5391 0.0117968L10.7064 0.00294937L10.8753 3.21839e-09ZM13.6402 9.585C13.412 9.5849 13.1919 9.66943 13.0225 9.82225C12.8531 9.97506 12.7463 10.1853 12.723 10.4123L12.7186 10.5066V19.3543L12.723 19.4487C12.7454 19.6764 12.8517 19.8877 13.0212 20.0413C13.1907 20.195 13.4114 20.2801 13.6402 20.2801C13.869 20.2801 14.0896 20.195 14.2592 20.0413C14.4287 19.8877 14.535 19.6764 14.5574 19.4487L14.5618 19.3543V10.5066L14.5574 10.4123C14.534 10.1853 14.4273 9.97506 14.2579 9.82225C14.0885 9.66943 13.8684 9.5849 13.6402 9.585V9.585ZM8.11039 9.585C7.88222 9.5849 7.66213 9.66943 7.4927 9.82225C7.32326 9.97506 7.21654 10.1853 7.19318 10.4123L7.18875 10.5066V19.3543L7.19318 19.4487C7.21557 19.6764 7.32187 19.8877 7.4914 20.0413C7.66093 20.195 7.88157 20.2801 8.11039 20.2801C8.3392 20.2801 8.55984 20.195 8.72937 20.0413C8.8989 19.8877 9.0052 19.6764 9.0276 19.4487L9.03202 19.3543V10.5066L9.0276 10.4123C9.00423 10.1853 8.89751 9.97506 8.72808 9.82225C8.55865 9.66943 8.33855 9.5849 8.11039 9.585V9.585ZM10.9992 2.58426L10.8753 2.58058C10.359 2.58055 9.86208 2.77751 9.48598 3.13127C9.10989 3.48503 8.88292 3.96894 8.85138 4.48431L8.84769 4.60891L12.9029 4.60817C12.9029 4.09185 12.706 3.59496 12.3522 3.21887C11.9984 2.84277 11.5145 2.61581 10.9992 2.58426V2.58426Z" fill="#2C8EEA"/>
</svg>
