<svg id="Capa_1" enable-background="new 0 0 512 512" height="512" viewBox="0 0 512 512" width="512" xmlns="http://www.w3.org/2000/svg"><path d="m472 489.854v-464l-160 80v96h-64v288" fill="#b9c2cf"/><path d="m472 25.854v464h-16v-456z" fill="#95a4b6"/><path d="m248 201.854h16v288h-16z" fill="#95a4b6"/><path d="m400 489.854v-64h-80v64" fill="#fff"/><path d="m56 393.854h192v96h-192z" fill="#dce1e7"/><path d="m232 393.854h16v96h-16z" fill="#b9c2cf"/><path d="m112 425.854h80v64h-80z" fill="#fff"/><path d="m56 73.854h192v320h-192z" fill="#fff"/><path d="m232 73.854h16v320h-16z" fill="#dce1e7"/><path d="m56 73.854h192v16h-192z" fill="#dce1e7"/><path d="m136 73.854h32v320h-32z" fill="#b9c2cf"/><path d="m136 73.854h32v16h-32z" fill="#95a4b6"/><path d="m376 105.854h96v288h-96z" fill="#fff"/><path d="m456 105.854h16v288h-16z" fill="#dce1e7"/><path d="m280 233.854h32v32h-32z" fill="#fff"/><path d="m280 297.854h32v32h-32z" fill="#fff"/><path d="m280 361.854h32v32h-32z" fill="#fff"/><path d="m40 41.854h232v32h-232z" fill="#b9c2cf"/><path d="m252 41.854h20v32h-20z" fill="#95a4b6"/><g fill="#012d4a"><path d="m318 227.854h-44v44h44zm-12 32h-20v-20h20z"/><path d="m318 291.854h-44v44h44zm-12 32h-20v-20h20z"/><path d="m318 399.854v-44h-44v44zm-32-32h20v20h-20z"/><path d="m478 483.854v-467.708l-172 86v93.708h-52v-116h24v-44h-244v44h16v404h-50v12h512v-12zm-12-352h-84v-20h84zm-84 12h84v20h-84zm0 32h84v20h-84zm0 32h84v20h-84zm0 32h84v20h-84zm0 32h84v20h-84zm0 32h84v20h-84zm0 32h84v20h-84zm0 32h84v20h-84zm-64-160v-98.292l148-74v64.292h-96v300h96v84h-60v-64h-92v64h-60v-276zm48 224h28v52h-28zm-12 52h-28v-52h28zm-292-340h68v52h-68zm0 64h68v52h-68zm0 64h68v52h-68zm0 64h68v52h-68zm80-256h20v308h-20zm100 244h-68v-52h68zm0-64h-68v-52h68zm-68-64v-52h68v52zm0 140h68v52h-68zm68-204h-68v-52h68zm-196-84h220v20h-220zm84 32v52h-68v-52zm-68 320h180v84h-44v-52h18v-12h-128v12h18v52h-44zm84 32v52h-28v-52zm12 0h28v52h-28z"/></g></svg>