<svg width="12" height="12" viewBox="0 0 12 12" fill="none" xmlns="http://www.w3.org/2000/svg">
<path d="M10.8733 4.23596V0.867188C10.8733 0.737732 10.7683 0.632812 10.6389 0.632812H8.25778C8.12833 0.632812 8.02341 0.737732 8.02341 0.867188C8.02341 0.996643 8.12833 1.10156 8.25778 1.10156H10.4045V4.05469H9.53778V3.3653C9.53778 3.23584 9.43286 3.13092 9.30341 3.13092C9.17395 3.13092 9.06903 3.23584 9.06903 3.3653V4.05469H8.23718V2.7627C8.23718 2.63324 8.13226 2.52832 8.00281 2.52832C7.87335 2.52832 7.76843 2.63324 7.76843 2.7627V4.05469H6.93668V3.3653C6.93668 3.23584 6.83167 3.13092 6.7023 3.13092C6.57285 3.13092 6.46793 3.23584 6.46793 3.3653V4.05469H5.63608V2.7627C5.63608 2.63324 5.53116 2.52832 5.4017 2.52832C5.27225 2.52832 5.16733 2.63324 5.16733 2.7627V4.05469H4.33548V3.3653C4.33548 3.23584 4.23056 3.13092 4.1011 3.13092C3.97165 3.13092 3.86673 3.23584 3.86673 3.3653V4.05469H3.03488V2.7627C3.03488 2.63324 2.92996 2.52832 2.80051 2.52832C2.67114 2.52832 2.56613 2.63324 2.56613 2.7627V4.05469H1.94531C1.87372 4.05469 1.80331 4.04929 1.73438 4.0394V3.3653C1.73438 3.23584 1.62946 3.13092 1.5 3.13092C1.37054 3.13092 1.26562 3.23584 1.26562 3.3653V3.88824C0.792664 3.64188 0.46875 3.14731 0.46875 2.57812C0.46875 1.76395 1.13113 1.10156 1.94531 1.10156H6.21094C6.34039 1.10156 6.44531 0.996643 6.44531 0.867188C6.44531 0.737732 6.34039 0.632812 6.21094 0.632812H1.94531C0.872681 0.632812 0 1.50549 0 2.57812V6C0 6.7803 0.462067 7.45441 1.12674 7.76404V11.1328C1.12674 11.2623 1.23166 11.3672 1.36111 11.3672H10.0547C11.1273 11.3672 12 10.4945 12 9.42188V6C12 5.2197 11.5379 4.54559 10.8733 4.23596ZM0.46875 6V3.84247C0.825806 4.25885 1.35507 4.52344 1.94531 4.52344H10.0547C10.8689 4.52344 11.5312 5.18582 11.5312 6C11.5312 6.81418 10.8689 7.47656 10.0547 7.47656H1.94531C1.13113 7.47656 0.46875 6.81418 0.46875 6ZM11.5312 9.42188C11.5312 10.005 11.1914 10.5102 10.6994 10.7499V10.214C10.6994 10.0845 10.5945 9.97961 10.465 9.97961C10.3356 9.97961 10.2307 10.0845 10.2307 10.214V10.8875C10.173 10.8945 10.1143 10.8984 10.0547 10.8984H9.3989V9.61139C9.3989 9.48193 9.29388 9.37701 9.16452 9.37701C9.03506 9.37701 8.93015 9.48193 8.93015 9.61139V10.8984H8.0983V10.214C8.0983 10.0845 7.99338 9.97961 7.86392 9.97961C7.73447 9.97961 7.62955 10.0845 7.62955 10.214V10.8984H6.7977V9.61139C6.7977 9.48193 6.69278 9.37701 6.56332 9.37701C6.43387 9.37701 6.32895 9.48193 6.32895 9.61139V10.8984H5.49719V10.214C5.49719 10.0845 5.39218 9.97961 5.26282 9.97961C5.13336 9.97961 5.02844 10.0845 5.02844 10.214V10.8984H4.19659V9.61139C4.19659 9.48193 4.09167 9.37701 3.96222 9.37701C3.83276 9.37701 3.72784 9.48193 3.72784 9.61139V10.8984H2.896V10.214C2.896 10.0845 2.79108 9.97961 2.66162 9.97961C2.53217 9.97961 2.42725 10.0845 2.42725 10.214V10.8984H1.59549V7.94531H10.0547C10.6449 7.94531 11.1742 7.68073 11.5312 7.26434V9.42188Z" fill="#5D5D5D"/>
<path d="M7.36719 1.10156C7.42889 1.10156 7.48932 1.07648 7.5329 1.0329C7.57675 0.989044 7.60156 0.928894 7.60156 0.867188C7.60156 0.805298 7.57675 0.745148 7.5329 0.701294C7.48932 0.657715 7.42908 0.632812 7.36719 0.632812C7.30557 0.632812 7.24515 0.657715 7.20157 0.701294C7.1579 0.745148 7.13281 0.805298 7.13281 0.867188C7.13281 0.928894 7.1579 0.989319 7.20157 1.0329C7.24515 1.07648 7.30557 1.10156 7.36719 1.10156Z" fill="#5D5D5D"/>
<path d="M3.96191 8.54932C3.90012 8.54932 3.8396 8.57422 3.79602 8.61798C3.75244 8.66165 3.72754 8.72189 3.72754 8.78369C3.72754 8.8454 3.75244 8.90582 3.79602 8.9494C3.83987 8.99298 3.90012 9.01807 3.96191 9.01807C4.02362 9.01807 4.08386 8.99298 4.12762 8.9494C4.1712 8.90582 4.19611 8.8454 4.19611 8.78369C4.19611 8.72189 4.1712 8.66165 4.12762 8.61798C4.08386 8.57422 4.02362 8.54932 3.96191 8.54932Z" fill="#5D5D5D"/>
</svg>
