<svg width="15" height="15" viewBox="0 0 15 15" fill="none" xmlns="http://www.w3.org/2000/svg">
<g clip-path="url(#clip0)">
<path d="M14.6314 7.70637C14.6802 7.56882 14.707 7.42096 14.707 7.26692C14.707 6.81191 14.4753 6.41004 14.1237 6.17303V2.98682C14.1237 2.25987 13.5323 1.66846 12.8054 1.66846H2.19463C1.46769 1.66846 0.87627 2.25987 0.87627 2.98682V6.17303C0.524678 6.41004 0.292969 6.81191 0.292969 7.26692C0.292969 7.42096 0.319775 7.56882 0.368555 7.70637H0V13.3314H0.878906V11.9865H14.1211V13.3314H15V7.70637H14.6314ZM2.19463 2.54736H12.8054C13.0477 2.54736 13.2448 2.7445 13.2448 2.98682V5.94856H12.3672V5.5091C12.3672 4.78216 11.7758 4.19074 11.0488 4.19074H8.37891C8.04149 4.19074 7.73341 4.3183 7.5 4.52751C7.26656 4.31827 6.95851 4.19074 6.62109 4.19074H3.95118C3.22424 4.19074 2.63282 4.78216 2.63282 5.5091V5.94856H1.75518V2.98682C1.75518 2.7445 1.95231 2.54736 2.19463 2.54736ZM7.06055 5.94856H3.51173V5.5091C3.51173 5.26679 3.70887 5.06965 3.95118 5.06965H6.62109C6.86341 5.06965 7.06055 5.26679 7.06055 5.5091V5.94856ZM7.93945 5.5091C7.93945 5.26679 8.13659 5.06965 8.37891 5.06965H11.0488C11.2911 5.06965 11.4883 5.26679 11.4883 5.5091V5.94856H7.93945V5.5091ZM1.17188 7.26692C1.17188 7.0246 1.36901 6.82746 1.61133 6.82746H13.3887C13.631 6.82746 13.8281 7.0246 13.8281 7.26692C13.8281 7.50923 13.631 7.70637 13.3887 7.70637H1.61133C1.36901 7.70637 1.17188 7.50923 1.17188 7.26692ZM0.878906 8.58528H14.1211V11.1076H0.878906V8.58528Z" fill="#5E5D5D"/>
</g>
<defs>
<clipPath id="clip0">
<rect width="15" height="15" fill="white"/>
</clipPath>
</defs>
</svg>
