<svg width="15" height="15" viewBox="0 0 15 15" fill="none" xmlns="http://www.w3.org/2000/svg">
<g clip-path="url(#clip0)">
<path d="M15.5312 7.5H3.8125V7.03125C3.8125 6.96909 3.78781 6.90948 3.74385 6.86552C3.6999 6.82157 3.64029 6.79688 3.57812 6.79688H3.34375V6.09375H3.8125V6.32812C3.8125 6.39029 3.83719 6.4499 3.88115 6.49385C3.9251 6.53781 3.98471 6.5625 4.04688 6.5625C4.10904 6.5625 4.16865 6.53781 4.2126 6.49385C4.25656 6.4499 4.28125 6.39029 4.28125 6.32812V5.39062C4.28125 5.32846 4.25656 5.26885 4.2126 5.2249C4.16865 5.18094 4.10904 5.15625 4.04688 5.15625C3.98471 5.15625 3.9251 5.18094 3.88115 5.2249C3.83719 5.26885 3.8125 5.32846 3.8125 5.39062V5.625H3.34375V2.8125C3.34398 2.56393 3.44283 2.32561 3.61859 2.14984C3.79436 1.97408 4.03268 1.87523 4.28125 1.875H5.21875C5.46732 1.87523 5.70564 1.97408 5.88141 2.14984C6.05717 2.32561 6.15602 2.56393 6.15625 2.8125V2.83242C5.82879 2.88818 5.53158 3.0579 5.31714 3.31158C5.1027 3.56526 4.98484 3.88658 4.98438 4.21875C4.98438 4.28091 5.00907 4.34052 5.05302 4.38448C5.09698 4.42843 5.15659 4.45312 5.21875 4.45312H7.5625C7.62466 4.45312 7.68427 4.42843 7.72823 4.38448C7.77218 4.34052 7.79688 4.28091 7.79688 4.21875C7.79641 3.88658 7.67855 3.56526 7.46411 3.31158C7.24967 3.0579 6.95246 2.88818 6.625 2.83242V2.8125C6.6246 2.43966 6.47632 2.08221 6.21268 1.81857C5.94904 1.55493 5.59159 1.40665 5.21875 1.40625H4.28125C3.90841 1.40665 3.55096 1.55493 3.28732 1.81857C3.02368 2.08221 2.8754 2.43966 2.875 2.8125V6.79688H2.64062C2.57846 6.79688 2.51885 6.82157 2.4749 6.86552C2.43094 6.90948 2.40625 6.96909 2.40625 7.03125V7.5H1.46875C1.40659 7.5 1.34698 7.52469 1.30302 7.56865C1.25907 7.6126 1.23438 7.67221 1.23438 7.73438V8.4375C1.23438 8.49966 1.25907 8.55927 1.30302 8.60323C1.34698 8.64718 1.40659 8.67188 1.46875 8.67188H2.17188V11.4844C2.17234 11.8165 2.2902 12.1379 2.50464 12.3915C2.71908 12.6452 3.01629 12.8149 3.34375 12.8707V13.3594C3.34375 13.4215 3.36844 13.4811 3.4124 13.5251C3.45635 13.5691 3.51596 13.5938 3.57812 13.5938C3.64029 13.5938 3.6999 13.5691 3.74385 13.5251C3.78781 13.4811 3.8125 13.4215 3.8125 13.3594V12.8906H13.1875V13.3594C13.1875 13.4215 13.2122 13.4811 13.2561 13.5251C13.3001 13.5691 13.3597 13.5938 13.4219 13.5938C13.484 13.5938 13.5436 13.5691 13.5876 13.5251C13.6316 13.4811 13.6562 13.4215 13.6562 13.3594V12.8707C13.9837 12.8149 14.2809 12.6452 14.4954 12.3915C14.7098 12.1379 14.8277 11.8165 14.8281 11.4844V8.67188H15.5312C15.5934 8.67188 15.653 8.64718 15.697 8.60323C15.7409 8.55927 15.7656 8.49966 15.7656 8.4375V7.73438C15.7656 7.67221 15.7409 7.6126 15.697 7.56865C15.653 7.52469 15.5934 7.5 15.5312 7.5ZM6.39062 3.28125C6.59842 3.2815 6.80027 3.35066 6.96456 3.47789C7.12885 3.60512 7.2463 3.78325 7.29854 3.98438H5.48271C5.53495 3.78325 5.6524 3.60512 5.81669 3.47789C5.98098 3.35066 6.18283 3.2815 6.39062 3.28125ZM2.875 7.26562H3.34375V7.5H2.875V7.26562ZM14.3594 11.4844C14.3591 11.7329 14.2603 11.9713 14.0845 12.147C13.9088 12.3228 13.6704 12.4216 13.4219 12.4219H3.57812C3.32956 12.4216 3.09123 12.3228 2.91547 12.147C2.7397 11.9713 2.64086 11.7329 2.64062 11.4844V8.67188H14.3594V11.4844ZM15.2969 8.20312H1.70312V7.96875H15.2969V8.20312Z" fill="#5D5D5D"/>
<path d="M3.34375 9.60938H5.21875C5.28091 9.60938 5.34052 9.58468 5.38448 9.54073C5.42843 9.49677 5.45312 9.43716 5.45312 9.375C5.45312 9.31284 5.42843 9.25323 5.38448 9.20927C5.34052 9.16532 5.28091 9.14062 5.21875 9.14062H3.34375C3.28159 9.14062 3.22198 9.16532 3.17802 9.20927C3.13407 9.25323 3.10938 9.31284 3.10938 9.375C3.10938 9.43716 3.13407 9.49677 3.17802 9.54073C3.22198 9.58468 3.28159 9.60938 3.34375 9.60938Z" fill="#5D5D5D"/>
<path d="M5.92188 9.60938H6.15625C6.21841 9.60938 6.27802 9.58468 6.32198 9.54073C6.36593 9.49677 6.39062 9.43716 6.39062 9.375C6.39062 9.31284 6.36593 9.25323 6.32198 9.20927C6.27802 9.16532 6.21841 9.14062 6.15625 9.14062H5.92188C5.85971 9.14062 5.8001 9.16532 5.75615 9.20927C5.71219 9.25323 5.6875 9.31284 5.6875 9.375C5.6875 9.43716 5.71219 9.49677 5.75615 9.54073C5.8001 9.58468 5.85971 9.60938 5.92188 9.60938Z" fill="#5D5D5D"/>
</g>
<defs>
<clipPath id="clip0">
<rect width="15" height="15" fill="white"/>
</clipPath>
</defs>
</svg>
