<svg width="15" height="15" viewBox="0 0 15 15" fill="none" xmlns="http://www.w3.org/2000/svg">
<g clip-path="url(#clip0)">
<path d="M11.75 0H3.24999C3.112 0 3 0.112002 3 0.24999V14.75C3 14.888 3.112 15 3.24999 15H11.75C11.888 15 12 14.888 12 14.75V0.24999C12 0.112002 11.888 0 11.75 0ZM11.5 14.5H3.50001V0.50001H11.5V14.5H11.5Z" fill="#5E5D5D"/>
<path d="M10.75 1H4.24999C4.112 1 4 1.112 4 1.24999V14.75C4 14.888 4.112 15 4.24999 15H10.75C10.888 15 11 14.888 11 14.75V1.24999C11 1.112 10.888 1 10.75 1ZM10.5 14.5H4.49998V1.50001H10.5V14.5Z" fill="#5E5D5D"/>
<path d="M14.75 14.5H0.24999C0.112002 14.5 0 14.612 0 14.75C0 14.888 0.112002 15 0.24999 15H14.75C14.888 15 15 14.888 15 14.75C15 14.612 14.888 14.5 14.75 14.5Z" fill="#5E5D5D"/>
<path d="M6.24998 7.75H5.24999C5.112 7.75 5 7.862 5 7.99999C5 8.13798 5.112 8.24998 5.24999 8.24998H6.24998C6.38797 8.24998 6.49997 8.13798 6.49997 7.99999C6.5 7.862 6.388 7.75 6.24998 7.75Z" fill="#5E5D5D"/>
<path d="M9.74999 2H5.24999C5.112 2 5 2.112 5 2.24999V6.99998C5 7.13797 5.112 7.24997 5.24999 7.24997H9.74999C9.88797 7.24997 9.99998 7.13797 9.99998 6.99998V2.24999C9.99998 2.112 9.88797 2 9.74999 2ZM9.5 6.74999H5.49998V2.49998H9.49997V6.74999H9.5Z" fill="#5E5D5D"/>
<path d="M9.74999 8.75H5.24999C5.112 8.75 5 8.862 5 8.99999V13.75C5 13.888 5.112 14 5.24999 14H9.74999C9.88797 14 9.99998 13.888 9.99998 13.75V8.99999C9.99998 8.862 9.88797 8.75 9.74999 8.75ZM9.5 13.5H5.49998V9.24998H9.49997V13.5H9.5Z" fill="#5E5D5D"/>
</g>
<defs>
<clipPath id="clip0">
<rect width="15" height="15" fill="white"/>
</clipPath>
</defs>
</svg>
