<svg width="9" height="10" viewBox="0 0 9 10" fill="none" xmlns="http://www.w3.org/2000/svg">
<path fill-rule="evenodd" clip-rule="evenodd" d="M6.53197 2.92992C7.3507 3.11004 8.09841 3.52689 8.6821 4.12861C8.73081 4.18196 8.75956 4.25052 8.76347 4.32266V6.2005C8.77255 7.15672 8.43955 8.08469 7.82455 8.81696V9.66199C7.82659 9.83991 7.68914 9.98837 7.51158 10H3.15811C2.98056 9.98837 2.8431 9.83991 2.84514 9.66199V9.06108C2.59524 8.83135 2.38389 8.56294 2.21919 8.26613C1.99376 7.88015 1.842 7.45565 1.77164 7.01423L0.313183 5.28662C0.107006 5.07144 -0.00552937 4.78335 0.000209176 4.4854C0.00100486 4.17493 0.127452 3.878 0.35074 3.66228C0.809617 3.21216 1.54436 3.21216 2.00324 3.66228L2.504 4.15678V1.02704C2.52441 0.441711 3.01398 -0.0170929 3.59941 0.000488881C4.18483 -0.0170929 4.67441 0.441711 4.69481 1.02704V2.6858C5.3145 2.69695 5.93088 2.77885 6.53197 2.92992ZM7.3238 8.48834C7.86751 7.8581 8.15753 7.04827 8.13753 6.21615V4.45411C7.90289 4.23847 7.63959 4.05627 7.3551 3.91267V5.40555L6.85434 5.29601V3.68419C6.6976 3.62449 6.53775 3.5733 6.37549 3.53084C6.24091 3.49641 6.10947 3.46824 5.98115 3.4432V5.11761L5.48039 5.00807V3.37122C5.21968 3.33887 4.95748 3.32007 4.69482 3.31489V4.85472L4.06888 4.72014V1.02705C4.04573 0.788915 3.83822 0.61184 3.59942 0.626441C3.36061 0.61184 3.1531 0.788915 3.12996 1.02705V5.71227L2.50401 6.02524V5.0425L1.56509 4.10358C1.35067 3.8924 1.00646 3.8924 0.792041 4.10358C0.690737 4.20355 0.633711 4.33995 0.633711 4.48228C0.633711 4.62461 0.690737 4.761 0.792041 4.86098L2.33187 6.68248C2.37524 6.73461 2.4005 6.79941 2.40386 6.86714C2.45222 7.25622 2.58006 7.6312 2.77942 7.96881C2.92081 8.23713 3.11449 8.47444 3.34904 8.66674C3.43529 8.72503 3.4869 8.8224 3.48675 8.92651V9.38971H7.19861V8.71368C7.2099 8.62529 7.25472 8.54462 7.3238 8.48834Z" fill="white"/>
</svg>
