<svg width="30" height="30" viewBox="0 0 30 30" fill="none" xmlns="http://www.w3.org/2000/svg">
<path d="M12.6562 20.1562C13.4329 20.1562 14.0625 19.5267 14.0625 18.75C14.0625 17.9733 13.4329 17.3438 12.6562 17.3438C11.8796 17.3438 11.25 17.9733 11.25 18.75C11.25 19.5267 11.8796 20.1562 12.6562 20.1562Z" fill="#8C92A4"/>
<path d="M15.2391 20.0203C15.2719 19.9453 15.3094 19.8703 15.3422 19.7859L15.3656 19.7109C15.3946 19.6239 15.4465 19.5462 15.5157 19.486C15.585 19.4258 15.6691 19.3853 15.7594 19.3687L16.875 19.2281V18.2719L15.7594 18.1313C15.6707 18.1192 15.5873 18.0825 15.5185 18.0253C15.4497 17.9681 15.3984 17.8927 15.3703 17.8078C15.3363 17.6948 15.2924 17.585 15.2391 17.4797C15.2007 17.4019 15.1853 17.3148 15.1944 17.2285C15.2035 17.1422 15.2369 17.0603 15.2906 16.9922L15.9797 16.1063L15.3 15.4266L14.4188 16.1109C14.3506 16.1663 14.2681 16.201 14.1809 16.211C14.0937 16.221 14.0054 16.2058 13.9266 16.1672C13.8213 16.1138 13.7115 16.0699 13.5984 16.0359C13.5138 16.0089 13.4385 15.9584 13.3813 15.8904C13.324 15.8224 13.2872 15.7396 13.275 15.6516L13.1203 14.5312H12.1781L12.0375 15.6469C12.0254 15.7355 11.9887 15.819 11.9315 15.8877C11.8743 15.9565 11.799 16.0079 11.7141 16.0359C11.601 16.0699 11.4912 16.1138 11.3859 16.1672C11.3081 16.2055 11.221 16.221 11.1347 16.2119C11.0485 16.2027 10.9665 16.1694 10.8984 16.1156L10.0125 15.4266L9.33281 16.1063L10.0219 16.9922C10.0756 17.0603 10.109 17.1422 10.1181 17.2285C10.1272 17.3148 10.1118 17.4019 10.0734 17.4797C10.0201 17.585 9.97615 17.6948 9.94219 17.8078C9.91413 17.8927 9.86278 17.9681 9.794 18.0253C9.72521 18.0825 9.64175 18.1192 9.55312 18.1313L8.4375 18.2719V19.2281L9.55312 19.3687C9.64175 19.3808 9.72521 19.4175 9.794 19.4747C9.86278 19.5319 9.91413 19.6073 9.94219 19.6922C9.97615 19.8052 10.0201 19.915 10.0734 20.0203C10.1118 20.0981 10.1272 20.1852 10.1181 20.2715C10.109 20.3578 10.0756 20.4397 10.0219 20.5078L9.33281 21.3937L10.0125 22.0734L10.8984 21.3844C10.9665 21.3306 11.0485 21.2973 11.1347 21.2881C11.221 21.279 11.3081 21.2945 11.3859 21.3328C11.4912 21.3862 11.601 21.4301 11.7141 21.4641C11.799 21.4921 11.8743 21.5435 11.9315 21.6123C11.9887 21.681 12.0254 21.7645 12.0375 21.8531L12.1781 22.9688H13.1344L13.275 21.8531C13.2871 21.7645 13.3238 21.681 13.381 21.6123C13.4382 21.5435 13.5135 21.4921 13.5984 21.4641C13.7115 21.4301 13.8213 21.3862 13.9266 21.3328C14.0044 21.2945 14.0915 21.279 14.1778 21.2881C14.264 21.2973 14.346 21.3306 14.4141 21.3844L15.3 22.0734L15.9797 21.3937L15.2906 20.5078C15.2369 20.4397 15.2035 20.3578 15.1944 20.2715C15.1853 20.1852 15.2007 20.0981 15.2391 20.0203ZM12.6562 21.0938C12.1927 21.0938 11.7396 20.9563 11.3541 20.6988C10.9687 20.4412 10.6683 20.0752 10.4909 19.6469C10.3135 19.2187 10.2671 18.7474 10.3575 18.2928C10.448 17.8381 10.6712 17.4205 10.999 17.0927C11.3267 16.7649 11.7444 16.5417 12.199 16.4513C12.6536 16.3609 13.1249 16.4073 13.5532 16.5847C13.9814 16.7621 14.3475 17.0625 14.605 17.4479C14.8625 17.8333 15 18.2865 15 18.75C14.9993 19.3714 14.7521 19.9671 14.3127 20.4065C13.8733 20.8458 13.2776 21.093 12.6562 21.0938Z" fill="#8C92A4"/>
<path d="M16.2754 17.2501L17.4004 17.3955C17.5139 17.4092 17.6185 17.4639 17.6945 17.5494C17.7705 17.6349 17.8126 17.7452 17.8129 17.8595V18.197C17.9916 18.135 18.1559 18.0375 18.296 17.9104C18.4361 17.7833 18.5491 17.6292 18.6281 17.4573C18.7071 17.2855 18.7506 17.0994 18.756 16.9103C18.7613 16.7213 18.7284 16.533 18.6592 16.357C18.59 16.181 18.4859 16.0207 18.3532 15.8859C18.2205 15.7511 18.0619 15.6445 17.887 15.5725C17.7121 15.5005 17.5244 15.4646 17.3353 15.4669C17.1461 15.4692 16.9594 15.5098 16.7863 15.5861L16.9363 15.7361C17.0163 15.8173 17.0641 15.9247 17.071 16.0384C17.0779 16.1522 17.0434 16.2646 16.9738 16.3548L16.2754 17.2501Z" fill="#8C92A4"/>
<path d="M1.875 15.9375V25.3125C1.875 25.4368 1.92439 25.556 2.01229 25.644C2.1002 25.7319 2.21943 25.7812 2.34375 25.7812H2.8125V15.4688H2.34375C2.21943 15.4688 2.1002 15.5181 2.01229 15.606C1.92439 15.694 1.875 15.8132 1.875 15.9375Z" fill="#8C92A4"/>
<path d="M3.75 20.1562H4.6875V21.0938H3.75V20.1562Z" fill="#8C92A4"/>
<path d="M18.2812 6.5625H20.1562V8.4375H18.2812V6.5625Z" fill="#8C92A4"/>
<path d="M25.3125 5.15625C25.3114 4.78363 25.1629 4.42659 24.8994 4.16311C24.6359 3.89963 24.2789 3.75111 23.9062 3.75H14.5312C14.1586 3.75111 13.8016 3.89963 13.5381 4.16311C13.2746 4.42659 13.1261 4.78363 13.125 5.15625V5.625H25.3125V5.15625Z" fill="#8C92A4"/>
<path d="M20.0572 15.9328C20.0232 15.8198 19.9793 15.71 19.926 15.6047C19.8876 15.5269 19.8722 15.4398 19.8813 15.3535C19.8904 15.2672 19.9238 15.1853 19.9775 15.1172L20.6666 14.2313L19.9869 13.5516L19.101 14.2406C19.0329 14.2944 18.9509 14.3277 18.8647 14.3369C18.7784 14.346 18.6913 14.3305 18.6135 14.2922C18.5082 14.2388 18.3984 14.1949 18.2853 14.1609C18.2004 14.1329 18.1251 14.0815 18.0679 14.0127C18.0107 13.944 17.974 13.8605 17.9619 13.7719L17.8213 12.6562H16.865L16.7244 13.7719C16.7123 13.8605 16.6756 13.944 16.6184 14.0127C16.5613 14.0815 16.4859 14.1329 16.401 14.1609C16.2879 14.1949 16.1781 14.2388 16.0728 14.2922C15.995 14.3304 15.9079 14.3458 15.8217 14.3367C15.7354 14.3276 15.6535 14.2943 15.5853 14.2406L14.6994 13.5516L14.0244 14.2313L14.151 15.1312L15.051 14.4328C15.1412 14.3632 15.2536 14.3287 15.3674 14.3356C15.4811 14.3425 15.5885 14.3904 15.6697 14.4703L16.0916 14.8922C16.3821 14.7095 16.7091 14.5929 17.0497 14.5505C17.3902 14.5081 17.7359 14.541 18.0623 14.6469C18.3887 14.7527 18.6879 14.929 18.9387 15.1632C19.1895 15.3974 19.3858 15.6838 19.5138 16.0022C19.6418 16.3205 19.6983 16.6631 19.6794 17.0058C19.6604 17.3484 19.5664 17.6827 19.4041 17.985C19.2418 18.2873 19.015 18.5503 18.7399 18.7554C18.4648 18.9605 18.148 19.1027 17.8119 19.1719V19.6406C17.8116 19.755 17.7695 19.8653 17.6935 19.9507C17.6175 20.0362 17.5129 20.091 17.3994 20.1047L16.2744 20.25L16.9353 21.0938H17.8213L17.9619 19.9781C17.974 19.8895 18.0107 19.806 18.0679 19.7373C18.1251 19.6685 18.2004 19.6171 18.2853 19.5891C18.3984 19.5551 18.5082 19.5112 18.6135 19.4578C18.6916 19.4206 18.7785 19.4057 18.8645 19.4148C18.9505 19.4239 19.0324 19.4566 19.101 19.5094L19.9869 20.1984L20.6666 19.5187L19.9775 18.6328C19.9238 18.5647 19.8904 18.4828 19.8813 18.3965C19.8722 18.3102 19.8876 18.2231 19.926 18.1453C19.9793 18.04 20.0232 17.9302 20.0572 17.8172C20.0853 17.7323 20.1366 17.6569 20.2054 17.5997C20.2742 17.5425 20.3576 17.5058 20.4463 17.4937L21.5619 17.3531V16.3969L20.4463 16.2563C20.3576 16.2442 20.2742 16.2075 20.2054 16.1503C20.1366 16.0931 20.0853 16.0177 20.0572 15.9328Z" fill="#8C92A4"/>
<path d="M25.3125 15.4688H26.25V16.4062H25.3125V15.4688Z" fill="#8C92A4"/>
<path d="M27.6562 10.7812H27.1875V21.0938H27.6562C27.7806 21.0938 27.8998 21.0444 27.9877 20.9565C28.0756 20.8685 28.125 20.7493 28.125 20.625V11.25C28.125 11.1257 28.0756 11.0065 27.9877 10.9185C27.8998 10.8306 27.7806 10.7812 27.6562 10.7812Z" fill="#8C92A4"/>
<path d="M23.9062 9.375H13.7859L9.17344 12.5719C9.09522 12.6269 9.00189 12.6564 8.90625 12.6562H6.09375C5.96943 12.6562 5.8502 12.7056 5.76229 12.7935C5.67439 12.8815 5.625 13.0007 5.625 13.125V25.7812C5.625 25.9056 5.67439 26.0248 5.76229 26.1127C5.8502 26.2006 5.96943 26.25 6.09375 26.25H19.0781C19.1683 26.2498 19.2565 26.2236 19.3322 26.1746C19.4078 26.1255 19.4677 26.0557 19.5047 25.9734L21.1359 22.3078C21.1723 22.2251 21.232 22.1548 21.3078 22.1057C21.3836 22.0565 21.4722 22.0307 21.5625 22.0312H24.375V9.84375C24.375 9.71943 24.3256 9.6002 24.2377 9.51229C24.1498 9.42439 24.0306 9.375 23.9062 9.375ZM20.625 10.3125H21.5625V11.25H20.625V10.3125ZM7.5 25.3125H6.5625V24.375H7.5V25.3125ZM9.375 25.3125H8.4375V24.375H9.375V25.3125ZM22.5 17.7656C22.4997 17.88 22.4576 17.9903 22.3816 18.0757C22.3056 18.1612 22.201 18.216 22.0875 18.2297L20.9625 18.375L21.6609 19.2703C21.7305 19.3606 21.765 19.473 21.7581 19.5867C21.7512 19.7005 21.7034 19.8079 21.6234 19.8891L20.3578 21.1547C20.2766 21.2346 20.1692 21.2825 20.0555 21.2894C19.9417 21.2963 19.8293 21.2618 19.7391 21.1922L18.8438 20.4938L18.6984 21.6187C18.6847 21.7323 18.63 21.8369 18.5445 21.9129C18.459 21.9888 18.3487 22.0309 18.2344 22.0312H16.6641L15.6703 23.0297C15.5891 23.1096 15.4817 23.1575 15.368 23.1644C15.2542 23.1713 15.1418 23.1368 15.0516 23.0672L14.1562 22.3688L14.0109 23.4937C13.9972 23.6073 13.9425 23.7119 13.857 23.7879C13.7715 23.8638 13.6612 23.9059 13.5469 23.9062H11.7656C11.6513 23.9059 11.541 23.8638 11.4555 23.7879C11.37 23.7119 11.3153 23.6073 11.3016 23.4937L11.1562 22.3688L10.2609 23.0672C10.1707 23.1368 10.0583 23.1713 9.94453 23.1644C9.83079 23.1575 9.72338 23.1096 9.64219 23.0297L8.37656 21.7641C8.29652 21.682 8.24869 21.5738 8.2418 21.4593C8.23492 21.3449 8.26944 21.2317 8.33906 21.1406L9.0375 20.25L7.9125 20.1047C7.79897 20.091 7.69437 20.0362 7.6184 19.9507C7.54243 19.8653 7.50032 19.755 7.5 19.6406V17.8594C7.50032 17.745 7.54243 17.6347 7.6184 17.5493C7.69437 17.4638 7.79897 17.409 7.9125 17.3953L9.0375 17.25L8.33906 16.3547C8.2695 16.2644 8.23497 16.152 8.24186 16.0383C8.24875 15.9245 8.2966 15.8171 8.37656 15.7359L9.64219 14.4703C9.72338 14.3904 9.83079 14.3425 9.94453 14.3356C10.0583 14.3287 10.1707 14.3632 10.2609 14.4328L11.1562 15.1312L11.3016 14.0062C11.3153 13.8927 11.37 13.7881 11.4555 13.7121C11.541 13.6362 11.6513 13.5941 11.7656 13.5938H13.3359L14.3297 12.5953C14.4109 12.5154 14.5183 12.4675 14.632 12.4606C14.7458 12.4537 14.8582 12.4882 14.9484 12.5578L15.8438 13.2563L15.9891 12.1312C16.0028 12.0177 16.0575 11.9131 16.143 11.8371C16.2285 11.7612 16.3388 11.7191 16.4531 11.7188H18.2344C18.3487 11.7191 18.459 11.7612 18.5445 11.8371C18.63 11.9131 18.6847 12.0177 18.6984 12.1312L18.8438 13.2563L19.7391 12.5578C19.8293 12.4882 19.9417 12.4537 20.0555 12.4606C20.1692 12.4675 20.2766 12.5154 20.3578 12.5953L21.6234 13.8609C21.7034 13.9421 21.7512 14.0495 21.7581 14.1633C21.765 14.277 21.7305 14.3894 21.6609 14.4797L20.9625 15.375L22.0875 15.5203C22.201 15.534 22.3056 15.5888 22.3816 15.6743C22.4576 15.7597 22.4997 15.87 22.5 15.9844V17.7656ZM23.4375 11.25H22.5V10.3125H23.4375V11.25Z" fill="#8C92A4"/>
</svg>
