<svg width="17" height="17" viewBox="0 0 17 17" fill="none" xmlns="http://www.w3.org/2000/svg">
<g clip-path="url(#clip0)">
<path d="M14.709 0H2.29078C1.02564 0 0 1.0256 0 2.29078V14.7091C0 15.9743 1.0256 16.9999 2.29078 16.9999H8.41541L8.42585 10.9251H6.8476C6.6425 10.9251 6.47603 10.7592 6.47524 10.5541L6.46767 8.59594C6.46688 8.38971 6.63385 8.22212 6.84008 8.22212H8.41545V6.33002C8.41545 4.13427 9.75648 2.93866 11.7152 2.93866H13.3226C13.5282 2.93866 13.695 3.10538 13.695 3.31106V4.96221C13.695 5.16781 13.5283 5.33449 13.3228 5.33461L12.3364 5.33507C11.2711 5.33507 11.0649 5.84126 11.0649 6.58412V8.22216H13.4056C13.6286 8.22216 13.8016 8.41691 13.7753 8.6384L13.5433 10.5966C13.521 10.784 13.3621 10.9251 13.1735 10.9251H11.0753L11.0649 17H14.7091C15.9743 17 16.9999 15.9744 16.9999 14.7093V2.29078C16.9998 1.0256 15.9742 0 14.709 0Z" fill="#475993"/>
</g>
<defs>
<clipPath id="clip0">
<rect width="17" height="17" fill="white"/>
</clipPath>
</defs>
</svg>
