<svg width="14" height="14" viewBox="0 0 14 14" fill="none" xmlns="http://www.w3.org/2000/svg">
<g clip-path="url(#clip0)">
<path d="M11.9486 2.05087C9.21374 -0.684057 4.78669 -0.684494 2.05137 2.05087C-0.683586 4.78581 -0.683996 9.21281 2.05137 11.9481C4.78625 14.6831 9.21331 14.6835 11.9486 11.9481C14.6836 9.21322 14.684 4.78622 11.9486 2.05087ZM11.6561 10.9505C11.3291 10.6581 10.9794 10.3994 10.6107 10.1764C10.8544 9.33463 10.9987 8.40836 11.0329 7.44549H13.0904C12.9974 8.74334 12.4987 9.96082 11.6561 10.9505ZM0.909555 7.44549H2.96711C3.00123 8.40836 3.1456 9.33463 3.38928 10.1764C3.0206 10.3994 2.67083 10.6581 2.34385 10.9505C1.50126 9.96082 1.00261 8.74334 0.909555 7.44549ZM2.34388 3.04849C2.67086 3.34088 3.02063 3.59965 3.3893 3.82264C3.14562 4.66439 3.00126 5.59067 2.96713 6.55353H0.909555C1.00261 5.25571 1.50126 4.03824 2.34388 3.04849ZM6.55403 3.91483C5.82668 3.86281 5.12536 3.68366 4.47519 3.38812C4.85332 2.41441 5.5504 1.24656 6.55403 0.957142V3.91483ZM6.55403 4.80846V6.55356H3.85945C3.89032 5.73905 4.00573 4.95692 4.19766 4.24129C4.93652 4.56428 5.73113 4.75717 6.55403 4.80846ZM6.55403 7.44549V9.1906C5.73113 9.24188 4.93652 9.43477 4.19766 9.75776C4.00573 9.04213 3.89032 8.26 3.85945 7.44549H6.55403ZM6.55403 10.0842V13.0419C5.55046 12.7525 4.85338 11.5847 4.47519 10.6109C5.12536 10.3154 5.82668 10.1362 6.55403 10.0842ZM7.44596 10.0842C8.17332 10.1362 8.87463 10.3154 9.5248 10.6109C9.14664 11.5847 8.44959 12.7525 7.44596 13.0419V10.0842ZM7.44596 9.1906V7.44549H10.1405C10.1097 8.26 9.99426 9.04213 9.80233 9.75776C9.06348 9.43477 8.26886 9.24188 7.44596 9.1906ZM7.44596 6.55356V4.80846C8.26886 4.75717 9.06348 4.56428 9.80233 4.24129C9.99426 4.95692 10.1097 5.73905 10.1405 6.55356H7.44596ZM7.44596 3.91483V0.957169C8.44959 1.24659 9.14667 2.41444 9.5248 3.38815C8.87463 3.68366 8.17332 3.86281 7.44596 3.91483ZM9.44917 1.40243C10.0201 1.65242 10.5527 1.9914 11.0301 2.41198C10.8028 2.61236 10.563 2.79404 10.3126 2.95653C10.0903 2.40594 9.80621 1.87088 9.44917 1.40243ZM3.68733 2.95653C3.43693 2.79404 3.19715 2.61236 2.96986 2.41198C3.44731 1.9914 3.97991 1.65242 4.55079 1.40243C4.19376 1.87094 3.9097 2.406 3.68733 2.95653ZM3.68735 11.0425C3.9097 11.5931 4.19381 12.1282 4.55082 12.5966C3.97994 12.3466 3.44733 12.0077 2.96989 11.5871C3.19715 11.3867 3.43695 11.205 3.68735 11.0425ZM10.3126 11.0425C10.563 11.205 10.8028 11.3867 11.0301 11.587C10.5527 12.0076 10.0201 12.3466 9.44917 12.5966C9.80618 12.1282 10.0903 11.5931 10.3126 11.0425ZM11.0329 6.55356C10.9988 5.5907 10.8544 4.66439 10.6107 3.82267C10.9794 3.59967 11.3291 3.34091 11.6561 3.04852C12.4987 4.03824 12.9974 5.25571 13.0904 6.55356H11.0329Z" fill="white"/>
</g>
<defs>
<clipPath id="clip0">
<rect width="14" height="14" fill="white"/>
</clipPath>
</defs>
</svg>
