<svg width="17" height="16" viewBox="0 0 17 16" fill="none" xmlns="http://www.w3.org/2000/svg">
<g clip-path="url(#clip0)">
<path d="M8.80469 15.9906C10.1047 15.8167 11.2443 14.5397 11.9614 12.6538C10.9248 12.4353 9.86687 12.318 8.80469 12.3041V15.9906Z" fill="#C2C3C6"/>
<path d="M10.8814 15.6906C10.9582 15.6697 11.0348 15.6486 11.1107 15.6254C11.1748 15.606 11.238 15.5851 11.3012 15.5643C11.376 15.54 11.4504 15.515 11.5246 15.4884C11.5878 15.4658 11.6504 15.4418 11.7132 15.4178C11.7856 15.3892 11.8578 15.3607 11.9293 15.3321C11.9918 15.3062 12.0538 15.2791 12.1158 15.2519C12.186 15.2208 12.2558 15.1891 12.3251 15.1561C12.3859 15.1269 12.4466 15.0972 12.5074 15.0666C12.5755 15.0323 12.6432 14.9972 12.7104 14.9612C12.7712 14.9288 12.8298 14.8963 12.889 14.8628C12.9549 14.8247 13.0204 14.7865 13.0856 14.7484C13.1439 14.7135 13.202 14.6781 13.2594 14.6415C13.3235 14.6008 13.3867 14.5585 13.4496 14.5162C13.5061 14.4781 13.5624 14.4401 13.6175 14.4019C13.6784 14.3578 13.7407 14.3121 13.8016 14.2663C13.8558 14.2257 13.9098 14.1853 13.9631 14.1436C14.0237 14.0961 14.0819 14.047 14.1408 13.9978C14.1924 13.9547 14.2443 13.9119 14.2948 13.8677C14.3528 13.8167 14.4093 13.7639 14.4658 13.7116C14.5148 13.6661 14.5643 13.6212 14.6122 13.5746C14.6211 13.566 14.6296 13.5566 14.6388 13.5477C13.9761 13.2256 13.2781 12.9727 12.557 12.7937C12.182 13.9193 11.5145 14.9394 10.6152 15.7613C10.6399 15.7553 10.6645 15.7504 10.6891 15.7444C10.7541 15.7272 10.8179 15.7083 10.8814 15.6906Z" fill="#C2C3C6"/>
<path d="M17.0005 8.29248H13.3576C13.3438 9.63119 13.1374 10.9619 12.7441 12.2486C13.5461 12.4502 14.3201 12.7401 15.0499 13.1122C16.2483 11.7528 16.9343 10.0579 17.0005 8.29248Z" fill="#C2C3C6"/>
<path d="M8.80469 7.72063H12.7504C12.7349 6.42925 12.5336 5.14583 12.1522 3.90527C11.0535 4.1411 9.93141 4.26704 8.80469 4.281V7.72063Z" fill="#C2C3C6"/>
<path d="M8.80469 0.022583V3.70907C9.86687 3.69496 10.9248 3.57782 11.9614 3.35931C11.2443 1.47341 10.1047 0.196414 8.80469 0.022583Z" fill="#C2C3C6"/>
<path d="M8.80469 11.7321C9.93141 11.7462 11.0535 11.8722 12.1522 12.108C12.5336 10.8674 12.7349 9.58386 12.7504 8.29248H8.80469V11.7321Z" fill="#C2C3C6"/>
<path d="M15.0499 2.90088C14.3201 3.27298 13.5461 3.56283 12.7441 3.76445C13.1374 5.05108 13.3438 6.38183 13.3576 7.72055H17.0005C16.9341 5.95528 16.2482 4.26039 15.0499 2.90088Z" fill="#C2C3C6"/>
<path d="M14.6392 2.46717C14.6303 2.45865 14.6219 2.44943 14.6131 2.44064C14.565 2.394 14.5152 2.34905 14.4662 2.30367C14.4099 2.25131 14.3536 2.19839 14.2955 2.14757C14.2452 2.10345 14.1931 2.0617 14.1415 2.01772C14.0826 1.96857 14.0237 1.919 13.9632 1.87153C13.9107 1.82978 13.8568 1.78985 13.8034 1.74978C13.7426 1.70343 13.6803 1.65735 13.6177 1.61309C13.5628 1.57413 13.5071 1.53644 13.4512 1.49874C13.3877 1.45573 13.3239 1.41287 13.2593 1.37196C13.2024 1.33594 13.1447 1.30075 13.087 1.26626C13.0213 1.22647 12.9557 1.18752 12.8888 1.14982C12.8302 1.11673 12.771 1.08406 12.7117 1.05236C12.6438 1.01578 12.5757 0.980315 12.507 0.945688C12.4461 0.917066 12.3855 0.88593 12.3246 0.857307C12.2548 0.824076 12.1843 0.792103 12.1121 0.760687C12.0512 0.733461 11.9895 0.706932 11.9269 0.681102C11.855 0.651083 11.7823 0.623996 11.7097 0.595373C11.6471 0.571358 11.5848 0.547622 11.5216 0.525003C11.4479 0.498474 11.3731 0.473621 11.2984 0.449327C11.2352 0.428383 11.172 0.407579 11.1079 0.388032C11.0319 0.364854 10.956 0.343771 10.8779 0.322548C10.8147 0.305095 10.7512 0.287363 10.6873 0.271446C10.6628 0.265163 10.6379 0.260276 10.6133 0.254272C11.5126 1.0761 12.1799 2.09605 12.555 3.22183C13.2769 3.04283 13.9759 2.78984 14.6392 2.46717Z" fill="#C2C3C6"/>
<path d="M0 7.72055H3.64288C3.65668 6.38183 3.86304 5.05108 4.25616 3.76445C3.45433 3.56297 2.68039 3.27312 1.95051 2.90088C0.752135 4.26025 0.0661642 5.95528 0 7.72055Z" fill="#C2C3C6"/>
<path d="M8.1958 15.9906V12.3041C7.13361 12.3182 6.07573 12.4353 5.03906 12.6538C5.75604 14.5397 6.89581 15.8167 8.1958 15.9906Z" fill="#C2C3C6"/>
<path d="M8.19567 8.29248H4.25C4.26543 9.58386 4.46659 10.8674 4.84815 12.108C5.94683 11.872 7.0688 11.7461 8.19567 11.7321V8.29248Z" fill="#C2C3C6"/>
<path d="M8.1958 0.022583C6.89581 0.196414 5.75604 1.47341 5.03906 3.35931C6.07573 3.57796 7.13361 3.6951 8.1958 3.70907V0.022583Z" fill="#C2C3C6"/>
<path d="M8.19567 4.281C7.06895 4.26704 5.94683 4.1411 4.84815 3.90527C4.46659 5.14583 4.26543 6.42925 4.25 7.72063H8.19567V4.281Z" fill="#C2C3C6"/>
<path d="M6.38399 0.253906C6.35937 0.25991 6.33474 0.264797 6.31011 0.270801C6.24573 0.286997 6.18224 0.305009 6.11815 0.322461C6.0419 0.343405 5.96624 0.364488 5.88969 0.387387C5.82516 0.407073 5.76166 0.428017 5.69817 0.448821C5.62385 0.473534 5.54937 0.498108 5.47579 0.524357C5.4123 0.547256 5.34969 0.570992 5.28679 0.595286C5.21455 0.623909 5.14215 0.652532 5.0708 0.681015C5.00819 0.706845 4.94633 0.733932 4.88432 0.761159C4.81415 0.792295 4.74428 0.82399 4.675 0.856941C4.61417 0.886122 4.55335 0.916002 4.49268 0.946439C4.42458 0.980787 4.35708 1.01597 4.29003 1.05199C4.22921 1.08397 4.16942 1.11678 4.11082 1.15029C4.04481 1.18771 3.97953 1.22638 3.91455 1.26464C3.8561 1.29983 3.7981 1.33529 3.74069 1.37187C3.6766 1.4125 3.6134 1.45481 3.5505 1.49712C3.49398 1.53523 3.43776 1.57321 3.38242 1.61161C3.32026 1.65559 3.26092 1.70138 3.19832 1.74704C3.14432 1.78767 3.08988 1.82802 3.03706 1.87005C2.97624 1.91724 2.91853 1.96611 2.85993 2.01498C2.80801 2.05854 2.75564 2.10085 2.70491 2.14595C2.6472 2.19663 2.59097 2.24927 2.5346 2.30149C2.48565 2.347 2.4358 2.39196 2.38773 2.43874C2.37898 2.44739 2.37053 2.45689 2.36133 2.46568C3.02386 2.78794 3.722 3.04079 4.44313 3.21979C4.81816 2.0947 5.48514 1.07531 6.38399 0.253906Z" fill="#C2C3C6"/>
<path d="M2.53374 13.7095C2.59026 13.7618 2.64648 13.8148 2.70449 13.8657C2.75493 13.9097 2.80685 13.9514 2.85862 13.9954C2.91752 14.0447 2.97641 14.0941 3.03694 14.1416C3.08946 14.1831 3.14301 14.2232 3.19671 14.2634C3.25754 14.3097 3.31821 14.3558 3.38259 14.4003C3.43734 14.439 3.49297 14.4764 3.5486 14.5148C3.61209 14.5577 3.67618 14.6006 3.74086 14.6417C3.79768 14.6778 3.85539 14.713 3.91309 14.7476C3.97881 14.7872 4.04438 14.8262 4.11129 14.8639C4.16989 14.8971 4.22908 14.9296 4.28842 14.9615C4.35637 14.9981 4.42446 15.0335 4.49314 15.068C4.55382 15.0966 4.61464 15.1278 4.67547 15.1564C4.74534 15.1896 4.81581 15.2216 4.88805 15.2532C4.94888 15.2801 5.01059 15.3066 5.07319 15.3326C5.14514 15.3626 5.21769 15.3897 5.29038 15.4183C5.35298 15.4423 5.41529 15.4661 5.47849 15.4887C5.55222 15.5154 5.62698 15.5402 5.70175 15.5645C5.76495 15.5853 5.82815 15.6063 5.89223 15.6257C5.96819 15.6488 6.04414 15.6701 6.12218 15.6912C6.18537 15.7086 6.24887 15.7263 6.31266 15.7424C6.33728 15.7487 6.36221 15.7536 6.38683 15.7596C5.48753 14.9376 4.82026 13.9177 4.44508 12.7919C3.72395 12.971 3.02581 13.2239 2.36328 13.5463C2.37218 13.5548 2.38064 13.564 2.38954 13.5728C2.43508 13.6191 2.48419 13.6641 2.53374 13.7095Z" fill="#C2C3C6"/>
<path d="M1.95051 13.1122C2.68039 12.7401 3.45433 12.4502 4.25616 12.2486C3.86304 10.9619 3.65668 9.63119 3.64288 8.29248H0C0.0663125 10.0577 0.752135 11.7526 1.95051 13.1122Z" fill="#C2C3C6"/>
</g>
<defs>
<clipPath id="clip0">
<rect width="17" height="16" fill="white"/>
</clipPath>
</defs>
</svg>
