<svg width="18" height="18" viewBox="0 0 18 18" fill="none" xmlns="http://www.w3.org/2000/svg">
<g clip-path="url(#clip0)">
<path d="M16.3352 3.80468C16.3349 3.79888 16.3343 3.79307 16.3333 3.78731C16.3108 3.75517 16.2831 3.72751 16.26 3.69601C16.0919 3.46708 15.914 3.24674 15.7263 3.03495C15.6748 2.97708 15.6234 2.91984 15.5706 2.86325C15.3773 2.65621 15.1745 2.45878 14.9623 2.27102C14.9231 2.23629 14.8864 2.2003 14.8472 2.1662C14.3242 1.71817 13.7516 1.33152 13.1406 1.01389C13.1161 1.00104 13.0904 0.990117 13.0653 0.977232C12.7932 0.838953 12.5142 0.714652 12.2294 0.604896C12.1651 0.581761 12.1065 0.55987 12.0455 0.540579C11.7921 0.449285 11.5349 0.369332 11.2738 0.30072C11.1967 0.280147 11.1195 0.258935 11.041 0.240924C10.7838 0.181129 10.5266 0.135463 10.2636 0.0981618C10.1839 0.0865946 10.1054 0.0711466 10.025 0.061501C9.3476 -0.0208258 8.66272 -0.0208258 7.98527 0.061501C7.9049 0.0711466 7.82646 0.0865946 7.74669 0.0981618C7.4837 0.135463 7.22391 0.181129 6.96924 0.240924C6.89079 0.258935 6.81363 0.280147 6.73646 0.30072C6.47366 0.369294 6.21647 0.449247 5.96481 0.540579C5.9005 0.562432 5.84198 0.584323 5.78091 0.604896C5.4961 0.714652 5.21705 0.838915 4.94494 0.977232C4.91985 0.99008 4.89415 1.00101 4.8697 1.01389C4.25664 1.33118 3.68208 1.7178 3.15726 2.1662C3.11804 2.20027 3.08138 2.23629 3.04216 2.27102C2.8278 2.45964 2.62502 2.65708 2.43384 2.86325C2.38113 2.91984 2.32966 2.97708 2.27823 3.03495C2.09003 3.24629 1.91211 3.46663 1.74452 3.69598C1.72138 3.72747 1.69373 3.75513 1.6712 3.78727C1.66826 3.79288 1.66566 3.79869 1.66347 3.80464C-0.554491 6.91298 -0.554491 11.0866 1.66347 14.1949C1.66566 14.2008 1.66822 14.2066 1.6712 14.2123C1.69369 14.2444 1.72135 14.2721 1.74452 14.3036C1.91215 14.5325 2.09003 14.7528 2.27823 14.9646C2.32966 15.0225 2.38113 15.0797 2.43384 15.1363C2.62762 15.3434 2.83037 15.5408 3.04216 15.7285C3.08138 15.7633 3.11804 15.7993 3.15726 15.8334C3.68024 16.2814 4.25287 16.668 4.8639 16.9857C4.88835 16.9985 4.91405 17.0094 4.93914 17.0223C5.21125 17.1606 5.49026 17.2849 5.7751 17.3947C5.83942 17.4178 5.89794 17.4397 5.95901 17.459C6.21236 17.5503 6.46959 17.6302 6.73066 17.6988C6.80783 17.7194 6.88499 17.7406 6.96344 17.7586C7.22067 17.8184 7.47786 17.8641 7.74089 17.9014C7.82062 17.913 7.89906 17.9284 7.97947 17.9381C8.65688 18.0204 9.34176 18.0204 10.0192 17.9381C10.0996 17.9284 10.178 17.913 10.2578 17.9014C10.5208 17.8641 10.7806 17.8184 11.0352 17.7586C11.1137 17.7406 11.1909 17.7194 11.268 17.6988C11.5312 17.6303 11.7885 17.5503 12.0397 17.459C12.104 17.4371 12.1625 17.4152 12.2236 17.3947C12.5084 17.2849 12.7874 17.1607 13.0595 17.0223C13.0846 17.0095 13.1103 16.9986 13.1348 16.9857C13.7458 16.668 14.3184 16.2814 14.8414 15.8334C14.8806 15.7993 14.9173 15.7633 14.9565 15.7285C15.1709 15.5403 15.3737 15.3429 15.5648 15.1363C15.6175 15.0797 15.669 15.0225 15.7204 14.9646C15.9087 14.7528 16.0866 14.5325 16.2542 14.3036C16.2773 14.2721 16.305 14.2444 16.3275 14.2123C16.3304 14.2066 16.333 14.2008 16.3352 14.1949C18.5532 11.0866 18.5532 6.91301 16.3352 3.80468ZM15.6015 5.02134C16.2165 6.03417 16.5878 7.17597 16.6863 8.3568H12.8345C12.7873 7.59058 12.6667 6.83069 12.4744 6.08752C13.5624 5.88376 14.6156 5.52469 15.6015 5.02134ZM10.6385 1.46079C10.6745 1.46916 10.7092 1.48073 10.7452 1.48909C10.9754 1.54312 11.2037 1.60484 11.4269 1.682C11.461 1.69357 11.4944 1.7071 11.5278 1.7193C11.7491 1.79647 11.967 1.882 12.1805 1.97653C12.2178 1.9939 12.2545 2.01319 12.2918 2.03056C12.4963 2.12789 12.6961 2.23312 12.8911 2.34631L13.0197 2.42411C13.2049 2.5373 13.385 2.65839 13.5599 2.78744C13.6049 2.82022 13.6499 2.85176 13.6943 2.88774C13.8657 3.01634 14.0299 3.15416 14.1868 3.30122C14.228 3.33852 14.2704 3.37518 14.3109 3.41377C14.4756 3.57002 14.6325 3.73527 14.7842 3.90633C14.8035 3.92883 14.8241 3.9494 14.8434 3.97065C13.9727 4.3856 13.0503 4.6819 12.1008 4.8516C11.661 3.64244 11.0799 2.48941 10.3698 1.41648C10.4591 1.43253 10.5504 1.44154 10.6385 1.46079ZM6.45358 8.35677C6.50429 7.661 6.62275 6.97183 6.80726 6.29905C7.53584 6.3856 8.26891 6.42851 9.00262 6.42764C9.737 6.42742 10.4707 6.38341 11.1999 6.29581C11.3841 6.96968 11.5019 7.65995 11.5516 8.35677H6.45358ZM11.5516 9.64287C11.5009 10.3386 11.3824 11.0278 11.1979 11.7006C10.4694 11.614 9.73629 11.5711 9.00258 11.572C8.26823 11.5712 7.53452 11.6141 6.8053 11.7006C6.62132 11.0278 6.50354 10.3386 6.45354 9.64287H11.5516ZM9.00258 1.70261C9.73437 2.73978 10.3362 3.86278 10.7947 5.04644C10.1995 5.10966 9.60125 5.14142 9.00258 5.14161C8.40459 5.1409 7.80701 5.10895 7.21234 5.0458C7.67141 3.86293 8.27256 2.74031 9.00258 1.70261ZM3.22165 3.90566C3.37278 3.7346 3.53031 3.56934 3.69493 3.41309C3.73543 3.37451 3.7779 3.33784 3.81904 3.30054C3.97767 3.15609 4.14187 3.01826 4.31161 2.88706C4.35599 2.85296 4.40098 2.82275 4.44601 2.78676C4.62091 2.65817 4.80097 2.53703 4.98616 2.42343L5.11476 2.34563C5.30982 2.23161 5.50959 2.12634 5.71407 2.02988C5.75137 2.01252 5.78803 1.99322 5.82533 1.97585C6.03881 1.8794 6.25682 1.79387 6.47803 1.71863C6.51145 1.70642 6.54235 1.69289 6.57897 1.68132C6.8021 1.60672 7.02911 1.545 7.2606 1.48841C7.29662 1.48005 7.33133 1.46848 7.36799 1.46076C7.45608 1.44146 7.54741 1.43246 7.63678 1.41637C6.92632 2.48948 6.3451 3.64274 5.90506 4.85213C4.9556 4.68243 4.03317 4.38613 3.1625 3.97118C3.18179 3.94872 3.20236 3.92815 3.22165 3.90566ZM2.4037 5.02134C3.3894 5.52465 4.44231 5.88372 5.53016 6.08752C5.33804 6.83073 5.21766 7.59062 5.17071 8.3568H1.31891C1.4174 7.17597 1.78875 6.03417 2.4037 5.02134ZM2.4037 12.9783C1.78872 11.9655 1.41736 10.8237 1.31891 9.64287H5.17071C5.21788 10.4091 5.33845 11.169 5.5308 11.9122C4.44277 12.1159 3.38962 12.475 2.4037 12.9783ZM7.36671 16.5388C7.33069 16.5305 7.29598 16.5189 7.25996 16.5106C7.02975 16.4565 6.80146 16.3948 6.57833 16.3176C6.54423 16.3061 6.51081 16.2925 6.47735 16.2803C6.25614 16.2032 6.03817 16.1176 5.82465 16.0231C5.78735 16.0057 5.75069 15.9864 5.71339 15.9691C5.50891 15.8718 5.30914 15.7665 5.11408 15.6533L4.98548 15.5755C4.80029 15.4623 4.62023 15.3412 4.44533 15.2122C4.4003 15.1794 4.35532 15.1479 4.31093 15.1119C4.13946 14.9833 3.97526 14.8455 3.81836 14.6984C3.77722 14.6611 3.73476 14.6245 3.69425 14.5859C3.52964 14.4296 3.37274 14.2644 3.22098 14.0933C3.20168 14.0708 3.18111 14.0502 3.16182 14.029C4.03253 13.614 4.95493 13.3177 5.90438 13.148C6.34423 14.3572 6.92527 15.5102 7.63543 16.5832C7.54609 16.5671 7.4548 16.5581 7.36671 16.5388ZM9.00258 16.2971C8.27079 15.2599 7.66892 14.1369 7.21042 12.9532C8.40131 12.8251 9.60253 12.8251 10.7934 12.9532L10.7928 12.9539C10.3338 14.1367 9.73263 15.2593 9.00258 16.2971ZM14.7835 14.094C14.6324 14.265 14.4749 14.4303 14.3103 14.5866C14.2698 14.6251 14.2273 14.6618 14.1862 14.6991C14.0275 14.844 13.8633 14.9818 13.6936 15.1126C13.6492 15.1466 13.6042 15.1801 13.5592 15.2129C13.3843 15.3415 13.2042 15.4626 13.019 15.5762L12.8904 15.654C12.6958 15.7676 12.496 15.8728 12.2911 15.9698C12.2538 15.9871 12.2172 16.0064 12.1799 16.0238C11.9664 16.1202 11.7484 16.2058 11.5272 16.281C11.4937 16.2932 11.4629 16.3067 11.4262 16.3183C11.2031 16.3929 10.9761 16.4546 10.7446 16.5112C10.7086 16.5196 10.6739 16.5312 10.6372 16.5389C10.5491 16.5582 10.4578 16.5672 10.3684 16.5833C11.0786 15.5103 11.6596 14.3573 12.0995 13.1482C13.0489 13.3179 13.9714 13.6142 14.842 14.0291C14.8234 14.0509 14.8028 14.0715 14.7835 14.094ZM15.6015 12.9783C14.6158 12.475 13.5629 12.116 12.475 11.9122C12.6672 11.169 12.7875 10.4091 12.8345 9.64287H16.6863C16.5878 10.8237 16.2164 11.9655 15.6015 12.9783Z" fill="#D1D8DA"/>
</g>
<defs>
<clipPath id="clip0">
<rect width="18" height="18" fill="white"/>
</clipPath>
</defs>
</svg>
