<svg width="30" height="30" viewBox="0 0 30 30" fill="none" xmlns="http://www.w3.org/2000/svg">
<path d="M23.75 3.75H6.25C5.58696 3.75 4.95107 4.01339 4.48223 4.48223C4.01339 4.95107 3.75 5.58696 3.75 6.25V23.75C3.75 24.413 4.01339 25.0489 4.48223 25.5178C4.95107 25.9866 5.58696 26.25 6.25 26.25H23.75C24.413 26.25 25.0489 25.9866 25.5178 25.5178C25.9866 25.0489 26.25 24.413 26.25 23.75V6.25C26.25 5.58696 25.9866 4.95107 25.5178 4.48223C25.0489 4.01339 24.413 3.75 23.75 3.75ZM7.5 7.5H13.75V13.75H7.5V7.5ZM13.125 23.75C12.2962 23.75 11.5013 23.4208 10.9153 22.8347C10.3292 22.2487 10 21.4538 10 20.625C10 19.7962 10.3292 19.0013 10.9153 18.4153C11.5013 17.8292 12.2962 17.5 13.125 17.5C13.9538 17.5 14.7487 17.8292 15.3347 18.4153C15.9208 19.0013 16.25 19.7962 16.25 20.625C16.25 21.4538 15.9208 22.2487 15.3347 22.8347C14.7487 23.4208 13.9538 23.75 13.125 23.75ZM16.875 16.25L20.625 10L24.375 16.25H16.875Z" fill="#8C92A4"/>
</svg>
