<svg width="18" height="18" viewBox="0 0 18 18" fill="none" xmlns="http://www.w3.org/2000/svg">
<circle cx="9" cy="9" r="8.5" stroke="#F7F8FC"/>
<path d="M11.4643 8.46429H9.64286C9.58369 8.46429 9.53571 8.41631 9.53571 8.35714V6.53571C9.53571 6.23987 9.29585 6 9 6C8.70415 6 8.46429 6.23987 8.46429 6.53571V8.35714C8.46429 8.41631 8.41631 8.46429 8.35714 8.46429H6.53571C6.23987 8.46429 6 8.70415 6 9C6 9.29585 6.23987 9.53571 6.53571 9.53571H8.35714C8.41631 9.53571 8.46429 9.58369 8.46429 9.64286V11.4643C8.46429 11.7601 8.70415 12 9 12C9.29585 12 9.53571 11.7601 9.53571 11.4643V9.64286C9.53571 9.58369 9.58369 9.53571 9.64286 9.53571H11.4643C11.7601 9.53571 12 9.29585 12 9C12 8.70415 11.7601 8.46429 11.4643 8.46429Z" fill="#545D7A"/>
</svg>
