<svg width="21" height="21" viewBox="0 0 21 21" fill="none" xmlns="http://www.w3.org/2000/svg">
<circle cx="10.5" cy="10.5" r="10.5" fill="#FFE3E3"/>
<path d="M14.5 7.00069H12V6.16569C11.9883 5.8456 11.8501 5.54322 11.6158 5.32484C11.3815 5.10645 11.0701 4.98989 10.75 5.00069H9.25C8.92988 4.98989 8.61853 5.10645 8.38421 5.32484C8.1499 5.54322 8.01173 5.8456 8 6.16569V7.00069H5.5C5.36739 7.00069 5.24021 7.05337 5.14645 7.14714C5.05268 7.2409 5 7.36808 5 7.50069C5 7.6333 5.05268 7.76047 5.14645 7.85424C5.24021 7.94801 5.36739 8.00069 5.5 8.00069H6V13.5007C6 13.8985 6.15804 14.28 6.43934 14.5614C6.72064 14.8427 7.10218 15.0007 7.5 15.0007H12.5C12.8978 15.0007 13.2794 14.8427 13.5607 14.5614C13.842 14.28 14 13.8985 14 13.5007V8.00069H14.5C14.6326 8.00069 14.7598 7.94801 14.8536 7.85424C14.9473 7.76047 15 7.6333 15 7.50069C15 7.36808 14.9473 7.2409 14.8536 7.14714C14.7598 7.05337 14.6326 7.00069 14.5 7.00069ZM9 6.16569C9 6.08569 9.105 6.00069 9.25 6.00069H10.75C10.895 6.00069 11 6.08569 11 6.16569V7.00069H9V6.16569Z" fill="#E12D39"/>
</svg>
