<svg width="24" height="28" viewBox="0 0 24 28" fill="none" xmlns="http://www.w3.org/2000/svg">
<path d="M1.67906 12.6241H1.68644C2.02082 12.6262 2.33504 12.7494 2.57509 12.9689L2.60683 13.0012L6.77148 17.6781C6.77164 17.6783 6.7718 17.6785 6.77196 17.6787C7.00004 17.9356 7.36849 18.0253 7.68851 17.9076L7.68866 17.9075C8.01141 17.7887 8.23348 17.4805 8.23348 17.13V1.77126C8.23348 1.07347 8.8062 0.5 9.51542 0.5C10.2248 0.5 10.7975 1.07352 10.7974 1.77121V1.77126V11.69C10.7974 12.1559 11.18 12.5192 11.6328 12.5192C12.085 12.5192 12.4682 12.1562 12.4682 11.69V8.24492C12.4682 7.54739 13.0408 6.97403 13.7498 6.97403C14.459 6.97403 15.0316 7.54746 15.0316 8.24492V13.0754C15.0316 13.5416 15.4143 13.9046 15.8668 13.9046C16.3189 13.9046 16.7022 13.5421 16.7022 13.0754V9.63125C16.7022 8.93349 17.2749 8.35989 17.9838 8.35989C18.6931 8.35989 19.2659 8.93363 19.2659 9.63125V14.4622C19.2659 14.9285 19.6486 15.2915 20.1013 15.2915C20.5537 15.2915 20.9366 14.9286 20.9366 14.4622V11.3709C20.9366 10.6728 21.5095 10.0992 22.2182 10.0992C22.9272 10.0992 23.5 10.6728 23.5 11.3709V18.6207C23.5 19.5898 23.1007 21.4649 22.6146 23.3591C22.1949 24.9942 21.7262 26.5866 21.4449 27.4999H8.53235C8.46179 27.3541 8.38517 27.195 8.30467 27.0279C7.85704 26.0986 7.2894 24.9201 6.9764 24.3897L6.97627 24.3894C6.35361 23.3355 5.52232 22.0914 4.65333 20.7908L4.63875 20.769L4.6387 20.7689C3.45819 19.0028 2.13572 17.0238 0.926915 14.9395C0.558675 14.3038 0.481687 13.8656 0.503374 13.5801C0.524332 13.3041 0.641149 13.1188 0.775623 12.9867L0.775917 12.9864C1.00423 12.7617 1.32157 12.6288 1.67906 12.6241Z" fill="white" stroke="#2C8EEA"/>
</svg>
