<svg width="29" height="29" viewBox="0 0 29 29" fill="none" xmlns="http://www.w3.org/2000/svg">
<g filter="url(#filter0_d)">
<path d="M21.9246 3.07539C19.9415 1.09221 17.3046 0 14.5 0C11.6954 0 9.05854 1.09221 7.07539 3.07539C5.09216 5.05854 4 7.69535 4 10.5C4 13.3046 5.09216 15.9415 7.07539 17.9246C9.05854 19.9078 11.6954 21 14.5 21C17.3046 21 19.9415 19.9078 21.9246 17.9246C23.9078 15.9415 25 13.3046 25 10.5C25 7.69535 23.9078 5.05854 21.9246 3.07539ZM14.5 19.75C9.39954 19.75 5.24999 15.6005 5.24999 10.5C5.24999 5.39954 9.39954 1.24999 14.5 1.24999C19.6005 1.24999 23.75 5.39954 23.75 10.5C23.75 15.6005 19.6005 19.75 14.5 19.75Z" fill="#2C8EEA"/>
<path d="M12.2274 7.72722C11.2039 6.70368 9.53856 6.70376 8.51509 7.72722C8.27101 7.97127 8.27101 8.36703 8.51509 8.61111C8.75922 8.85515 9.15498 8.85515 9.39902 8.61111C9.93518 8.07499 10.8075 8.07504 11.3436 8.61111C11.4656 8.73317 11.6256 8.7942 11.7855 8.7942C11.9454 8.7942 12.1054 8.73317 12.2274 8.61111C12.4715 8.36703 12.4715 7.97131 12.2274 7.72722Z" fill="#2C8EEA"/>
<path d="M20.4832 7.72722C19.4598 6.70376 17.7944 6.70368 16.771 7.72722C16.5269 7.97127 16.5269 8.36703 16.771 8.61111C17.0151 8.85515 17.4108 8.85515 17.6549 8.61111C18.191 8.07499 19.0633 8.07495 19.5994 8.61111C19.7215 8.73317 19.8814 8.7942 20.0413 8.7942C20.2013 8.7942 20.3613 8.73317 20.4832 8.61111C20.7273 8.36703 20.7273 7.97131 20.4832 7.72722Z" fill="#2C8EEA"/>
<path d="M20.0423 10.9584H8.95898C8.61379 10.9584 8.33398 11.2382 8.33398 11.5834C8.33398 14.9836 11.1004 17.75 14.5006 17.75C17.9009 17.75 20.6673 14.9836 20.6673 11.5834C20.6673 11.2382 20.3875 10.9584 20.0423 10.9584ZM14.5006 16.5C12.0012 16.5 9.93142 14.6255 9.62352 12.2084H19.3778C19.0699 14.6255 17.0001 16.5 14.5006 16.5Z" fill="#2C8EEA"/>
</g>
<defs>
<filter id="filter0_d" x="0" y="0" width="29" height="29" filterUnits="userSpaceOnUse" color-interpolation-filters="sRGB">
<feFlood flood-opacity="0" result="BackgroundImageFix"/>
<feColorMatrix in="SourceAlpha" type="matrix" values="0 0 0 0 0 0 0 0 0 0 0 0 0 0 0 0 0 0 127 0"/>
<feOffset dy="4"/>
<feGaussianBlur stdDeviation="2"/>
<feColorMatrix type="matrix" values="0 0 0 0 0 0 0 0 0 0 0 0 0 0 0 0 0 0 0.25 0"/>
<feBlend mode="normal" in2="BackgroundImageFix" result="effect1_dropShadow"/>
<feBlend mode="normal" in="SourceGraphic" in2="effect1_dropShadow" result="shape"/>
</filter>
</defs>
</svg>
