<svg width="21" height="21" viewBox="0 0 21 21" fill="none" xmlns="http://www.w3.org/2000/svg">
<path d="M17.9246 3.07539C15.9415 1.09221 13.3046 0 10.5 0C7.69535 0 5.05854 1.09221 3.07539 3.07539C1.09216 5.05854 0 7.69535 0 10.5C0 13.3046 1.09216 15.9415 3.07539 17.9246C5.05854 19.9078 7.69535 21 10.5 21C13.3046 21 15.9415 19.9078 17.9246 17.9246C19.9078 15.9415 21 13.3046 21 10.5C21 7.69535 19.9078 5.05854 17.9246 3.07539ZM10.5 19.75C5.39954 19.75 1.24999 15.6005 1.24999 10.5C1.24999 5.39954 5.39954 1.24999 10.5 1.24999C15.6005 1.24999 19.75 5.39954 19.75 10.5C19.75 15.6005 15.6005 19.75 10.5 19.75Z" fill="#2C8EEA"/>
<path d="M8.22738 7.72722C7.20392 6.70368 5.53856 6.70376 4.51509 7.72722C4.27101 7.97127 4.27101 8.36703 4.51509 8.61111C4.75922 8.85515 5.15498 8.85515 5.39902 8.61111C5.93518 8.07499 6.8075 8.07504 7.34357 8.61111C7.46564 8.73317 7.62556 8.7942 7.78548 8.7942C7.9454 8.7942 8.1054 8.73317 8.22738 8.61111C8.47146 8.36703 8.47146 7.97131 8.22738 7.72722Z" fill="#2C8EEA"/>
<path d="M16.4832 7.72722C15.4598 6.70376 13.7944 6.70368 12.771 7.72722C12.5269 7.97127 12.5269 8.36703 12.771 8.61111C13.0151 8.85515 13.4108 8.85515 13.6549 8.61111C14.191 8.07499 15.0633 8.07495 15.5994 8.61111C15.7215 8.73317 15.8814 8.7942 16.0413 8.7942C16.2013 8.7942 16.3613 8.73317 16.4832 8.61111C16.7273 8.36703 16.7273 7.97131 16.4832 7.72722Z" fill="#2C8EEA"/>
<path d="M16.0423 10.9584H4.95898C4.61379 10.9584 4.33398 11.2382 4.33398 11.5834C4.33398 14.9836 7.10037 17.75 10.5006 17.75C13.9009 17.75 16.6673 14.9836 16.6673 11.5834C16.6673 11.2382 16.3875 10.9584 16.0423 10.9584ZM10.5006 16.5C8.00123 16.5 5.93142 14.6255 5.62352 12.2084H15.3778C15.0699 14.6255 13.0001 16.5 10.5006 16.5Z" fill="#2C8EEA"/>
</svg>
