<svg width="13" height="13" viewBox="0 0 13 13" fill="none" xmlns="http://www.w3.org/2000/svg">
<g clip-path="url(#clip0)">
<path d="M6.49999 3.41565L1.8636 7.23787C1.8636 7.24326 1.86225 7.2512 1.85954 7.26202C1.85688 7.27275 1.85547 7.28054 1.85547 7.28608V11.1565C1.85547 11.2962 1.90656 11.4173 2.00871 11.5193C2.11084 11.6214 2.23177 11.6727 2.37155 11.6727H5.46778V8.57629H7.53223V11.6728H10.6284C10.7682 11.6728 10.8893 11.6216 10.9913 11.5193C11.0934 11.4174 11.1447 11.2963 11.1447 11.1565V7.28608C11.1447 7.26461 11.1417 7.2484 11.1365 7.23787L6.49999 3.41565Z" fill="#C2C3C6"/>
<path d="M12.9103 6.367L11.1445 4.89946V1.60956C11.1445 1.53435 11.1204 1.47249 11.0718 1.42409C11.0237 1.37573 10.9619 1.35156 10.8865 1.35156H9.33834C9.26304 1.35156 9.20122 1.37573 9.15278 1.42409C9.10446 1.47249 9.08031 1.53437 9.08031 1.60956V3.18191L7.11288 1.53692C6.94105 1.39714 6.73675 1.32727 6.50019 1.32727C6.26365 1.32727 6.05938 1.39714 5.88738 1.53692L0.0896012 6.367C0.0358556 6.40993 0.00639857 6.46771 0.000919507 6.5403C-0.00453131 6.61283 0.01425 6.67617 0.0573199 6.72989L0.557242 7.3266C0.600312 7.37495 0.656684 7.40452 0.726584 7.41534C0.791118 7.42076 0.855653 7.4019 0.920187 7.35891L6.50002 2.70616L12.0799 7.35888C12.123 7.39639 12.1793 7.41511 12.2492 7.41511H12.2735C12.3433 7.4045 12.3995 7.37473 12.4428 7.32649L12.9428 6.72986C12.9858 6.67603 13.0046 6.6128 12.999 6.54018C12.9935 6.4678 12.964 6.41001 12.9103 6.367Z" fill="#C2C3C6"/>
</g>
<defs>
<clipPath id="clip0">
<rect width="13" height="13" fill="white"/>
</clipPath>
</defs>
</svg>
