<svg width="20" height="20" viewBox="0 0 20 20" fill="none" xmlns="http://www.w3.org/2000/svg">
<path d="M9.99935 1.66663C5.39935 1.66663 1.66602 5.39996 1.66602 9.99996C1.66602 14.6 5.39935 18.3333 9.99935 18.3333H14.166V16.6666H9.99935C6.38268 16.6666 3.33268 13.6166 3.33268 9.99996C3.33268 6.38329 6.38268 3.33329 9.99935 3.33329C13.616 3.33329 16.666 6.38329 16.666 9.99996V11.1916C16.666 11.85 16.0743 12.5 15.416 12.5C14.7577 12.5 14.166 11.85 14.166 11.1916V9.99996C14.166 7.69996 12.2993 5.83329 9.99935 5.83329C7.69935 5.83329 5.83268 7.69996 5.83268 9.99996C5.83268 12.3 7.69935 14.1666 9.99935 14.1666C11.1493 14.1666 12.1993 13.7 12.9493 12.9416C13.491 13.6833 14.4243 14.1666 15.416 14.1666C17.0577 14.1666 18.3327 12.8333 18.3327 11.1916V9.99996C18.3327 5.39996 14.5993 1.66663 9.99935 1.66663ZM9.99935 12.5C8.61602 12.5 7.49935 11.3833 7.49935 9.99996C7.49935 8.61663 8.61602 7.49996 9.99935 7.49996C11.3827 7.49996 12.4993 8.61663 12.4993 9.99996C12.4993 11.3833 11.3827 12.5 9.99935 12.5Z" fill="#2C8EEA"/>
</svg>
