<svg width="19" height="19" viewBox="0 0 19 19" fill="none" xmlns="http://www.w3.org/2000/svg">
<path d="M5.14829 5.08398H4.91004L4.46484 7.31055H5.59349L5.14829 5.08398Z" fill="#C2C3C6"/>
<path d="M14.1523 9.53711C14.3927 10.1828 14.7124 10.7054 15.0662 11.1501C15.42 10.7054 15.7768 10.1827 16.0172 9.53711H14.1523Z" fill="#C2C3C6"/>
<path d="M17.3309 3.37695H10.418L11.8594 14.9432C11.8849 15.4162 11.7556 15.8616 11.4468 16.2103L9.00586 19H17.3309C18.2517 19 19.0008 18.2509 19.0008 17.3301V5.08398C19.0008 4.16315 18.2517 3.37695 17.3309 3.37695ZM17.3309 9.53711H17.1822C16.8655 10.5533 16.3632 11.3484 15.8412 11.9753C16.2501 12.3491 16.6874 12.6558 17.1221 12.9993C17.3618 13.1912 17.401 13.5412 17.2086 13.7815C17.017 14.0214 16.6656 14.0603 16.4263 13.8679C15.954 13.4951 15.5106 13.183 15.0672 12.7761C14.6238 13.183 14.2175 13.4951 13.7452 13.8679C13.5059 14.0603 13.1545 14.0214 12.9629 13.7815C12.7705 13.5412 12.8096 13.1912 13.0494 12.9993C13.4841 12.6558 13.8843 12.3491 14.2932 11.9753C13.7712 11.3485 13.306 10.5533 12.9893 9.53711H12.8406C12.533 9.53711 12.284 9.28814 12.284 8.98047C12.284 8.67279 12.533 8.42383 12.8406 8.42383H14.5106V7.86719C14.5106 7.55951 14.7595 7.31055 15.0672 7.31055C15.3749 7.31055 15.6238 7.55951 15.6238 7.86719V8.42383H17.3309C17.6385 8.42383 17.8875 8.67279 17.8875 8.98047C17.8875 9.28814 17.6385 9.53711 17.3309 9.53711Z" fill="#C2C3C6"/>
<path d="M9.06077 1.46281C8.95694 0.62893 8.24429 0 7.40391 0H1.66992C0.74909 0 0 0.74909 0 1.66992V13.9902C0 14.9111 0.74909 15.6602 1.66992 15.6602C4.99752 15.6602 7.39133 15.6602 10.4482 15.6602C10.6106 15.4745 10.7467 15.3583 10.7524 15.116C10.7539 15.0553 9.06831 1.52308 9.06077 1.46281ZM6.82605 10.6395C6.53088 10.7003 6.23189 10.5086 6.17103 10.203L5.81526 8.42383H4.24142L3.88565 10.203C3.82587 10.5041 3.53556 10.702 3.23063 10.6395C2.92949 10.5792 2.73377 10.2862 2.79411 9.9845L3.90736 4.41809C3.95953 4.15825 4.18787 3.9707 4.45312 3.9707H5.60352C5.86877 3.9707 6.09711 4.15825 6.14928 4.41809L7.26256 9.9845C7.3229 10.2862 7.12723 10.5792 6.82605 10.6395Z" fill="#C2C3C6"/>
<path d="M6.50391 16.7734L6.59943 17.5372C6.66311 18.0487 7.00295 18.5702 7.56197 18.8307C8.61691 17.6694 7.97867 18.3719 9.43076 16.7734H6.50391Z" fill="#C2C3C6"/>
</svg>
