<svg width="16" height="16" viewBox="0 0 16 16" fill="none" xmlns="http://www.w3.org/2000/svg">
<path d="M2.33301 2.50001C2.33301 2.45581 2.35057 2.41342 2.38182 2.38216C2.41308 2.3509 2.45547 2.33334 2.49967 2.33334H11.4997C11.5439 2.33334 11.5863 2.3509 11.6175 2.38216C11.6488 2.41342 11.6663 2.45581 11.6663 2.50001V9.16668C11.6663 9.29929 11.719 9.42646 11.8128 9.52023C11.9066 9.614 12.0337 9.66668 12.1663 9.66668C12.2989 9.66668 12.4261 9.614 12.5199 9.52023C12.6137 9.42646 12.6663 9.29929 12.6663 9.16668V2.50001C12.6663 2.19059 12.5434 1.89384 12.3246 1.67505C12.1058 1.45626 11.8091 1.33334 11.4997 1.33334H2.49967C2.19026 1.33334 1.89351 1.45626 1.67472 1.67505C1.45592 1.89384 1.33301 2.19059 1.33301 2.50001V13.5C1.33301 14.144 1.85567 14.6667 2.49967 14.6667H7.16634C7.29895 14.6667 7.42613 14.614 7.51989 14.5202C7.61366 14.4265 7.66634 14.2993 7.66634 14.1667C7.66634 14.0341 7.61366 13.9069 7.51989 13.8131C7.42613 13.7194 7.29895 13.6667 7.16634 13.6667H2.49967C2.45547 13.6667 2.41308 13.6491 2.38182 13.6179C2.35057 13.5866 2.33301 13.5442 2.33301 13.5V2.50001Z" fill="#BDBDBD"/>
<path d="M4.16699 4.66666C4.03438 4.66666 3.90721 4.71933 3.81344 4.8131C3.71967 4.90687 3.66699 5.03405 3.66699 5.16666C3.66699 5.29926 3.71967 5.42644 3.81344 5.52021C3.90721 5.61398 4.03438 5.66666 4.16699 5.66666H9.83366C9.96627 5.66666 10.0934 5.61398 10.1872 5.52021C10.281 5.42644 10.3337 5.29926 10.3337 5.16666C10.3337 5.03405 10.281 4.90687 10.1872 4.8131C10.0934 4.71933 9.96627 4.66666 9.83366 4.66666H4.16699ZM3.66699 7.83332C3.66699 7.70071 3.71967 7.57354 3.81344 7.47977C3.90721 7.386 4.03438 7.33332 4.16699 7.33332H7.16699C7.2996 7.33332 7.42678 7.386 7.52054 7.47977C7.61431 7.57354 7.66699 7.70071 7.66699 7.83332C7.66699 7.96593 7.61431 8.09311 7.52054 8.18688C7.42678 8.28064 7.2996 8.33332 7.16699 8.33332H4.16699C4.03438 8.33332 3.90721 8.28064 3.81344 8.18688C3.71967 8.09311 3.66699 7.96593 3.66699 7.83332V7.83332ZM14.5203 10.8533C14.5694 10.8075 14.6089 10.7523 14.6362 10.691C14.6635 10.6297 14.6782 10.5635 14.6794 10.4963C14.6806 10.4292 14.6682 10.3625 14.6431 10.3003C14.6179 10.238 14.5805 10.1814 14.533 10.134C14.4855 10.0865 14.429 10.0491 14.3667 10.0239C14.3045 9.99876 14.2378 9.98641 14.1706 9.98759C14.1035 9.98878 14.0373 10.0035 13.976 10.0308C13.9146 10.0581 13.8594 10.0975 13.8137 10.1467L10.5003 13.46L9.18699 12.1467C9.14122 12.0975 9.08602 12.0581 9.02468 12.0308C8.96335 12.0035 8.89714 11.9888 8.83001 11.9876C8.76287 11.9864 8.69619 11.9988 8.63393 12.0239C8.57167 12.0491 8.51511 12.0865 8.46763 12.134C8.42015 12.1814 8.38272 12.238 8.35758 12.3003C8.33243 12.3625 8.32008 12.4292 8.32126 12.4963C8.32245 12.5635 8.33714 12.6297 8.36447 12.691C8.3918 12.7523 8.4312 12.8075 8.48032 12.8533L10.147 14.52C10.2407 14.6136 10.3678 14.6662 10.5003 14.6662C10.6328 14.6662 10.7599 14.6136 10.8537 14.52L14.5203 10.8533Z" fill="#BDBDBD"/>
</svg>
