<svg width="20" height="20" viewBox="0 0 20 20" fill="none" xmlns="http://www.w3.org/2000/svg">
<path fill-rule="evenodd" clip-rule="evenodd" d="M3.3335 4.44446H16.2502C16.5877 4.44446 16.8613 4.5937 16.8613 4.77779C16.8613 4.96189 16.5877 5.11112 16.2502 5.11112H3.3335V4.44446ZM12.5557 8.11112C12.5557 8.02272 12.4913 7.93793 12.3767 7.87542C12.2621 7.81291 12.1067 7.77779 11.9446 7.77779H3.3335V8.44446H11.9446C12.1067 8.44446 12.2621 8.40934 12.3767 8.34683C12.4913 8.28431 12.5557 8.19953 12.5557 8.11112ZM3.3335 11.1111H15.5557C15.8932 11.1111 16.1668 11.2604 16.1668 11.4445C16.1668 11.6286 15.8932 11.7778 15.5557 11.7778H3.3335V11.1111ZM3.3335 14.4445H11.2502C11.5877 14.4445 11.8613 14.5937 11.8613 14.7778C11.8613 14.9619 11.5877 15.1111 11.2502 15.1111H3.3335V14.4445Z" fill="#2C8EEA"/>
</svg>
