<svg width="22" height="13" viewBox="0 0 22 13" fill="none" xmlns="http://www.w3.org/2000/svg">
<path fill-rule="evenodd" clip-rule="evenodd" d="M7.06493 0.269214C7.15027 0.354336 7.21797 0.455457 7.26417 0.566786C7.31036 0.678114 7.33414 0.797463 7.33414 0.917996C7.33414 1.03853 7.31036 1.15788 7.26417 1.26921C7.21797 1.38054 7.15027 1.48166 7.06493 1.56678L2.21373 6.41615L7.06493 11.2655C7.15013 11.3507 7.21771 11.4519 7.26382 11.5632C7.30993 11.6745 7.33366 11.7938 7.33366 11.9143C7.33366 12.0348 7.30993 12.1541 7.26382 12.2654C7.21771 12.3767 7.15013 12.4779 7.06493 12.5631C6.97973 12.6483 6.87858 12.7159 6.76727 12.762C6.65595 12.8081 6.53664 12.8318 6.41615 12.8318C6.29566 12.8318 6.17635 12.8081 6.06503 12.762C5.95371 12.7159 5.85256 12.6483 5.76736 12.5631L0.269215 7.06493C0.183877 6.97981 0.116172 6.87868 0.0699755 6.76736C0.0237792 6.65603 0 6.53668 0 6.41615C0 6.29561 0.0237792 6.17626 0.0699755 6.06494C0.116172 5.95361 0.183877 5.85249 0.269215 5.76736L5.76736 0.269214C5.85249 0.183877 5.95361 0.116171 6.06494 0.0699746C6.17626 0.0237784 6.29561 0 6.41615 0C6.53668 0 6.65603 0.0237784 6.76736 0.0699746C6.87869 0.116171 6.97981 0.183877 7.06493 0.269214Z" fill="#A7B3C3"/>
<path fill-rule="evenodd" clip-rule="evenodd" d="M0.923828 6.41636C0.923828 6.17332 1.02037 5.94025 1.19222 5.7684C1.36407 5.59654 1.59715 5.5 1.84019 5.5H21.0837C21.3267 5.5 21.5598 5.59654 21.7317 5.7684C21.9035 5.94025 22.0001 6.17332 22.0001 6.41636C22.0001 6.65939 21.9035 6.89247 21.7317 7.06432C21.5598 7.23617 21.3267 7.33272 21.0837 7.33272H1.84019C1.59715 7.33272 1.36407 7.23617 1.19222 7.06432C1.02037 6.89247 0.923828 6.65939 0.923828 6.41636Z" fill="#A7B3C3"/>
</svg>
