<svg width="23" height="23" viewBox="0 0 23 23" fill="none" xmlns="http://www.w3.org/2000/svg">
<g opacity="0.5">
<path fill-rule="evenodd" clip-rule="evenodd" d="M15.9277 16.3237C16.5276 15.6943 17.3582 15.3367 18.2277 15.3334H18.2341C19.9983 15.3334 21.4285 16.7636 21.4285 18.5278C21.4285 20.2921 19.9983 21.7223 18.2341 21.7223C16.4698 21.7223 15.0396 20.2921 15.0396 18.5278C15.0404 18.1548 15.1075 17.7849 15.2377 17.4353L7.53266 13.5573C6.67787 14.6027 5.25807 14.9977 3.98621 14.5439C2.71436 14.0901 1.86523 12.8856 1.86523 11.5352C1.86523 10.1848 2.71436 8.9803 3.98621 8.52651C5.25807 8.07273 6.67787 8.4677 7.53266 9.51311L15.2568 5.58394C14.6576 4.01259 15.3475 2.24292 16.8521 1.49174C18.3568 0.740554 20.1858 1.25266 21.0816 2.67593C21.9775 4.0992 21.6481 5.96982 20.3201 7.00156C18.992 8.0333 17.0981 7.88994 15.9404 6.67005L8.13961 10.6376C8.33119 11.2185 8.33119 11.8455 8.13961 12.4264L15.9277 16.3237ZM20.1445 4.47227C20.1445 3.41373 19.2864 2.55561 18.2278 2.55561C17.1693 2.55561 16.3112 3.41373 16.3112 4.47227C16.3112 5.53082 17.1693 6.38894 18.2278 6.38894C19.2864 6.38894 20.1445 5.53082 20.1445 4.47227ZM5.11116 13.4167C4.05261 13.4167 3.19449 12.5586 3.19449 11.5C3.19449 10.4415 4.05261 9.58338 5.11116 9.58338C6.16971 9.58338 7.02783 10.4415 7.02783 11.5C7.02783 12.5586 6.16971 13.4167 5.11116 13.4167ZM16.3112 18.5278C16.3112 19.5864 17.1693 20.4445 18.2278 20.4445C19.2864 20.4445 20.1445 19.5864 20.1445 18.5278C20.1445 17.4693 19.2864 16.6112 18.2278 16.6112C17.1693 16.6112 16.3112 17.4693 16.3112 18.5278Z" fill="#737373"/>
</g>
</svg>
