<svg width="12" height="17" viewBox="0 0 12 17" fill="none" xmlns="http://www.w3.org/2000/svg">
<g opacity="0.5">
<path fill-rule="evenodd" clip-rule="evenodd" d="M2.85896 0.780649C4.62767 -0.277274 6.8017 -0.258783 8.55381 0.829085C10.2887 1.93911 11.3431 3.92018 11.3333 6.05125C11.2929 8.16835 10.1623 10.1584 8.74898 11.6968C7.93326 12.5888 7.02075 13.3775 6.03007 14.0468C5.92804 14.1075 5.81628 14.1482 5.7003 14.1668C5.58868 14.1619 5.47997 14.1279 5.38399 14.068C3.87152 13.0622 2.54463 11.7785 1.46714 10.2784C0.565529 9.02621 0.053296 7.5134 9.40458e-07 5.9454C-0.00116951 3.81024 1.09025 1.83857 2.85896 0.780649ZM3.88128 6.82914C4.1788 7.5842 4.88106 8.07671 5.66017 8.07671C6.17058 8.08048 6.66123 7.87003 7.02278 7.49223C7.38433 7.11443 7.58676 6.60069 7.58495 6.06547C7.58767 5.24851 7.12045 4.5104 6.40143 4.19578C5.68241 3.88117 4.85343 4.0521 4.30155 4.62877C3.74967 5.20544 3.58376 6.07409 3.88128 6.82914Z" fill="#2C8EEA"/>
<path opacity="0.4" d="M5.66507 16.9999C8.0123 16.9999 9.91511 16.6828 9.91511 16.2916C9.91511 15.9004 8.0123 15.5833 5.66507 15.5833C3.31784 15.5833 1.41504 15.9004 1.41504 16.2916C1.41504 16.6828 3.31784 16.9999 5.66507 16.9999Z" fill="#2C8EEA"/>
</g>
</svg>
