<svg width="18" height="18" viewBox="0 0 18 18" fill="none" xmlns="http://www.w3.org/2000/svg">
<circle cx="9" cy="9" r="9" fill="#F2F2F2"/>
<path d="M13.9369 6.59734C13.6467 4.88867 12.0793 3.74649 10.4357 4.04839C8.79153 4.34972 7.4035 5.66466 7.69369 7.37449C7.75541 7.74239 7.92906 8.31807 8.13386 8.7319L5.14839 13.1646C5.0382 13.3282 4.9759 13.6232 5.00878 13.8195L5.20089 14.9507C5.20778 14.9966 5.22372 15.0406 5.24779 15.0802C5.27185 15.1199 5.30356 15.1544 5.3411 15.1819C5.37863 15.2093 5.42125 15.2291 5.46649 15.24C5.51174 15.251 5.55871 15.2529 5.60472 15.2458L6.47931 15.0845C6.66853 15.0506 6.90852 14.8847 7.01236 14.7177L8.19328 12.8173L8.20367 12.8047L9.00325 12.6578L10.3821 10.4314C10.8349 10.5112 11.4851 10.4842 11.8693 10.4136C13.5123 10.1117 14.2271 8.30717 13.9369 6.59734ZM12.4802 7.47378C12.028 8.14531 11.5664 7.67237 10.9209 7.20115C10.2753 6.73165 9.68919 6.44238 10.1409 5.77084C10.5932 5.09931 11.4828 4.93573 12.1295 5.40638C12.7756 5.87645 12.932 6.80225 12.4802 7.47378Z" fill="#929DAE"/>
</svg>
