<svg width="19" height="19" viewBox="0 0 19 19" fill="none" xmlns="http://www.w3.org/2000/svg">
<g clip-path="url(#clip0)">
<path d="M18.7678 17.6491L13.3648 12.246C14.4114 10.9532 15.0415 9.31052 15.0415 7.52138C15.0415 3.37467 11.6674 0.000610352 7.52074 0.000610352C3.37403 0.000610352 0 3.37464 0 7.52135C0 11.6681 3.37406 15.0421 7.52077 15.0421C9.30991 15.0421 10.9526 14.412 12.2454 13.3654L17.6485 18.7685C17.8028 18.9228 18.0055 19.0004 18.2082 19.0004C18.4109 19.0004 18.6135 18.9228 18.7679 18.7685C19.0774 18.4589 19.0774 17.9586 18.7678 17.6491ZM7.52077 13.4588C4.24646 13.4588 1.58333 10.7957 1.58333 7.52135C1.58333 4.24703 4.24646 1.5839 7.52077 1.5839C10.7951 1.5839 13.4582 4.24703 13.4582 7.52135C13.4582 10.7957 10.795 13.4588 7.52077 13.4588Z" fill="white"/>
</g>
<defs>
<clipPath id="clip0">
<rect width="19" height="19" fill="white"/>
</clipPath>
</defs>
</svg>
