<svg width="65" height="116" viewBox="0 0 65 116" fill="none" xmlns="http://www.w3.org/2000/svg">
<rect width="65" height="77" fill="url(#paint0_linear)"/>
<path d="M25 77H65V116L51 103L25 77Z" fill="url(#paint1_linear)"/>
<g opacity="0.6">
<path fill-rule="evenodd" clip-rule="evenodd" d="M39.6317 10.5487L42.4651 16.2153C42.5618 16.4094 42.6118 16.6235 42.6109 16.8403V18.9862C42.6096 19.3115 42.4941 19.6261 42.2845 19.8751C41.1161 21.1955 39.1125 21.355 37.7498 20.2362C36.5386 21.2298 34.7943 21.2298 33.5831 20.2362C32.3719 21.2298 30.6276 21.2298 29.4165 20.2362C28.2053 21.2298 26.461 21.2298 25.2498 20.2362C24.6624 20.7178 23.926 20.9804 23.1665 20.9792C22.2245 20.9834 21.3273 20.5779 20.7081 19.8681C20.5011 19.6182 20.388 19.3037 20.3887 18.9792V16.8403C20.3878 16.6235 20.4378 16.4094 20.5345 16.2153L23.3678 10.5487C23.6024 10.0767 24.0839 9.77811 24.6109 9.77783H38.3887C38.9157 9.77811 39.3972 10.0767 39.6317 10.5487ZM29.4165 18.0556V17.0001L30.1109 11.1667H27.0484L25.2498 17.0001V18.0278L25.8123 18.8056C26.1668 19.2888 26.7303 19.5743 27.3297 19.5743C27.929 19.5743 28.4925 19.2888 28.847 18.8056L29.4165 18.0556ZM37.7498 18.0278L37.1873 18.8056C36.8328 19.2888 36.2693 19.5743 35.6699 19.5743C35.0706 19.5743 34.5071 19.2888 34.1526 18.8056L33.5831 18.0278V17.0001L32.8887 11.1667H35.979L37.7498 17.0001V18.0278ZM30.1109 27.8334H38.4442V22.2778H39.8331V27.8334C39.8331 28.6004 39.2113 29.2223 38.4442 29.2223H24.5554C23.7883 29.2223 23.1665 28.6004 23.1665 27.8334V22.2778H24.5554V27.8334H28.722V22.2778H30.1109V27.8334Z" fill="white"/>
</g>
<path opacity="0.6" d="M16.24 40.37C16.24 39.8567 16.1367 39.45 15.93 39.15C15.73 38.85 15.41 38.7 14.97 38.7C14.77 38.7 14.58 38.73 14.4 38.79C14.2267 38.85 14.0867 38.9167 13.98 38.99V42C14.0667 42.02 14.1767 42.04 14.31 42.06C14.45 42.0733 14.6167 42.08 14.81 42.08C15.2567 42.08 15.6067 41.93 15.86 41.63C16.1133 41.3233 16.24 40.9033 16.24 40.37ZM17.48 40.39C17.48 40.81 17.4167 41.19 17.29 41.53C17.17 41.8633 16.9933 42.15 16.76 42.39C16.5333 42.63 16.2567 42.8133 15.93 42.94C15.6033 43.0667 15.2333 43.13 14.82 43.13C14.42 43.13 14.0367 43.1 13.67 43.04C13.31 42.98 13.01 42.9133 12.77 42.84V35.44L13.98 35.24V37.95C14.12 37.8767 14.29 37.81 14.49 37.75C14.6967 37.69 14.9233 37.66 15.17 37.66C15.5367 37.66 15.8633 37.7267 16.15 37.86C16.4433 37.9867 16.6867 38.17 16.88 38.41C17.0733 38.65 17.22 38.94 17.32 39.28C17.4267 39.6133 17.48 39.9833 17.48 40.39ZM23.457 40.38C23.457 40.7933 23.397 41.17 23.277 41.51C23.157 41.85 22.987 42.14 22.767 42.38C22.547 42.62 22.2804 42.8067 21.967 42.94C21.6604 43.0733 21.3204 43.14 20.947 43.14C20.5737 43.14 20.2337 43.0733 19.927 42.94C19.6204 42.8067 19.357 42.62 19.137 42.38C18.917 42.14 18.7437 41.85 18.617 41.51C18.497 41.17 18.437 40.7933 18.437 40.38C18.437 39.9667 18.497 39.5933 18.617 39.26C18.7437 38.92 18.917 38.63 19.137 38.39C19.3637 38.15 19.6304 37.9667 19.937 37.84C20.2437 37.7067 20.5804 37.64 20.947 37.64C21.3137 37.64 21.6504 37.7067 21.957 37.84C22.2704 37.9667 22.537 38.15 22.757 38.39C22.977 38.63 23.147 38.92 23.267 39.26C23.3937 39.5933 23.457 39.9667 23.457 40.38ZM22.217 40.38C22.217 39.86 22.1037 39.45 21.877 39.15C21.657 38.8433 21.347 38.69 20.947 38.69C20.547 38.69 20.2337 38.8433 20.007 39.15C19.787 39.45 19.677 39.86 19.677 40.38C19.677 40.9067 19.787 41.3233 20.007 41.63C20.2337 41.9367 20.547 42.09 20.947 42.09C21.347 42.09 21.657 41.9367 21.877 41.63C22.1037 41.3233 22.217 40.9067 22.217 40.38ZM28.9936 42.84C28.7603 42.9 28.4569 42.96 28.0836 43.02C27.7103 43.0867 27.3003 43.12 26.8536 43.12C26.4336 43.12 26.0803 43.06 25.7936 42.94C25.5136 42.82 25.2869 42.6533 25.1136 42.44C24.9469 42.2267 24.8269 41.9733 24.7536 41.68C24.6803 41.38 24.6436 41.0533 24.6436 40.7V37.77H25.8536V40.51C25.8536 41.07 25.9336 41.47 26.0936 41.71C26.2603 41.95 26.5469 42.07 26.9536 42.07C27.1003 42.07 27.2536 42.0633 27.4136 42.05C27.5803 42.0367 27.7036 42.02 27.7836 42V37.77H28.9936V42.84ZM30.4737 36.39L31.6837 36.19V37.77H33.5437V38.78H31.6837V40.91C31.6837 41.33 31.7503 41.63 31.8837 41.81C32.017 41.99 32.2437 42.08 32.5637 42.08C32.7837 42.08 32.977 42.0567 33.1437 42.01C33.317 41.9633 33.4537 41.92 33.5537 41.88L33.7537 42.84C33.6137 42.9 33.4303 42.96 33.2037 43.02C32.977 43.0867 32.7103 43.12 32.4037 43.12C32.0303 43.12 31.717 43.07 31.4637 42.97C31.217 42.87 31.0203 42.7267 30.8737 42.54C30.727 42.3467 30.6237 42.1167 30.5637 41.85C30.5037 41.5767 30.4737 41.2667 30.4737 40.92V36.39ZM35.9334 43H34.7234V37.77H35.9334V43ZM36.0634 36.24C36.0634 36.4667 35.99 36.6467 35.8434 36.78C35.6967 36.9133 35.5234 36.98 35.3234 36.98C35.1167 36.98 34.94 36.9133 34.7934 36.78C34.6467 36.6467 34.5734 36.4667 34.5734 36.24C34.5734 36.0067 34.6467 35.8233 34.7934 35.69C34.94 35.5567 35.1167 35.49 35.3234 35.49C35.5234 35.49 35.6967 35.5567 35.8434 35.69C35.99 35.8233 36.0634 36.0067 36.0634 36.24ZM38.427 40.41C38.427 40.9167 38.527 41.32 38.727 41.62C38.9337 41.92 39.257 42.07 39.697 42.07C39.897 42.07 40.0837 42.04 40.257 41.98C40.437 41.9133 40.5804 41.8433 40.687 41.77V38.78C40.6004 38.76 40.4904 38.7433 40.357 38.73C40.2304 38.71 40.0637 38.7 39.857 38.7C39.4104 38.7 39.0604 38.8533 38.807 39.16C38.5537 39.46 38.427 39.8767 38.427 40.41ZM37.187 40.39C37.187 39.9767 37.247 39.6033 37.367 39.27C37.4937 38.93 37.6704 38.6433 37.897 38.41C38.1304 38.17 38.4104 37.9867 38.737 37.86C39.0637 37.7267 39.4337 37.66 39.847 37.66C40.2604 37.66 40.647 37.69 41.007 37.75C41.367 37.81 41.6637 37.8733 41.897 37.94V44.85H40.687V42.82C40.547 42.8933 40.3737 42.96 40.167 43.02C39.967 43.08 39.7437 43.11 39.497 43.11C39.1237 43.11 38.7937 43.0467 38.507 42.92C38.2204 42.7867 37.9804 42.6 37.787 42.36C37.5937 42.12 37.4437 41.8333 37.337 41.5C37.237 41.1667 37.187 40.7967 37.187 40.39ZM47.7241 42.84C47.4907 42.9 47.1874 42.96 46.8141 43.02C46.4407 43.0867 46.0307 43.12 45.5841 43.12C45.1641 43.12 44.8107 43.06 44.5241 42.94C44.2441 42.82 44.0174 42.6533 43.8441 42.44C43.6774 42.2267 43.5574 41.9733 43.4841 41.68C43.4107 41.38 43.3741 41.0533 43.3741 40.7V37.77H44.5841V40.51C44.5841 41.07 44.6641 41.47 44.8241 41.71C44.9907 41.95 45.2774 42.07 45.6841 42.07C45.8307 42.07 45.9841 42.0633 46.1441 42.05C46.3107 42.0367 46.4341 42.02 46.5141 42V37.77H47.7241V42.84ZM48.9741 40.41C48.9741 39.95 49.0408 39.5467 49.1741 39.2C49.3141 38.8533 49.4975 38.5667 49.7241 38.34C49.9508 38.1067 50.2108 37.9333 50.5041 37.82C50.7975 37.7 51.0975 37.64 51.4041 37.64C52.1241 37.64 52.6841 37.8633 53.0841 38.31C53.4908 38.7567 53.6941 39.4233 53.6941 40.31C53.6941 40.3767 53.6908 40.4533 53.6841 40.54C53.6841 40.62 53.6808 40.6933 53.6741 40.76H50.2241C50.2575 41.18 50.4041 41.5067 50.6641 41.74C50.9308 41.9667 51.3141 42.08 51.8141 42.08C52.1075 42.08 52.3741 42.0533 52.6141 42C52.8608 41.9467 53.0541 41.89 53.1941 41.83L53.3541 42.82C53.2875 42.8533 53.1941 42.89 53.0741 42.93C52.9608 42.9633 52.8275 42.9933 52.6741 43.02C52.5275 43.0533 52.3675 43.08 52.1941 43.1C52.0208 43.12 51.8441 43.13 51.6641 43.13C51.2041 43.13 50.8041 43.0633 50.4641 42.93C50.1241 42.79 49.8441 42.6 49.6241 42.36C49.4041 42.1133 49.2408 41.8267 49.1341 41.5C49.0275 41.1667 48.9741 40.8033 48.9741 40.41ZM52.4841 39.87C52.4841 39.7033 52.4608 39.5467 52.4141 39.4C52.3675 39.2467 52.2975 39.1167 52.2041 39.01C52.1175 38.8967 52.0075 38.81 51.8741 38.75C51.7475 38.6833 51.5941 38.65 51.4141 38.65C51.2275 38.65 51.0641 38.6867 50.9241 38.76C50.7841 38.8267 50.6641 38.9167 50.5641 39.03C50.4708 39.1433 50.3975 39.2733 50.3441 39.42C50.2908 39.5667 50.2541 39.7167 50.2341 39.87H52.4841Z" fill="white"/>
<rect x="11" y="49" width="43" height="15" rx="7.5" fill="#2C8EEA"/>
<path opacity="0.8" d="M24.74 56.74C24.5933 56.74 24.4367 56.7533 24.27 56.78C24.1033 56.8067 23.9733 56.8433 23.88 56.89C23.88 56.9167 23.8767 56.9567 23.87 57.01C23.87 57.0633 23.87 57.11 23.87 57.15C23.87 57.39 23.8867 57.6167 23.92 57.83C23.9533 58.0433 24.01 58.23 24.09 58.39C24.17 58.55 24.2767 58.6767 24.41 58.77C24.5433 58.8567 24.71 58.9 24.91 58.9C25.0767 58.9 25.2167 58.8667 25.33 58.8C25.45 58.7267 25.5467 58.6367 25.62 58.53C25.7 58.4233 25.7567 58.3067 25.79 58.18C25.83 58.0467 25.85 57.92 25.85 57.8C25.85 57.46 25.7633 57.2 25.59 57.02C25.4233 56.8333 25.14 56.74 24.74 56.74ZM24.93 55.58C25.3633 55.58 25.73 55.64 26.03 55.76C26.3367 55.8733 26.5867 56.03 26.78 56.23C26.9733 56.43 27.1133 56.6633 27.2 56.93C27.2867 57.1967 27.33 57.48 27.33 57.78C27.33 58.0467 27.28 58.32 27.18 58.6C27.0867 58.88 26.94 59.1333 26.74 59.36C26.5467 59.5867 26.2967 59.7733 25.99 59.92C25.69 60.0667 25.3333 60.14 24.92 60.14C24.0867 60.14 23.4533 59.8767 23.02 59.35C22.5867 58.8233 22.37 58.0967 22.37 57.17C22.37 56.5033 22.4733 55.9133 22.68 55.4C22.8867 54.8867 23.18 54.4567 23.56 54.11C23.9467 53.7567 24.41 53.49 24.95 53.31C25.4967 53.1233 26.11 53.0267 26.79 53.02C26.8033 53.2267 26.8167 53.43 26.83 53.63C26.8433 53.8233 26.8567 54.0267 26.87 54.24C26.53 54.2467 26.21 54.28 25.91 54.34C25.6167 54.3933 25.3467 54.48 25.1 54.6C24.86 54.72 24.65 54.8767 24.47 55.07C24.29 55.2567 24.15 55.4867 24.05 55.76C24.1967 55.6933 24.3467 55.6467 24.5 55.62C24.6533 55.5933 24.7967 55.58 24.93 55.58ZM33.0236 56.52C33.0236 57.6867 32.8003 58.5833 32.3536 59.21C31.9136 59.83 31.3036 60.14 30.5236 60.14C29.7436 60.14 29.1303 59.83 28.6836 59.21C28.2436 58.5833 28.0236 57.6867 28.0236 56.52C28.0236 55.94 28.0803 55.4267 28.1936 54.98C28.3136 54.5333 28.4836 54.1567 28.7036 53.85C28.9236 53.5433 29.1869 53.31 29.4936 53.15C29.8003 52.99 30.1436 52.91 30.5236 52.91C31.3036 52.91 31.9136 53.2233 32.3536 53.85C32.8003 54.47 33.0236 55.36 33.0236 56.52ZM31.5036 56.52C31.5036 56.1733 31.4869 55.86 31.4536 55.58C31.4203 55.2933 31.3669 55.0467 31.2936 54.84C31.2203 54.6333 31.1203 54.4733 30.9936 54.36C30.8669 54.2467 30.7103 54.19 30.5236 54.19C30.3369 54.19 30.1803 54.2467 30.0536 54.36C29.9336 54.4733 29.8336 54.6333 29.7536 54.84C29.6803 55.0467 29.6269 55.2933 29.5936 55.58C29.5603 55.86 29.5436 56.1733 29.5436 56.52C29.5436 56.8667 29.5603 57.1833 29.5936 57.47C29.6269 57.7567 29.6803 58.0033 29.7536 58.21C29.8336 58.4167 29.9336 58.5767 30.0536 58.69C30.1803 58.8033 30.3369 58.86 30.5236 58.86C30.7103 58.86 30.8669 58.8033 30.9936 58.69C31.1203 58.5767 31.2203 58.4167 31.2936 58.21C31.3669 58.0033 31.4203 57.7567 31.4536 57.47C31.4869 57.1833 31.5036 56.8667 31.5036 56.52ZM36.9572 57.21C36.9572 56.73 36.8939 56.39 36.7672 56.19C36.6472 55.99 36.4372 55.89 36.1372 55.89C36.0439 55.89 35.9472 55.8967 35.8472 55.91C35.7472 55.9167 35.6505 55.9267 35.5572 55.94V60H34.0672V54.92C34.1939 54.8867 34.3405 54.8533 34.5072 54.82C34.6805 54.78 34.8605 54.7467 35.0472 54.72C35.2405 54.6867 35.4372 54.6633 35.6372 54.65C35.8372 54.63 36.0339 54.62 36.2272 54.62C36.6072 54.62 36.9139 54.67 37.1472 54.77C37.3872 54.8633 37.5839 54.9767 37.7372 55.11C37.9505 54.9567 38.1939 54.8367 38.4672 54.75C38.7472 54.6633 39.0039 54.62 39.2372 54.62C39.6572 54.62 40.0005 54.68 40.2672 54.8C40.5405 54.9133 40.7572 55.0767 40.9172 55.29C41.0772 55.5033 41.1872 55.7567 41.2472 56.05C41.3072 56.3433 41.3372 56.67 41.3372 57.03V60H39.8472V57.21C39.8472 56.73 39.7839 56.39 39.6572 56.19C39.5372 55.99 39.3272 55.89 39.0272 55.89C38.9472 55.89 38.8339 55.91 38.6872 55.95C38.5472 55.99 38.4305 56.04 38.3372 56.1C38.3839 56.2533 38.4139 56.4167 38.4272 56.59C38.4405 56.7567 38.4472 56.9367 38.4472 57.13V60H36.9572V57.21Z" fill="white"/>
<defs>
<linearGradient id="paint0_linear" x1="-8.87651e-07" y1="38.5" x2="42.1135" y2="-5.61892" gradientUnits="userSpaceOnUse">
<stop offset="0.135417" stop-color="#6FB9FF"/>
<stop offset="1" stop-color="#2C8EEA"/>
</linearGradient>
<linearGradient id="paint1_linear" x1="25" y1="96.5" x2="45.7466" y2="70.0928" gradientUnits="userSpaceOnUse">
<stop offset="0.135417" stop-color="#6FB9FF"/>
<stop offset="1" stop-color="#2C8EEA"/>
</linearGradient>
</defs>
</svg>
