<svg width="18" height="18" viewBox="0 0 18 18" fill="none" xmlns="http://www.w3.org/2000/svg">
<path d="M17.5755 3.98195C11.4683 2.76811 11.8636 2.8315 11.7253 2.85477C11.6811 2.86216 11.139 2.9711 9.8756 3.22377C9.34594 1.69644 7.89282 0.596863 6.1875 0.596863C4.48059 0.596863 3.02632 1.69852 2.49789 3.2281L0.630141 2.85695C0.304594 2.79241 0 3.04128 0 3.37421V15.7492C0 16.0008 0.177785 16.2174 0.424547 16.2664C6.48014 17.47 6.08368 17.3923 6.12383 17.3972C6.25117 17.4129 5.85763 17.478 11.8128 16.2869L17.3699 17.3914C17.6956 17.4561 18 17.2068 18 16.8742V4.49921C18 4.24759 17.8222 4.03103 17.5755 3.98195ZM6.1875 1.65155C7.75768 1.65155 9.03516 2.92899 9.03516 4.49921C9.03516 5.824 6.9153 9.18687 6.1875 10.2996C5.4605 9.1881 3.33984 5.82428 3.33984 4.49921C3.33984 2.92899 4.61732 1.65155 6.1875 1.65155ZM1.05469 4.01662L2.29254 4.2626C2.28783 4.3409 2.28516 4.41972 2.28516 4.49917C2.28516 5.37857 2.86042 6.79772 4.04385 8.83777C4.73488 10.029 5.4161 11.0517 5.66016 11.4119V16.2317L1.05469 15.3163V4.01662ZM6.71484 11.4119C6.95886 11.0517 7.64012 10.029 8.33115 8.83777C9.51458 6.79772 10.0898 5.37857 10.0898 4.49921C10.0898 4.41821 10.0871 4.33784 10.0822 4.25807L11.2852 4.01743V15.3169L6.71484 16.231V11.4119ZM16.9453 16.2317L12.3398 15.3164V4.01665L16.9453 4.93201V16.2317Z" fill="white"/>
<path d="M6.1875 6.15155C7.09861 6.15155 7.83984 5.41032 7.83984 4.49921C7.83984 3.5881 7.09861 2.84686 6.1875 2.84686C5.27639 2.84686 4.53516 3.5881 4.53516 4.49921C4.53516 5.41032 5.27639 6.15155 6.1875 6.15155ZM6.1875 3.90155C6.51705 3.90155 6.78516 4.16965 6.78516 4.49921C6.78516 4.82876 6.51705 5.09686 6.1875 5.09686C5.85795 5.09686 5.58984 4.82876 5.58984 4.49921C5.58984 4.16965 5.85795 3.90155 6.1875 3.90155Z" fill="white"/>
</svg>
