<svg width="65" height="116" viewBox="0 0 65 116" fill="none" xmlns="http://www.w3.org/2000/svg">
<rect width="65" height="77" fill="url(#paint0_linear)"/>
<path d="M25 77H65V116L51 103L25 77Z" fill="url(#paint1_linear)"/>
<path opacity="0.6" d="M12.24 40.41C12.24 39.87 12.1167 39.45 11.87 39.15C11.63 38.85 11.24 38.7 10.7 38.7C10.5867 38.7 10.4667 38.7067 10.34 38.72C10.22 38.7267 10.1 38.7467 9.98 38.78V41.77C10.0867 41.8433 10.2267 41.9133 10.4 41.98C10.58 42.04 10.77 42.07 10.97 42.07C11.41 42.07 11.73 41.92 11.93 41.62C12.1367 41.32 12.24 40.9167 12.24 40.41ZM13.48 40.39C13.48 40.79 13.4267 41.1567 13.32 41.49C13.22 41.8233 13.0733 42.11 12.88 42.35C12.6867 42.59 12.4433 42.7767 12.15 42.91C11.8633 43.0433 11.5367 43.11 11.17 43.11C10.9233 43.11 10.6967 43.08 10.49 43.02C10.2833 42.96 10.1133 42.8933 9.98 42.82V44.85H8.77V37.94C9.01667 37.8733 9.32 37.81 9.68 37.75C10.04 37.69 10.42 37.66 10.82 37.66C11.2333 37.66 11.6033 37.7233 11.93 37.85C12.2567 37.9767 12.5333 38.16 12.76 38.4C12.9933 38.6333 13.17 38.92 13.29 39.26C13.4167 39.5933 13.48 39.97 13.48 40.39ZM14.727 43V35.44L15.937 35.24V37.83C16.0704 37.7833 16.2237 37.7433 16.397 37.71C16.577 37.6767 16.7537 37.66 16.927 37.66C17.347 37.66 17.6937 37.72 17.967 37.84C18.247 37.9533 18.4704 38.1167 18.637 38.33C18.8037 38.5367 18.9204 38.7867 18.987 39.08C19.0604 39.3733 19.097 39.7 19.097 40.06V43H17.887V40.25C17.887 39.97 17.867 39.7333 17.827 39.54C17.7937 39.34 17.7337 39.18 17.647 39.06C17.567 38.9333 17.457 38.8433 17.317 38.79C17.177 38.73 17.0037 38.7 16.797 38.7C16.637 38.7 16.4737 38.7167 16.307 38.75C16.1404 38.7833 16.017 38.8133 15.937 38.84V43H14.727ZM22.3873 42.15C22.7607 42.15 23.044 42.13 23.2373 42.09V40.75C23.1707 40.73 23.074 40.71 22.9473 40.69C22.8207 40.67 22.6807 40.66 22.5273 40.66C22.394 40.66 22.2573 40.67 22.1173 40.69C21.984 40.71 21.8607 40.7467 21.7473 40.8C21.6407 40.8533 21.554 40.93 21.4873 41.03C21.4207 41.1233 21.3873 41.2433 21.3873 41.39C21.3873 41.6767 21.4773 41.8767 21.6573 41.99C21.8373 42.0967 22.0807 42.15 22.3873 42.15ZM22.2873 37.64C22.6873 37.64 23.024 37.69 23.2973 37.79C23.5707 37.89 23.7873 38.03 23.9473 38.21C24.114 38.39 24.2307 38.61 24.2973 38.87C24.3707 39.1233 24.4073 39.4033 24.4073 39.71V42.88C24.2207 42.92 23.9373 42.9667 23.5573 43.02C23.184 43.08 22.7607 43.11 22.2873 43.11C21.974 43.11 21.6873 43.08 21.4273 43.02C21.1673 42.96 20.944 42.8633 20.7573 42.73C20.5773 42.5967 20.434 42.4233 20.3273 42.21C20.2273 41.9967 20.1773 41.7333 20.1773 41.42C20.1773 41.12 20.234 40.8667 20.3473 40.66C20.4673 40.4533 20.6273 40.2867 20.8273 40.16C21.0273 40.0267 21.2573 39.9333 21.5173 39.88C21.784 39.82 22.0607 39.79 22.3473 39.79C22.4807 39.79 22.6207 39.8 22.7673 39.82C22.914 39.8333 23.0707 39.86 23.2373 39.9V39.7C23.2373 39.56 23.2207 39.4267 23.1873 39.3C23.154 39.1733 23.094 39.0633 23.0073 38.97C22.9273 38.87 22.8173 38.7933 22.6773 38.74C22.544 38.6867 22.374 38.66 22.1673 38.66C21.8873 38.66 21.6307 38.68 21.3973 38.72C21.164 38.76 20.974 38.8067 20.8273 38.86L20.6773 37.88C20.8307 37.8267 21.054 37.7733 21.3473 37.72C21.6407 37.6667 21.954 37.64 22.2873 37.64ZM28.8691 38.86C28.7691 38.8267 28.6291 38.7933 28.4491 38.76C28.2758 38.72 28.0725 38.7 27.8391 38.7C27.7058 38.7 27.5625 38.7133 27.4091 38.74C27.2625 38.7667 27.1591 38.79 27.0991 38.81V43H25.8891V38.02C26.1225 37.9333 26.4125 37.8533 26.7591 37.78C27.1125 37.7 27.5025 37.66 27.9291 37.66C28.0091 37.66 28.1025 37.6667 28.2091 37.68C28.3158 37.6867 28.4225 37.7 28.5291 37.72C28.6358 37.7333 28.7391 37.7533 28.8391 37.78C28.9391 37.8 29.0191 37.82 29.0791 37.84L28.8691 38.86ZM32.9023 40.25C32.9023 39.7033 32.8323 39.31 32.6923 39.07C32.559 38.8233 32.3057 38.7 31.9323 38.7C31.799 38.7 31.6523 38.71 31.4923 38.73C31.3323 38.75 31.2123 38.7667 31.1323 38.78V43H29.9223V37.94C30.1557 37.8733 30.459 37.81 30.8323 37.75C31.2123 37.69 31.6123 37.66 32.0323 37.66C32.3923 37.66 32.6857 37.7067 32.9123 37.8C33.1457 37.8933 33.339 38.0167 33.4923 38.17C33.5657 38.1167 33.659 38.06 33.7723 38C33.8857 37.94 34.0123 37.8867 34.1523 37.84C34.2923 37.7867 34.439 37.7433 34.5923 37.71C34.7523 37.6767 34.9123 37.66 35.0723 37.66C35.479 37.66 35.8123 37.72 36.0723 37.84C36.339 37.9533 36.5457 38.1167 36.6923 38.33C36.8457 38.5367 36.949 38.79 37.0023 39.09C37.0623 39.3833 37.0923 39.7067 37.0923 40.06V43H35.8823V40.25C35.8823 39.7033 35.8157 39.31 35.6823 39.07C35.549 38.8233 35.2923 38.7 34.9123 38.7C34.719 38.7 34.5357 38.7333 34.3623 38.8C34.189 38.86 34.059 38.92 33.9723 38.98C34.0257 39.1467 34.0623 39.3233 34.0823 39.51C34.1023 39.6967 34.1123 39.8967 34.1123 40.11V43H32.9023V40.25ZM40.4147 42.15C40.788 42.15 41.0714 42.13 41.2647 42.09V40.75C41.198 40.73 41.1014 40.71 40.9747 40.69C40.848 40.67 40.708 40.66 40.5547 40.66C40.4214 40.66 40.2847 40.67 40.1447 40.69C40.0114 40.71 39.888 40.7467 39.7747 40.8C39.668 40.8533 39.5814 40.93 39.5147 41.03C39.448 41.1233 39.4147 41.2433 39.4147 41.39C39.4147 41.6767 39.5047 41.8767 39.6847 41.99C39.8647 42.0967 40.108 42.15 40.4147 42.15ZM40.3147 37.64C40.7147 37.64 41.0514 37.69 41.3247 37.79C41.598 37.89 41.8147 38.03 41.9747 38.21C42.1414 38.39 42.258 38.61 42.3247 38.87C42.398 39.1233 42.4347 39.4033 42.4347 39.71V42.88C42.248 42.92 41.9647 42.9667 41.5847 43.02C41.2114 43.08 40.788 43.11 40.3147 43.11C40.0014 43.11 39.7147 43.08 39.4547 43.02C39.1947 42.96 38.9714 42.8633 38.7847 42.73C38.6047 42.5967 38.4614 42.4233 38.3547 42.21C38.2547 41.9967 38.2047 41.7333 38.2047 41.42C38.2047 41.12 38.2614 40.8667 38.3747 40.66C38.4947 40.4533 38.6547 40.2867 38.8547 40.16C39.0547 40.0267 39.2847 39.9333 39.5447 39.88C39.8114 39.82 40.088 39.79 40.3747 39.79C40.508 39.79 40.648 39.8 40.7947 39.82C40.9414 39.8333 41.098 39.86 41.2647 39.9V39.7C41.2647 39.56 41.248 39.4267 41.2147 39.3C41.1814 39.1733 41.1214 39.0633 41.0347 38.97C40.9547 38.87 40.8447 38.7933 40.7047 38.74C40.5714 38.6867 40.4014 38.66 40.1947 38.66C39.9147 38.66 39.658 38.68 39.4247 38.72C39.1914 38.76 39.0014 38.8067 38.8547 38.86L38.7047 37.88C38.858 37.8267 39.0814 37.7733 39.3747 37.72C39.668 37.6667 39.9814 37.64 40.3147 37.64ZM43.6265 40.39C43.6265 40.0033 43.6865 39.6433 43.8065 39.31C43.9265 38.97 44.0965 38.6767 44.3165 38.43C44.5432 38.1833 44.8165 37.99 45.1365 37.85C45.4565 37.71 45.8165 37.64 46.2165 37.64C46.7098 37.64 47.1765 37.73 47.6165 37.91L47.3565 38.9C47.2165 38.84 47.0565 38.79 46.8765 38.75C46.7032 38.71 46.5165 38.69 46.3165 38.69C45.8432 38.69 45.4832 38.84 45.2365 39.14C44.9898 39.4333 44.8665 39.85 44.8665 40.39C44.8665 40.91 44.9832 41.3233 45.2165 41.63C45.4498 41.93 45.8432 42.08 46.3965 42.08C46.6032 42.08 46.8065 42.06 47.0065 42.02C47.2065 41.98 47.3798 41.93 47.5265 41.87L47.6965 42.87C47.5632 42.9367 47.3598 42.9967 47.0865 43.05C46.8198 43.1033 46.5432 43.13 46.2565 43.13C45.8098 43.13 45.4198 43.0633 45.0865 42.93C44.7598 42.79 44.4865 42.6 44.2665 42.36C44.0532 42.1133 43.8932 41.8233 43.7865 41.49C43.6798 41.15 43.6265 40.7833 43.6265 40.39ZM49.8533 43H48.6433V37.77H49.8533V43ZM49.9833 36.24C49.9833 36.4667 49.9099 36.6467 49.7633 36.78C49.6166 36.9133 49.4433 36.98 49.2433 36.98C49.0366 36.98 48.8599 36.9133 48.7133 36.78C48.5666 36.6467 48.4933 36.4667 48.4933 36.24C48.4933 36.0067 48.5666 35.8233 48.7133 35.69C48.8599 35.5567 49.0366 35.49 49.2433 35.49C49.4433 35.49 49.6166 35.5567 49.7633 35.69C49.9099 35.8233 49.9833 36.0067 49.9833 36.24ZM51.107 40.41C51.107 39.95 51.1736 39.5467 51.307 39.2C51.447 38.8533 51.6303 38.5667 51.857 38.34C52.0836 38.1067 52.3436 37.9333 52.637 37.82C52.9303 37.7 53.2303 37.64 53.537 37.64C54.257 37.64 54.817 37.8633 55.217 38.31C55.6236 38.7567 55.827 39.4233 55.827 40.31C55.827 40.3767 55.8236 40.4533 55.817 40.54C55.817 40.62 55.8136 40.6933 55.807 40.76H52.357C52.3903 41.18 52.537 41.5067 52.797 41.74C53.0636 41.9667 53.447 42.08 53.947 42.08C54.2403 42.08 54.507 42.0533 54.747 42C54.9936 41.9467 55.187 41.89 55.327 41.83L55.487 42.82C55.4203 42.8533 55.327 42.89 55.207 42.93C55.0936 42.9633 54.9603 42.9933 54.807 43.02C54.6603 43.0533 54.5003 43.08 54.327 43.1C54.1536 43.12 53.977 43.13 53.797 43.13C53.337 43.13 52.937 43.0633 52.597 42.93C52.257 42.79 51.977 42.6 51.757 42.36C51.537 42.1133 51.3736 41.8267 51.267 41.5C51.1603 41.1667 51.107 40.8033 51.107 40.41ZM54.617 39.87C54.617 39.7033 54.5936 39.5467 54.547 39.4C54.5003 39.2467 54.4303 39.1167 54.337 39.01C54.2503 38.8967 54.1403 38.81 54.007 38.75C53.8803 38.6833 53.727 38.65 53.547 38.65C53.3603 38.65 53.197 38.6867 53.057 38.76C52.917 38.8267 52.797 38.9167 52.697 39.03C52.6036 39.1433 52.5303 39.2733 52.477 39.42C52.4236 39.5667 52.387 39.7167 52.367 39.87H54.617Z" fill="white"/>
<rect x="11" y="49" width="43" height="15" rx="7.5" fill="#2C8EEA"/>
<path opacity="0.8" d="M26.96 54.89C26.96 55.1433 26.91 55.3867 26.81 55.62C26.71 55.8533 26.58 56.08 26.42 56.3C26.26 56.5133 26.08 56.72 25.88 56.92C25.68 57.12 25.4833 57.31 25.29 57.49C25.19 57.5833 25.08 57.69 24.96 57.81C24.8467 57.9233 24.7367 58.04 24.63 58.16C24.5233 58.28 24.4267 58.3933 24.34 58.5C24.26 58.6 24.21 58.6833 24.19 58.75H27.17V60H22.55C22.5367 59.9267 22.53 59.8333 22.53 59.72C22.53 59.6067 22.53 59.5267 22.53 59.48C22.53 59.16 22.58 58.8667 22.68 58.6C22.7867 58.3333 22.9233 58.0867 23.09 57.86C23.2567 57.6267 23.4433 57.41 23.65 57.21C23.8633 57.01 24.0733 56.81 24.28 56.61C24.44 56.4567 24.59 56.3133 24.73 56.18C24.87 56.04 24.9933 55.9067 25.1 55.78C25.2067 55.6467 25.29 55.5167 25.35 55.39C25.41 55.2567 25.44 55.1233 25.44 54.99C25.44 54.6967 25.3567 54.49 25.19 54.37C25.0233 54.25 24.8167 54.19 24.57 54.19C24.39 54.19 24.22 54.22 24.06 54.28C23.9067 54.3333 23.7633 54.4 23.63 54.48C23.5033 54.5533 23.3933 54.63 23.3 54.71C23.2067 54.7833 23.1367 54.8433 23.09 54.89L22.35 53.85C22.6433 53.5767 22.9833 53.3533 23.37 53.18C23.7633 53 24.1833 52.91 24.63 52.91C25.0367 52.91 25.3867 52.9567 25.68 53.05C25.9733 53.1433 26.2133 53.2767 26.4 53.45C26.5933 53.6167 26.7333 53.8233 26.82 54.07C26.9133 54.31 26.96 54.5833 26.96 54.89ZM30.5736 56.28C30.7269 56.28 30.8869 56.2667 31.0536 56.24C31.2203 56.2067 31.3436 56.1633 31.4236 56.11V56.02C31.4236 55.9933 31.4236 55.9667 31.4236 55.94C31.4303 55.9133 31.4336 55.89 31.4336 55.87C31.4269 55.63 31.4069 55.4067 31.3736 55.2C31.3403 54.9867 31.2836 54.8033 31.2036 54.65C31.1236 54.49 31.0136 54.3667 30.8736 54.28C30.7403 54.1867 30.5736 54.14 30.3736 54.14C30.2136 54.14 30.0736 54.1733 29.9536 54.24C29.8336 54.3067 29.7369 54.3933 29.6636 54.5C29.5903 54.6067 29.5336 54.7233 29.4936 54.85C29.4603 54.9767 29.4436 55.1 29.4436 55.22C29.4436 55.58 29.5303 55.8467 29.7036 56.02C29.8836 56.1933 30.1736 56.28 30.5736 56.28ZM31.3036 57.25C31.1636 57.3167 31.0069 57.3667 30.8336 57.4C30.6669 57.4267 30.5236 57.44 30.4036 57.44C29.9703 57.44 29.6003 57.39 29.2936 57.29C28.9869 57.1833 28.7336 57.0367 28.5336 56.85C28.3403 56.6567 28.1969 56.4267 28.1036 56.16C28.0103 55.8933 27.9636 55.6 27.9636 55.28C27.9636 55.0133 28.0069 54.74 28.0936 54.46C28.1869 54.18 28.3303 53.9267 28.5236 53.7C28.7169 53.4667 28.9603 53.2767 29.2536 53.13C29.5536 52.9767 29.9136 52.9 30.3336 52.9C31.1936 52.9 31.8403 53.1667 32.2736 53.7C32.7136 54.2267 32.9336 54.9867 32.9336 55.98C32.9336 56.6333 32.8469 57.21 32.6736 57.71C32.5069 58.21 32.2436 58.63 31.8836 58.97C31.5303 59.31 31.0769 59.57 30.5236 59.75C29.9703 59.9233 29.3136 60.0133 28.5536 60.02C28.5469 59.8067 28.5369 59.6 28.5236 59.4C28.5103 59.2 28.4969 58.9933 28.4836 58.78C28.8636 58.7733 29.2069 58.7467 29.5136 58.7C29.8203 58.6467 30.0903 58.5633 30.3236 58.45C30.5569 58.33 30.7536 58.1733 30.9136 57.98C31.0803 57.7867 31.2103 57.5433 31.3036 57.25ZM36.9572 57.21C36.9572 56.73 36.8939 56.39 36.7672 56.19C36.6472 55.99 36.4372 55.89 36.1372 55.89C36.0439 55.89 35.9472 55.8967 35.8472 55.91C35.7472 55.9167 35.6505 55.9267 35.5572 55.94V60H34.0672V54.92C34.1939 54.8867 34.3405 54.8533 34.5072 54.82C34.6805 54.78 34.8605 54.7467 35.0472 54.72C35.2405 54.6867 35.4372 54.6633 35.6372 54.65C35.8372 54.63 36.0339 54.62 36.2272 54.62C36.6072 54.62 36.9139 54.67 37.1472 54.77C37.3872 54.8633 37.5839 54.9767 37.7372 55.11C37.9505 54.9567 38.1939 54.8367 38.4672 54.75C38.7472 54.6633 39.0039 54.62 39.2372 54.62C39.6572 54.62 40.0005 54.68 40.2672 54.8C40.5405 54.9133 40.7572 55.0767 40.9172 55.29C41.0772 55.5033 41.1872 55.7567 41.2472 56.05C41.3072 56.3433 41.3372 56.67 41.3372 57.03V60H39.8472V57.21C39.8472 56.73 39.7839 56.39 39.6572 56.19C39.5372 55.99 39.3272 55.89 39.0272 55.89C38.9472 55.89 38.8339 55.91 38.6872 55.95C38.5472 55.99 38.4305 56.04 38.3372 56.1C38.3839 56.2533 38.4139 56.4167 38.4272 56.59C38.4405 56.7567 38.4472 56.9367 38.4472 57.13V60H36.9572V57.21Z" fill="white"/>
<g opacity="0.6">
<path d="M24.3682 9.36824C26.5403 7.19622 29.4282 6 32.5 6C35.5718 6 38.4597 7.19622 40.6318 9.36824C42.8038 11.5403 44 14.4282 44 17.5C44 20.5718 42.8038 23.4597 40.6318 25.6318C38.4597 27.8038 35.5718 29 32.5 29C29.4282 29 26.5403 27.8038 24.3682 25.6318C22.1962 23.4597 21 20.5718 21 17.5C21 14.4282 22.1962 11.5403 24.3682 9.36824ZM25.3212 24.6788C27.2388 26.5963 29.7882 27.6523 32.5 27.6523C35.2118 27.6523 37.7613 26.5963 39.6788 24.6788C41.5963 22.7612 42.6523 20.2118 42.6523 17.5C42.6523 14.7882 41.5963 12.2387 39.6788 10.3212C37.7613 8.40368 35.2118 7.34766 32.5 7.34766C29.7882 7.34766 27.2388 8.40368 25.3212 10.3212C23.4037 12.2387 22.3477 14.7882 22.3477 17.5C22.3477 20.2118 23.4037 22.7612 25.3212 24.6788Z" fill="white"/>
<path d="M29.6582 14.6582V10.6909H35.3418V14.6582H39.3091V20.3418H35.3418V24.3091H29.6582V20.3418H25.6909V14.6582H29.6582ZM27.0385 18.9942H31.0058V22.9615H33.9941V18.9942H37.9614V16.0058H33.9941V12.0386H31.0058V16.0058H27.0385V18.9942Z" fill="white"/>
</g>
<defs>
<linearGradient id="paint0_linear" x1="-8.87651e-07" y1="38.5" x2="42.1135" y2="-5.61892" gradientUnits="userSpaceOnUse">
<stop offset="0.135417" stop-color="#6FB9FF"/>
<stop offset="1" stop-color="#2C8EEA"/>
</linearGradient>
<linearGradient id="paint1_linear" x1="25" y1="96.5" x2="45.7466" y2="70.0928" gradientUnits="userSpaceOnUse">
<stop offset="0.135417" stop-color="#6FB9FF"/>
<stop offset="1" stop-color="#2C8EEA"/>
</linearGradient>
</defs>
</svg>
