<svg width="65" height="116" viewBox="0 0 65 116" fill="none" xmlns="http://www.w3.org/2000/svg">
<rect width="65" height="77" fill="url(#paint0_linear)"/>
<path d="M25 77H65V116L51 103L25 77Z" fill="url(#paint1_linear)"/>
<path opacity="0.6" d="M20.48 40.41C20.48 39.95 20.5467 39.5467 20.68 39.2C20.82 38.8533 21.0033 38.5667 21.23 38.34C21.4567 38.1067 21.7167 37.9333 22.01 37.82C22.3033 37.7 22.6033 37.64 22.91 37.64C23.63 37.64 24.19 37.8633 24.59 38.31C24.9967 38.7567 25.2 39.4233 25.2 40.31C25.2 40.3767 25.1967 40.4533 25.19 40.54C25.19 40.62 25.1867 40.6933 25.18 40.76H21.73C21.7633 41.18 21.91 41.5067 22.17 41.74C22.4367 41.9667 22.82 42.08 23.32 42.08C23.6133 42.08 23.88 42.0533 24.12 42C24.3667 41.9467 24.56 41.89 24.7 41.83L24.86 42.82C24.7933 42.8533 24.7 42.89 24.58 42.93C24.4667 42.9633 24.3333 42.9933 24.18 43.02C24.0333 43.0533 23.8733 43.08 23.7 43.1C23.5267 43.12 23.35 43.13 23.17 43.13C22.71 43.13 22.31 43.0633 21.97 42.93C21.63 42.79 21.35 42.6 21.13 42.36C20.91 42.1133 20.7467 41.8267 20.64 41.5C20.5333 41.1667 20.48 40.8033 20.48 40.41ZM23.99 39.87C23.99 39.7033 23.9667 39.5467 23.92 39.4C23.8733 39.2467 23.8033 39.1167 23.71 39.01C23.6233 38.8967 23.5133 38.81 23.38 38.75C23.2533 38.6833 23.1 38.65 22.92 38.65C22.7333 38.65 22.57 38.6867 22.43 38.76C22.29 38.8267 22.17 38.9167 22.07 39.03C21.9767 39.1433 21.9033 39.2733 21.85 39.42C21.7967 39.5667 21.76 39.7167 21.74 39.87H23.99ZM24.2 35.63L22.57 37.21L21.97 36.67L23.44 34.92L24.2 35.63ZM26.1929 40.39C26.1929 40.0033 26.2529 39.6433 26.3729 39.31C26.4929 38.97 26.6629 38.6767 26.8829 38.43C27.1096 38.1833 27.3829 37.99 27.7029 37.85C28.0229 37.71 28.3829 37.64 28.7829 37.64C29.2762 37.64 29.7429 37.73 30.1829 37.91L29.9229 38.9C29.7829 38.84 29.6229 38.79 29.4429 38.75C29.2696 38.71 29.0829 38.69 28.8829 38.69C28.4096 38.69 28.0496 38.84 27.8029 39.14C27.5562 39.4333 27.4329 39.85 27.4329 40.39C27.4329 40.91 27.5496 41.3233 27.7829 41.63C28.0162 41.93 28.4096 42.08 28.9629 42.08C29.1696 42.08 29.3729 42.06 29.5729 42.02C29.7729 41.98 29.9462 41.93 30.0929 41.87L30.2629 42.87C30.1296 42.9367 29.9262 42.9967 29.6529 43.05C29.3862 43.1033 29.1096 43.13 28.8229 43.13C28.3762 43.13 27.9862 43.0633 27.6529 42.93C27.3262 42.79 27.0529 42.6 26.8329 42.36C26.6196 42.1133 26.4596 41.8233 26.3529 41.49C26.2462 41.15 26.1929 40.7833 26.1929 40.39ZM35.8223 40.38C35.8223 40.7933 35.7623 41.17 35.6423 41.51C35.5223 41.85 35.3523 42.14 35.1323 42.38C34.9123 42.62 34.6456 42.8067 34.3323 42.94C34.0256 43.0733 33.6856 43.14 33.3123 43.14C32.9389 43.14 32.5989 43.0733 32.2923 42.94C31.9856 42.8067 31.7223 42.62 31.5023 42.38C31.2823 42.14 31.1089 41.85 30.9823 41.51C30.8623 41.17 30.8023 40.7933 30.8023 40.38C30.8023 39.9667 30.8623 39.5933 30.9823 39.26C31.1089 38.92 31.2823 38.63 31.5023 38.39C31.7289 38.15 31.9956 37.9667 32.3023 37.84C32.6089 37.7067 32.9456 37.64 33.3123 37.64C33.6789 37.64 34.0156 37.7067 34.3223 37.84C34.6356 37.9667 34.9023 38.15 35.1223 38.39C35.3423 38.63 35.5123 38.92 35.6323 39.26C35.7589 39.5933 35.8223 39.9667 35.8223 40.38ZM34.5823 40.38C34.5823 39.86 34.4689 39.45 34.2423 39.15C34.0223 38.8433 33.7123 38.69 33.3123 38.69C32.9123 38.69 32.5989 38.8433 32.3723 39.15C32.1523 39.45 32.0423 39.86 32.0423 40.38C32.0423 40.9067 32.1523 41.3233 32.3723 41.63C32.5989 41.9367 32.9123 42.09 33.3123 42.09C33.7123 42.09 34.0223 41.9367 34.2423 41.63C34.4689 41.3233 34.5823 40.9067 34.5823 40.38ZM38.8888 43.1C38.5288 43.0933 38.2288 43.0533 37.9888 42.98C37.7555 42.9067 37.5688 42.8033 37.4288 42.67C37.2888 42.53 37.1888 42.36 37.1288 42.16C37.0755 41.9533 37.0488 41.72 37.0488 41.46V35.44L38.2588 35.24V41.23C38.2588 41.3767 38.2688 41.5 38.2888 41.6C38.3155 41.7 38.3588 41.7867 38.4188 41.86C38.4788 41.9267 38.5588 41.98 38.6588 42.02C38.7655 42.0533 38.8988 42.08 39.0588 42.1L38.8888 43.1ZM39.7476 40.41C39.7476 39.95 39.8142 39.5467 39.9476 39.2C40.0876 38.8533 40.2709 38.5667 40.4976 38.34C40.7242 38.1067 40.9842 37.9333 41.2776 37.82C41.5709 37.7 41.8709 37.64 42.1776 37.64C42.8976 37.64 43.4576 37.8633 43.8576 38.31C44.2642 38.7567 44.4676 39.4233 44.4676 40.31C44.4676 40.3767 44.4642 40.4533 44.4576 40.54C44.4576 40.62 44.4542 40.6933 44.4476 40.76H40.9976C41.0309 41.18 41.1776 41.5067 41.4376 41.74C41.7042 41.9667 42.0876 42.08 42.5876 42.08C42.8809 42.08 43.1476 42.0533 43.3876 42C43.6342 41.9467 43.8276 41.89 43.9676 41.83L44.1276 42.82C44.0609 42.8533 43.9676 42.89 43.8476 42.93C43.7342 42.9633 43.6009 42.9933 43.4476 43.02C43.3009 43.0533 43.1409 43.08 42.9676 43.1C42.7942 43.12 42.6176 43.13 42.4376 43.13C41.9776 43.13 41.5776 43.0633 41.2376 42.93C40.8976 42.79 40.6176 42.6 40.3976 42.36C40.1776 42.1133 40.0142 41.8267 39.9076 41.5C39.8009 41.1667 39.7476 40.8033 39.7476 40.41ZM43.2576 39.87C43.2576 39.7033 43.2342 39.5467 43.1876 39.4C43.1409 39.2467 43.0709 39.1167 42.9776 39.01C42.8909 38.8967 42.7809 38.81 42.6476 38.75C42.5209 38.6833 42.3676 38.65 42.1876 38.65C42.0009 38.65 41.8376 38.6867 41.6976 38.76C41.5576 38.8267 41.4376 38.9167 41.3376 39.03C41.2442 39.1433 41.1709 39.2733 41.1176 39.42C41.0642 39.5667 41.0276 39.7167 41.0076 39.87H43.2576Z" fill="white"/>
<rect x="11" y="49" width="43" height="15" rx="7.5" fill="#2C8EEA"/>
<path opacity="0.8" d="M22.7 54.51C22.8933 54.43 23.0933 54.34 23.3 54.24C23.5133 54.1333 23.72 54.02 23.92 53.9C24.12 53.7733 24.31 53.6433 24.49 53.51C24.6767 53.37 24.8433 53.2233 24.99 53.07H26.03V60H24.54V55.01C24.34 55.1433 24.1167 55.2667 23.87 55.38C23.6233 55.4867 23.3833 55.58 23.15 55.66L22.7 54.51ZM32.6436 54.89C32.6436 55.1433 32.5936 55.3867 32.4936 55.62C32.3936 55.8533 32.2636 56.08 32.1036 56.3C31.9436 56.5133 31.7636 56.72 31.5636 56.92C31.3636 57.12 31.1669 57.31 30.9736 57.49C30.8736 57.5833 30.7636 57.69 30.6436 57.81C30.5303 57.9233 30.4203 58.04 30.3136 58.16C30.2069 58.28 30.1103 58.3933 30.0236 58.5C29.9436 58.6 29.8936 58.6833 29.8736 58.75H32.8536V60H28.2336C28.2203 59.9267 28.2136 59.8333 28.2136 59.72C28.2136 59.6067 28.2136 59.5267 28.2136 59.48C28.2136 59.16 28.2636 58.8667 28.3636 58.6C28.4703 58.3333 28.6069 58.0867 28.7736 57.86C28.9403 57.6267 29.1269 57.41 29.3336 57.21C29.5469 57.01 29.7569 56.81 29.9636 56.61C30.1236 56.4567 30.2736 56.3133 30.4136 56.18C30.5536 56.04 30.6769 55.9067 30.7836 55.78C30.8903 55.6467 30.9736 55.5167 31.0336 55.39C31.0936 55.2567 31.1236 55.1233 31.1236 54.99C31.1236 54.6967 31.0403 54.49 30.8736 54.37C30.7069 54.25 30.5003 54.19 30.2536 54.19C30.0736 54.19 29.9036 54.22 29.7436 54.28C29.5903 54.3333 29.4469 54.4 29.3136 54.48C29.1869 54.5533 29.0769 54.63 28.9836 54.71C28.8903 54.7833 28.8203 54.8433 28.7736 54.89L28.0336 53.85C28.3269 53.5767 28.6669 53.3533 29.0536 53.18C29.4469 53 29.8669 52.91 30.3136 52.91C30.7203 52.91 31.0703 52.9567 31.3636 53.05C31.6569 53.1433 31.8969 53.2767 32.0836 53.45C32.2769 53.6167 32.4169 53.8233 32.5036 54.07C32.5969 54.31 32.6436 54.5833 32.6436 54.89ZM36.9572 57.21C36.9572 56.73 36.8939 56.39 36.7672 56.19C36.6472 55.99 36.4372 55.89 36.1372 55.89C36.0439 55.89 35.9472 55.8967 35.8472 55.91C35.7472 55.9167 35.6505 55.9267 35.5572 55.94V60H34.0672V54.92C34.1939 54.8867 34.3405 54.8533 34.5072 54.82C34.6805 54.78 34.8605 54.7467 35.0472 54.72C35.2405 54.6867 35.4372 54.6633 35.6372 54.65C35.8372 54.63 36.0339 54.62 36.2272 54.62C36.6072 54.62 36.9139 54.67 37.1472 54.77C37.3872 54.8633 37.5839 54.9767 37.7372 55.11C37.9505 54.9567 38.1939 54.8367 38.4672 54.75C38.7472 54.6633 39.0039 54.62 39.2372 54.62C39.6572 54.62 40.0005 54.68 40.2672 54.8C40.5405 54.9133 40.7572 55.0767 40.9172 55.29C41.0772 55.5033 41.1872 55.7567 41.2472 56.05C41.3072 56.3433 41.3372 56.67 41.3372 57.03V60H39.8472V57.21C39.8472 56.73 39.7839 56.39 39.6572 56.19C39.5372 55.99 39.3272 55.89 39.0272 55.89C38.9472 55.89 38.8339 55.91 38.6872 55.95C38.5472 55.99 38.4305 56.04 38.3372 56.1C38.3839 56.2533 38.4139 56.4167 38.4272 56.59C38.4405 56.7567 38.4472 56.9367 38.4472 57.13V60H36.9572V57.21Z" fill="white"/>
<g opacity="0.6" clip-path="url(#clip0)">
<path d="M20.5234 24.5271V14.0038L19.4952 13.6199C19.1974 13.5086 19 13.2241 19 12.9062C19 12.5884 19.1974 12.3039 19.4952 12.1927L31.7335 7.62236C31.9053 7.55817 32.0946 7.55817 32.2664 7.62236L44.5047 12.1927C44.8026 12.3039 45 12.5884 45 12.9062C45 13.2241 44.8026 13.5086 44.5048 13.6198L39.4334 15.5137C40.634 18.9014 40.3311 20.6834 40.3789 21.2852C40.3789 21.5379 40.2535 21.7742 40.0443 21.9159C39.8349 22.0576 39.569 22.0862 39.3343 21.9924C39.3166 21.9853 37.5461 21.2852 35.8086 21.2852C34.2013 21.2852 32.492 22.6289 32.4759 22.6417C32.1976 22.8642 31.8024 22.8642 31.5242 22.6417C31.0525 22.2644 29.5344 21.2852 28.1914 21.2852C26.4635 21.2852 24.6828 21.9856 24.6657 21.9924C24.4311 22.0862 24.1651 22.0576 23.9558 21.9159C23.7465 21.7742 23.6211 21.5379 23.6211 21.2852C23.6653 20.7291 23.3723 18.8836 24.5667 15.5137L22.0469 14.5727V24.5271C22.4385 24.7387 22.7801 25.1183 23.0437 25.6455C23.3833 26.3247 23.5703 27.2108 23.5703 28.1406V29.6641C23.5703 30.0847 23.2293 30.4258 22.8086 30.4258H19.7617C19.341 30.4258 19 30.0847 19 29.6641V28.1406C19 27.2108 19.187 26.3247 19.5266 25.6455C19.7902 25.1183 20.1318 24.7387 20.5234 24.5271ZM32 9.14905L21.939 12.9062C22.9769 13.2939 30.9955 16.2884 32 16.6635C33.0045 16.2884 41.0231 13.2939 42.061 12.9062L32 9.14905ZM25.1508 20.2301C25.9319 20.008 27.0543 19.7617 28.1914 19.7617C29.7495 19.7617 31.2572 20.6157 32 21.1105C32.7428 20.6157 34.2505 19.7617 35.8086 19.7617C36.9457 19.7617 38.0681 20.008 38.8492 20.2301C38.8054 18.6814 38.5304 17.5281 38.0061 16.0467L32.2664 18.1901C32.0947 18.2543 31.9053 18.2543 31.7335 18.1901L25.9938 16.0467C25.4696 17.5281 25.1947 18.6815 25.1508 20.2301ZM20.5234 28.9023H22.0469V28.1406C22.0469 27.4528 21.9135 26.7917 21.6811 26.3268C21.4864 25.9374 21.3116 25.8555 21.2852 25.8555C21.2588 25.8555 21.0839 25.9374 20.8892 26.3268C20.6568 26.7917 20.5234 27.4528 20.5234 28.1406V28.9023Z" fill="white"/>
</g>
<defs>
<linearGradient id="paint0_linear" x1="-8.87651e-07" y1="38.5" x2="42.1135" y2="-5.61892" gradientUnits="userSpaceOnUse">
<stop offset="0.135417" stop-color="#6FB9FF"/>
<stop offset="1" stop-color="#2C8EEA"/>
</linearGradient>
<linearGradient id="paint1_linear" x1="25" y1="96.5" x2="45.7466" y2="70.0928" gradientUnits="userSpaceOnUse">
<stop offset="0.135417" stop-color="#6FB9FF"/>
<stop offset="1" stop-color="#2C8EEA"/>
</linearGradient>
<clipPath id="clip0">
<rect width="26" height="26" fill="white" transform="matrix(-1 0 0 1 45 6)"/>
</clipPath>
</defs>
</svg>
