<svg width="65" height="116" viewBox="0 0 65 116" fill="none" xmlns="http://www.w3.org/2000/svg">
<rect width="65" height="77" fill="url(#paint0_linear)"/>
<path d="M25 77H65V116L51 103L25 77Z" fill="url(#paint1_linear)"/>
<g opacity="0.6" clip-path="url(#clip0)">
<path d="M26.8816 24.6628C25.9958 24.6628 25.2778 25.3809 25.2778 26.2666C25.2778 27.1523 25.9959 27.8704 26.8816 27.8704C27.7673 27.8704 28.4853 27.1523 28.4853 26.2666C28.4853 25.3809 27.7673 24.6628 26.8816 24.6628ZM26.8816 26.954C26.502 26.954 26.1942 26.6462 26.1942 26.2666C26.1942 25.887 26.502 25.5793 26.8816 25.5793C27.2612 25.5793 27.5689 25.887 27.5689 26.2666C27.5689 26.6462 27.2612 26.954 26.8816 26.954Z" fill="white"/>
<path d="M35.1296 24.6628C34.2439 24.6628 33.5259 25.3809 33.5259 26.2666C33.5259 27.1523 34.2439 27.8704 35.1296 27.8704C36.0154 27.8704 36.7334 27.1523 36.7334 26.2666C36.7334 25.3809 36.0154 24.6628 35.1296 24.6628ZM35.1296 26.954C34.75 26.954 34.4423 26.6462 34.4423 26.2666C34.4423 25.887 34.75 25.5793 35.1296 25.5793C35.5092 25.5793 35.8169 25.887 35.8169 26.2666C35.8169 26.6462 35.5092 26.954 35.1296 26.954Z" fill="white"/>
<path d="M38.4319 31.2122L36.4502 29.2304C37.4747 29.1539 38.108 28.133 38.108 27.1749V11.9121C38.108 10.822 37.3446 10 36.3324 10H25.6788C24.6666 10 23.9033 10.822 23.9033 11.9121V27.1753C23.9033 28.1335 24.5361 29.1544 25.5611 29.2309L23.5793 31.2122C23.3973 31.3881 23.3923 31.6781 23.5681 31.8602C23.7439 32.0422 24.0339 32.0472 24.216 31.8714C24.2198 31.8677 24.2236 31.864 24.2273 31.8602L26.8423 29.2451H35.169L37.784 31.8601C37.966 32.036 38.2561 32.0309 38.432 31.8489C38.6035 31.6713 38.6035 31.3898 38.4319 31.2122ZM24.8197 11.9121C24.8197 11.4173 25.1148 10.9164 25.6788 10.9164H36.3324C36.8964 10.9164 37.1915 11.4173 37.1915 11.9121V12.2911H24.8197V11.9121ZM24.8197 13.2075H37.1915V23.2883H24.8197V13.2075ZM25.6788 28.3287C25.1633 28.3287 24.8197 27.733 24.8197 27.1749V24.2047H37.1915V27.1749C37.1915 27.733 36.8479 28.3287 36.3324 28.3287H25.6788Z" fill="white"/>
</g>
<path opacity="0.6" d="M20.71 36.39L21.92 36.19V37.77H23.78V38.78H21.92V40.91C21.92 41.33 21.9867 41.63 22.12 41.81C22.2533 41.99 22.48 42.08 22.8 42.08C23.02 42.08 23.2133 42.0567 23.38 42.01C23.5533 41.9633 23.69 41.92 23.79 41.88L23.99 42.84C23.85 42.9 23.6667 42.96 23.44 43.02C23.2133 43.0867 22.9467 43.12 22.64 43.12C22.2667 43.12 21.9533 43.07 21.7 42.97C21.4533 42.87 21.2567 42.7267 21.11 42.54C20.9633 42.3467 20.86 42.1167 20.8 41.85C20.74 41.5767 20.71 41.2667 20.71 40.92V36.39ZM27.9297 38.86C27.8297 38.8267 27.6897 38.7933 27.5097 38.76C27.3364 38.72 27.133 38.7 26.8997 38.7C26.7664 38.7 26.623 38.7133 26.4697 38.74C26.323 38.7667 26.2197 38.79 26.1597 38.81V43H24.9497V38.02C25.183 37.9333 25.473 37.8533 25.8197 37.78C26.173 37.7 26.563 37.66 26.9897 37.66C27.0697 37.66 27.163 37.6667 27.2697 37.68C27.3764 37.6867 27.483 37.7 27.5897 37.72C27.6964 37.7333 27.7997 37.7533 27.8997 37.78C27.9997 37.8 28.0797 37.82 28.1397 37.84L27.9297 38.86ZM30.8229 42.15C31.1962 42.15 31.4796 42.13 31.6729 42.09V40.75C31.6062 40.73 31.5096 40.71 31.3829 40.69C31.2562 40.67 31.1162 40.66 30.9629 40.66C30.8296 40.66 30.6929 40.67 30.5529 40.69C30.4196 40.71 30.2962 40.7467 30.1829 40.8C30.0762 40.8533 29.9896 40.93 29.9229 41.03C29.8562 41.1233 29.8229 41.2433 29.8229 41.39C29.8229 41.6767 29.9129 41.8767 30.0929 41.99C30.2729 42.0967 30.5162 42.15 30.8229 42.15ZM30.7229 37.64C31.1229 37.64 31.4596 37.69 31.7329 37.79C32.0062 37.89 32.2229 38.03 32.3829 38.21C32.5496 38.39 32.6662 38.61 32.7329 38.87C32.8062 39.1233 32.8429 39.4033 32.8429 39.71V42.88C32.6562 42.92 32.3729 42.9667 31.9929 43.02C31.6196 43.08 31.1962 43.11 30.7229 43.11C30.4096 43.11 30.1229 43.08 29.8629 43.02C29.6029 42.96 29.3796 42.8633 29.1929 42.73C29.0129 42.5967 28.8696 42.4233 28.7629 42.21C28.6629 41.9967 28.6129 41.7333 28.6129 41.42C28.6129 41.12 28.6696 40.8667 28.7829 40.66C28.9029 40.4533 29.0629 40.2867 29.2629 40.16C29.4629 40.0267 29.6929 39.9333 29.9529 39.88C30.2196 39.82 30.4962 39.79 30.7829 39.79C30.9162 39.79 31.0562 39.8 31.2029 39.82C31.3496 39.8333 31.5062 39.86 31.6729 39.9V39.7C31.6729 39.56 31.6562 39.4267 31.6229 39.3C31.5896 39.1733 31.5296 39.0633 31.4429 38.97C31.3629 38.87 31.2529 38.7933 31.1129 38.74C30.9796 38.6867 30.8096 38.66 30.6029 38.66C30.3229 38.66 30.0662 38.68 29.8329 38.72C29.5996 38.76 29.4096 38.8067 29.2629 38.86L29.1129 37.88C29.2662 37.8267 29.4896 37.7733 29.7829 37.72C30.0762 37.6667 30.3896 37.64 30.7229 37.64ZM35.5447 43H34.3347V37.77H35.5447V43ZM35.6747 36.24C35.6747 36.4667 35.6014 36.6467 35.4547 36.78C35.308 36.9133 35.1347 36.98 34.9347 36.98C34.728 36.98 34.5514 36.9133 34.4047 36.78C34.258 36.6467 34.1847 36.4667 34.1847 36.24C34.1847 36.0067 34.258 35.8233 34.4047 35.69C34.5514 35.5567 34.728 35.49 34.9347 35.49C35.1347 35.49 35.308 35.5567 35.4547 35.69C35.6014 35.8233 35.6747 36.0067 35.6747 36.24ZM37.0884 37.94C37.3217 37.8733 37.625 37.81 37.9984 37.75C38.3717 37.69 38.785 37.66 39.2384 37.66C39.665 37.66 40.0217 37.72 40.3084 37.84C40.595 37.9533 40.8217 38.1167 40.9884 38.33C41.1617 38.5367 41.2817 38.79 41.3484 39.09C41.4217 39.3833 41.4584 39.7067 41.4584 40.06V43H40.2484V40.25C40.2484 39.97 40.2284 39.7333 40.1884 39.54C40.155 39.34 40.095 39.18 40.0084 39.06C39.9284 38.9333 39.815 38.8433 39.6684 38.79C39.5284 38.73 39.355 38.7 39.1484 38.7C38.995 38.7 38.835 38.71 38.6684 38.73C38.5017 38.75 38.3784 38.7667 38.2984 38.78V43H37.0884V37.94Z" fill="white"/>
<rect x="11" y="49" width="43" height="15" rx="7.5" fill="#2C8EEA"/>
<path opacity="0.8" d="M24.28 60.15C24.1 60.15 23.91 60.1367 23.71 60.11C23.51 60.09 23.3167 60.06 23.13 60.02C22.9433 59.98 22.7733 59.9367 22.62 59.89C22.4667 59.8433 22.3467 59.8 22.26 59.76L22.55 58.52C22.7233 58.5933 22.9433 58.6733 23.21 58.76C23.4833 58.84 23.82 58.88 24.22 58.88C24.68 58.88 25.0167 58.7933 25.23 58.62C25.4433 58.4467 25.55 58.2133 25.55 57.92C25.55 57.74 25.51 57.59 25.43 57.47C25.3567 57.3433 25.2533 57.2433 25.12 57.17C24.9867 57.09 24.8267 57.0367 24.64 57.01C24.46 56.9767 24.2667 56.96 24.06 56.96H23.48V55.76H24.14C24.2867 55.76 24.4267 55.7467 24.56 55.72C24.7 55.6933 24.8233 55.65 24.93 55.59C25.0367 55.5233 25.12 55.4367 25.18 55.33C25.2467 55.2167 25.28 55.0767 25.28 54.91C25.28 54.7833 25.2533 54.6733 25.2 54.58C25.1467 54.4867 25.0767 54.41 24.99 54.35C24.91 54.29 24.8133 54.2467 24.7 54.22C24.5933 54.1867 24.4833 54.17 24.37 54.17C24.0833 54.17 23.8167 54.2133 23.57 54.3C23.33 54.3867 23.11 54.4933 22.91 54.62L22.38 53.53C22.4867 53.4633 22.61 53.3933 22.75 53.32C22.8967 53.2467 23.0567 53.18 23.23 53.12C23.4033 53.06 23.5867 53.01 23.78 52.97C23.98 52.93 24.19 52.91 24.41 52.91C24.8167 52.91 25.1667 52.96 25.46 53.06C25.76 53.1533 26.0067 53.29 26.2 53.47C26.3933 53.6433 26.5367 53.85 26.63 54.09C26.7233 54.3233 26.77 54.58 26.77 54.86C26.77 55.1333 26.6933 55.4 26.54 55.66C26.3867 55.9133 26.18 56.1067 25.92 56.24C26.28 56.3867 26.5567 56.6067 26.75 56.9C26.95 57.1867 27.05 57.5333 27.05 57.94C27.05 58.26 26.9967 58.5567 26.89 58.83C26.7833 59.0967 26.6167 59.33 26.39 59.53C26.1633 59.7233 25.8733 59.8767 25.52 59.99C25.1733 60.0967 24.76 60.15 24.28 60.15ZM33.0236 56.52C33.0236 57.6867 32.8003 58.5833 32.3536 59.21C31.9136 59.83 31.3036 60.14 30.5236 60.14C29.7436 60.14 29.1303 59.83 28.6836 59.21C28.2436 58.5833 28.0236 57.6867 28.0236 56.52C28.0236 55.94 28.0803 55.4267 28.1936 54.98C28.3136 54.5333 28.4836 54.1567 28.7036 53.85C28.9236 53.5433 29.1869 53.31 29.4936 53.15C29.8003 52.99 30.1436 52.91 30.5236 52.91C31.3036 52.91 31.9136 53.2233 32.3536 53.85C32.8003 54.47 33.0236 55.36 33.0236 56.52ZM31.5036 56.52C31.5036 56.1733 31.4869 55.86 31.4536 55.58C31.4203 55.2933 31.3669 55.0467 31.2936 54.84C31.2203 54.6333 31.1203 54.4733 30.9936 54.36C30.8669 54.2467 30.7103 54.19 30.5236 54.19C30.3369 54.19 30.1803 54.2467 30.0536 54.36C29.9336 54.4733 29.8336 54.6333 29.7536 54.84C29.6803 55.0467 29.6269 55.2933 29.5936 55.58C29.5603 55.86 29.5436 56.1733 29.5436 56.52C29.5436 56.8667 29.5603 57.1833 29.5936 57.47C29.6269 57.7567 29.6803 58.0033 29.7536 58.21C29.8336 58.4167 29.9336 58.5767 30.0536 58.69C30.1803 58.8033 30.3369 58.86 30.5236 58.86C30.7103 58.86 30.8669 58.8033 30.9936 58.69C31.1203 58.5767 31.2203 58.4167 31.2936 58.21C31.3669 58.0033 31.4203 57.7567 31.4536 57.47C31.4869 57.1833 31.5036 56.8667 31.5036 56.52ZM36.9572 57.21C36.9572 56.73 36.8939 56.39 36.7672 56.19C36.6472 55.99 36.4372 55.89 36.1372 55.89C36.0439 55.89 35.9472 55.8967 35.8472 55.91C35.7472 55.9167 35.6505 55.9267 35.5572 55.94V60H34.0672V54.92C34.1939 54.8867 34.3405 54.8533 34.5072 54.82C34.6805 54.78 34.8605 54.7467 35.0472 54.72C35.2405 54.6867 35.4372 54.6633 35.6372 54.65C35.8372 54.63 36.0339 54.62 36.2272 54.62C36.6072 54.62 36.9139 54.67 37.1472 54.77C37.3872 54.8633 37.5839 54.9767 37.7372 55.11C37.9505 54.9567 38.1939 54.8367 38.4672 54.75C38.7472 54.6633 39.0039 54.62 39.2372 54.62C39.6572 54.62 40.0005 54.68 40.2672 54.8C40.5405 54.9133 40.7572 55.0767 40.9172 55.29C41.0772 55.5033 41.1872 55.7567 41.2472 56.05C41.3072 56.3433 41.3372 56.67 41.3372 57.03V60H39.8472V57.21C39.8472 56.73 39.7839 56.39 39.6572 56.19C39.5372 55.99 39.3272 55.89 39.0272 55.89C38.9472 55.89 38.8339 55.91 38.6872 55.95C38.5472 55.99 38.4305 56.04 38.3372 56.1C38.3839 56.2533 38.4139 56.4167 38.4272 56.59C38.4405 56.7567 38.4472 56.9367 38.4472 57.13V60H36.9572V57.21Z" fill="white"/>
<defs>
<linearGradient id="paint0_linear" x1="-8.87651e-07" y1="38.5" x2="42.1135" y2="-5.61892" gradientUnits="userSpaceOnUse">
<stop offset="0.135417" stop-color="#6FB9FF"/>
<stop offset="1" stop-color="#2C8EEA"/>
</linearGradient>
<linearGradient id="paint1_linear" x1="25" y1="96.5" x2="45.7466" y2="70.0928" gradientUnits="userSpaceOnUse">
<stop offset="0.135417" stop-color="#6FB9FF"/>
<stop offset="1" stop-color="#2C8EEA"/>
</linearGradient>
<clipPath id="clip0">
<rect width="22" height="22" fill="white" transform="translate(20 10)"/>
</clipPath>
</defs>
</svg>
