<svg width="65" height="116" viewBox="0 0 65 116" fill="none" xmlns="http://www.w3.org/2000/svg">
<rect width="65" height="77" fill="url(#paint0_linear)"/>
<path d="M25 77H65V116L51 103L25 77Z" fill="url(#paint1_linear)"/>
<path opacity="0.6" d="M14.71 36.39L15.92 36.19V37.77H17.78V38.78H15.92V40.91C15.92 41.33 15.9867 41.63 16.12 41.81C16.2533 41.99 16.48 42.08 16.8 42.08C17.02 42.08 17.2133 42.0567 17.38 42.01C17.5533 41.9633 17.69 41.92 17.79 41.88L17.99 42.84C17.85 42.9 17.6667 42.96 17.44 43.02C17.2133 43.0867 16.9467 43.12 16.64 43.12C16.2667 43.12 15.9533 43.07 15.7 42.97C15.4533 42.87 15.2567 42.7267 15.11 42.54C14.9633 42.3467 14.86 42.1167 14.8 41.85C14.74 41.5767 14.71 41.2667 14.71 40.92V36.39ZM21.9297 38.86C21.8297 38.8267 21.6897 38.7933 21.5097 38.76C21.3364 38.72 21.133 38.7 20.8997 38.7C20.7664 38.7 20.623 38.7133 20.4697 38.74C20.323 38.7667 20.2197 38.79 20.1597 38.81V43H18.9497V38.02C19.183 37.9333 19.473 37.8533 19.8197 37.78C20.173 37.7 20.563 37.66 20.9897 37.66C21.0697 37.66 21.163 37.6667 21.2697 37.68C21.3764 37.6867 21.483 37.7 21.5897 37.72C21.6964 37.7333 21.7997 37.7533 21.8997 37.78C21.9997 37.8 22.0797 37.82 22.1397 37.84L21.9297 38.86ZM24.8229 42.15C25.1962 42.15 25.4796 42.13 25.6729 42.09V40.75C25.6062 40.73 25.5096 40.71 25.3829 40.69C25.2562 40.67 25.1162 40.66 24.9629 40.66C24.8296 40.66 24.6929 40.67 24.5529 40.69C24.4196 40.71 24.2962 40.7467 24.1829 40.8C24.0762 40.8533 23.9896 40.93 23.9229 41.03C23.8562 41.1233 23.8229 41.2433 23.8229 41.39C23.8229 41.6767 23.9129 41.8767 24.0929 41.99C24.2729 42.0967 24.5162 42.15 24.8229 42.15ZM24.7229 37.64C25.1229 37.64 25.4596 37.69 25.7329 37.79C26.0062 37.89 26.2229 38.03 26.3829 38.21C26.5496 38.39 26.6662 38.61 26.7329 38.87C26.8062 39.1233 26.8429 39.4033 26.8429 39.71V42.88C26.6562 42.92 26.3729 42.9667 25.9929 43.02C25.6196 43.08 25.1962 43.11 24.7229 43.11C24.4096 43.11 24.1229 43.08 23.8629 43.02C23.6029 42.96 23.3796 42.8633 23.1929 42.73C23.0129 42.5967 22.8696 42.4233 22.7629 42.21C22.6629 41.9967 22.6129 41.7333 22.6129 41.42C22.6129 41.12 22.6696 40.8667 22.7829 40.66C22.9029 40.4533 23.0629 40.2867 23.2629 40.16C23.4629 40.0267 23.6929 39.9333 23.9529 39.88C24.2196 39.82 24.4962 39.79 24.7829 39.79C24.9162 39.79 25.0562 39.8 25.2029 39.82C25.3496 39.8333 25.5062 39.86 25.6729 39.9V39.7C25.6729 39.56 25.6562 39.4267 25.6229 39.3C25.5896 39.1733 25.5296 39.0633 25.4429 38.97C25.3629 38.87 25.2529 38.7933 25.1129 38.74C24.9796 38.6867 24.8096 38.66 24.6029 38.66C24.3229 38.66 24.0662 38.68 23.8329 38.72C23.5996 38.76 23.4096 38.8067 23.2629 38.86L23.1129 37.88C23.2662 37.8267 23.4896 37.7733 23.7829 37.72C24.0762 37.6667 24.3896 37.64 24.7229 37.64ZM31.3047 40.25C31.3047 39.7033 31.2347 39.31 31.0947 39.07C30.9614 38.8233 30.708 38.7 30.3347 38.7C30.2014 38.7 30.0547 38.71 29.8947 38.73C29.7347 38.75 29.6147 38.7667 29.5347 38.78V43H28.3247V37.94C28.558 37.8733 28.8614 37.81 29.2347 37.75C29.6147 37.69 30.0147 37.66 30.4347 37.66C30.7947 37.66 31.088 37.7067 31.3147 37.8C31.548 37.8933 31.7414 38.0167 31.8947 38.17C31.968 38.1167 32.0614 38.06 32.1747 38C32.288 37.94 32.4147 37.8867 32.5547 37.84C32.6947 37.7867 32.8414 37.7433 32.9947 37.71C33.1547 37.6767 33.3147 37.66 33.4747 37.66C33.8814 37.66 34.2147 37.72 34.4747 37.84C34.7414 37.9533 34.948 38.1167 35.0947 38.33C35.248 38.5367 35.3514 38.79 35.4047 39.09C35.4647 39.3833 35.4947 39.7067 35.4947 40.06V43H34.2847V40.25C34.2847 39.7033 34.218 39.31 34.0847 39.07C33.9514 38.8233 33.6947 38.7 33.3147 38.7C33.1214 38.7 32.938 38.7333 32.7647 38.8C32.5914 38.86 32.4614 38.92 32.3747 38.98C32.428 39.1467 32.4647 39.3233 32.4847 39.51C32.5047 39.6967 32.5147 39.8967 32.5147 40.11V43H31.3047V40.25ZM39.9798 39.71C39.8265 40.2967 39.6598 40.87 39.4798 41.43C39.3065 41.9833 39.1332 42.5067 38.9598 43H37.9698C37.8365 42.6933 37.6965 42.3433 37.5498 41.95C37.4032 41.5567 37.2565 41.1367 37.1098 40.69C36.9632 40.2433 36.8165 39.7733 36.6698 39.28C36.5232 38.7867 36.3798 38.2833 36.2398 37.77H37.5198C37.5798 38.05 37.6498 38.3533 37.7298 38.68C37.8098 39 37.8932 39.33 37.9798 39.67C38.0665 40.0033 38.1565 40.33 38.2498 40.65C38.3432 40.97 38.4365 41.2633 38.5298 41.53C38.6298 41.2233 38.7265 40.9067 38.8198 40.58C38.9198 40.2533 39.0132 39.9267 39.0998 39.6C39.1865 39.2733 39.2665 38.9567 39.3398 38.65C39.4198 38.3367 39.4898 38.0433 39.5498 37.77H40.4798C40.5398 38.0433 40.6065 38.3367 40.6798 38.65C40.7532 38.9567 40.8298 39.2733 40.9098 39.6C40.9965 39.9267 41.0865 40.2533 41.1798 40.58C41.2798 40.9067 41.3798 41.2233 41.4798 41.53C41.5665 41.2633 41.6565 40.97 41.7498 40.65C41.8432 40.33 41.9332 40.0033 42.0198 39.67C42.1132 39.33 42.1998 39 42.2798 38.68C42.3598 38.3533 42.4298 38.05 42.4898 37.77H43.7398C43.5998 38.2833 43.4565 38.7867 43.3098 39.28C43.1632 39.7733 43.0165 40.2433 42.8698 40.69C42.7232 41.1367 42.5765 41.5567 42.4298 41.95C42.2832 42.3433 42.1398 42.6933 41.9998 43H41.0198C40.8465 42.5067 40.6665 41.9833 40.4798 41.43C40.2998 40.87 40.1332 40.2967 39.9798 39.71ZM46.5026 42.15C46.8759 42.15 47.1592 42.13 47.3526 42.09V40.75C47.2859 40.73 47.1892 40.71 47.0626 40.69C46.9359 40.67 46.7959 40.66 46.6426 40.66C46.5092 40.66 46.3726 40.67 46.2326 40.69C46.0992 40.71 45.9759 40.7467 45.8626 40.8C45.7559 40.8533 45.6692 40.93 45.6026 41.03C45.5359 41.1233 45.5026 41.2433 45.5026 41.39C45.5026 41.6767 45.5926 41.8767 45.7726 41.99C45.9526 42.0967 46.1959 42.15 46.5026 42.15ZM46.4026 37.64C46.8026 37.64 47.1392 37.69 47.4126 37.79C47.6859 37.89 47.9026 38.03 48.0626 38.21C48.2292 38.39 48.3459 38.61 48.4126 38.87C48.4859 39.1233 48.5226 39.4033 48.5226 39.71V42.88C48.3359 42.92 48.0526 42.9667 47.6726 43.02C47.2992 43.08 46.8759 43.11 46.4026 43.11C46.0892 43.11 45.8026 43.08 45.5426 43.02C45.2826 42.96 45.0592 42.8633 44.8726 42.73C44.6926 42.5967 44.5492 42.4233 44.4426 42.21C44.3426 41.9967 44.2926 41.7333 44.2926 41.42C44.2926 41.12 44.3492 40.8667 44.4626 40.66C44.5826 40.4533 44.7426 40.2867 44.9426 40.16C45.1426 40.0267 45.3726 39.9333 45.6326 39.88C45.8992 39.82 46.1759 39.79 46.4626 39.79C46.5959 39.79 46.7359 39.8 46.8826 39.82C47.0292 39.8333 47.1859 39.86 47.3526 39.9V39.7C47.3526 39.56 47.3359 39.4267 47.3026 39.3C47.2692 39.1733 47.2092 39.0633 47.1226 38.97C47.0426 38.87 46.9326 38.7933 46.7926 38.74C46.6592 38.6867 46.4892 38.66 46.2826 38.66C46.0026 38.66 45.7459 38.68 45.5126 38.72C45.2792 38.76 45.0892 38.8067 44.9426 38.86L44.7926 37.88C44.9459 37.8267 45.1692 37.7733 45.4626 37.72C45.7559 37.6667 46.0692 37.64 46.4026 37.64ZM54.1474 37.77C53.6074 39.7567 52.9808 41.5567 52.2674 43.17C52.1341 43.47 51.9974 43.7267 51.8574 43.94C51.7174 44.1533 51.5608 44.33 51.3874 44.47C51.2141 44.61 51.0208 44.71 50.8074 44.77C50.5941 44.8367 50.3474 44.87 50.0674 44.87C49.8808 44.87 49.6941 44.85 49.5074 44.81C49.3274 44.77 49.1908 44.7267 49.0974 44.68L49.3174 43.71C49.5574 43.8033 49.7941 43.85 50.0274 43.85C50.3408 43.85 50.5841 43.7733 50.7574 43.62C50.9374 43.4733 51.0941 43.2433 51.2274 42.93C50.8474 42.1967 50.4808 41.3967 50.1274 40.53C49.7808 39.6633 49.4708 38.7433 49.1974 37.77H50.4874C50.5541 38.05 50.6341 38.3533 50.7274 38.68C50.8274 39.0067 50.9341 39.34 51.0474 39.68C51.1608 40.0133 51.2808 40.3467 51.4074 40.68C51.5341 41.0133 51.6608 41.3233 51.7874 41.61C52.0008 41.0167 52.2008 40.3867 52.3874 39.72C52.5741 39.0467 52.7441 38.3967 52.8974 37.77H54.1474Z" fill="white"/>
<rect x="11" y="49" width="43" height="15" rx="7.5" fill="#2C8EEA"/>
<path opacity="0.8" d="M24.89 56.28C25.0433 56.28 25.2033 56.2667 25.37 56.24C25.5367 56.2067 25.66 56.1633 25.74 56.11V56.02C25.74 55.9933 25.74 55.9667 25.74 55.94C25.7467 55.9133 25.75 55.89 25.75 55.87C25.7433 55.63 25.7233 55.4067 25.69 55.2C25.6567 54.9867 25.6 54.8033 25.52 54.65C25.44 54.49 25.33 54.3667 25.19 54.28C25.0567 54.1867 24.89 54.14 24.69 54.14C24.53 54.14 24.39 54.1733 24.27 54.24C24.15 54.3067 24.0533 54.3933 23.98 54.5C23.9067 54.6067 23.85 54.7233 23.81 54.85C23.7767 54.9767 23.76 55.1 23.76 55.22C23.76 55.58 23.8467 55.8467 24.02 56.02C24.2 56.1933 24.49 56.28 24.89 56.28ZM25.62 57.25C25.48 57.3167 25.3233 57.3667 25.15 57.4C24.9833 57.4267 24.84 57.44 24.72 57.44C24.2867 57.44 23.9167 57.39 23.61 57.29C23.3033 57.1833 23.05 57.0367 22.85 56.85C22.6567 56.6567 22.5133 56.4267 22.42 56.16C22.3267 55.8933 22.28 55.6 22.28 55.28C22.28 55.0133 22.3233 54.74 22.41 54.46C22.5033 54.18 22.6467 53.9267 22.84 53.7C23.0333 53.4667 23.2767 53.2767 23.57 53.13C23.87 52.9767 24.23 52.9 24.65 52.9C25.51 52.9 26.1567 53.1667 26.59 53.7C27.03 54.2267 27.25 54.9867 27.25 55.98C27.25 56.6333 27.1633 57.21 26.99 57.71C26.8233 58.21 26.56 58.63 26.2 58.97C25.8467 59.31 25.3933 59.57 24.84 59.75C24.2867 59.9233 23.63 60.0133 22.87 60.02C22.8633 59.8067 22.8533 59.6 22.84 59.4C22.8267 59.2 22.8133 58.9933 22.8 58.78C23.18 58.7733 23.5233 58.7467 23.83 58.7C24.1367 58.6467 24.4067 58.5633 24.64 58.45C24.8733 58.33 25.07 58.1733 25.23 57.98C25.3967 57.7867 25.5267 57.5433 25.62 57.25ZM33.0236 56.52C33.0236 57.6867 32.8003 58.5833 32.3536 59.21C31.9136 59.83 31.3036 60.14 30.5236 60.14C29.7436 60.14 29.1303 59.83 28.6836 59.21C28.2436 58.5833 28.0236 57.6867 28.0236 56.52C28.0236 55.94 28.0803 55.4267 28.1936 54.98C28.3136 54.5333 28.4836 54.1567 28.7036 53.85C28.9236 53.5433 29.1869 53.31 29.4936 53.15C29.8003 52.99 30.1436 52.91 30.5236 52.91C31.3036 52.91 31.9136 53.2233 32.3536 53.85C32.8003 54.47 33.0236 55.36 33.0236 56.52ZM31.5036 56.52C31.5036 56.1733 31.4869 55.86 31.4536 55.58C31.4203 55.2933 31.3669 55.0467 31.2936 54.84C31.2203 54.6333 31.1203 54.4733 30.9936 54.36C30.8669 54.2467 30.7103 54.19 30.5236 54.19C30.3369 54.19 30.1803 54.2467 30.0536 54.36C29.9336 54.4733 29.8336 54.6333 29.7536 54.84C29.6803 55.0467 29.6269 55.2933 29.5936 55.58C29.5603 55.86 29.5436 56.1733 29.5436 56.52C29.5436 56.8667 29.5603 57.1833 29.5936 57.47C29.6269 57.7567 29.6803 58.0033 29.7536 58.21C29.8336 58.4167 29.9336 58.5767 30.0536 58.69C30.1803 58.8033 30.3369 58.86 30.5236 58.86C30.7103 58.86 30.8669 58.8033 30.9936 58.69C31.1203 58.5767 31.2203 58.4167 31.2936 58.21C31.3669 58.0033 31.4203 57.7567 31.4536 57.47C31.4869 57.1833 31.5036 56.8667 31.5036 56.52ZM36.9572 57.21C36.9572 56.73 36.8939 56.39 36.7672 56.19C36.6472 55.99 36.4372 55.89 36.1372 55.89C36.0439 55.89 35.9472 55.8967 35.8472 55.91C35.7472 55.9167 35.6505 55.9267 35.5572 55.94V60H34.0672V54.92C34.1939 54.8867 34.3405 54.8533 34.5072 54.82C34.6805 54.78 34.8605 54.7467 35.0472 54.72C35.2405 54.6867 35.4372 54.6633 35.6372 54.65C35.8372 54.63 36.0339 54.62 36.2272 54.62C36.6072 54.62 36.9139 54.67 37.1472 54.77C37.3872 54.8633 37.5839 54.9767 37.7372 55.11C37.9505 54.9567 38.1939 54.8367 38.4672 54.75C38.7472 54.6633 39.0039 54.62 39.2372 54.62C39.6572 54.62 40.0005 54.68 40.2672 54.8C40.5405 54.9133 40.7572 55.0767 40.9172 55.29C41.0772 55.5033 41.1872 55.7567 41.2472 56.05C41.3072 56.3433 41.3372 56.67 41.3372 57.03V60H39.8472V57.21C39.8472 56.73 39.7839 56.39 39.6572 56.19C39.5372 55.99 39.3272 55.89 39.0272 55.89C38.9472 55.89 38.8339 55.91 38.6872 55.95C38.5472 55.99 38.4305 56.04 38.3372 56.1C38.3839 56.2533 38.4139 56.4167 38.4272 56.59C38.4405 56.7567 38.4472 56.9367 38.4472 57.13V60H36.9572V57.21Z" fill="white"/>
<g opacity="0.6" clip-path="url(#clip0)">
<path d="M35.3174 16.571H31.9584H31.7814H31.5284H31.3574H28.2784C27.2174 16.571 26.3584 17.241 26.3584 18.068V25.21C26.3584 26.02 27.1834 26.678 28.2134 26.704L26.3584 30.537H27.7984L29.6504 26.707H33.9454L35.7954 30.532H37.2364L35.3844 26.704C36.4114 26.676 37.2364 26.018 37.2364 25.21V18.068C37.2374 17.242 36.3774 16.571 35.3174 16.571ZM29.8764 17.086H31.6134L31.6304 17.12L31.6504 17.086H33.7154V17.848H29.8764V17.086ZM28.9954 25.477C28.5404 25.477 28.1724 25.109 28.1724 24.654C28.1724 24.2 28.5404 23.831 28.9954 23.831C29.4504 23.831 29.8184 24.2 29.8184 24.654C29.8184 25.109 29.4504 25.477 28.9954 25.477ZM34.7214 25.477C34.2664 25.477 33.8974 25.109 33.8974 24.654C33.8974 24.2 34.2664 23.831 34.7214 23.831C35.1764 23.831 35.5434 24.2 35.5434 24.654C35.5434 25.109 35.1764 25.477 34.7214 25.477ZM35.9284 20.739C35.9284 21.565 35.0694 22.235 34.0104 22.235H29.5844C28.5244 22.235 27.6644 21.565 27.6644 20.739V19.99C27.6644 19.163 28.5244 18.493 29.5844 18.493H34.0104C35.0694 18.493 35.9284 19.163 35.9284 19.99V20.739Z" fill="white"/>
<path d="M29.6963 14.2881V15.9921H33.8973V14.2881H33.3193V15.5391H30.2753V14.2881H29.6963Z" fill="white"/>
<path d="M26.9572 14.7861C27.0002 14.7611 31.3462 12.2891 36.6122 14.8041C36.6842 14.8381 36.7622 14.8531 36.8392 14.8531C36.9852 14.8531 37.1302 14.7961 37.2122 14.6921C37.3352 14.5311 37.2732 14.3231 37.0672 14.2251C31.3012 11.4721 26.4832 14.2151 26.4352 14.2431C26.2442 14.3551 26.2052 14.5681 26.3492 14.7181C26.4922 14.8681 26.7652 14.8981 26.9572 14.7861Z" fill="white"/>
</g>
<defs>
<linearGradient id="paint0_linear" x1="-8.87651e-07" y1="38.5" x2="42.1135" y2="-5.61892" gradientUnits="userSpaceOnUse">
<stop offset="0.135417" stop-color="#6FB9FF"/>
<stop offset="1" stop-color="#2C8EEA"/>
</linearGradient>
<linearGradient id="paint1_linear" x1="25" y1="96.5" x2="45.7466" y2="70.0928" gradientUnits="userSpaceOnUse">
<stop offset="0.135417" stop-color="#6FB9FF"/>
<stop offset="1" stop-color="#2C8EEA"/>
</linearGradient>
<clipPath id="clip0">
<rect width="17.537" height="17.537" fill="white" transform="translate(23 13)"/>
</clipPath>
</defs>
</svg>
