<svg width="21" height="20" viewBox="0 0 21 20" fill="none" xmlns="http://www.w3.org/2000/svg">
<path d="M10.2629 16C8.20156 16 6.37934 14.9333 5.3157 13.3333C5.34044 11.6666 8.61382 10.75 10.2629 10.75C11.9119 10.75 15.1853 11.6666 15.2101 13.3333C14.665 14.1536 13.9286 14.8259 13.0659 15.2909C12.2032 15.756 11.2406 15.9995 10.2629 16ZM10.2629 4.16663C10.9189 4.16663 11.5481 4.43002 12.012 4.89886C12.4759 5.3677 12.7365 6.00358 12.7365 6.66663C12.7365 7.32967 12.4759 7.96555 12.012 8.43439C11.5481 8.90323 10.9189 9.16663 10.2629 9.16663C9.60685 9.16663 8.97768 8.90323 8.51379 8.43439C8.0499 7.96555 7.78929 7.32967 7.78929 6.66663C7.78929 6.00358 8.0499 5.3677 8.51379 4.89886C8.97768 4.43002 9.60685 4.16663 10.2629 4.16663ZM10.2629 1.66663C9.18009 1.66663 8.10791 1.88217 7.10754 2.30096C6.10717 2.71975 5.19822 3.33358 4.43257 4.1074C2.88628 5.67021 2.01758 7.78982 2.01758 9.99996C2.01758 12.2101 2.88628 14.3297 4.43257 15.8925C5.19822 16.6663 6.10717 17.2802 7.10754 17.699C8.10791 18.1177 9.18009 18.3333 10.2629 18.3333C12.4497 18.3333 14.5469 17.4553 16.0932 15.8925C17.6395 14.3297 18.5082 12.2101 18.5082 9.99996C18.5082 5.39163 14.7978 1.66663 10.2629 1.66663Z" fill="#2C8EEA" fill-opacity="0.51"/>
</svg>
