<svg width="149" height="224" viewBox="0 0 149 224" fill="none" xmlns="http://www.w3.org/2000/svg">
<path d="M142.162 223.972H7.4023L0 7.21777H134.76L142.162 223.972Z" fill="#4186D5"/>
<path d="M148.898 217.234H14.1386L6.73633 0.479858H141.496L148.898 217.234Z" fill="#2C8EEA"/>
<path opacity="0.3" d="M148.898 217.234H14.1386L6.73633 0.479858H141.496L148.898 217.234Z" fill="#2C8EEA"/>
<path d="M114.166 62.6401C114.925 83.6133 98.5071 100.506 77.534 100.506C56.5608 100.506 39.0041 83.5184 38.3398 62.6401C37.5805 41.667 53.9985 24.7745 74.9716 24.7745C95.8499 24.7745 113.407 41.667 114.166 62.6401Z" fill="#4186D5"/>
<path d="M107.523 62.6401C107.713 68.0495 106.479 73.0792 104.297 77.5396C99.2669 87.3144 89.2074 93.9575 77.2498 93.9575C65.3872 93.9575 54.7582 87.3144 49.159 77.5396C46.5967 73.0792 45.0783 68.0495 44.8885 62.6401C44.3191 45.3681 57.7951 31.3227 75.0671 31.3227C92.434 31.3227 106.954 45.3681 107.523 62.6401Z" fill="white"/>
<path opacity="0.6" d="M104.201 77.5395C99.2661 87.3144 89.2065 93.9575 77.249 93.9575C65.3863 93.9575 54.7574 87.3144 49.1582 77.5395C56.8452 72.32 66.2404 69.1882 76.3949 69.1882C86.6442 69.1882 96.1343 72.32 104.201 77.5395Z" fill="#4186D5"/>
<path opacity="0.6" d="M89.7758 51.9162C90.0605 59.6032 83.9868 65.8667 76.2998 65.8667C68.6128 65.8667 62.1596 59.6032 61.8748 51.9162C61.5901 44.2292 67.6638 37.9658 75.3508 37.9658C83.0378 37.9658 89.4911 44.2292 89.7758 51.9162Z" fill="#4186D5"/>
<path d="M121.757 138.751H35.8713L35.207 121.669H121.188L121.757 138.751Z" fill="white"/>
<path d="M122.802 169.214H36.8214L36.252 152.132H122.232L122.802 169.214Z" fill="white"/>
<path d="M108.662 193.129H52.6706L52.291 182.026H108.283L108.662 193.129Z" fill="white"/>
<path d="M81.6156 130.21C81.7105 131.918 80.287 133.342 78.5788 133.342C76.8706 133.342 75.447 131.918 75.3521 130.21C75.2572 128.502 76.6808 127.078 78.389 127.078C80.0972 127.078 81.6156 128.407 81.6156 130.21Z" fill="#263238"/>
<path d="M68.2348 130.21C68.3297 131.918 66.9061 133.342 65.1979 133.342C63.4897 133.342 62.0662 131.918 61.9713 130.21C61.8764 128.502 63.2999 127.078 65.0081 127.078C66.7163 127.078 68.1399 128.407 68.2348 130.21Z" fill="#263238"/>
<path d="M54.7602 130.21C54.8551 131.918 53.4315 133.342 51.7233 133.342C50.0151 133.342 48.5916 131.918 48.4967 130.21C48.4018 128.502 49.8253 127.078 51.5335 127.078C53.2417 127.078 54.6653 128.407 54.7602 130.21Z" fill="#263238"/>
<path d="M95.0922 130.21C95.1871 131.918 93.7636 133.342 92.0553 133.342C90.3471 133.342 88.9236 131.918 88.8287 130.21C88.7338 128.502 90.1573 127.078 91.8655 127.078C93.5738 127.078 94.9973 128.407 95.0922 130.21Z" fill="#263238"/>
<path d="M108.567 130.21C108.662 131.918 107.238 133.342 105.53 133.342C103.822 133.342 102.398 131.918 102.303 130.21C102.208 128.502 103.632 127.078 105.34 127.078C107.048 127.078 108.472 128.407 108.567 130.21Z" fill="#263238"/>
</svg>
