<svg width="33" height="33" viewBox="0 0 33 33" fill="none" xmlns="http://www.w3.org/2000/svg">
<path d="M5.83398 0H3.90039V23.332H1.9668V29.1328H3.90039V33H5.83398V29.1328H7.76758V23.332H5.83398V0ZM5.83398 27.1992H3.90039V25.2656H5.83398V27.1992Z" fill="#B9B9C5"/>
<path d="M31.0352 23.332H29.1016V0H27.168V23.332H25.2344V29.1328H27.168V33H29.1016V29.1328H31.0352V23.332ZM29.1016 27.1992H27.168V25.2656H29.1016V27.1992Z" fill="#B9B9C5"/>
<path d="M21.3672 0H19.4336V14.3086H17.5V20.1094H19.4336V33H21.3672V20.1094H23.3008V14.3086H21.3672V0ZM21.3672 18.1758H19.4336V16.2422H21.3672V18.1758Z" fill="#B9B9C5"/>
<path d="M13.5684 0H11.6348V3.45804H9.70117V9.25882H11.6348V33H13.5684V9.25882H15.502V3.45804H13.5684V0ZM13.5684 7.32523H11.6348V5.39163H13.5684V7.32523Z" fill="#B9B9C5"/>
</svg>
