<svg width="20" height="20" viewBox="0 0 20 20" fill="none" xmlns="http://www.w3.org/2000/svg">
<path d="M14.5167 10.6312L12.5138 8.42178C12.3891 8.28424 12.2744 8.00083 12.2686 7.81502L12.195 5.52256V5.45614C12.195 5.1029 11.9075 4.81543 11.5543 4.81543H9.59368H8.81458C8.49892 4.81543 8.14674 5.03904 8.01241 5.32458L5.37311 10.9308C5.30007 11.0863 5.29281 11.2599 5.35261 11.4203C5.41241 11.5805 5.53201 11.7069 5.68898 11.7761L6.07789 11.9476C6.16076 11.9841 6.24917 12.0027 6.3408 12.0027C6.59217 12.0027 6.82624 11.8598 6.93751 11.6388L8.17387 9.1791V11.6514C8.16874 11.6657 8.16127 11.6787 8.15657 11.6932L6.06721 18.2366C5.98029 18.5091 6.00677 18.7959 6.14196 19.0441C6.27715 19.2923 6.50354 19.47 6.7799 19.5445L6.91957 19.5823C7.01098 19.6071 7.1058 19.6197 7.20106 19.6197C7.6818 19.6197 8.11855 19.3034 8.26335 18.8502L10.2156 12.7361L10.908 14.4321C11.0769 14.8458 11.2593 15.5702 11.3063 16.0144L11.6375 19.137C11.6907 19.637 12.086 19.9998 12.5777 19.9998C12.6582 19.9998 12.74 19.99 12.8205 19.9706L12.9613 19.9364C13.5217 19.8008 13.9176 19.225 13.8439 18.6533L13.3534 14.8458C13.291 14.362 13.0824 13.6045 12.8882 13.1571L12.2257 11.6313C12.2172 11.6114 12.205 11.5935 12.1952 11.5743V10.5404L13.389 11.7868C13.5078 11.9109 13.6667 11.9792 13.8363 11.9792C14.0078 11.9792 14.1679 11.9096 14.2871 11.7832L14.5079 11.5487C14.7441 11.2977 14.7482 10.8864 14.5167 10.6312Z" fill="#2C8EEA"/>
<path d="M10.3625 4.27247C11.5405 4.27247 12.4988 3.31418 12.4988 2.13613C12.4988 0.95829 11.5405 0 10.3625 0C9.18464 0 8.22656 0.95829 8.22656 2.13613C8.22635 3.31418 9.18464 4.27247 10.3625 4.27247Z" fill="#2C8EEA"/>
</svg>
