<svg width="20" height="18" viewBox="0 0 20 18" fill="none" xmlns="http://www.w3.org/2000/svg">
<path d="M9.32022 2.67188H10.4291C10.5277 2.67188 10.577 2.71875 10.577 2.8125V15.1875C10.577 15.2812 10.5277 15.3281 10.4291 15.3281H9.32022C9.22165 15.3281 9.17236 15.2812 9.17236 15.1875V2.8125C9.17236 2.71875 9.22165 2.67188 9.32022 2.67188Z" fill="white"/>
<path d="M3.66446 8.33203H16.0845C16.183 8.33203 16.2323 8.37891 16.2323 8.47266V9.52734C16.2323 9.62109 16.183 9.66797 16.0845 9.66797H3.66446C3.56589 9.66797 3.5166 9.62109 3.5166 9.52734V8.47266C3.5166 8.37891 3.56589 8.33203 3.66446 8.33203Z" fill="white"/>
</svg>
