<svg width="13" height="13" viewBox="0 0 13 13" fill="none" xmlns="http://www.w3.org/2000/svg">
<path d="M12.4503 10.4346V12.5273C12.4503 12.7884 12.2386 13 11.9776 13H1.02153C0.760472 13 0.548828 12.7884 0.548828 12.5273V10.4346C0.548828 9.51148 1.09867 8.6927 1.95136 8.34303L4.0233 7.31405C4.13851 7.25689 4.27206 7.2492 4.3932 7.2925C4.51427 7.33592 4.61247 7.42693 4.66504 7.54435L5.58516 9.60028L5.73958 9.08334L5.55497 8.63219C5.49535 8.48641 5.51218 8.32052 5.59997 8.18968C5.68777 8.05896 5.83493 7.9805 5.99244 7.9805H7.0066C7.1641 7.9805 7.31127 8.05896 7.39907 8.18968C7.48686 8.32046 7.50375 8.48635 7.44407 8.63219L7.25953 9.08334L7.41394 9.60028L8.33407 7.54435C8.38663 7.42693 8.48476 7.33592 8.6059 7.2925C8.72704 7.24914 8.86059 7.25695 8.9758 7.31405L11.0477 8.34303C11.9004 8.6927 12.4503 9.51141 12.4503 10.4346ZM8.93389 3.91156C8.93389 3.91156 8.91889 3.90734 8.93389 3.91156V3.91156ZM9.8065 4.53716C9.60109 5.3226 9.13577 5.55813 8.82952 5.62607C8.65557 5.96465 8.32921 6.54645 7.99706 6.85642C7.84479 6.99854 7.64941 7.11741 7.41634 7.20987C7.12421 7.32577 6.81569 7.38452 6.49955 7.38452C6.18341 7.38452 5.87489 7.32571 5.5827 7.20987C5.34963 7.11735 5.15425 6.99848 5.00204 6.85642C4.66989 6.54639 4.34347 5.96465 4.16958 5.62607C3.8634 5.55813 3.39801 5.3226 3.19267 4.53716C3.07172 4.07461 3.10695 3.69103 3.29748 3.39701C3.36215 3.29724 3.43658 3.22085 3.51095 3.16242C3.51379 3.06234 3.52142 2.94246 3.53635 2.81011C3.53698 2.80412 3.53686 2.79819 3.53768 2.79221C3.53862 2.78565 3.53988 2.77859 3.54083 2.77191C3.60222 2.26978 3.77636 1.59186 4.24755 1.03345C4.38205 0.874053 4.52814 0.739239 4.67909 0.625287C5.10988 0.255258 5.67831 0 6.41346 0C6.44169 0 6.47024 0.000630266 6.49898 0.00132356C6.49911 0.00132356 6.49942 0.00132356 6.49955 0.00132356C6.51008 0.00132356 6.56516 0.00176475 6.65334 0.00901281C8.5505 0.132986 9.25879 1.53905 9.37193 2.29883C9.45506 2.63722 9.48203 2.94498 9.48827 3.16242C9.56271 3.22085 9.63708 3.29724 9.70175 3.39701C9.89221 3.69103 9.92744 4.07461 9.8065 4.53716ZM8.54533 3.4047L8.54061 3.40432C8.54092 3.40029 8.5563 3.18707 8.52069 2.8904C8.31081 2.90483 8.04452 2.91776 7.76116 2.91776C7.05746 2.91776 6.54235 2.84118 6.18637 2.68361C5.89544 2.55485 5.65777 2.41165 5.46907 2.2764C5.40188 2.39993 5.3195 2.52296 5.21961 2.63086C4.96485 2.90597 4.67361 3.08137 4.45648 3.18537C4.45238 3.31835 4.45812 3.40142 4.45837 3.40432C4.47885 3.63954 4.32286 3.852 4.09603 3.90532C4.07643 3.92089 4.03874 4.03648 4.10712 4.29798C4.17261 4.54832 4.27856 4.70002 4.39175 4.70664C4.43341 4.6941 4.47388 4.68805 4.51276 4.68805C4.68167 4.68805 4.82147 4.8008 4.90227 4.97463C5.06002 5.31346 5.40188 5.93654 5.64699 6.16533C5.72149 6.23485 5.84048 6.3004 5.98796 6.35233C6.31784 6.46855 6.68088 6.46855 7.01076 6.35233C7.15831 6.3004 7.27736 6.23485 7.35192 6.16527C7.59798 5.93553 7.93927 5.31308 8.09658 4.97457C8.19585 4.76097 8.38424 4.63977 8.60628 4.70633C8.72181 4.69788 8.82675 4.54655 8.89179 4.29791C8.95242 4.06604 8.93459 3.97131 8.93383 3.91143C8.93364 3.89681 8.93459 3.89946 8.9349 3.90412C8.97467 3.6563 8.7958 3.42644 8.54533 3.4047Z" fill="#C2C3C6"/>
</svg>
