<svg width="11" height="8" viewBox="0 0 11 8" fill="none" xmlns="http://www.w3.org/2000/svg">
<path d="M10.4984 2.32401C10.4984 2.32401 10.3964 1.61001 10.0904 1.30401C9.71639 0.89601 9.27439 0.89601 9.07039 0.86201C7.64239 0.76001 5.50039 0.76001 5.50039 0.76001C5.50039 0.76001 3.35839 0.76001 1.93039 0.86201C1.72639 0.89601 1.28439 0.89601 0.910391 1.30401C0.604391 1.61001 0.502391 2.32401 0.502391 2.32401C0.502391 2.32401 0.400391 3.14001 0.400391 3.95601V4.70401C0.400391 5.52001 0.502391 6.37001 0.502391 6.37001C0.502391 6.37001 0.604391 7.08401 0.910391 7.39001C1.28439 7.79801 1.79439 7.79801 2.03239 7.83201C2.84839 7.86601 5.50039 7.90001 5.50039 7.90001C5.50039 7.90001 7.64239 7.90001 9.07039 7.79801C9.27439 7.76401 9.71639 7.76401 10.0904 7.35601C10.3964 7.05001 10.4984 6.33601 10.4984 6.33601C10.4984 6.33601 10.6004 5.52001 10.6004 4.70401V3.95601C10.6004 3.14001 10.4984 2.32401 10.4984 2.32401ZM4.44639 5.65601V2.80001L7.20039 4.22801L4.44639 5.65601Z" fill="#7B7C80"/>
</svg>
