<svg width="11" height="9" viewBox="0 0 11 9" fill="none" xmlns="http://www.w3.org/2000/svg">
<path d="M11 1.06154C10.5955 1.23603 10.1553 1.36162 9.70184 1.41053C10.1726 1.13085 10.5251 0.689009 10.6933 0.167894C10.2516 0.430685 9.76761 0.614958 9.26295 0.71254C9.05202 0.487049 8.79692 0.307413 8.51354 0.184825C8.23015 0.0622367 7.92455 -0.000676556 7.61579 5.48665e-06C6.36654 5.48665e-06 5.36186 1.01262 5.36186 2.25526C5.36186 2.42976 5.38301 2.60426 5.41738 2.77215C3.54681 2.67432 1.8785 1.78068 0.769379 0.412456C0.567285 0.757639 0.461381 1.15067 0.462685 1.55066C0.462685 2.33326 0.860594 3.02332 1.46737 3.42916C1.10979 3.41508 0.760578 3.31679 0.448143 3.1423V3.17006C0.448143 4.26596 1.22281 5.17414 2.25526 5.38301C2.0614 5.43337 1.86199 5.45913 1.6617 5.45969C1.51496 5.45969 1.37616 5.44514 1.23603 5.42532C1.52157 6.31896 2.35308 6.96804 3.34323 6.98919C2.56856 7.59597 1.59825 7.9529 0.544646 7.9529C0.355606 7.9529 0.181108 7.94629 0 7.92514C0.999399 8.56628 2.18519 8.93643 3.4622 8.93643C7.60786 8.93643 9.87634 5.50199 9.87634 2.52098C9.87634 2.42315 9.87634 2.32533 9.86973 2.2275C10.3086 1.90627 10.6933 1.50836 11 1.06154Z" fill="#7B7C80"/>
</svg>
