<svg width="9" height="9" viewBox="0 0 9 9" fill="none" xmlns="http://www.w3.org/2000/svg">
<path d="M2.04403 8.9998V2.92751H0.1148V8.9998H2.04403ZM1.07967 2.09794C1.75242 2.09794 2.17118 1.63166 2.17118 1.04896C2.15865 0.453126 1.75245 -0.000213623 1.09243 -0.000213623C0.432519 -0.000213623 0.000976562 0.453135 0.000976562 1.04896C0.000976562 1.63169 0.419632 2.09794 1.06707 2.09794H1.07961H1.07967ZM3.11186 8.9998H5.04109V5.60873C5.04109 5.42725 5.05362 5.24595 5.10457 5.11622C5.24403 4.75362 5.56147 4.37806 6.09441 4.37806C6.79251 4.37806 7.0718 4.93491 7.0718 5.75121V8.99975H9.00091V5.51796C9.00091 3.65279 8.04913 2.78495 6.77981 2.78495C5.73907 2.78495 5.28211 3.39354 5.02825 3.80806H5.04113V2.92738H3.1119C3.13722 3.49717 3.1119 8.99967 3.1119 8.99967L3.11186 8.9998Z" fill="#7B7C80"/>
</svg>
