<svg width="19" height="19" viewBox="0 0 19 19" fill="none" xmlns="http://www.w3.org/2000/svg">
<path d="M17.0439 0H1.95565C1.18408 0 0.558594 0.625491 0.558594 1.39706V17.6029C0.558594 18.3745 1.18408 19 1.95565 19H17.0439C17.8155 19 18.4409 18.3745 18.4409 17.6029V1.39706C18.4409 0.625491 17.8155 0 17.0439 0ZM16.7645 14.5294H15.088L10.8968 6.14706L8.10271 11.7353L6.70565 8.94118L3.91154 14.5294H2.23506V1.67647H16.7645V14.5294Z" fill="#2C8EEA"/>
<path d="M5.5876 6.70588C6.51349 6.70588 7.26407 5.9553 7.26407 5.02941C7.26407 4.10352 6.51349 3.35294 5.5876 3.35294C4.66171 3.35294 3.91113 4.10352 3.91113 5.02941C3.91113 5.9553 4.66171 6.70588 5.5876 6.70588Z" fill="#2C8EEA"/>
</svg>
