<svg width="20" height="20" viewBox="0 0 20 20" fill="none" xmlns="http://www.w3.org/2000/svg">
<path d="M10.0003 1.66667C5.40033 1.66667 1.66699 5.40001 1.66699 10C1.66699 14.6 5.40033 18.3333 10.0003 18.3333H14.167V16.6667H10.0003C6.38366 16.6667 3.33366 13.6167 3.33366 10C3.33366 6.38334 6.38366 3.33334 10.0003 3.33334C13.617 3.33334 16.667 6.38334 16.667 10V11.1917C16.667 11.85 16.0753 12.5 15.417 12.5C14.7587 12.5 14.167 11.85 14.167 11.1917V10C14.167 7.70001 12.3003 5.83334 10.0003 5.83334C7.70033 5.83334 5.83366 7.70001 5.83366 10C5.83366 12.3 7.70033 14.1667 10.0003 14.1667C11.1503 14.1667 12.2003 13.7 12.9503 12.9417C13.492 13.6833 14.4253 14.1667 15.417 14.1667C17.0587 14.1667 18.3337 12.8333 18.3337 11.1917V10C18.3337 5.40001 14.6003 1.66667 10.0003 1.66667ZM10.0003 12.5C8.61699 12.5 7.50033 11.3833 7.50033 10C7.50033 8.61667 8.61699 7.50001 10.0003 7.50001C11.3837 7.50001 12.5003 8.61667 12.5003 10C12.5003 11.3833 11.3837 12.5 10.0003 12.5Z" fill="#D1D8DA"/>
</svg>
