<svg width="12" height="12" viewBox="0 0 12 12" fill="none" xmlns="http://www.w3.org/2000/svg">
<path d="M6.25438 4.42003C5.24447 4.42003 4.4203 5.2442 4.4203 6.25411C4.4203 7.26402 5.24447 8.08819 6.25438 8.08819C7.26429 8.08819 8.08846 7.26402 8.08846 6.25411C8.08846 5.2442 7.26429 4.42003 6.25438 4.42003ZM11.7552 6.25411C11.7552 5.49461 11.7621 4.74199 11.7195 3.98387C11.6768 3.10329 11.4759 2.32178 10.832 1.67785C10.1867 1.03255 9.40658 0.833047 8.526 0.790394C7.7665 0.747741 7.01388 0.754621 6.25576 0.754621C5.49626 0.754621 4.74364 0.747741 3.98552 0.790394C3.10494 0.833047 2.32342 1.03393 1.6795 1.67785C1.0342 2.32315 0.834695 3.10329 0.792042 3.98387C0.749389 4.74337 0.756269 5.49599 0.756269 6.25411C0.756269 7.01223 0.749389 7.76623 0.792042 8.52435C0.834695 9.40493 1.03558 10.1864 1.6795 10.8304C2.3248 11.4757 3.10494 11.6752 3.98552 11.7178C4.74501 11.7605 5.49763 11.7536 6.25576 11.7536C7.01526 11.7536 7.76788 11.7605 8.526 11.7178C9.40658 11.6752 10.1881 11.4743 10.832 10.8304C11.4773 10.1851 11.6768 9.40493 11.7195 8.52435C11.7635 7.76623 11.7552 7.01361 11.7552 6.25411ZM6.25438 9.07609C4.69273 9.07609 3.4324 7.81576 3.4324 6.25411C3.4324 4.69246 4.69273 3.43213 6.25438 3.43213C7.81603 3.43213 9.07636 4.69246 9.07636 6.25411C9.07636 7.81576 7.81603 9.07609 6.25438 9.07609ZM9.19194 3.97561C8.82732 3.97561 8.53288 3.68117 8.53288 3.31655C8.53288 2.95194 8.82732 2.6575 9.19194 2.6575C9.55655 2.6575 9.851 2.95194 9.851 3.31655C9.8511 3.40313 9.83413 3.48888 9.80105 3.56889C9.76797 3.6489 9.71942 3.7216 9.6582 3.78282C9.59698 3.84404 9.52429 3.89258 9.44428 3.92567C9.36427 3.95875 9.27852 3.97572 9.19194 3.97561Z" fill="#7B7C80"/>
</svg>
