<svg width="20" height="20" viewBox="0 0 20 20" fill="none" xmlns="http://www.w3.org/2000/svg">
<path d="M10.0003 16C7.91699 16 6.07533 14.9333 5.00033 13.3333C5.02533 11.6667 8.33366 10.75 10.0003 10.75C11.667 10.75 14.9753 11.6667 15.0003 13.3333C14.4494 14.1537 13.7052 14.826 12.8333 15.291C11.9614 15.756 10.9885 15.9995 10.0003 16ZM10.0003 4.16667C10.6634 4.16667 11.2993 4.43006 11.7681 4.89891C12.2369 5.36775 12.5003 6.00363 12.5003 6.66667C12.5003 7.32971 12.2369 7.9656 11.7681 8.43444C11.2993 8.90328 10.6634 9.16667 10.0003 9.16667C9.33728 9.16667 8.7014 8.90328 8.23256 8.43444C7.76372 7.9656 7.50033 7.32971 7.50033 6.66667C7.50033 6.00363 7.76372 5.36775 8.23256 4.89891C8.7014 4.43006 9.33728 4.16667 10.0003 4.16667ZM10.0003 1.66667C8.90598 1.66667 7.82234 1.88222 6.8113 2.30101C5.80025 2.7198 4.88159 3.33363 4.10777 4.10745C2.54497 5.67025 1.66699 7.78987 1.66699 10C1.66699 12.2101 2.54497 14.3298 4.10777 15.8926C4.88159 16.6664 5.80025 17.2802 6.8113 17.699C7.82234 18.1178 8.90598 18.3333 10.0003 18.3333C12.2105 18.3333 14.3301 17.4554 15.8929 15.8926C17.4557 14.3298 18.3337 12.2101 18.3337 10C18.3337 5.39167 14.5837 1.66667 10.0003 1.66667Z" fill="#D1D8DA"/>
</svg>
