<svg width="25" height="17" viewBox="0 0 25 17" fill="none" xmlns="http://www.w3.org/2000/svg">
<path d="M14.4355 13.6622C14.3731 13.5619 14.2734 13.4905 14.1583 13.4638C14.0432 13.4371 13.9223 13.4573 13.8221 13.52C12.4513 14.3734 10.7677 14.5599 9.24336 14.027C7.71905 13.4942 6.51823 12.2994 5.97769 10.7778H11.1821C11.4276 10.7778 11.6266 10.5788 11.6266 10.3333C11.6266 10.0879 11.4276 9.88888 11.1821 9.88888H5.74658C5.63951 9.30113 5.63951 8.69886 5.74658 8.11111H11.1821C11.4276 8.11111 11.6266 7.91212 11.6266 7.66666C11.6266 7.4212 11.4276 7.22222 11.1821 7.22222H5.97769C6.5165 5.70366 7.71297 4.51011 9.23284 3.975C10.7527 3.4399 12.433 3.62061 13.8044 4.46666C14.013 4.59676 14.2876 4.53308 14.4177 4.32444C14.5478 4.1158 14.4841 3.8412 14.2755 3.71111C12.6285 2.69225 10.6011 2.49834 8.79084 3.18654C6.98062 3.87474 5.59405 5.36657 5.03991 7.22222H2.01769C1.77223 7.22222 1.57324 7.4212 1.57324 7.66666C1.57324 7.91212 1.77223 8.11111 2.01769 8.11111H4.8488C4.80387 8.40532 4.7801 8.70238 4.77769 9C4.7801 9.29761 4.80387 9.59467 4.8488 9.88888H2.01769C1.77223 9.88888 1.57324 10.0879 1.57324 10.3333C1.57324 10.5788 1.77223 10.7778 2.01769 10.7778H5.03991C5.59526 12.6379 6.98696 14.1323 8.80294 14.8184C10.6189 15.5045 12.6511 15.3037 14.2977 14.2756C14.3973 14.2125 14.4678 14.1125 14.4936 13.9974C14.5195 13.8824 14.4985 13.7618 14.4355 13.6622Z" fill="black"/>
<circle cx="22" cy="3" r="3" fill="#FF9376"/>
</svg>
