<svg width="25" height="25" viewBox="0 0 25 25" fill="none" xmlns="http://www.w3.org/2000/svg">
<path fill-rule="evenodd" clip-rule="evenodd" d="M20.6736 9.36801C20.2024 9.35491 19.7352 9.27781 19.2847 9.13884V9.53467C19.2847 12.3541 17.6042 14.8611 16.375 16.6944L16.125 17.0625C14.9306 18.8541 13.3472 20.8611 12.4931 21.8541C11.6736 20.8611 10.0556 18.8541 8.86111 17.0625L8.625 16.6666C7.39583 14.8333 5.70833 12.2702 5.70833 9.5069C5.7169 7.13192 6.9667 4.93431 9.00349 3.7128C11.0403 2.49129 13.5675 2.42373 15.6667 3.53467C15.7219 3.05718 15.8435 2.58972 16.0278 2.14578C13.4926 0.921343 10.5052 1.09034 8.12429 2.5929C5.74335 4.09546 4.30521 6.7193 4.31944 9.53467C4.31944 12.7777 6.13889 15.493 7.47222 17.4722L7.71527 17.8333C9.04186 19.7559 10.465 21.6102 11.9792 23.3888L12.5069 24.0069L13.0347 23.3888C14.5487 21.61 15.9718 19.7558 17.2986 17.8333L17.5417 17.4652L17.5497 17.4533C18.8753 15.4752 20.6875 12.7712 20.6875 9.53467C20.6806 9.47912 20.6736 9.42356 20.6736 9.36801ZM12.5 4.66674C10.3024 4.66674 8.52084 6.44827 8.52084 8.64591C8.52084 10.8435 10.3024 12.6251 12.5 12.6251C14.6976 12.6251 16.4792 10.8435 16.4792 8.64591C16.4792 7.59057 16.0599 6.57845 15.3137 5.83221C14.5675 5.08597 13.5553 4.66674 12.5 4.66674ZM9.90973 8.64579C9.90973 10.0764 11.0694 11.2361 12.5 11.2361V11.2291C13.9279 11.2291 15.0865 10.0736 15.0903 8.64579C15.0903 7.21522 13.9306 6.05551 12.5 6.05551C11.0694 6.05551 9.90973 7.21522 9.90973 8.64579Z" fill="black"/>
<path d="M20.8336 7.63883C22.7512 7.63883 24.3058 6.08426 24.3058 4.1666C24.3058 2.24895 22.7512 0.694382 20.8336 0.694382C18.9159 0.694382 17.3613 2.24895 17.3613 4.1666C17.3613 6.08426 18.9159 7.63883 20.8336 7.63883Z" fill="#FF9376"/>
</svg>
