<svg width="21" height="21" viewBox="0 0 21 21" fill="none" xmlns="http://www.w3.org/2000/svg">
<path d="M4.65404 12.6906L3.92306 15.4194L1.25135 15.4759C0.452895 13.995 0 12.3006 0 10.5C0 8.75884 0.423445 7.1169 1.17403 5.67114H1.17461L3.55318 6.10722L4.59514 8.47153C4.37706 9.10731 4.2582 9.78981 4.2582 10.5C4.25828 11.2708 4.3979 12.0092 4.65404 12.6906Z" fill="#FBBB00"/>
<path d="M20.8162 8.53845C20.9368 9.17362 20.9996 9.82958 20.9996 10.5C20.9996 11.2517 20.9206 11.985 20.77 12.6923C20.2589 15.0992 18.9233 17.201 17.0731 18.6883L17.0726 18.6877L14.0766 18.5348L13.6526 15.8879C14.8803 15.1679 15.8397 14.0411 16.3451 12.6923H10.7305V8.53845H16.427H20.8162Z" fill="#518EF8"/>
<path d="M17.0735 18.6877L17.0741 18.6882C15.2747 20.1346 12.9889 21 10.5006 21C6.50195 21 3.02543 18.765 1.25195 15.4759L4.65465 12.6906C5.54137 15.0571 7.82425 16.7417 10.5006 16.7417C11.651 16.7417 12.7287 16.4307 13.6535 15.8878L17.0735 18.6877Z" fill="#28B446"/>
<path d="M17.2019 2.4173L13.8004 5.20209C12.8433 4.60384 11.7119 4.25824 10.4998 4.25824C7.76287 4.25824 5.43728 6.02015 4.59498 8.47153L1.1744 5.67115H1.17383C2.92134 2.30192 6.44171 0 10.4998 0C13.0475 0 15.3834 0.907512 17.2019 2.4173Z" fill="#F14336"/>
</svg>
