<svg width="25" height="25" viewBox="0 0 25 25" fill="none" xmlns="http://www.w3.org/2000/svg">
<path fill-rule="evenodd" clip-rule="evenodd" d="M15.1876 3.47222H7.63894V8.22917H6.25005V3.47222C6.25005 2.70516 6.87188 2.08333 7.63894 2.08333H15.9723L15.1876 3.47222ZM11.8056 6.94444V8.33333H12.8959C12.8618 7.85142 12.9653 7.36975 13.1945 6.94444H11.8056ZM20.8334 10.6944V18.0556H15.2778V11.8056C15.2778 11.0385 14.656 10.4167 13.8889 10.4167H4.16672C3.39966 10.4167 2.77783 11.0385 2.77783 11.8056V21.5278C2.77783 22.2948 3.39966 22.9167 4.16672 22.9167H13.8889C14.656 22.9167 15.2778 22.2948 15.2778 21.5278V19.4444H20.8334C21.6005 19.4444 22.2223 18.8226 22.2223 18.0556V10.6944H20.8334ZM4.16672 11.8056V21.5278H13.8889V19.4444H11.1112C10.3441 19.4444 9.72228 18.8226 9.72228 18.0556V13.8889H11.1112V18.0556H13.8889V11.8056H4.16672ZM17.3682 10.6944H18.7501V12.5H17.3682V10.6944Z" fill="black"/>
<path d="M18.646 0.791667L14.6738 7.63889C14.4854 7.91549 14.4683 8.27448 14.6296 8.56774C14.7909 8.861 15.1032 9.03881 15.4377 9.02778H23.3891C23.7236 9.03881 24.0359 8.861 24.1972 8.56774C24.3585 8.27448 24.3414 7.91549 24.153 7.63889L20.1808 0.791667C20.0214 0.519013 19.7292 0.351421 19.4134 0.351421C19.0976 0.351421 18.8055 0.519013 18.646 0.791667Z" fill="#FF9376"/>
</svg>
