<svg width="71" height="29" viewBox="0 0 71 29" fill="none" xmlns="http://www.w3.org/2000/svg">
<g opacity="0.5">
<path fill-rule="evenodd" clip-rule="evenodd" d="M15.9277 19.3237C16.5276 18.6943 17.3582 18.3367 18.2277 18.3334H18.2341C19.9983 18.3334 21.4285 19.7636 21.4285 21.5278C21.4285 23.2921 19.9983 24.7223 18.2341 24.7223C16.4698 24.7223 15.0396 23.2921 15.0396 21.5278C15.0404 21.1548 15.1075 20.7849 15.2377 20.4353L7.53266 16.5573C6.67787 17.6027 5.25807 17.9977 3.98621 17.5439C2.71436 17.0901 1.86523 15.8856 1.86523 14.5352C1.86523 13.1848 2.71436 11.9803 3.98621 11.5265C5.25807 11.0727 6.67787 11.4677 7.53266 12.5131L15.2568 8.58394C14.6576 7.01259 15.3475 5.24292 16.8521 4.49174C18.3568 3.74055 20.1858 4.25266 21.0816 5.67593C21.9775 7.0992 21.6481 8.96982 20.3201 10.0016C18.992 11.0333 17.0981 10.8899 15.9404 9.67005L8.13961 13.6376C8.33119 14.2185 8.33119 14.8455 8.13961 15.4264L15.9277 19.3237ZM20.1445 7.47227C20.1445 6.41373 19.2864 5.55561 18.2278 5.55561C17.1693 5.55561 16.3112 6.41373 16.3112 7.47227C16.3112 8.53082 17.1693 9.38894 18.2278 9.38894C19.2864 9.38894 20.1445 8.53082 20.1445 7.47227ZM5.11116 16.4167C4.05261 16.4167 3.19449 15.5586 3.19449 14.5C3.19449 13.4415 4.05261 12.5834 5.11116 12.5834C6.16971 12.5834 7.02783 13.4415 7.02783 14.5C7.02783 15.5586 6.16971 16.4167 5.11116 16.4167ZM16.3112 21.5278C16.3112 22.5864 17.1693 23.4445 18.2278 23.4445C19.2864 23.4445 20.1445 22.5864 20.1445 21.5278C20.1445 20.4693 19.2864 19.6112 18.2278 19.6112C17.1693 19.6112 16.3112 20.4693 16.3112 21.5278Z" fill="#737373"/>
</g>
<rect x="42" width="29" height="29" rx="6" fill="#D4D6DC"/>
<path d="M60.4997 6.66671H57.583L56.7497 5.83337H52.583L51.7497 6.66671H48.833V8.33337H60.4997V6.66671ZM61.333 12.5C60.7497 12.5 60.1913 12.5834 59.6663 12.7417V9.16671H49.6663V19.1667C49.6663 20.0834 50.4163 20.8334 51.333 20.8334H56.0663C56.6346 22.0286 57.5924 22.9951 58.7825 23.574C59.9727 24.1529 61.3243 24.3098 62.6154 24.0191C63.9065 23.7283 65.0603 23.007 65.8873 21.9738C66.7143 20.9406 67.1654 19.6568 67.1663 18.3334C67.1663 15.1084 64.558 12.5 61.333 12.5ZM61.333 22.5C59.033 22.5 57.1663 20.6334 57.1663 18.3334C57.1663 16.0334 59.033 14.1667 61.333 14.1667C63.633 14.1667 65.4997 16.0334 65.4997 18.3334C65.4997 20.6334 63.633 22.5 61.333 22.5Z" fill="white"/>
<path d="M61.75 15H60.5V19.1667L63.5 20.9167L64.1667 19.9167L61.75 18.5V15Z" fill="white"/>
</svg>
