<svg width="30" height="30" viewBox="0 0 30 30" fill="none" xmlns="http://www.w3.org/2000/svg">
<path d="M15.0586 24.668C14.5728 24.668 14.1797 25.0611 14.1797 25.5469V29.1211C14.1797 29.6069 14.5728 30 15.0586 30C15.5444 30 15.9375 29.6069 15.9375 29.1211V25.5469C15.9375 25.0611 15.5444 24.668 15.0586 24.668Z" fill="#8C92A4"/>
<path d="M11.543 26.4258C11.0572 26.4258 10.6641 26.8189 10.6641 27.3047V29.1211C10.6641 29.6069 11.0572 30 11.543 30C12.0288 30 12.4219 29.6069 12.4219 29.1211V27.3047C12.4219 26.8189 12.0288 26.4258 11.543 26.4258Z" fill="#8C92A4"/>
<path d="M18.5742 26.4258C18.0884 26.4258 17.6953 26.8189 17.6953 27.3047V29.1211C17.6953 29.6069 18.0884 30 18.5742 30C19.06 30 19.4531 29.6069 19.4531 29.1211V27.3047C19.4531 26.8189 19.06 26.4258 18.5742 26.4258Z" fill="#8C92A4"/>
<path d="M25.6055 26.4258C25.1197 26.4258 24.7266 26.8189 24.7266 27.3047V29.1211C24.7266 29.6069 25.1197 30 25.6055 30C26.0913 30 26.4844 29.6069 26.4844 29.1211V27.3047C26.4844 26.8189 26.0913 26.4258 25.6055 26.4258Z" fill="#8C92A4"/>
<path d="M22.0898 24.668C21.604 24.668 21.2109 25.0611 21.2109 25.5469V29.1211C21.2109 29.6069 21.604 30 22.0898 30C22.5756 30 22.9688 29.6069 22.9688 29.1211V25.5469C22.9688 25.0611 22.5756 24.668 22.0898 24.668Z" fill="#8C92A4"/>
<path d="M29.1211 17.6367C24.9529 17.6367 12.1938 17.6367 8.02734 17.6367C7.54154 17.6367 7.08984 18.0298 7.08984 18.5156C7.08984 19.0014 7.54154 19.3945 8.02734 19.3945H9.06814C9.33369 20.1391 9.91945 20.7249 10.6641 20.9904V23.7891C10.6641 24.2749 11.0572 24.668 11.543 24.668C12.0288 24.668 12.4219 24.2749 12.4219 23.7891V21.1523H14.1797V22.0312C14.1797 22.5171 14.5728 22.9102 15.0586 22.9102C15.5444 22.9102 15.9375 22.5171 15.9375 22.0312V21.1523H17.6953V23.7891C17.6953 24.2749 18.0884 24.668 18.5742 24.668C19.06 24.668 19.4531 24.2749 19.4531 23.7891V21.1523H21.2109V22.0312C21.2109 22.5171 21.604 22.9102 22.0898 22.9102C22.5756 22.9102 22.9688 22.5171 22.9688 22.0312V21.1523H24.7266V23.7891C24.7266 24.2749 25.1197 24.668 25.6055 24.668C26.0913 24.668 26.4844 24.2749 26.4844 23.7891V20.9904C27.229 20.7249 27.8147 20.1391 28.0803 19.3945H29.1211C29.6069 19.3945 30 19.0014 30 18.5156C30 18.0298 29.6069 17.6367 29.1211 17.6367Z" fill="#8C92A4"/>
<path d="M3.57422 0H0.878906C0.393516 0 0 0.393516 0 0.878906V6.15234C0 6.63773 0.393516 7.03125 0.878906 7.03125H3.57422C4.54506 7.03125 5.33203 6.24428 5.33203 5.27344V1.75781C5.33203 0.786973 4.54506 0 3.57422 0Z" fill="#8C92A4"/>
<path d="M18.5745 8.78906C14.1585 8.78906 10.4329 11.8271 9.28125 15.8789H27.8677C26.7161 11.8271 22.9904 8.78906 18.5745 8.78906Z" fill="#8C92A4"/>
<path d="M14.1797 1.75781H7.08984V5.27344H14.1797C15.3836 5.27344 16.3877 6.08508 16.7036 7.18746C17.3151 7.08469 17.9402 7.03125 18.5742 7.03125C19.1448 7.03125 19.7048 7.08844 20.2576 7.17193C19.8888 4.12641 17.3246 1.75781 14.1797 1.75781Z" fill="#8C92A4"/>
</svg>
