<svg width="30" height="30" viewBox="0 0 30 30" fill="none" xmlns="http://www.w3.org/2000/svg">
<g clip-path="url(#clip0)">
<path d="M23.5014 0H6.499C5.89549 0 5.4043 0.491191 5.4043 1.09471V21.85H24.5961V1.09471C24.5961 0.491191 24.1049 0 23.5014 0V0ZM15.0002 18.0682C11.0613 18.0682 7.85727 14.8635 7.85727 10.9247C7.85727 6.98643 11.0614 3.78176 15.0002 3.78176C18.939 3.78176 22.1431 6.98649 22.1431 10.9247C22.1431 14.8635 18.939 18.0682 15.0002 18.0682Z" fill="#8C92A4"/>
<path d="M5.4043 28.9058C5.4043 29.5094 5.89549 30.0005 6.499 30.0005H23.5014C24.1049 30.0005 24.5961 29.5094 24.5961 28.9058V23.6152H5.4043V28.9058ZM13.5832 25.8488H16.4173C16.9044 25.8488 17.2997 26.2435 17.2997 26.7311C17.2997 27.2182 16.9044 27.6135 16.4173 27.6135H13.5832C13.0961 27.6135 12.7008 27.2182 12.7008 26.7311C12.7008 26.2435 13.0961 25.8488 13.5832 25.8488Z" fill="#8C92A4"/>
<path d="M14.9993 5.54688C12.0334 5.54688 9.62109 7.95982 9.62109 10.9251C9.62109 13.891 12.0335 16.3039 14.9993 16.3039C17.9651 16.3039 20.3775 13.891 20.3775 10.9251C20.3776 7.95982 17.9652 5.54688 14.9993 5.54688ZM16.9434 11.8074H14.9993C14.5122 11.8074 14.1169 11.4128 14.1169 10.9251V8.73742C14.1169 8.25033 14.5122 7.85506 14.9993 7.85506C15.4864 7.85506 15.8817 8.25033 15.8817 8.73742V9.73035V10.0427H16.1593H16.9434C17.4305 10.0427 17.8257 10.438 17.8257 10.9251C17.8258 11.4128 17.4305 11.8074 16.9434 11.8074Z" fill="#8C92A4"/>
</g>
<defs>
<clipPath id="clip0">
<rect width="30" height="30" fill="white"/>
</clipPath>
</defs>
</svg>
