<svg width="16" height="16" viewBox="0 0 16 16" fill="none" xmlns="http://www.w3.org/2000/svg">
<path fill-rule="evenodd" clip-rule="evenodd" d="M12.4087 1.52001L15.0309 4.14224C15.2044 4.31423 15.3023 4.54815 15.3032 4.79243C15.304 5.03671 15.2077 5.27129 15.0354 5.44446L13.5776 6.90224L9.65313 2.97779L11.1109 1.52001C11.4698 1.16293 12.0498 1.16293 12.4087 1.52001ZM1.03091 14.4L1.87535 10.7556L8.88868 3.73333L12.8176 7.65333L5.77757 14.6667L2.11091 15.5111C2.04736 15.5175 1.98334 15.5175 1.91979 15.5111C1.64361 15.5094 1.38294 15.3832 1.2104 15.1675C1.03787 14.9518 0.971908 14.6698 1.03091 14.4Z" fill="#D1D8DA"/>
</svg>
