<svg width="23" height="23" viewBox="0 0 23 23" fill="none" xmlns="http://www.w3.org/2000/svg">
<path fill-rule="evenodd" clip-rule="evenodd" d="M15.3333 5.75027C15.8417 5.75027 16.3292 5.54833 16.6886 5.18886C17.0481 4.8294 17.25 4.34187 17.25 3.83351C17.25 3.32515 17.0481 2.83762 16.6886 2.47815C16.3292 2.11869 15.8417 1.91675 15.3333 1.91675C14.825 1.91675 14.3375 2.11869 13.978 2.47815C13.6186 2.83762 13.4167 3.32515 13.4167 3.83351C13.4167 4.34187 13.6186 4.8294 13.978 5.18886C14.3375 5.54833 14.825 5.75027 15.3333 5.75027ZM12.6912 5.29983C12.8472 5.33893 12.9909 5.41665 13.1089 5.52585C13.227 5.63505 13.3157 5.77221 13.3668 5.92469C13.5412 6.44509 13.7847 6.90033 14.0846 7.28368C14.9107 8.3379 16.2437 8.93976 18.0512 8.63883C18.177 8.61397 18.3066 8.61464 18.4322 8.64079C18.5578 8.66694 18.6768 8.71804 18.7823 8.79106C18.8878 8.86408 18.9775 8.95753 19.0462 9.06588C19.1149 9.17422 19.1611 9.29526 19.1822 9.42181C19.2032 9.54835 19.1986 9.67784 19.1687 9.80259C19.1388 9.92734 19.0841 10.0448 19.008 10.148C18.9318 10.2513 18.8357 10.3382 18.7253 10.4036C18.615 10.469 18.4926 10.5115 18.3655 10.5288C16.3185 10.8699 14.5465 10.3495 13.2672 9.20523L10.6653 11.4881L12.2207 13.2649C12.3738 13.4397 12.4583 13.6641 12.4583 13.8965V18.2092C12.4583 18.4634 12.3574 18.7072 12.1776 18.8869C11.9979 19.0666 11.7542 19.1676 11.5 19.1676C11.2458 19.1676 11.0021 19.0666 10.8224 18.8869C10.6426 18.7072 10.5417 18.4634 10.5417 18.2092V14.2569L8.59529 12.0334L8.55313 11.9855C8.32312 11.7296 7.93979 11.3002 7.77304 10.7942C7.67146 10.4827 7.63888 10.1234 7.74908 9.74384C7.8545 9.37582 8.073 9.06339 8.34325 8.79792L8.35667 8.78546L11.8 5.53272C11.917 5.42216 12.06 5.34286 12.2158 5.30216C12.3715 5.26146 12.535 5.26066 12.6912 5.29983ZM1.91667 16.2925C1.91667 15.5299 2.21957 14.7986 2.75873 14.2594C3.2979 13.7202 4.02917 13.4173 4.79167 13.4173C5.55416 13.4173 6.28543 13.7202 6.8246 14.2594C7.36377 14.7986 7.66667 15.5299 7.66667 16.2925C7.66667 17.055 7.36377 17.7863 6.8246 18.3255C6.28543 18.8647 5.55416 19.1676 4.79167 19.1676C4.02917 19.1676 3.2979 18.8647 2.75873 18.3255C2.21957 17.7863 1.91667 17.055 1.91667 16.2925ZM4.79167 11.5006C3.52084 11.5006 2.30206 12.0054 1.40345 12.9041C0.504835 13.8027 0 15.0216 0 16.2925C0 17.5633 0.504835 18.7822 1.40345 19.6808C2.30206 20.5795 3.52084 21.0844 4.79167 21.0844C6.0625 21.0844 7.28127 20.5795 8.17989 19.6808C9.0785 18.7822 9.58333 17.5633 9.58333 16.2925C9.58333 15.0216 9.0785 13.8027 8.17989 12.9041C7.28127 12.0054 6.0625 11.5006 4.79167 11.5006ZM15.3333 16.2925C15.3333 15.5299 15.6362 14.7986 16.1754 14.2594C16.7146 13.7202 17.4458 13.4173 18.2083 13.4173C18.9708 13.4173 19.7021 13.7202 20.2413 14.2594C20.7804 14.7986 21.0833 15.5299 21.0833 16.2925C21.0833 17.055 20.7804 17.7863 20.2413 18.3255C19.7021 18.8647 18.9708 19.1676 18.2083 19.1676C17.4458 19.1676 16.7146 18.8647 16.1754 18.3255C15.6362 17.7863 15.3333 17.055 15.3333 16.2925ZM18.2083 11.5006C16.9375 11.5006 15.7187 12.0054 14.8201 12.9041C13.9215 13.8027 13.4167 15.0216 13.4167 16.2925C13.4167 17.5633 13.9215 18.7822 14.8201 19.6808C15.7187 20.5795 16.9375 21.0844 18.2083 21.0844C19.4792 21.0844 20.6979 20.5795 21.5966 19.6808C22.4952 18.7822 23 17.5633 23 16.2925C23 15.0216 22.4952 13.8027 21.5966 12.9041C20.6979 12.0054 19.4792 11.5006 18.2083 11.5006Z" fill="#2C8EEA"/>
</svg>
