<svg width="31" height="31" viewBox="0 0 31 31" fill="none" xmlns="http://www.w3.org/2000/svg">
<path d="M10.1719 2.42188H19.8594V12.1094H10.1719V2.42188Z" fill="#6FB9FF"/>
<path d="M24.7031 9.6875L27.6094 14.5312H15.9844L19.8594 12.1094V4.84375H27.6094L24.7031 9.6875Z" fill="#2C8EEA"/>
<path d="M19.8594 12.1094L15.9844 14.5312V12.1094H19.8594Z" fill="#8AC4FA"/>
<path d="M14.0469 27.6094H12.5938L11.625 25.6719H10.1719V2.42188C10.1719 2.16495 10.0698 1.91854 9.88813 1.73687C9.70646 1.55519 9.46005 1.45313 9.20312 1.45312C8.9462 1.45313 8.69979 1.55519 8.51812 1.73687C8.33644 1.91854 8.23438 2.16495 8.23438 2.42188V25.6719H6.78125L5.8125 27.6094H4.35938L3.39062 29.5469H15.0156L14.0469 27.6094Z" fill="#36474F"/>
</svg>
