<svg width="8" height="8" viewBox="0 0 8 8" fill="none" xmlns="http://www.w3.org/2000/svg">
<path fill-rule="evenodd" clip-rule="evenodd" d="M0.499937 2.06499C1.20749 0.794623 2.54552 0.0050921 3.99949 5.75758e-08C5.78663 -0.000301655 7.35708 1.18522 7.84666 2.9042C8.33624 4.62318 7.62612 6.45839 6.10705 7.39994C4.58799 8.3415 2.6287 8.16088 1.30733 6.95746C1.24125 6.89717 1.21234 6.8062 1.2315 6.71882C1.25067 6.63144 1.31499 6.56092 1.40023 6.53382C1.48548 6.50673 1.57871 6.52717 1.64479 6.58746C2.76181 7.60388 4.40476 7.78903 5.71992 7.0467C7.03509 6.30438 7.72579 4.80203 7.4331 3.32032C7.14042 1.83862 5.93039 0.711809 4.43178 0.52542C2.93316 0.33903 1.48403 1.13511 0.837394 2.49999H2.19972C2.33777 2.49999 2.44969 2.61191 2.44969 2.74998C2.44969 2.88805 2.33777 2.99998 2.19972 2.99998H0V0.799996C0 0.661925 0.111915 0.549997 0.249968 0.549997C0.388022 0.549997 0.499937 0.661925 0.499937 0.799996V2.06499ZM4 2.2162C4 2.0968 4.06021 2 4.13448 2C4.20875 2 4.26895 2.0968 4.26895 2.2162V3.8723L4.94133 4.60522C5.00195 4.67176 5.01819 4.80415 4.97781 4.9027C4.93744 5.00125 4.85537 5.02954 4.79341 4.96627L4 4.10147V2.2162Z" fill="white"/>
</svg>
