<svg width="17" height="21" viewBox="0 0 17 21" fill="none" xmlns="http://www.w3.org/2000/svg">
<path fill-rule="evenodd" clip-rule="evenodd" d="M1.88889 6.68195V5.72741C1.88889 5.47426 1.98839 5.23146 2.16551 5.05245C2.34263 4.87344 2.58285 4.77288 2.83333 4.77288H6.61111C6.86159 4.77288 7.10182 4.87344 7.27893 5.05245C7.45605 5.23146 7.55556 5.47426 7.55556 5.72741V7.63649H2.83333C2.58285 7.63649 2.34263 7.53592 2.16551 7.35691C1.98839 7.1779 1.88889 6.93511 1.88889 6.68195ZM8.5 9.54556H2.83333C2.50278 9.54556 2.1845 9.48829 1.88889 9.38329V16.1166C1.88889 16.7561 2.36111 17.1819 2.83333 17.1819H14.1667C14.6389 17.1819 15.1111 16.7561 15.1111 16.1166V9.38234C14.8155 9.48733 14.4972 9.54556 14.1667 9.54556H8.5ZM9.44444 7.63649H14.1667C14.4171 7.63649 14.6574 7.53592 14.8345 7.35691C15.0116 7.1779 15.1111 6.93511 15.1111 6.68195V5.72741C15.1111 5.47426 15.0116 5.23146 14.8345 5.05245C14.6574 4.87344 14.4171 4.77288 14.1667 4.77288H10.3889C10.1384 4.77288 9.89818 4.87344 9.72107 5.05245C9.54395 5.23146 9.44444 5.47426 9.44444 5.72741V7.63649ZM14.5869 2.8953C14.4478 2.87436 14.3073 2.86383 14.1667 2.8638H10.3889C9.66356 2.8638 9.00056 3.13966 8.5 3.59307C7.98106 3.1226 7.30824 2.86283 6.61111 2.8638H2.83333C2.69072 2.8638 2.55 2.8743 2.41306 2.8953C2.64822 2.59367 2.97878 2.37508 3.45194 2.21949C4.00539 2.03622 4.71183 1.95222 5.59017 1.92359C6.18139 1.90354 6.79906 1.90831 7.46772 1.91404C7.79828 1.9169 8.14206 1.91977 8.5 1.91977C8.85794 1.91977 9.20078 1.9169 9.53228 1.91404C10.2 1.90831 10.8186 1.90354 11.4098 1.92359C12.2882 1.95222 12.9946 2.03622 13.549 2.21949C14.0212 2.37508 14.3518 2.59367 14.5869 2.8953ZM17 5.72741V16.1166C17 17.7068 15.7817 19.0909 14.1667 19.0909H13.2222V20.0455C13.2222 20.2986 13.1227 20.5414 12.9456 20.7204C12.7685 20.8994 12.5283 21 12.2778 21C12.0273 21 11.7871 20.8994 11.61 20.7204C11.4328 20.5414 11.3333 20.2986 11.3333 20.0455V19.0909H5.66667V20.0455C5.66667 20.2986 5.56716 20.5414 5.39005 20.7204C5.21293 20.8994 4.9727 21 4.72222 21C4.47174 21 4.23152 20.8994 4.0544 20.7204C3.87728 20.5414 3.77778 20.2986 3.77778 20.0455V19.0909H2.83333C1.21833 19.0909 0 17.7068 0 16.1166V5.00578C0 3.77634 0.232333 2.76262 0.748944 1.96749C1.27594 1.15614 2.02961 0.680779 2.8645 0.404917C3.67672 0.135738 4.59756 0.0460116 5.52783 0.0154664C6.19637 -0.00122363 6.86517 -0.00440605 7.53383 0.00592106C7.85683 0.00783014 8.17983 0.0106936 8.5 0.0106936C8.82017 0.0106936 9.14317 0.00783014 9.46617 0.00592106C10.1348 -0.0044063 10.8036 -0.00122389 11.4722 0.0154664C12.4024 0.0460116 13.3233 0.135738 14.1355 0.404917C14.9704 0.680779 15.7241 1.15709 16.2511 1.96749C16.7677 2.76262 17 3.77634 17 5.00578V5.72741ZM8.5 11.9319C8.12428 11.9319 7.76394 12.0828 7.49827 12.3513C7.23259 12.6198 7.08333 12.984 7.08333 13.3637C7.08333 13.7434 7.23259 14.1076 7.49827 14.3761C7.76394 14.6447 8.12428 14.7955 8.5 14.7955C8.87572 14.7955 9.23606 14.6447 9.50173 14.3761C9.76741 14.1076 9.91667 13.7434 9.91667 13.3637C9.91667 12.984 9.76741 12.6198 9.50173 12.3513C9.23606 12.0828 8.87572 11.9319 8.5 11.9319Z" fill="#2C8EEA"/>
</svg>
