<svg width="23" height="23" viewBox="0 0 23 23" fill="none" xmlns="http://www.w3.org/2000/svg">
<path d="M16.6942 12.2257L14.3909 9.6849C14.2475 9.52673 14.1156 9.20081 14.1089 8.98713L14.0242 6.3508V6.27441C14.0242 5.86818 13.6936 5.5376 13.2874 5.5376H11.0327H10.1368C9.77376 5.5376 9.36876 5.79475 9.21427 6.12312L6.17908 12.5703C6.09508 12.7491 6.08673 12.9488 6.1555 13.1332C6.22427 13.3174 6.36181 13.4628 6.54233 13.5424L6.98958 13.7396C7.08487 13.7816 7.18655 13.803 7.29192 13.803C7.58099 13.803 7.85018 13.6387 7.97814 13.3845L9.39995 10.5558V13.3989C9.39406 13.4154 9.38546 13.4304 9.38006 13.4471L6.9773 20.972C6.87733 21.2853 6.90779 21.6152 7.06326 21.9006C7.21873 22.186 7.47907 22.3903 7.79688 22.476L7.95751 22.5195C8.06263 22.548 8.17168 22.5625 8.28122 22.5625C8.83407 22.5625 9.33634 22.1988 9.50286 21.6776L11.7479 14.6464L12.5442 16.5967C12.7385 17.0725 12.9482 17.9056 13.0022 18.4164L13.3832 22.0074C13.4443 22.5824 13.899 22.9997 14.4643 22.9997C14.5569 22.9997 14.651 22.9884 14.7436 22.966L14.9054 22.9267C15.5499 22.7708 16.0053 22.1086 15.9205 21.4511L15.3564 17.0725C15.2847 16.5162 15.0447 15.645 14.8215 15.1305L14.0596 13.3759C14.0498 13.353 14.0358 13.3324 14.0245 13.3103V12.1213L15.3974 13.5547C15.534 13.6974 15.7167 13.776 15.9117 13.776C16.1089 13.776 16.2931 13.6959 16.4302 13.5505L16.6841 13.2808C16.9558 12.9922 16.9604 12.5192 16.6942 12.2257Z" fill="#2C8EEA"/>
<path d="M11.9172 4.91334C13.272 4.91334 14.374 3.81131 14.374 2.45655C14.374 1.10203 13.272 0 11.9172 0C10.5627 0 9.46094 1.10203 9.46094 2.45655C9.46069 3.81131 10.5627 4.91334 11.9172 4.91334Z" fill="#2C8EEA"/>
</svg>
