<svg width="23" height="17" viewBox="0 0 23 17" fill="none" xmlns="http://www.w3.org/2000/svg">
<path d="M22.8678 5.03675C22.7554 4.89954 22.5875 4.81945 22.4114 4.81945H20.173C19.6206 3.3625 18.901 1.93499 18.083 1.39614C15.2533 -0.465382 7.74773 -0.465382 4.91804 1.39614C4.09946 1.93558 3.38277 3.36485 2.82743 4.81945H0.589005C0.411156 4.81945 0.243907 4.89954 0.132605 5.03675C0.0207127 5.17338 -0.024044 5.35417 0.0124681 5.5279L0.344021 7.13443C0.400556 7.40827 0.642007 7.60379 0.920558 7.60379H1.58366C0.943526 8.34227 0.633173 9.27215 0.629051 10.2026C0.624928 11.3522 1.06131 12.391 1.85927 13.1259C1.86811 13.1336 1.87694 13.1389 1.88518 13.1466V15.3944C1.88518 15.8814 2.28093 16.2778 2.76854 16.2778H4.83324C5.32085 16.2778 5.71659 15.8814 5.71659 15.3944V14.491H17.2833V15.3944C17.2833 15.8814 17.679 16.2778 18.1666 16.2778H20.2313C20.7178 16.2778 21.1147 15.8814 21.1147 15.3944V13.1907C21.9615 12.4151 22.3661 11.348 22.3714 10.2827C22.3749 9.32044 22.0504 8.35641 21.3726 7.60261H22.0799C22.3596 7.60261 22.6011 7.40709 22.6564 7.13266L22.9886 5.52672C23.0227 5.35417 22.9797 5.17456 22.8678 5.03675ZM5.88797 2.87135C8.14347 1.38672 14.8564 1.38672 17.1107 2.87135C17.5489 3.15874 18.1124 4.32064 18.6289 5.74344H4.37095C4.88624 4.32123 5.44982 3.15991 5.88797 2.87135ZM3.24614 10.424C3.24614 9.46413 4.02467 8.68678 4.984 8.68678C5.9445 8.68678 6.72185 9.46413 6.72185 10.424C6.72185 11.384 5.9445 12.1619 4.984 12.1619C4.02467 12.1619 3.24614 11.384 3.24614 10.424ZM18.0388 12.1619C17.0795 12.1619 16.301 11.384 16.301 10.424C16.301 9.46413 17.0795 8.68678 18.0388 8.68678C18.9993 8.68678 19.7767 9.46413 19.7767 10.424C19.7767 11.384 18.9982 12.1619 18.0388 12.1619Z" fill="#2C8EEA"/>
</svg>
