<svg width="11" height="15" viewBox="0 0 11 15" fill="none" xmlns="http://www.w3.org/2000/svg">
<path d="M7.38701 2.27766H5.9879V0.976139H9.07901C9.2417 0.976139 9.40439 1.13883 9.40439 1.30152C9.40439 1.56182 9.63218 1.78959 9.89246 1.78959C10.1527 1.78959 10.3805 1.56182 10.3805 1.30152C10.3805 0.585683 9.79487 0 9.07901 0H1.92066C1.20482 0 0.619141 0.585683 0.619141 1.30152C0.619141 1.56182 0.846906 1.78959 1.10721 1.78959C1.36751 1.78959 1.59528 1.56182 1.59528 1.30152C1.59528 1.10629 1.72543 0.976139 1.92066 0.976139H5.01177V2.24512H3.61263C2.01827 2.24512 0.749292 3.54664 0.749292 5.10846V10.9653C0.749292 11.6161 1.20482 12.1692 1.85558 12.2668L0.911982 14.0564C0.749292 14.3818 0.879444 14.7722 1.17229 14.9349C1.2699 15 1.36751 15 1.46513 15C1.69289 15 1.92066 14.8699 2.05081 14.6421L2.24604 14.2516H8.68853L8.88376 14.6421C9.01391 14.8699 9.24167 15 9.46947 15C9.56705 15 9.66464 14.9675 9.76231 14.9349C10.0877 14.7722 10.2178 14.3818 10.0226 14.0564L9.07898 12.2668C9.69721 12.1692 10.1853 11.6161 10.1853 10.9653V5.141C10.2504 3.54664 8.94886 2.27766 7.38701 2.27766ZM8.16795 11.128C7.64734 11.128 7.2243 10.705 7.2243 10.1844C7.2243 9.6638 7.64731 9.24076 8.16795 9.24076C8.6885 9.24076 9.11155 9.66377 9.11155 10.1844C9.11155 10.705 8.68853 11.128 8.16795 11.128ZM1.92066 5.49892C1.92066 4.49024 2.73411 3.70933 3.74278 3.70933H7.32196C8.33064 3.70933 9.14409 4.52278 9.14409 5.49892V7.09328C9.14409 7.45119 8.85119 7.71152 8.49333 7.71152H2.53888C2.18096 7.71152 1.88812 7.45119 1.88812 7.09328C1.92066 7.09328 1.92066 5.49892 1.92066 5.49892ZM2.8317 9.20822C3.3523 9.20822 3.7753 9.63124 3.7753 10.1519C3.7753 10.6724 3.3523 11.0955 2.8317 11.0955C2.31109 11.0955 1.8881 10.6725 1.8881 10.1519C1.88812 9.63124 2.31111 9.20822 2.8317 9.20822ZM2.76665 13.3406L3.28725 12.3319H7.6799L8.20046 13.3406H2.76665Z" fill="white"/>
</svg>
