<svg width="12" height="13" viewBox="0 0 12 13" fill="none" xmlns="http://www.w3.org/2000/svg">
<path fill-rule="evenodd" clip-rule="evenodd" d="M3.47133 1.45333C3.394 1.56933 3.33333 1.76533 3.33333 2V8C3.33333 8.17681 3.2631 8.34638 3.13807 8.47141C3.01305 8.59643 2.84348 8.66667 2.66667 8.66667C2.48986 8.66667 2.32029 8.59643 2.19526 8.47141C2.07024 8.34638 2 8.17681 2 8V6C2 5.76533 1.94 5.56933 1.862 5.45333C1.798 5.35667 1.742 5.33333 1.66667 5.33333C1.592 5.33333 1.53533 5.35667 1.47133 5.45333C1.394 5.56933 1.33333 5.76533 1.33333 6V8.66667C1.33333 9.35533 1.8 10.0933 2.70333 10.6953C3.59133 11.288 4.796 11.6667 6 11.6667C8.44533 11.6667 10 10.1673 10 8.66667V6C10 5.76533 9.94 5.56933 9.862 5.45333C9.798 5.35667 9.742 5.33333 9.66667 5.33333C9.592 5.33333 9.53533 5.35667 9.47133 5.45333C9.394 5.56933 9.33333 5.76533 9.33333 6C9.33333 6.17681 9.2631 6.34638 9.13807 6.4714C9.01305 6.59643 8.84348 6.66667 8.66667 6.66667C8.48985 6.66667 8.32029 6.59643 8.19526 6.4714C8.07024 6.34638 8 6.17681 8 6V5.33333C8 5.09867 7.94 4.90267 7.862 4.78667C7.798 4.69 7.742 4.66667 7.66667 4.66667C7.592 4.66667 7.53533 4.69 7.47133 4.78667C7.394 4.90267 7.33333 5.09867 7.33333 5.33333V5.66667C7.33333 5.84348 7.26309 6.01305 7.13807 6.13807C7.01305 6.2631 6.84348 6.33333 6.66667 6.33333C6.48986 6.33333 6.32029 6.2631 6.19526 6.13807C6.07024 6.01305 6 5.84348 6 5.66667V5C6 4.76533 5.94 4.56933 5.862 4.45333C5.798 4.35667 5.742 4.33333 5.66667 4.33333C5.592 4.33333 5.53533 4.35667 5.47133 4.45333C5.394 4.56933 5.33333 4.76533 5.33333 5V5.33333C5.33333 5.51014 5.26309 5.67971 5.13807 5.80474C5.01305 5.92976 4.84348 6 4.66667 6C4.48986 6 4.32029 5.92976 4.19526 5.80474C4.07024 5.67971 4 5.51014 4 5.33333V2C4 1.76533 3.94 1.56933 3.862 1.45333C3.798 1.35667 3.742 1.33333 3.66667 1.33333C3.592 1.33333 3.53533 1.35667 3.47133 1.45333ZM5.33333 3.03467V2C5.33333 1.568 5.22667 1.09733 4.97133 0.713333C4.702 0.31 4.258 0 3.66667 0C3.07467 0 2.63133 0.31 2.362 0.713333C2.106 1.09733 2 1.568 2 2V4.03467C1.89042 4.01139 1.77869 3.99977 1.66667 4C1.07467 4 0.631333 4.31 0.362 4.71333C0.106 5.09733 0 5.568 0 6V8.66667C0 9.978 0.866667 11.0733 1.96333 11.8047C3.07467 12.5453 4.53733 13 6 13C8.888 13 11.3333 11.166 11.3333 8.66667V6C11.3333 5.568 11.2267 5.09733 10.9713 4.71333C10.702 4.31 10.258 4 9.66667 4C9.44601 3.99855 9.22766 4.04495 9.02667 4.136C9.00904 4.10572 8.99059 4.07593 8.97133 4.04667C8.702 3.64333 8.258 3.33333 7.66667 3.33333C7.354 3.33333 7.08267 3.42 6.85733 3.56C6.71344 3.38349 6.53175 3.24154 6.32567 3.14462C6.1196 3.0477 5.89439 2.99828 5.66667 3C5.55 3 5.43867 3.012 5.33333 3.03467Z" fill="#7E90A6"/>
</svg>
