<svg width="12" height="13" viewBox="0 0 12 13" fill="none" xmlns="http://www.w3.org/2000/svg">
<path fill-rule="evenodd" clip-rule="evenodd" d="M2.00065 1.3361C1.82387 1.3361 1.65433 1.40632 1.52932 1.53133C1.40432 1.65633 1.33409 1.82587 1.33409 2.00265C1.33409 2.17944 1.40432 2.34898 1.52932 2.47398C1.65433 2.59899 1.82387 2.66921 2.00065 2.66921C2.17743 2.66921 2.34697 2.59899 2.47198 2.47398C2.59698 2.34898 2.66721 2.17944 2.66721 2.00265C2.66721 1.82587 2.59698 1.65633 2.47198 1.53133C2.34697 1.40632 2.17743 1.3361 2.00065 1.3361ZM0.000978638 2.00265C0.000275091 1.53041 0.166726 1.07316 0.47085 0.711886C0.774974 0.350609 1.19714 0.108623 1.66259 0.0287871C2.12803 -0.0510489 2.60671 0.0364172 3.01385 0.275694C3.42098 0.51497 3.7303 0.890616 3.88701 1.3361H8.11298C8.24777 0.954569 8.49509 0.622888 8.8223 0.384845C9.14952 0.146801 9.54122 0.0135893 9.94572 0.00279565C10.3502 -0.00799795 10.7485 0.104134 11.0879 0.324389C11.4274 0.544643 11.692 0.862662 11.847 1.23646C12.0019 1.61026 12.0398 2.02226 11.9558 2.41806C11.8717 2.81387 11.6695 3.17487 11.376 3.45341C11.0825 3.73194 10.7114 3.91492 10.3118 3.97817C9.91211 4.04142 9.50266 3.98198 9.13748 3.80769L3.80502 9.13948C3.83568 9.20281 3.86301 9.26813 3.88634 9.33478H8.11365C8.27089 8.88986 8.58037 8.51486 8.98737 8.27605C9.39438 8.03725 9.87271 7.95002 10.3378 8.02979C10.8029 8.10956 11.2248 8.35119 11.529 8.71197C11.8332 9.07275 12 9.52945 12 10.0013C12 10.4732 11.8332 10.9299 11.529 11.2907C11.2248 11.6515 10.8029 11.8931 10.3378 11.9729C9.87271 12.0527 9.39438 11.9654 8.98737 11.7266C8.58037 11.4878 8.27089 11.1128 8.11365 10.6679H3.88634C3.75149 11.0494 3.50411 11.3811 3.17684 11.6191C2.84958 11.8571 2.45783 11.9902 2.05332 12.0009C1.64881 12.0117 1.25056 11.8994 0.911156 11.6791C0.571749 11.4588 0.307146 11.1407 0.152284 10.7668C-0.00257765 10.393 -0.0404164 9.98097 0.0437639 9.58517C0.127944 9.18937 0.330185 8.82841 0.623784 8.54994C0.917382 8.27147 1.28853 8.0886 1.68823 8.02546C2.08793 7.96232 2.49737 8.02189 2.86251 8.1963L8.19497 2.86451C8.16417 2.80092 8.13681 2.73573 8.11298 2.66921H3.88634C3.7286 3.11343 3.41905 3.48768 3.01229 3.72592C2.60553 3.96417 2.12769 4.0511 1.66309 3.9714C1.19848 3.89169 0.776944 3.65046 0.472849 3.29027C0.168754 2.93007 0.00163703 2.47405 0.000978638 2.00265V2.00265ZM9.99934 1.3361C9.82255 1.3361 9.65301 1.40632 9.52801 1.53133C9.40301 1.65633 9.33278 1.82587 9.33278 2.00265C9.33278 2.17944 9.40301 2.34898 9.52801 2.47398C9.65301 2.59899 9.82255 2.66921 9.99934 2.66921C10.1761 2.66921 10.3457 2.59899 10.4707 2.47398C10.5957 2.34898 10.6659 2.17944 10.6659 2.00265C10.6659 1.82587 10.5957 1.65633 10.4707 1.53133C10.3457 1.40632 10.1761 1.3361 9.99934 1.3361ZM1.33409 10.0013C1.33409 9.82456 1.40432 9.65502 1.52932 9.53001C1.65433 9.40501 1.82387 9.33478 2.00065 9.33478C2.17743 9.33478 2.34697 9.40501 2.47198 9.53001C2.59698 9.65502 2.66721 9.82456 2.66721 10.0013C2.66721 10.1781 2.59698 10.3477 2.47198 10.4727C2.34697 10.5977 2.17743 10.6679 2.00065 10.6679C1.82387 10.6679 1.65433 10.5977 1.52932 10.4727C1.40432 10.3477 1.33409 10.1781 1.33409 10.0013ZM9.99934 9.33478C9.82255 9.33478 9.65301 9.40501 9.52801 9.53001C9.40301 9.65502 9.33278 9.82456 9.33278 10.0013C9.33278 10.1781 9.40301 10.3477 9.52801 10.4727C9.65301 10.5977 9.82255 10.6679 9.99934 10.6679C10.1761 10.6679 10.3457 10.5977 10.4707 10.4727C10.5957 10.3477 10.6659 10.1781 10.6659 10.0013C10.6659 9.82456 10.5957 9.65502 10.4707 9.53001C10.3457 9.40501 10.1761 9.33478 9.99934 9.33478Z" fill="#7E90A6"/>
</svg>
