<svg width="12" height="15" viewBox="0 0 12 15" fill="none" xmlns="http://www.w3.org/2000/svg">
<path fill-rule="evenodd" clip-rule="evenodd" d="M6.53571 0.950159C5.17886 -0.135841 3.58543 -0.102412 2.448 0.136731C1.75543 0.282445 1.05086 0.522445 0.432 0.873874C0.300685 0.948883 0.191552 1.0573 0.11568 1.18812C0.0398083 1.31894 -0.000102238 1.4675 1.96686e-07 1.61873V13.6187C1.96686e-07 13.8461 0.0903062 14.0641 0.251052 14.2248C0.411797 14.3856 0.629815 14.4759 0.857143 14.4759C1.08447 14.4759 1.30249 14.3856 1.46323 14.2248C1.62398 14.0641 1.71429 13.8461 1.71429 13.6187V9.01587C2.89371 8.51873 4.392 8.2873 5.46429 9.14445C6.82114 10.2304 8.41457 10.197 9.55114 9.95787C10.1909 9.82147 10.8107 9.6043 11.3957 9.31159C11.7317 9.14187 12 8.8813 12 8.47587V1.61873C12 1.46868 11.9606 1.32126 11.8858 1.1912C11.811 1.06114 11.7033 0.952998 11.5736 0.877593C11.4439 0.802187 11.2966 0.762157 11.1466 0.761504C10.9965 0.760851 10.8489 0.799599 10.7186 0.873874C9.48514 1.54759 7.71514 1.89387 6.53571 0.949302V0.950159ZM1.71429 2.15873V7.1893C3.32657 6.6733 5.16086 6.70673 6.53571 7.80645C7.32171 8.43559 8.29972 8.46902 9.19886 8.28045C9.57117 8.2 9.93506 8.08463 10.2857 7.93587V2.90444C10.0443 2.98205 9.79917 3.04728 9.55114 3.09987C8.41457 3.33902 6.82114 3.37245 5.46429 2.2873C4.392 1.43016 2.89371 1.66073 1.71429 2.15787V2.15873Z" fill="#7E90A6"/>
</svg>
