<svg width="17" height="21" viewBox="0 0 17 21" fill="none" xmlns="http://www.w3.org/2000/svg">
<path fill-rule="evenodd" clip-rule="evenodd" d="M1.88889 6.61098V5.66658C1.88889 5.41611 1.98839 5.1759 2.16551 4.99879C2.34263 4.82168 2.58285 4.72218 2.83333 4.72218H6.61111C6.86159 4.72218 7.10182 4.82168 7.27893 4.99879C7.45605 5.1759 7.55556 5.41611 7.55556 5.66658V7.55538H2.83333C2.58285 7.55538 2.34263 7.45588 2.16551 7.27877C1.98839 7.10166 1.88889 6.86145 1.88889 6.61098ZM8.5 9.44417H2.83333C2.50278 9.44417 2.1845 9.38751 1.88889 9.28363V15.9454C1.88889 16.5782 2.36111 16.9994 2.83333 16.9994H14.1667C14.6389 16.9994 15.1111 16.5782 15.1111 15.9454V9.28268C14.8155 9.38657 14.4972 9.44417 14.1667 9.44417H8.5ZM9.44444 7.55538H14.1667C14.4171 7.55538 14.6574 7.45588 14.8345 7.27877C15.0116 7.10166 15.1111 6.86145 15.1111 6.61098V5.66658C15.1111 5.41611 15.0116 5.1759 14.8345 4.99879C14.6574 4.82168 14.4171 4.72218 14.1667 4.72218H10.3889C10.1384 4.72218 9.89818 4.82168 9.72107 4.99879C9.54395 5.1759 9.44444 5.41611 9.44444 5.66658V7.55538ZM14.5869 2.86455C14.4478 2.84383 14.3073 2.83341 14.1667 2.83339H10.3889C9.66356 2.83339 9.00056 3.10632 8.5 3.55491C7.98106 3.08943 7.30824 2.83242 6.61111 2.83339H2.83333C2.69072 2.83339 2.55 2.84377 2.41306 2.86455C2.64822 2.56612 2.97878 2.34985 3.45194 2.19592C4.00539 2.01459 4.71183 1.93149 5.59017 1.90315C6.18139 1.88332 6.79906 1.88804 7.46772 1.89371C7.79828 1.89654 8.14206 1.89938 8.5 1.89938C8.85794 1.89938 9.20078 1.89654 9.53228 1.89371C10.2 1.88804 10.8186 1.88332 11.4098 1.90315C12.2882 1.93149 12.9946 2.01459 13.549 2.19592C14.0212 2.34985 14.3518 2.56612 14.5869 2.86455ZM17 5.66658V15.9454C17 17.5188 15.7817 18.8882 14.1667 18.8882H13.2222V19.8326C13.2222 20.083 13.1227 20.3232 12.9456 20.5003C12.7685 20.6775 12.5283 20.7769 12.2778 20.7769C12.0273 20.7769 11.7871 20.6775 11.61 20.5003C11.4328 20.3232 11.3333 20.083 11.3333 19.8326V18.8882H5.66667V19.8326C5.66667 20.083 5.56716 20.3232 5.39005 20.5003C5.21293 20.6775 4.9727 20.7769 4.72222 20.7769C4.47174 20.7769 4.23152 20.6775 4.0544 20.5003C3.87728 20.3232 3.77778 20.083 3.77778 19.8326V18.8882H2.83333C1.21833 18.8882 0 17.5188 0 15.9454V4.95262C0 3.73623 0.232333 2.73328 0.748944 1.9466C1.27594 1.14386 2.02961 0.673548 2.8645 0.400617C3.67672 0.134296 4.59756 0.0455229 5.52783 0.0153021C6.19637 -0.00121063 6.86517 -0.00435925 7.53383 0.00585817C7.85683 0.00774697 8.17983 0.01058 8.5 0.01058C8.82017 0.01058 9.14317 0.00774697 9.46617 0.00585817C10.1348 -0.0043595 10.8036 -0.00121089 11.4722 0.0153021C12.4024 0.0455229 13.3233 0.134296 14.1355 0.400617C14.9704 0.673548 15.7241 1.1448 16.2511 1.9466C16.7677 2.73328 17 3.73623 17 4.95262V5.66658ZM8.5 11.8052C8.12428 11.8052 7.76394 11.9544 7.49826 12.2201C7.23259 12.4857 7.08333 12.8461 7.08333 13.2218C7.08333 13.5975 7.23259 13.9578 7.49826 14.2234C7.76394 14.4891 8.12428 14.6384 8.5 14.6384C8.87572 14.6384 9.23606 14.4891 9.50173 14.2234C9.76741 13.9578 9.91667 13.5975 9.91667 13.2218C9.91667 12.8461 9.76741 12.4857 9.50173 12.2201C9.23606 11.9544 8.87572 11.8052 8.5 11.8052Z" fill="#F86689"/>
</svg>
