<svg width="90" height="48" viewBox="0 0 90 48" fill="none" xmlns="http://www.w3.org/2000/svg">
<ellipse cx="35.9341" cy="45.6709" rx="7.31989" ry="2.32906" fill="#9FD1FF"/>
<path d="M35.934 45.3382L22.6793 22.3804L49.1887 22.3804L35.934 45.3382Z" fill="#2C8EEA"/>
<rect y="12.7315" width="71.868" height="24.6214" rx="12.3107" fill="#2C8EEA"/>
<rect x="58.5596" y="8.07334" width="13.9743" height="13.3089" rx="4" fill="#6CB8FF"/>
<g clip-path="url(#clip0)">
<path d="M69.1207 14.8379L66.1262 11.5107C66.0001 11.3703 65.7579 11.3703 65.6318 11.5107L62.6373 14.8379C62.5942 14.8857 62.5659 14.945 62.5558 15.0085C62.5458 15.0721 62.5544 15.1372 62.5807 15.1959C62.6339 15.316 62.753 15.3932 62.8845 15.3932H63.5499V17.7223C63.5499 17.8105 63.585 17.8952 63.6474 17.9576C63.7098 18.0199 63.7944 18.055 63.8826 18.055H64.8808C64.9691 18.055 65.0537 18.0199 65.1161 17.9576C65.1785 17.8952 65.2135 17.8105 65.2135 17.7223V16.3914H66.5444V17.7223C66.5444 17.8105 66.5795 17.8952 66.6419 17.9576C66.7043 18.0199 66.7889 18.055 66.8771 18.055H67.8753C67.9636 18.055 68.0482 18.0199 68.1106 17.9576C68.173 17.8952 68.208 17.8105 68.208 17.7223V15.3932H68.8735C68.9379 15.3935 69.001 15.375 69.0552 15.34C69.1093 15.3051 69.152 15.2551 69.1782 15.1962C69.2044 15.1374 69.213 15.0721 69.2027 15.0085C69.1925 14.9449 69.164 14.8856 69.1207 14.8379V14.8379Z" fill="white"/>
</g>
<defs>
<clipPath id="clip0">
<rect width="7.98533" height="7.98533" fill="white" transform="translate(61.8867 10.7351)"/>
</clipPath>
</defs>
</svg>
