<svg width="12" height="12" viewBox="0 0 12 12" fill="none" xmlns="http://www.w3.org/2000/svg">
<g clip-path="url(#clip0)">
<path d="M5.91376 5.78043C6.70789 5.78043 7.39554 5.49561 7.9574 4.93367C8.51926 4.37181 8.80408 3.68434 8.80408 2.89013C8.80408 2.09618 8.51926 1.40862 7.95731 0.846585C7.39536 0.284819 6.70779 0 5.91376 0C5.11954 0 4.43207 0.284819 3.87021 0.846676C3.30835 1.40853 3.02344 2.09609 3.02344 2.89013C3.02344 3.68434 3.30835 4.3719 3.8703 4.93376C4.43225 5.49552 5.11981 5.78043 5.91376 5.78043Z" fill="#2C8EEA"/>
<path d="M10.9718 9.22731C10.9556 8.99349 10.9228 8.73842 10.8745 8.46908C10.8258 8.19771 10.7631 7.94118 10.688 7.70672C10.6105 7.46438 10.505 7.22506 10.3747 6.99572C10.2393 6.75769 10.0804 6.55041 9.90207 6.37985C9.71558 6.20141 9.48724 6.05795 9.22321 5.95331C8.96008 5.84921 8.66849 5.79648 8.35657 5.79648C8.23407 5.79648 8.1156 5.84674 7.88681 5.9957C7.746 6.08752 7.5813 6.19372 7.39746 6.31119C7.24026 6.41134 7.02731 6.50519 6.76428 6.59015C6.50766 6.67318 6.2471 6.7153 5.98993 6.7153C5.73276 6.7153 5.47229 6.67318 5.21539 6.59015C4.95264 6.50528 4.73969 6.41144 4.58267 6.31128C4.40057 6.19491 4.23578 6.08871 4.09286 5.9956C3.86435 5.84665 3.74579 5.79639 3.62329 5.79639C3.31128 5.79639 3.01978 5.84921 2.75674 5.9534C2.49289 6.05786 2.26447 6.20132 2.07779 6.37994C1.89954 6.5506 1.74051 6.75778 1.60538 6.99572C1.4751 7.22506 1.36963 7.46429 1.29199 7.70681C1.21701 7.94128 1.1543 8.19771 1.10559 8.46908C1.05734 8.73806 1.02457 8.99321 1.00836 9.22759C0.992432 9.4572 0.984375 9.69551 0.984375 9.9362C0.984375 10.5626 1.1835 11.0697 1.57617 11.4437C1.96399 11.8128 2.47714 12 3.10117 12H8.87924C9.50327 12 10.0162 11.8128 10.4041 11.4437C10.7969 11.07 10.996 10.5628 10.996 9.93611C10.9959 9.69432 10.9878 9.45583 10.9718 9.22731Z" fill="#2C8EEA"/>
</g>
<defs>
<clipPath id="clip0">
<rect width="12" height="12" fill="white"/>
</clipPath>
</defs>
</svg>
