<svg width="17" height="18" viewBox="0 0 17 18" fill="none" xmlns="http://www.w3.org/2000/svg">
<path d="M8.26288 15.0001C6.20156 15.0001 4.37934 13.9334 3.3157 12.3334C3.34044 10.6667 6.61382 9.75008 8.26288 9.75008C9.91194 9.75008 13.1853 10.6667 13.2101 12.3334C12.665 13.1538 11.9286 13.826 11.0659 14.2911C10.2032 14.7561 9.24061 14.9996 8.26288 15.0001ZM8.26288 3.16675C8.91892 3.16675 9.54809 3.43014 10.012 3.89898C10.4759 4.36782 10.7365 5.00371 10.7365 5.66675C10.7365 6.32979 10.4759 6.96567 10.012 7.43452C9.54809 7.90336 8.91892 8.16675 8.26288 8.16675C7.60685 8.16675 6.97768 7.90336 6.51379 7.43452C6.0499 6.96567 5.78929 6.32979 5.78929 5.66675C5.78929 5.00371 6.0499 4.36782 6.51379 3.89898C6.97768 3.43014 7.60685 3.16675 8.26288 3.16675ZM8.26288 0.666748C7.18009 0.666748 6.10791 0.882296 5.10754 1.30109C4.10717 1.71987 3.19822 2.3337 2.43257 3.10752C0.886277 4.67033 0.0175781 6.78994 0.0175781 9.00008C0.0175781 11.2102 0.886277 13.3298 2.43257 14.8926C3.19822 15.6665 4.10717 16.2803 5.10754 16.6991C6.10791 17.1179 7.18009 17.3334 8.26288 17.3334C10.4497 17.3334 12.5469 16.4554 14.0932 14.8926C15.6395 13.3298 16.5082 11.2102 16.5082 9.00008C16.5082 4.39175 12.7978 0.666748 8.26288 0.666748Z" fill="#D1D8DA"/>
</svg>
