<svg width="10" height="10" viewBox="0 0 10 10" fill="none" xmlns="http://www.w3.org/2000/svg">
<path d="M9.5 2.00069H7V1.16569C6.98827 0.845599 6.8501 0.543219 6.61579 0.324835C6.38147 0.106452 6.07012 -0.0101142 5.75 0.00068922H4.25C3.92988 -0.0101142 3.61853 0.106452 3.38421 0.324835C3.1499 0.543219 3.01173 0.845599 3 1.16569V2.00069H0.5C0.367392 2.00069 0.240215 2.05337 0.146447 2.14714C0.0526784 2.2409 0 2.36808 0 2.50069C0 2.6333 0.0526784 2.76047 0.146447 2.85424C0.240215 2.94801 0.367392 3.00069 0.5 3.00069H1V8.50069C1 8.89852 1.15804 9.28005 1.43934 9.56135C1.72064 9.84266 2.10218 10.0007 2.5 10.0007H7.5C7.89782 10.0007 8.27936 9.84266 8.56066 9.56135C8.84196 9.28005 9 8.89852 9 8.50069V3.00069H9.5C9.63261 3.00069 9.75979 2.94801 9.85355 2.85424C9.94732 2.76047 10 2.6333 10 2.50069C10 2.36808 9.94732 2.2409 9.85355 2.14714C9.75979 2.05337 9.63261 2.00069 9.5 2.00069ZM4 1.16569C4 1.08569 4.105 1.00069 4.25 1.00069H5.75C5.895 1.00069 6 1.08569 6 1.16569V2.00069H4V1.16569Z" fill="#E12D39"/>
</svg>
