<svg width="10" height="10" viewBox="0 0 10 10" fill="none" xmlns="http://www.w3.org/2000/svg">
<path d="M7.75463 3.68057C8.09414 3.40279 8.31019 3.17131 8.40278 2.98612C8.20216 3.07872 7.96296 3.14816 7.68519 3.19446C7.96296 2.99384 8.14815 2.74693 8.24074 2.45372C7.9321 2.62347 7.64661 2.7315 7.38426 2.77779C7.19908 2.56174 6.95988 2.43443 6.66667 2.39585C6.37346 2.35727 6.09954 2.39585 5.84491 2.51159C5.59028 2.62733 5.3858 2.82023 5.23148 3.09029C5.07716 3.36035 5.03858 3.65742 5.11574 3.9815C4.08179 3.91977 3.1713 3.46452 2.38426 2.61575C2.21451 2.9244 2.17978 3.26004 2.28009 3.6227C2.3804 3.98535 2.5463 4.23612 2.77778 4.37501C2.60803 4.35958 2.42284 4.30557 2.22222 4.21298C2.23765 4.87656 2.57716 5.31637 3.24074 5.53242C3.05556 5.57872 2.87037 5.58643 2.68519 5.55557C2.87037 6.11112 3.27932 6.41977 3.91204 6.4815C3.68056 6.68211 3.37963 6.83258 3.00926 6.93288C2.63889 7.03319 2.29167 7.0602 1.96759 7.0139C2.66204 7.446 3.37191 7.64662 4.09722 7.61575C5.17747 7.56946 6.05324 7.18751 6.72454 6.46992C7.39583 5.75233 7.7392 4.82254 7.75463 3.68057ZM8.88889 0.069458C9.16667 0.069458 9.40201 0.165909 9.59491 0.35881C9.78781 0.551711 9.88426 0.779335 9.88426 1.04168V8.95835C9.88426 9.22069 9.78781 9.44832 9.59491 9.64122C9.40201 9.83412 9.16667 9.93057 8.88889 9.93057H0.995371C0.717593 9.93057 0.482253 9.83412 0.289352 9.64122C0.0964506 9.44832 0 9.22069 0 8.95835V1.04168C0 0.779335 0.0964506 0.551711 0.289352 0.35881C0.482253 0.165909 0.717593 0.069458 0.995371 0.069458H8.88889Z" fill="black"/>
</svg>
