<svg width="10" height="13" viewBox="0 0 10 13" fill="none" xmlns="http://www.w3.org/2000/svg">
<path d="M8.18713 9.232L9.41913 9.936C9.10979 10.6613 8.65646 11.2213 8.05913 11.616C7.47246 12.0107 6.77379 12.208 5.96313 12.208C4.78979 12.208 3.82979 11.8133 3.08313 11.024C2.33646 10.2347 1.86713 9.15733 1.67513 7.792H0.507125V6.752H1.57913V6.4C1.57913 6.176 1.58446 6.01067 1.59513 5.904H0.507125V4.88H1.69113C1.90446 3.55733 2.37913 2.512 3.11513 1.744C3.86179 0.975999 4.81113 0.591999 5.96313 0.591999C7.59513 0.591999 8.74179 1.33333 9.40313 2.816L8.17113 3.52C7.72313 2.528 6.98713 2.032 5.96313 2.032C5.23779 2.032 4.63513 2.27733 4.15513 2.768C3.68579 3.25867 3.36579 3.96267 3.19513 4.88H6.98713V5.904H3.08313C3.07246 6.01067 3.06713 6.176 3.06713 6.4V6.752H6.98713V7.792H3.17913C3.32846 8.74133 3.64313 9.472 4.12313 9.984C4.60313 10.496 5.21646 10.752 5.96313 10.752C7.01913 10.752 7.76046 10.2453 8.18713 9.232Z" fill="#8C92A4"/>
</svg>
